<svg width="94" height="94" viewBox="0 0 94 94" fill="none" xmlns="http://www.w3.org/2000/svg">
<mask id="mask0_1384_2997" style="mask-type:alpha" maskUnits="userSpaceOnUse" x="0" y="0" width="94" height="94">
<circle cx="46.9977" cy="47.0001" r="46.943" fill="#D9D9D9"/>
</mask>
<g mask="url(#mask0_1384_2997)">
<g filter="url(#filter0_f_1384_2997)">
<ellipse cx="56.6359" cy="50.4198" rx="42.9016" ry="18.0311" fill="#F11F1B"/>
</g>
<g filter="url(#filter1_d_1384_2997)">
<path d="M21.8125 31.767C21.8125 27.6464 25.153 24.3059 29.2736 24.3059H147.408C151.529 24.3059 154.869 27.6464 154.869 31.767V69.0728C154.869 73.1934 151.529 76.5339 147.408 76.5339H29.2736C25.153 76.5339 21.8125 73.1934 21.8125 69.0728V31.767Z" fill="white" shape-rendering="crispEdges"/>
<path d="M21.999 31.767C21.999 27.7494 25.256 24.4924 29.2736 24.4924H147.408C151.426 24.4924 154.683 27.7494 154.683 31.767V69.0728C154.683 73.0904 151.426 76.3474 147.408 76.3474H29.2736C25.256 76.3474 21.999 73.0904 21.999 69.0728V31.767Z" stroke="#D9D9D9" stroke-width="0.373057" shape-rendering="crispEdges"/>
<path d="M35.5017 34.0742C35.2482 33.5426 34.4928 33.5426 34.2393 34.0742L33.4615 35.7038L31.6713 35.9393C31.0883 36.0166 30.8544 36.7351 31.2813 37.1402L32.5907 38.3836L32.2623 40.1586C32.1548 40.7372 32.7665 41.1815 33.2835 40.9012L34.8705 40.0394L36.4575 40.9012C36.9745 41.1815 37.5862 40.7372 37.4787 40.1586L37.1502 38.3836L38.4597 37.1402C38.8861 36.7351 38.6527 36.0166 38.0696 35.9393L36.279 35.7038L35.5017 34.0742Z" fill="#FFB934"/>
<path d="M46.697 34.0742C46.4435 33.5426 45.6881 33.5426 45.4346 34.0742L44.6568 35.7038L42.8667 35.9393C42.2836 36.0166 42.0497 36.7351 42.4766 37.1402L43.7861 38.3836L43.4576 40.1586C43.3501 40.7372 43.9618 41.1815 44.4788 40.9012L46.0658 40.0394L47.6528 40.9012C48.1699 41.1815 48.7815 40.7372 48.674 40.1586L48.3456 38.3836L49.655 37.1402C50.0814 36.7351 49.848 36.0166 49.265 35.9393L47.4743 35.7038L46.697 34.0742Z" fill="#FFB934"/>
<path d="M57.8845 34.0742C57.631 33.5426 56.8756 33.5426 56.6221 34.0742L55.8443 35.7038L54.0542 35.9393C53.4711 36.0166 53.2372 36.7351 53.6641 37.1402L54.9736 38.3836L54.6451 40.1586C54.5376 40.7372 55.1493 41.1815 55.6663 40.9012L57.2533 40.0394L58.8403 40.9012C59.3574 41.1815 59.969 40.7372 59.8615 40.1586L59.5331 38.3836L60.8425 37.1402C61.2689 36.7351 61.0355 36.0166 60.4525 35.9393L58.6618 35.7038L57.8845 34.0742Z" fill="#FFB934"/>
<path d="M69.0798 34.0742C68.8263 33.5426 68.0709 33.5426 67.8174 34.0742L67.0396 35.7038L65.2495 35.9393C64.6664 36.0166 64.4325 36.7351 64.8594 37.1402L66.1689 38.3836L65.8404 40.1586C65.733 40.7372 66.3446 41.1815 66.8616 40.9012L68.4486 40.0394L70.0356 40.9012C70.5527 41.1815 71.1643 40.7372 71.0568 40.1586L70.7284 38.3836L72.0378 37.1402C72.4642 36.7351 72.2309 36.0166 71.6478 35.9393L69.8571 35.7038L69.0798 34.0742Z" fill="#FFB934"/>
<path d="M80.2673 34.0742C80.0138 33.5426 79.2584 33.5426 79.0049 34.0742L78.2271 35.7038L76.437 35.9393C75.8539 36.0166 75.62 36.7351 76.0469 37.1402L77.3564 38.3836L77.0279 40.1586C76.9205 40.7372 77.5321 41.1815 78.0491 40.9012L79.6361 40.0394L81.2231 40.9012C81.7402 41.1815 82.3518 40.7372 82.2443 40.1586L81.9159 38.3836L83.2253 37.1402C83.6517 36.7351 83.4184 36.0166 82.8353 35.9393L81.0446 35.7038L80.2673 34.0742Z" fill="#FFB934"/>
<rect x="29.2734" y="48.5547" width="61.5544" height="4.35233" rx="2.17617" fill="url(#paint0_linear_1384_2997)"/>
<rect x="29.2734" y="56.6377" width="69.6373" height="4.35233" rx="2.17617" fill="url(#paint1_linear_1384_2997)"/>
<rect x="29.2734" y="64.7205" width="29.8446" height="4.35233" rx="2.17617" fill="url(#paint2_linear_1384_2997)"/>
</g>
</g>
<path d="M44.9375 31.0708C44.9375 32.4308 43.2667 33.5517 42.932 34.8055C42.5867 36.1017 43.4606 37.908 42.8045 39.0422C42.1378 40.195 40.1323 40.3331 39.1973 41.2681C38.2623 42.2031 38.1242 44.2086 36.9714 44.8753C35.8372 45.5314 34.0309 44.6575 32.7347 45.0028C31.4809 45.3375 30.36 47.0083 29 47.0083C27.64 47.0083 26.5191 45.3375 25.2653 45.0028C23.9691 44.6575 22.1628 45.5314 21.0286 44.8753C19.8758 44.2086 19.7377 42.2031 18.8027 41.2681C17.8677 40.3331 15.8622 40.195 15.1955 39.0422C14.5394 37.908 15.4133 36.1017 15.068 34.8055C14.7333 33.5517 13.0625 32.4308 13.0625 31.0708C13.0625 29.7108 14.7333 28.5899 15.068 27.3361C15.4133 26.0399 14.5394 24.2336 15.1955 23.0994C15.8622 21.9466 17.8677 21.8085 18.8027 20.8735C19.7377 19.9385 19.8758 17.933 21.0286 17.2663C22.1628 16.6102 23.9691 17.4841 25.2653 17.1388C26.5191 16.8041 27.64 15.1333 29 15.1333C30.36 15.1333 31.4809 16.8041 32.7347 17.1388C34.0309 17.4841 35.8372 16.6102 36.9714 17.2663C38.1242 17.933 38.2623 19.9385 39.1973 20.8735C40.1323 21.8085 42.1378 21.9466 42.8045 23.0994C43.4606 24.2336 42.5867 26.0399 42.932 27.3361C43.2667 28.5899 44.9375 29.7108 44.9375 31.0708Z" fill="#F11F1B"/>
<path d="M25.25 37.75C24.8375 37.75 24.4844 37.6031 24.1906 37.3094C23.8969 37.0156 23.75 36.6625 23.75 36.25V26.5H23V25H26.75V24.25H31.25V25H35V26.5H34.25V36.25C34.25 36.6625 34.1031 37.0156 33.8094 37.3094C33.5156 37.6031 33.1625 37.75 32.75 37.75H25.25ZM32.75 26.5H25.25V36.25H32.75V26.5ZM26.75 34.75H28.25V28H26.75V34.75ZM29.75 34.75H31.25V28H29.75V34.75Z" fill="white"/>
<defs>
<filter id="filter0_f_1384_2997" x="-13.6231" y="5.03116" width="140.52" height="90.7773" filterUnits="userSpaceOnUse" color-interpolation-filters="sRGB">
<feFlood flood-opacity="0" result="BackgroundImageFix"/>
<feBlend mode="normal" in="SourceGraphic" in2="BackgroundImageFix" result="shape"/>
<feGaussianBlur stdDeviation="13.6788" result="effect1_foregroundBlur_1384_2997"/>
</filter>
<filter id="filter1_d_1384_2997" x="18.0819" y="23.0624" width="140.516" height="59.6892" filterUnits="userSpaceOnUse" color-interpolation-filters="sRGB">
<feFlood flood-opacity="0" result="BackgroundImageFix"/>
<feColorMatrix in="SourceAlpha" type="matrix" values="0 0 0 0 0 0 0 0 0 0 0 0 0 0 0 0 0 0 127 0" result="hardAlpha"/>
<feOffset dy="2.48705"/>
<feGaussianBlur stdDeviation="1.86529"/>
<feComposite in2="hardAlpha" operator="out"/>
<feColorMatrix type="matrix" values="0 0 0 0 0.258824 0 0 0 0 0.223529 0 0 0 0 0.192157 0 0 0 0.2 0"/>
<feBlend mode="normal" in2="BackgroundImageFix" result="effect1_dropShadow_1384_2997"/>
<feBlend mode="normal" in="SourceGraphic" in2="effect1_dropShadow_1384_2997" result="shape"/>
</filter>
<linearGradient id="paint0_linear_1384_2997" x1="29.2734" y1="50.7309" x2="90.8278" y2="50.7309" gradientUnits="userSpaceOnUse">
<stop stop-color="#D9D9D9"/>
<stop offset="1" stop-color="white"/>
</linearGradient>
<linearGradient id="paint1_linear_1384_2997" x1="29.2734" y1="58.8139" x2="98.9107" y2="58.8139" gradientUnits="userSpaceOnUse">
<stop stop-color="#D9D9D9"/>
<stop offset="1" stop-color="white"/>
</linearGradient>
<linearGradient id="paint2_linear_1384_2997" x1="29.2734" y1="66.8966" x2="59.118" y2="66.8966" gradientUnits="userSpaceOnUse">
<stop stop-color="#D9D9D9"/>
<stop offset="1" stop-color="white"/>
</linearGradient>
</defs>
</svg>
