<svg width="20" height="20" viewBox="0 0 20 20" fill="none" xmlns="http://www.w3.org/2000/svg">
<path d="M7.5 4.5C6.948 4.5 6.5 4.948 6.5 5.5V6C6.5 6.552 6.948 7 7.5 7H8C8.552 7 9 6.552 9 6V5.5C9 4.948 8.552 4.5 8 4.5H7.5Z" fill="#A0A0A0"/>
<path d="M7.5 8.75C6.948 8.75 6.5 9.198 6.5 9.75V10.25C6.5 10.802 6.948 11.25 7.5 11.25H8C8.552 11.25 9 10.802 9 10.25V9.75C9 9.198 8.552 8.75 8 8.75H7.5Z" fill="#A0A0A0"/>
<path d="M6.5 14C6.5 13.448 6.948 13 7.5 13H8C8.552 13 9 13.448 9 14V14.5C9 15.052 8.552 15.5 8 15.5H7.5C6.948 15.5 6.5 15.052 6.5 14.5V14Z" fill="#A0A0A0"/>
<path d="M12 4.5C11.448 4.5 11 4.948 11 5.5V6C11 6.552 11.448 7 12 7H12.5C13.052 7 13.5 6.552 13.5 6V5.5C13.5 4.948 13.052 4.5 12.5 4.5H12Z" fill="#A0A0A0"/>
<path d="M11 9.75C11 9.198 11.448 8.75 12 8.75H12.5C13.052 8.75 13.5 9.198 13.5 9.75V10.25C13.5 10.802 13.052 11.25 12.5 11.25H12C11.448 11.25 11 10.802 11 10.25V9.75Z" fill="#A0A0A0"/>
<path d="M12 13C11.448 13 11 13.448 11 14V14.5C11 15.052 11.448 15.5 12 15.5H12.5C13.052 15.5 13.5 15.052 13.5 14.5V14C13.5 13.448 13.052 13 12.5 13H12Z" fill="#A0A0A0"/>
</svg>
