<svg width="20" height="20" viewBox="0 0 20 20" fill="none" xmlns="http://www.w3.org/2000/svg">
<g clip-path="url(#clip0_278_11164)">
<path d="M9.9998 19.9996C15.5223 19.9996 19.9996 15.522 19.9996 9.9998C19.9996 4.47764 15.5227 0 9.9998 0C4.47686 0 0 4.47803 0 9.9998C0 15.5216 4.47725 19.9996 9.9998 19.9996Z" fill="#F0F0F0"/>
<path fill-rule="evenodd" clip-rule="evenodd" d="M18.5602 4.76362H9.5885V2.15234H16.2548C17.1702 2.88112 17.9505 3.76497 18.5602 4.76362ZM20.0379 9.98501H9.59396V7.37451H19.6938C19.9229 8.22573 20.0386 9.10348 20.0379 9.98501ZM10.0381 19.9848C12.2989 19.99 14.4938 19.2239 16.2602 17.813H3.81634C5.58254 19.2241 7.77741 19.9903 10.0381 19.9848ZM18.5711 15.2076H1.50506C1.00729 14.3958 0.629316 13.5164 0.382812 12.5967H19.6934C19.4469 13.5165 19.069 14.3958 18.5711 15.2076Z" fill="#D80027"/>
<path fill-rule="evenodd" clip-rule="evenodd" d="M4.64249 1.55623H4.6335V1.56248L4.64249 1.55623ZM4.64249 1.55623H5.54676L4.69483 2.16755L5.01709 3.16753L4.1671 2.55621L3.32259 3.16753L3.60032 2.30465C2.85388 2.92939 2.20263 3.65973 1.66715 4.47258H1.96168L1.42263 4.8632L1.1781 5.29288L1.43357 6.08739L0.950372 5.73584L0.617176 6.5116L0.894904 7.38268H1.94957L1.11131 8.00025L1.43357 9.00023L0.583582 8.38891L0.0835925 8.75531C0.0277977 9.1678 -0.000129651 9.58357 4.52472e-07 9.99982H9.9998V8.42268e-06C8.1022 -0.00245955 6.24343 0.537486 4.64249 1.55623ZM5.01513 8.99515L5.02256 9.00101H5.01709L5.01513 8.99515ZM4.69444 8.00064L5.01513 8.99515L4.16671 8.38969L3.31673 9.00101L3.63899 8.00103L2.78901 7.38971H3.84367L4.16593 6.38973L4.48819 7.38971H5.54286L4.69444 8.00064ZM4.7003 5.08975L5.02256 6.08974L4.17257 5.47842L3.32259 6.08974L3.64485 5.08975L2.79487 4.47844H3.84953L4.17179 3.47846L4.49405 4.47844H5.54872L4.7003 5.08975ZM7.76117 8.38969L8.61116 9.00101L8.2889 8.00103L9.14044 7.38971H8.08578L7.76352 6.38973L7.44126 7.38971H6.38659L7.23657 8.00103L6.91431 9.00101L7.76117 8.38969ZM8.2889 5.08975L8.61116 6.08974L7.76117 5.47842L6.91119 6.08974L7.23345 5.08975L6.38347 4.47844H7.43813L7.76039 3.47846L8.08265 4.47844H9.13732L8.2889 5.08975ZM8.61116 3.17846L8.2889 2.17848L9.14044 1.56717H8.08578L7.76352 0.567185L7.44126 1.56717H6.38659L7.23657 2.17848L6.91431 3.17846L7.7643 2.56715L8.61116 3.17846Z" fill="#0052B4"/>
</g>
<defs>
<clipPath id="clip0_278_11164">
<rect width="20" height="20" fill="white"/>
</clipPath>
</defs>
</svg>
