<svg width="20" height="20" viewBox="0 0 20 20" fill="none" xmlns="http://www.w3.org/2000/svg">
<mask id="mask0_278_11176" style="mask-type:luminance" maskUnits="userSpaceOnUse" x="0" y="0" width="20" height="20">
<path d="M0.633291 9.89663C0.658373 7.41472 1.66673 5.04406 3.43722 3.30456C5.20772 1.56506 7.59581 0.598712 10.0778 0.617455C12.5597 0.636199 14.933 1.6385 16.677 3.40454C18.421 5.17059 19.3935 7.55621 19.381 10.0382C19.3686 12.5202 18.3724 14.896 16.6108 16.6445C14.8492 18.393 12.4661 19.3716 9.98408 19.3655C7.50205 19.3594 5.12373 18.3693 3.37071 16.6122C1.6177 14.8551 0.633085 12.4744 0.632813 9.99239" fill="white"/>
</mask>
<g mask="url(#mask0_278_11176)">
<path d="M18.3212 19.5656C19.0195 19.5656 19.5813 19.0026 19.5813 18.3043L19.5813 1.6819C19.5817 1.51632 19.5493 1.35229 19.4862 1.19924C19.423 1.04618 19.3302 0.907122 19.2131 0.790039C19.096 0.672956 18.9569 0.580158 18.8039 0.516978C18.6508 0.453797 18.4868 0.421479 18.3212 0.421879L1.69879 0.421879C1.00049 0.421879 0.4375 0.983589 0.4375 1.6819L0.4375 18.3043C0.4375 19.0026 1.00049 19.5656 1.69879 19.5656L18.3212 19.5656Z" fill="white"/>
<path d="M19.5766 1.68189C19.5766 0.983585 19.0008 0.421875 18.2866 0.421875L13.1953 0.421875L13.1953 19.5656H18.2866C19.0008 19.5656 19.5766 19.0026 19.5766 18.3043V1.68189Z" fill="#C0392B"/>
<path d="M0.4375 18.3056C0.4375 19.0039 1.01333 19.5656 1.72751 19.5656H6.81875L6.81875 0.421875L1.72751 0.421875C1.01333 0.421875 0.4375 0.984821 0.4375 1.68317L0.4375 18.3056Z" fill="#27AE60"/>
</g>
</svg>
