<svg width="44" height="44" viewBox="0 0 44 44" fill="none" xmlns="http://www.w3.org/2000/svg">
<path d="M15.0391 20.917C15.6798 20.917 16.1992 20.3976 16.1992 19.7568C16.1992 19.1161 15.6798 18.5967 15.0391 18.5967C14.3983 18.5967 13.8789 19.1161 13.8789 19.7568C13.8789 20.3976 14.3983 20.917 15.0391 20.917Z" fill="#00527A"/>
<path d="M36.8241 23.5817C36.3737 23.1261 35.6391 23.122 35.1834 23.5726L28.9655 29.7222L27.461 28.2177C27.008 27.7646 26.2734 27.7646 25.8203 28.2177C25.3672 28.6708 25.3672 29.4053 25.8203 29.8584L28.1406 32.1787C28.2482 32.2866 28.3761 32.3722 28.5169 32.4305C28.6577 32.4889 28.8086 32.5188 28.961 32.5186C29.2559 32.5186 29.5507 32.4069 29.7768 32.1833L36.8151 25.2224C37.2707 24.7718 37.2747 24.0372 36.8241 23.5817Z" fill="#00527A"/>
<path d="M35.9984 16.2768H27.8V8.00098C27.8 4.80243 25.1978 2.2002 21.9992 2.2002H8C4.80145 2.2002 2.19922 4.80243 2.19922 8.00098V19.7572C2.19922 22.5585 4.19546 24.9024 6.83984 25.4415V29.0385C6.83987 29.2671 6.90744 29.4906 7.03407 29.681C7.16071 29.8713 7.34076 30.02 7.55163 30.1084C7.76249 30.1967 7.99475 30.2208 8.21926 30.1776C8.44376 30.1344 8.6505 30.0258 8.8135 29.8655L13.1929 25.558H18.5187V31.3588C18.5187 34.5573 21.121 37.1596 24.3195 37.1596H25.4797V40.64C25.4797 40.8695 25.5477 41.0938 25.6752 41.2846C25.8027 41.4754 25.9839 41.6241 26.1959 41.7119C26.4079 41.7997 26.6412 41.8227 26.8662 41.7779C27.0913 41.7331 27.298 41.6226 27.4602 41.4603L31.761 37.1596H35.9984C39.197 37.1596 41.7992 34.5573 41.7992 31.3588V22.0775C41.7992 18.879 39.1971 16.2768 35.9984 16.2768ZM18.5187 22.0775V23.2377H12.718C12.4136 23.2377 12.1214 23.3573 11.9044 23.5707L9.16016 26.27V24.3979C9.16016 23.7571 8.64072 23.2377 8 23.2377C6.08087 23.2377 4.51953 21.6764 4.51953 19.7572V8.00098C4.51953 6.08185 6.08087 4.52051 8 4.52051H21.9992C23.9183 4.52051 25.4797 6.08185 25.4797 8.00098V16.2768H24.3195C21.121 16.2768 18.5187 18.879 18.5187 22.0775ZM39.4789 31.3588C39.4789 33.2779 37.9176 34.8393 35.9984 34.8393H31.2805C31.1281 34.8393 30.9773 34.8693 30.8365 34.9276C30.6958 34.9859 30.5679 35.0714 30.4602 35.1791L27.8 37.8392V35.9994C27.8 35.3587 27.2806 34.8393 26.6398 34.8393H24.3195C22.4004 34.8393 20.8391 33.2779 20.8391 31.3588V22.0775C20.8391 20.1584 22.4004 18.5971 24.3195 18.5971H35.9984C37.9176 18.5971 39.4789 20.1584 39.4789 22.0775V31.3588Z" fill="#00527A"/>
<path d="M15.0391 6.84082C13.1199 6.84082 11.5586 8.40216 11.5586 10.3213C11.5586 10.962 12.078 11.4814 12.7187 11.4814C13.3595 11.4814 13.8789 10.962 13.8789 10.3213C13.8789 9.68158 14.3994 9.16113 15.0391 9.16113C15.6788 9.16113 16.1992 9.68158 16.1992 10.3213C16.1992 10.6229 15.8573 11.215 15.342 11.42C14.4532 11.7734 13.8789 12.6199 13.8789 13.5763V15.1166C13.8789 15.7573 14.3983 16.2768 15.0391 16.2768C15.6798 16.2768 16.1915 15.7573 16.1915 15.1166L16.1919 13.576C17.5144 13.0498 18.5195 11.6506 18.5195 10.3213C18.5195 8.40216 16.9583 6.84082 15.0391 6.84082Z" fill="#00527A"/>
</svg>
