<svg width="40" height="40" viewBox="0 0 40 40" fill="none" xmlns="http://www.w3.org/2000/svg">
<path d="M16.293 17.5146C16.293 18.1554 15.7734 18.6748 15.1328 18.6748C14.492 18.6748 13.9727 18.1554 13.9727 17.5146C13.9727 16.8739 14.492 16.3545 15.1328 16.3545C15.7734 16.3545 16.293 16.8739 16.293 17.5146Z" fill="#00527A"/>
<path d="M33.1486 8.89895H29.9597V6.95229C29.9597 3.22325 26.9426 0.200195 23.2075 0.200195H7.05295C3.32383 0.200195 0.300781 3.2169 0.300781 6.95229V28.699C0.300781 29.6688 1.43796 30.2281 2.20359 29.5902L9.33699 23.6456H10.2421V26.8349C10.2421 30.564 13.2588 33.587 16.9942 33.587H30.8648L37.9979 39.5313C38.2064 39.7052 38.4693 39.8003 38.7409 39.8002C39.3786 39.8002 39.9007 39.2827 39.9007 38.64V15.6508C39.9007 11.9217 36.884 8.89895 33.1486 8.89895ZM8.91663 21.3253C8.64528 21.3253 8.38252 21.4204 8.17405 21.5941L2.62109 26.2217V6.95237C2.62109 4.50452 4.60124 2.5205 7.05288 2.5205H23.2075C25.655 2.5205 27.6393 4.50065 27.6393 6.95229V16.8937C27.6393 19.3373 25.6511 21.3253 23.2075 21.3253H8.91663ZM37.5804 36.1632L32.0274 31.5356C31.8189 31.3618 31.5561 31.2667 31.2848 31.2666H16.994C15.8103 31.2666 14.6973 30.8056 13.8603 29.9684C13.0232 29.1316 12.5621 28.0185 12.5621 26.8348V23.6456H23.2072C24.6586 23.6456 26.0045 23.1852 27.1067 22.4029H32.5271C33.1679 22.4029 33.6872 21.8836 33.6872 21.2428C33.6872 20.6024 33.1679 20.0826 32.5271 20.0826H29.1575C29.5989 19.263 29.8647 18.3604 29.9379 17.4324H32.5271C33.1679 17.4324 33.6872 16.9131 33.6872 16.2723C33.6872 15.6315 33.1679 15.1121 32.5271 15.1121H29.9593V11.2193H33.1486C34.3327 11.2193 35.4454 11.68 36.2826 12.5172C37.1193 13.354 37.5804 14.467 37.5804 15.6508V36.1632Z" fill="#00527A"/>
<path d="M13.1836 9.43754C13.1836 8.91786 13.3861 8.42967 13.7535 8.06198C14.1208 7.6946 14.6093 7.49219 15.1302 7.49219C16.2033 7.49219 17.0768 8.36563 17.0768 9.43877C17.0768 10.5122 16.2033 11.3854 15.1302 11.3854C14.4894 11.3854 13.97 11.9046 13.97 12.5455V13.7881C13.97 14.4286 14.4894 14.9483 15.1302 14.9483C15.7707 14.9483 16.2903 14.4286 16.2903 13.7881V13.5453C18.0811 13.0386 19.3968 11.3895 19.3968 9.43877C19.3968 7.08582 17.4828 5.17188 15.1289 5.17188C13.9897 5.17188 12.9184 5.61567 12.1125 6.42113C11.3072 7.2269 10.8633 8.29826 10.8633 9.43723V9.43847C10.8633 10.0793 11.3826 10.598 12.0234 10.598C12.6642 10.598 13.1836 10.0783 13.1836 9.43754ZM32.5274 25.0543H17.6155C16.9747 25.0543 16.4554 25.574 16.4554 26.2145C16.4554 26.8553 16.9747 27.3746 17.6155 27.3746H32.5274C33.1679 27.3746 33.6876 26.8553 33.6876 26.2145C33.6876 25.574 33.1679 25.0543 32.5274 25.0543Z" fill="#00527A"/>
</svg>
