<svg width="36" height="36" viewBox="0 0 36 36" fill="none" xmlns="http://www.w3.org/2000/svg">
<path fill-rule="evenodd" clip-rule="evenodd" d="M18.1353 20.5207L12.4642 24.0104C12.1641 24.1939 11.817 24.2861 11.4653 24.2756C11.1137 24.2651 10.7727 24.1525 10.484 23.9514C10.1953 23.7504 9.97134 23.4696 9.83953 23.1434C9.70773 22.8173 9.67374 22.4598 9.74173 22.1146L11.07 15.4684L6.70243 11.1008C6.45819 10.8551 6.28956 10.5444 6.21651 10.2057C6.14346 9.86704 6.16906 9.51451 6.29028 9.18993C6.4115 8.86534 6.62325 8.58233 6.90043 8.37443C7.17761 8.16654 7.50859 8.04248 7.85413 8.01698L13.8618 7.58798L16.4721 1.49783C16.6112 1.17193 16.843 0.89408 17.1387 0.6988C17.4344 0.50352 17.7809 0.399414 18.1353 0.399414C18.4896 0.399414 18.8362 0.50352 19.1319 0.6988C19.4276 0.89408 19.6594 1.17193 19.7985 1.49783L22.4088 7.58798L28.4164 8.01698C28.7627 8.04115 29.0946 8.16444 29.3727 8.37214C29.6508 8.57983 29.8632 8.86316 29.9846 9.1883C30.106 9.51345 30.1313 9.86666 30.0575 10.2058C29.9836 10.5449 29.8138 10.8556 29.5681 11.1008L25.2006 15.4684L26.5288 22.1146C26.5992 22.4603 26.5668 22.819 26.4356 23.1465C26.3045 23.474 26.0803 23.7559 25.7908 23.9575C25.5013 24.1591 25.1592 24.2716 24.8065 24.281C24.4538 24.2904 24.1062 24.1963 23.8063 24.0104L18.1353 20.5207ZM9.48268 10.3814L13.2892 14.1863C13.433 14.3308 13.5391 14.5083 13.5981 14.7034C13.6571 14.8985 13.6672 15.1051 13.6275 15.305L12.4675 21.1015L17.4868 18.0127C17.6819 17.8929 17.9064 17.8295 18.1353 17.8295C18.3642 17.8295 18.5886 17.8929 18.7837 18.0127L23.803 21.1015L22.6431 15.305C22.6034 15.1051 22.6135 14.8985 22.6725 14.7034C22.7314 14.5083 22.8375 14.3308 22.9813 14.1863L26.7879 10.3814L21.4798 10.0019C21.2533 9.98586 21.0356 9.90778 20.8505 9.77624C20.6654 9.64469 20.5201 9.46476 20.4304 9.25613L18.1353 3.89858L15.8401 9.25613C15.7505 9.46476 15.6051 9.64469 15.42 9.77624C15.235 9.90778 15.0172 9.98586 14.7907 10.0019L9.48268 10.3814Z" fill="#00527A"/>
<path fill-rule="evenodd" clip-rule="evenodd" d="M23.8242 32.5137L26.5665 30.8258C26.7616 30.706 26.9861 30.6426 27.215 30.6426C27.4439 30.6426 27.6684 30.706 27.8634 30.8258L30.6057 32.5137L29.9721 29.3441C29.9317 29.1442 29.9414 28.9374 30.0004 28.7422C30.0595 28.5469 30.166 28.3694 30.3104 28.2254L32.363 26.1728L29.5085 25.9682C29.3446 25.959 29.1842 25.9173 29.0366 25.8456C28.889 25.7738 28.7572 25.6734 28.6488 25.5502C28.5403 25.427 28.4575 25.2835 28.4051 25.1279C28.3526 24.9724 28.3317 24.808 28.3434 24.6443C28.3551 24.4806 28.3992 24.3209 28.4733 24.1744C28.5473 24.028 28.6497 23.8977 28.7746 23.7912C28.8994 23.6846 29.0442 23.604 29.2005 23.554C29.3568 23.504 29.5215 23.4855 29.685 23.4998L34.376 23.8347C34.6889 23.8565 34.989 23.9679 35.2403 24.1556C35.4916 24.3434 35.6835 24.5995 35.7932 24.8934C35.9028 25.1873 35.9255 25.5066 35.8585 25.813C35.7915 26.1195 35.6377 26.4002 35.4155 26.6216L32.528 29.5074L33.4107 33.9195C33.4738 34.2318 33.4441 34.5557 33.3255 34.8513C33.2068 35.1469 33.0043 35.4014 32.7428 35.5834C32.4814 35.7654 32.1724 35.867 31.854 35.8757C31.5356 35.8844 31.2215 35.7997 30.9506 35.6322L27.215 33.3338L23.4794 35.6322C23.2084 35.7997 22.8944 35.8844 22.576 35.8757C22.2575 35.867 21.9486 35.7654 21.6871 35.5834C21.4257 35.4014 21.2232 35.1469 21.1045 34.8513C20.9858 34.5557 20.9562 34.2318 21.0192 33.9195L21.902 29.5074L19.0145 26.6216C18.7823 26.3894 18.6519 26.0746 18.6519 25.7463C18.6519 25.4179 18.7823 25.1031 19.0145 24.8709C19.2466 24.6388 19.5615 24.5084 19.8898 24.5084C20.2181 24.5084 20.533 24.6388 20.7651 24.8709L24.1196 28.2254C24.264 28.3694 24.3705 28.5469 24.4295 28.7422C24.4885 28.9374 24.4983 29.1442 24.4578 29.3441L23.8242 32.5137ZM3.93348 26.1728L5.98608 28.2254C6.13026 28.3696 6.23658 28.5471 6.29559 28.7423C6.3546 28.9374 6.36447 29.1442 6.32433 29.3441L5.69073 32.5137L8.43303 30.8258C8.62811 30.706 8.85256 30.6426 9.08148 30.6426C9.3104 30.6426 9.53485 30.706 9.72993 30.8258L12.4722 32.5137L11.837 29.3441C11.797 29.144 11.8072 28.9372 11.8665 28.7421C11.9258 28.5469 12.0324 28.3694 12.1769 28.2254L15.5313 24.8709C15.6463 24.756 15.7827 24.6648 15.9329 24.6026C16.0831 24.5404 16.2441 24.5084 16.4067 24.5084C16.5692 24.5084 16.7302 24.5404 16.8804 24.6026C17.0306 24.6648 17.167 24.756 17.282 24.8709C17.3969 24.9859 17.4881 25.1223 17.5503 25.2725C17.6125 25.4227 17.6446 25.5837 17.6446 25.7463C17.6446 25.9088 17.6125 26.0698 17.5503 26.22C17.4881 26.3702 17.3969 26.5066 17.282 26.6216L14.3945 29.5074L15.2772 33.9195C15.3403 34.2318 15.3106 34.5557 15.192 34.8513C15.0733 35.1469 14.8708 35.4014 14.6093 35.5834C14.3479 35.7654 14.0389 35.867 13.7205 35.8757C13.4021 35.8844 13.088 35.7997 12.8171 35.6322L9.08148 33.3338L5.34588 35.6322C5.07492 35.7997 4.76089 35.8844 4.44245 35.8757C4.12401 35.867 3.81506 35.7654 3.55362 35.5834C3.29217 35.4014 3.08966 35.1469 2.97099 34.8513C2.85232 34.5557 2.82269 34.2318 2.88573 33.9195L3.76848 29.5074L0.880981 26.6216C0.659633 26.3998 0.506543 26.1191 0.439864 25.8129C0.373185 25.5067 0.395714 25.1878 0.504781 24.894C0.614735 24.6006 0.806549 24.3448 1.05747 24.157C1.3084 23.9693 1.60791 23.8574 1.92048 23.8347L6.61143 23.4998C6.93582 23.4816 7.25435 23.5917 7.49825 23.8064C7.74214 24.021 7.89184 24.323 7.91502 24.6471C7.9382 24.9711 7.833 25.2913 7.62213 25.5385C7.41127 25.7857 7.11166 25.94 6.78798 25.9682L3.93348 26.1728Z" fill="#00527A"/>
</svg>
