<svg width="44" height="49" viewBox="0 0 44 49" fill="none" xmlns="http://www.w3.org/2000/svg">
<g opacity="0.5" filter="url(#filter0_f_2180_61348)">
<path d="M12.8145 25.07L25.2174 27.2661C25.3424 27.2828 25.4639 27.3192 25.5774 27.3741L25.8474 27.5181L32.5799 32.7205C32.3888 32.5647 32.1583 32.465 31.9139 32.4325L19.511 30.2363C19.3917 30.2196 19.2761 30.1831 19.169 30.1283L18.8989 29.9843L12.1484 24.8359C12.3528 24.9571 12.5792 25.0367 12.8145 25.07Z" fill="url(#paint0_linear_2180_61348)"/>
<path d="M-19.4299 29.0622V28.7202C-19.4299 28.7202 -19.4299 28.5762 -19.4299 28.5042C-19.4385 28.4024 -19.4385 28.3 -19.4299 28.1982C-19.44 28.1205 -19.44 28.0418 -19.4299 27.9642C-19.3955 27.865 -19.3534 27.7687 -19.3039 27.6761C-19.2483 27.5733 -19.1819 27.4768 -19.1058 27.3881L-18.7638 27.1001L-18.5658 26.9201L-18.4218 26.8661L-18.1698 26.7221H-17.9538C-17.8646 26.705 -17.7729 26.705 -17.6837 26.7221L-4.63279 25.0299C-4.33159 24.9809 -4.04363 24.8706 -3.78673 24.7059C-3.52559 24.5196 -3.3 24.2879 -3.12068 24.0219L4.63789 11.709L4.7639 11.547C4.8195 11.4657 4.87959 11.3875 4.9439 11.3129L5.14192 11.1509H5.24993L5.89797 10.6649C6.07696 10.6377 6.25903 10.6377 6.43802 10.6649C6.63071 10.6682 6.82066 10.7111 6.99605 10.7909C7.08647 10.8342 7.17113 10.8887 7.24807 10.9529L13.9806 16.1553C13.8658 16.074 13.738 16.0131 13.6025 15.9753C13.4272 15.8954 13.2372 15.8525 13.0445 15.8493C12.8714 15.8239 12.6955 15.8239 12.5225 15.8493C12.3729 15.8873 12.2281 15.9416 12.0904 16.0113C11.9901 16.1387 11.9055 16.2777 11.8384 16.4253C11.6886 16.5536 11.5609 16.7056 11.4604 16.8753L3.80983 28.9002L3.68382 29.0982L3.50381 29.2963L3.30579 29.4763L3.12578 29.6023L2.87375 29.7463L2.54973 29.8723H2.27972L-10.7532 31.5464L-11.2573 31.6904C-11.4143 31.7499 -11.5603 31.835 -11.6893 31.9424C-11.8224 32.0486 -11.9432 32.1693 -12.0493 32.3025C-12.1377 32.4217 -12.216 32.5482 -12.2833 32.6805L-12.3914 32.9685C-12.3991 33.0403 -12.3991 33.1127 -12.3914 33.1845C-12.4 33.2924 -12.4 33.4007 -12.3914 33.5086C-12.3914 33.5086 -12.3914 33.6526 -12.3914 33.7246C-12.4014 33.8384 -12.4014 33.9528 -12.3914 34.0666C-12.3914 34.0666 -12.3914 34.1926 -12.3914 34.2466C-12.3334 34.419 -12.2416 34.5781 -12.1213 34.7146L-19.1238 29.7103C-19.2369 29.5687 -19.3279 29.411 -19.3939 29.2423C-19.3939 29.2423 -19.4119 29.1342 -19.4299 29.0622Z" fill="url(#paint1_linear_2180_61348)"/>
<path d="M13.1906 15.8672C13.5232 15.8644 13.8472 15.9727 14.1113 16.1749C14.3754 16.377 14.5645 16.6615 14.6487 16.9833L18.357 29.2422C18.4317 29.5167 18.5831 29.7641 18.7936 29.9554C19.004 30.1467 19.2647 30.274 19.545 30.3223L31.9479 32.5185C32.3085 32.5961 32.6366 32.7826 32.8876 33.0528C33.1387 33.323 33.3008 33.6638 33.3518 34.029C33.4029 34.3943 33.3405 34.7665 33.1731 35.0952C33.0057 35.4238 32.7414 35.6932 32.416 35.8667L21.6152 45.1554C21.3669 45.3618 21.1672 45.6205 21.0303 45.913C20.8933 46.2055 20.8226 46.5246 20.8231 46.8475V60.2405C20.8144 60.8157 20.5856 61.3658 20.1839 61.7776C19.7821 62.1894 19.2379 62.4317 18.663 62.4546C18.3774 62.447 18.0985 62.3664 17.8529 62.2206L7.55618 55.6681C7.31081 55.5238 7.03074 55.4492 6.74611 55.4521C6.44761 55.4395 6.15068 55.5014 5.88206 55.6321L-6.53885 61.7346C-6.80778 61.8662 -7.10349 61.934 -7.40291 61.9326C-7.66645 61.9211 -7.92332 61.8461 -8.15167 61.7141C-8.38001 61.582 -8.57309 61.3968 -8.71448 61.1741C-8.85587 60.9514 -8.94139 60.6978 -8.96377 60.435C-8.98615 60.1722 -8.94473 59.9078 -8.84302 59.6644L-4.4867 46.3255C-4.38505 46.0446 -4.35486 45.7429 -4.39885 45.4475C-4.44285 45.1521 -4.55964 44.8723 -4.73872 44.6333L-12.3893 34.9666C-12.5743 34.662 -12.681 34.3164 -12.7 33.9605C-12.7191 33.6047 -12.6497 33.2496 -12.4983 32.9271C-12.3468 32.6045 -12.1178 32.3244 -11.8318 32.1118C-11.5459 31.8991 -11.2117 31.7606 -10.8592 31.7084L2.17378 30.0343C2.49191 29.9823 2.79502 29.8621 3.06226 29.6819C3.32951 29.5017 3.55453 29.2657 3.72189 28.9902L11.3724 16.9653C11.5539 16.64 11.817 16.3676 12.1358 16.1751C12.4547 15.9825 12.8182 15.8764 13.1906 15.8672Z" fill="url(#paint2_linear_2180_61348)"/>
<path d="M13.1529 15.8672V16.7673C13.2939 16.7599 13.4329 16.8029 13.5451 16.8886C13.6572 16.9744 13.7352 17.0973 13.7649 17.2353L17.4732 29.4942C17.5882 29.9166 17.8169 30.2994 18.1342 30.6009C18.4516 30.9024 18.8456 31.1111 19.2733 31.2044L31.6762 33.4005C31.7984 33.4166 31.9126 33.4703 32.0029 33.5542C32.0932 33.638 32.1552 33.7479 32.1803 33.8685C32.229 34.0997 32.2128 34.3398 32.1333 34.5622C32.0539 34.7846 31.9144 34.9807 31.7302 35.1286L20.9295 44.4173C20.5924 44.7112 20.3217 45.0735 20.1355 45.4801C19.9492 45.8867 19.8517 46.3283 19.8494 46.7755V60.2045C19.8461 60.3732 19.8093 60.5396 19.7414 60.6941C19.6734 60.8486 19.5755 60.9881 19.4534 61.1045C19.3457 61.2235 19.2155 61.3198 19.0702 61.3878C18.9249 61.4558 18.7676 61.4941 18.6073 61.5006C18.4849 61.5007 18.3654 61.4629 18.2653 61.3926L7.8965 54.8401C7.49664 54.6113 7.04305 54.4933 6.58241 54.498C6.15771 54.499 5.7389 54.5976 5.35832 54.7861L-7.06259 60.8705C-7.20241 60.9403 -7.35634 60.9773 -7.51262 60.9785C-7.60263 60.9685 -7.68942 60.9392 -7.76709 60.8926C-7.84475 60.846 -7.91145 60.7832 -7.96265 60.7085C-8.03042 60.581 -8.06586 60.4388 -8.06586 60.2945C-8.06586 60.1501 -8.03042 60.0079 -7.96265 59.8804L-3.60634 46.5595C-3.4573 46.1326 -3.4171 45.6753 -3.4894 45.2289C-3.5617 44.7826 -3.74419 44.3613 -4.02037 44.0033L-11.6709 34.3546C-11.7531 34.2123 -11.7963 34.0509 -11.7963 33.8865C-11.7963 33.7222 -11.7531 33.5608 -11.6709 33.4185C-11.5916 33.1998 -11.4571 33.0054 -11.2804 32.854C-11.1038 32.7026 -10.8911 32.5994 -10.6628 32.5545L2.40611 30.8623C2.85011 30.7965 3.27405 30.6333 3.64752 30.3843C4.02099 30.1353 4.33473 29.8068 4.56626 29.4222L12.2168 17.3974C12.3229 17.2161 12.472 17.0638 12.651 16.9539C12.83 16.844 13.0333 16.7799 13.2429 16.7673V15.8672M13.2429 15.8672C12.8792 15.8756 12.5235 15.9757 12.2088 16.1582C11.8941 16.3407 11.6306 16.5998 11.4428 16.9113L3.7922 28.9362C3.62485 29.2117 3.39981 29.4477 3.13256 29.6279C2.86532 29.8081 2.56222 29.9283 2.24409 29.9803L-10.7889 31.6544C-11.1414 31.7066 -11.4755 31.8451 -11.7615 32.0578C-12.0475 32.2704 -12.2765 32.5505 -12.4279 32.8731C-12.5794 33.1956 -12.6487 33.5507 -12.6297 33.9065C-12.6107 34.2624 -12.504 34.608 -12.319 34.9126L-4.66841 44.5793C-4.48933 44.8183 -4.37254 45.0981 -4.32854 45.3935C-4.28455 45.6889 -4.31473 45.9906 -4.41639 46.2715L-8.77271 59.6104C-8.87442 59.8538 -8.91584 60.1182 -8.89346 60.381C-8.87108 60.6438 -8.78556 60.8974 -8.64417 61.1201C-8.50278 61.3428 -8.3097 61.528 -8.08135 61.6601C-7.853 61.7921 -7.59614 61.8671 -7.33261 61.8786C-7.04002 61.8711 -6.75208 61.8037 -6.48654 61.6806L5.88036 55.6681C6.13997 55.5485 6.42258 55.4871 6.70842 55.4881C6.99305 55.4852 7.2731 55.5599 7.51847 55.7041L17.8692 62.2566C18.1149 62.4025 18.3937 62.483 18.6793 62.4906C19.2698 62.4672 19.8274 62.2124 20.2316 61.7812C20.6357 61.3501 20.8541 60.7772 20.8394 60.1865V46.7935C20.8389 46.4706 20.9097 46.1515 21.0466 45.859C21.1835 45.5665 21.3832 45.3078 21.6315 45.1014L32.4323 35.8127C32.7391 35.6317 32.9854 35.3636 33.1398 35.0426C33.2942 34.7215 33.3499 34.3618 33.2998 34.0091C33.2497 33.6563 33.096 33.3264 32.8583 33.061C32.6205 32.7957 32.3094 32.6069 31.9643 32.5185L19.5614 30.3223C19.2811 30.274 19.0203 30.1467 18.8099 29.9554C18.5994 29.7641 18.448 29.5167 18.3733 29.2422L14.647 16.9833C14.5628 16.6615 14.3737 16.377 14.1096 16.1749C13.8455 15.9727 13.5215 15.8644 13.1889 15.8672H13.2429Z" fill="url(#paint3_linear_2180_61348)"/>
</g>
<defs>
<filter id="filter0_f_2180_61348" x="-29.4375" y="0.644531" width="72.8047" height="71.8477" filterUnits="userSpaceOnUse" color-interpolation-filters="sRGB">
<feFlood flood-opacity="0" result="BackgroundImageFix"/>
<feBlend mode="normal" in="SourceGraphic" in2="BackgroundImageFix" result="shape"/>
<feGaussianBlur stdDeviation="5" result="effect1_foregroundBlur_2180_61348"/>
</filter>
<linearGradient id="paint0_linear_2180_61348" x1="31.988" y1="30.0399" x2="10.7272" y2="26.6038" gradientUnits="userSpaceOnUse">
<stop stop-color="#E68702"/>
<stop offset="1" stop-color="#E65102"/>
</linearGradient>
<linearGradient id="paint1_linear_2180_61348" x1="11.6017" y1="24.7851" x2="-19.2826" y2="19.7937" gradientUnits="userSpaceOnUse">
<stop stop-color="#E68702"/>
<stop offset="1" stop-color="#E65102"/>
</linearGradient>
<linearGradient id="paint2_linear_2180_61348" x1="30.7384" y1="43.0739" x2="-14.296" y2="35.7956" gradientUnits="userSpaceOnUse">
<stop stop-color="#FF9B02"/>
<stop offset="1" stop-color="#FFC602"/>
</linearGradient>
<linearGradient id="paint3_linear_2180_61348" x1="31.7302" y1="43.5173" x2="-13.165" y2="36.2807" gradientUnits="userSpaceOnUse">
<stop stop-color="#FFDF71" stop-opacity="0"/>
<stop offset="1" stop-color="#FFDF71"/>
</linearGradient>
</defs>
</svg>
