<svg width="24" height="23" viewBox="0 0 24 23" fill="none" xmlns="http://www.w3.org/2000/svg">
<g opacity="0.5">
<path d="M14.5953 6.85717L19.8616 7.78962C19.9147 7.79669 19.9663 7.81217 20.0145 7.83547L20.1292 7.89662L22.9878 10.1054C22.9067 10.0393 22.8088 9.99696 22.705 9.98316L17.4387 9.05071C17.388 9.04362 17.339 9.02813 17.2934 9.00485L17.1788 8.94371L14.3125 6.75781C14.3993 6.80927 14.4954 6.84304 14.5953 6.85717Z" fill="url(#paint0_linear_2180_61355)"/>
<path d="M4.35547 13.6585C4.39999 13.5382 4.41353 13.4087 4.39483 13.2818C4.37613 13.1549 4.32579 13.0347 4.24846 12.9324L1 8.82812L3.85865 11.037L7.10711 15.1412C7.18315 15.2427 7.23274 15.3615 7.25142 15.4869C7.2701 15.6124 7.25728 15.7405 7.21412 15.8597L5.3644 21.5231C5.30725 21.6655 5.29719 21.8225 5.3357 21.971C5.37421 22.1196 5.45927 22.2519 5.57842 22.3486L2.71977 20.1398C2.60194 20.0421 2.51837 19.9093 2.48125 19.7609C2.44412 19.6124 2.45539 19.4559 2.5134 19.3143L4.35547 13.6585Z" fill="url(#paint1_linear_2180_61355)"/>
<path d="M0.917306 8.55026V8.40504C0.917306 8.40504 0.917306 8.3439 0.917306 8.31332C0.913617 8.27009 0.913617 8.22662 0.917306 8.18339C0.912981 8.15041 0.912981 8.11701 0.917306 8.08403C0.931901 8.04193 0.949791 8.00104 0.970809 7.96175C0.994394 7.9181 1.02258 7.87711 1.05489 7.83946L1.20011 7.71717L1.28419 7.64074L1.34534 7.61781L1.45235 7.55667H1.54407C1.58194 7.54944 1.62084 7.54944 1.65872 7.55667L7.20021 6.83823C7.3281 6.81741 7.45037 6.77058 7.55945 6.70065C7.67033 6.62153 7.76612 6.52316 7.84226 6.41022L11.1366 1.18241L11.1901 1.11362C11.2137 1.07911 11.2392 1.04594 11.2665 1.01426L11.3506 0.945477H11.3965L11.6716 0.739116C11.7476 0.727586 11.8249 0.727586 11.9009 0.739116C11.9827 0.740501 12.0634 0.758712 12.1379 0.792617C12.1763 0.81101 12.2122 0.834117 12.2449 0.861404L15.1035 3.07023C15.0548 3.03572 15.0005 3.00987 14.943 2.9938C14.8685 2.95989 14.7879 2.94168 14.7061 2.9403C14.6326 2.92953 14.5579 2.92953 14.4844 2.9403C14.4209 2.95644 14.3594 2.97951 14.301 3.00909C14.2584 3.06317 14.2224 3.12219 14.194 3.18487C14.1303 3.23934 14.0761 3.30389 14.0334 3.37595L10.785 8.48147L10.7315 8.56554L10.655 8.64962L10.571 8.72605L10.4945 8.77955L10.3875 8.84069L10.2499 8.89419H10.1353L4.60144 9.60499L4.38742 9.66613C4.32076 9.69137 4.25877 9.72753 4.20398 9.77314C4.14745 9.81819 4.09617 9.86947 4.05111 9.926C4.01358 9.97664 3.98034 10.0303 3.95175 10.0865L3.90589 10.2088C3.90261 10.2393 3.90261 10.27 3.90589 10.3005C3.90223 10.3463 3.90223 10.3923 3.90589 10.4381C3.90589 10.4381 3.90589 10.4992 3.90589 10.5298C3.90162 10.5781 3.90162 10.6267 3.90589 10.675C3.90589 10.675 3.90589 10.7285 3.90589 10.7514C3.93052 10.8246 3.96949 10.8922 4.02054 10.9502L1.04724 8.82541C0.999245 8.76531 0.960594 8.69832 0.932593 8.62669C0.932593 8.62669 0.924949 8.58083 0.917306 8.55026Z" fill="url(#paint2_linear_2180_61355)"/>
<path d="M14.7524 2.93362C14.8936 2.93243 15.0312 2.97839 15.1434 3.06422C15.2555 3.15006 15.3358 3.27086 15.3715 3.40748L16.9461 8.61236C16.9778 8.72888 17.0421 8.83394 17.1315 8.91517C17.2208 8.9964 17.3315 9.05044 17.4505 9.07094L22.7169 10.0034C22.87 10.0363 23.0093 10.1155 23.1159 10.2303C23.2225 10.345 23.2913 10.4897 23.313 10.6448C23.3346 10.7998 23.3082 10.9579 23.2371 11.0974C23.166 11.237 23.0538 11.3513 22.9156 11.425L18.3295 15.3688C18.2241 15.4564 18.1393 15.5663 18.0812 15.6904C18.023 15.8146 17.993 15.9501 17.9932 16.0872V21.7736C17.9895 22.0178 17.8924 22.2514 17.7218 22.4262C17.5512 22.6011 17.3201 22.7039 17.076 22.7137C16.9548 22.7105 16.8363 22.6762 16.7321 22.6143L12.36 19.8323C12.2558 19.771 12.1369 19.7393 12.0161 19.7406C11.8893 19.7352 11.7632 19.7615 11.6492 19.817L6.37519 22.408C6.261 22.4639 6.13545 22.4926 6.00831 22.492C5.89641 22.4872 5.78734 22.4553 5.69038 22.3993C5.59343 22.3432 5.51144 22.2645 5.45141 22.17C5.39137 22.0754 5.35506 21.9678 5.34556 21.8562C5.33606 21.7446 5.35364 21.6324 5.39683 21.529L7.24654 15.8656C7.28971 15.7463 7.30253 15.6182 7.28385 15.4928C7.26516 15.3674 7.21557 15.2486 7.13954 15.1471L3.89107 11.0428C3.81252 10.9135 3.76719 10.7668 3.75912 10.6157C3.75105 10.4646 3.78048 10.3138 3.8448 10.1769C3.90912 10.0399 4.00633 9.92099 4.12776 9.83071C4.24919 9.74043 4.39108 9.6816 4.54077 9.65945L10.0746 8.94865C10.2097 8.9266 10.3384 8.87556 10.4519 8.79904C10.5653 8.72252 10.6609 8.62233 10.732 8.50536L13.9804 3.39984C14.0575 3.26172 14.1692 3.14608 14.3046 3.06432C14.4399 2.98256 14.5943 2.93751 14.7524 2.93362Z" fill="url(#paint3_linear_2180_61355)"/>
<path d="M14.73 2.93362V3.31577C14.7898 3.3126 14.8489 3.33087 14.8965 3.36728C14.9441 3.4037 14.9772 3.45588 14.9899 3.51448L16.5644 8.71936C16.6132 8.8987 16.7103 9.06121 16.8451 9.18923C16.9799 9.31724 17.1471 9.40586 17.3287 9.44545L22.5951 10.3779C22.647 10.3847 22.6954 10.4075 22.7338 10.4431C22.7721 10.4787 22.7984 10.5254 22.8091 10.5766C22.8298 10.6747 22.8229 10.7767 22.7892 10.8711C22.7554 10.9656 22.6962 11.0488 22.618 11.1116L18.0319 15.0554C17.8888 15.1802 17.7739 15.334 17.6948 15.5066C17.6157 15.6793 17.5743 15.8668 17.5733 16.0566V21.7583C17.5719 21.83 17.5563 21.9006 17.5275 21.9662C17.4986 22.0318 17.4571 22.091 17.4052 22.1405C17.3595 22.191 17.3042 22.2319 17.2425 22.2607C17.1808 22.2896 17.114 22.3059 17.0459 22.3086C16.994 22.3086 16.9432 22.2926 16.9007 22.2628L12.4981 19.4807C12.3283 19.3836 12.1357 19.3335 11.9401 19.3355C11.7598 19.3359 11.582 19.3777 11.4204 19.4578L6.14639 22.0411C6.08702 22.0707 6.02167 22.0864 5.95531 22.087C5.91709 22.0827 5.88024 22.0703 5.84726 22.0505C5.81428 22.0307 5.78596 22.004 5.76422 21.9723C5.73545 21.9182 5.7204 21.8578 5.7204 21.7965C5.7204 21.7352 5.73545 21.6749 5.76422 21.6207L7.61393 15.9649C7.67722 15.7837 7.69428 15.5895 7.66359 15.4C7.63289 15.2105 7.5554 15.0316 7.43814 14.8796L4.18967 10.783C4.15479 10.7226 4.13643 10.654 4.13643 10.5843C4.13643 10.5145 4.15479 10.446 4.18967 10.3855C4.22337 10.2927 4.28048 10.2101 4.35547 10.1459C4.43047 10.0816 4.5208 10.0378 4.61771 10.0187L10.1668 9.30023C10.3554 9.27229 10.5354 9.20297 10.694 9.09726C10.8525 8.99155 10.9857 8.85206 11.0841 8.68879L14.3325 3.58327C14.3776 3.50632 14.4409 3.44166 14.5169 3.395C14.5929 3.34835 14.6792 3.32113 14.7682 3.31577V2.93362M14.7682 2.93362C14.6138 2.93717 14.4627 2.97967 14.3291 3.05716C14.1955 3.13466 14.0836 3.24464 14.0039 3.37691L10.7554 8.48243C10.6843 8.5994 10.5888 8.69959 10.4753 8.77611C10.3618 8.85263 10.2331 8.90368 10.0981 8.92572L4.5642 9.63652C4.41452 9.65867 4.27263 9.71751 4.1512 9.80779C4.02977 9.89807 3.93256 10.017 3.86824 10.1539C3.80392 10.2909 3.77448 10.4416 3.78256 10.5927C3.79063 10.7438 3.83596 10.8906 3.91451 11.0199L7.16297 15.1242C7.23901 15.2257 7.2886 15.3445 7.30728 15.4699C7.32596 15.5953 7.31315 15.7234 7.26998 15.8426L5.42027 21.5061C5.37708 21.6094 5.35949 21.7217 5.369 21.8333C5.3785 21.9449 5.41481 22.0525 5.47485 22.1471C5.53488 22.2416 5.61686 22.3203 5.71382 22.3763C5.81078 22.4324 5.91984 22.4642 6.03174 22.4691C6.15598 22.4659 6.27824 22.4373 6.39098 22.385L11.642 19.8323C11.7523 19.7815 11.8723 19.7554 11.9936 19.7558C12.1145 19.7546 12.2334 19.7863 12.3376 19.8476L16.7326 22.6296C16.8369 22.6915 16.9553 22.7257 17.0765 22.729C17.3272 22.719 17.564 22.6108 17.7356 22.4278C17.9072 22.2447 17.9999 22.0015 17.9937 21.7507V16.0643C17.9935 15.9272 18.0235 15.7917 18.0817 15.6675C18.1398 15.5433 18.2246 15.4335 18.33 15.3458L22.9161 11.4021C23.0464 11.3252 23.1509 11.2114 23.2165 11.0751C23.2821 10.9388 23.3057 10.786 23.2845 10.6363C23.2632 10.4865 23.1979 10.3464 23.097 10.2338C22.996 10.1211 22.8639 10.0409 22.7174 10.0034L17.451 9.07094C17.332 9.05045 17.2213 8.9964 17.132 8.91517C17.0426 8.83394 16.9783 8.72889 16.9466 8.61236L15.3644 3.40748C15.3287 3.27086 15.2484 3.15006 15.1362 3.06422C15.0241 2.97839 14.8865 2.93243 14.7453 2.93362H14.7682Z" fill="url(#paint4_linear_2180_61355)"/>
<g style="mix-blend-mode:overlay" opacity="0.36">
<path d="M4.35547 13.6585C4.39999 13.5382 4.41353 13.4087 4.39483 13.2818C4.37613 13.1549 4.32579 13.0347 4.24846 12.9324L1 8.82812L3.85865 11.037L7.10711 15.1412C7.18315 15.2427 7.23274 15.3615 7.25142 15.4869C7.2701 15.6124 7.25728 15.7405 7.21412 15.8597L5.3644 21.5231C5.30725 21.6655 5.29719 21.8225 5.3357 21.971C5.37421 22.1196 5.45927 22.2519 5.57842 22.3486L2.71977 20.1398C2.60194 20.0421 2.51837 19.9093 2.48125 19.7609C2.44412 19.6124 2.45539 19.4559 2.5134 19.3143L4.35547 13.6585Z" fill="#0C1D77"/>
</g>
</g>
<defs>
<linearGradient id="paint0_linear_2180_61355" x1="22.7365" y1="8.96733" x2="13.7091" y2="7.50826" gradientUnits="userSpaceOnUse">
<stop stop-color="#E68702"/>
<stop offset="1" stop-color="#E65102"/>
</linearGradient>
<linearGradient id="paint1_linear_2180_61355" x1="6.69849" y1="16.0235" x2="-0.497711" y2="14.8604" gradientUnits="userSpaceOnUse">
<stop stop-color="#E68702"/>
<stop offset="1" stop-color="#E65102"/>
</linearGradient>
<linearGradient id="paint2_linear_2180_61355" x1="14.0935" y1="6.73428" x2="0.979869" y2="4.61479" gradientUnits="userSpaceOnUse">
<stop stop-color="#E68702"/>
<stop offset="1" stop-color="#E65102"/>
</linearGradient>
<linearGradient id="paint3_linear_2180_61355" x1="22.2033" y1="14.485" x2="3.08154" y2="11.3944" gradientUnits="userSpaceOnUse">
<stop stop-color="#FF9B02"/>
<stop offset="1" stop-color="#FFC602"/>
</linearGradient>
<linearGradient id="paint4_linear_2180_61355" x1="22.618" y1="14.6733" x2="3.55533" y2="11.6004" gradientUnits="userSpaceOnUse">
<stop stop-color="#FFDF71" stop-opacity="0"/>
<stop offset="1" stop-color="#FFDF71"/>
</linearGradient>
</defs>
</svg>
