<svg width="25" height="24" viewBox="0 0 25 24" fill="none" xmlns="http://www.w3.org/2000/svg">
<path d="M10.1941 0.158041C10.4854 0.111123 10.8976 0.056796 11.1074 0.0370408C11.3172 0.0197551 11.7565 0.00246939 12.0823 0C12.4106 0 12.8672 0.0148163 13.1066 0.0345715C13.3436 0.0543266 13.6225 0.0814899 13.7237 0.0963062C13.8249 0.111123 14.0693 0.150633 14.2667 0.185204C14.4642 0.217306 14.8073 0.291388 15.0319 0.345715C15.2565 0.400041 15.6489 0.516102 15.9081 0.600062C16.1672 0.68649 16.5325 0.819837 16.7226 0.898858C16.9127 0.977878 17.273 1.1458 17.5248 1.27174C17.7765 1.39767 18.127 1.58782 18.3023 1.694C18.48 1.80019 18.8231 2.02737 19.0674 2.20023C19.3118 2.37308 19.6401 2.62249 19.7955 2.75337C19.951 2.88178 20.2176 3.11884 20.3855 3.27688C20.5533 3.43492 20.8273 3.71643 20.9951 3.89917C21.1605 4.0819 21.3727 4.32637 21.4665 4.44243C21.5603 4.55849 21.7134 4.75851 21.8096 4.88692C21.9059 5.01533 22.049 5.22276 22.133 5.34376C22.2144 5.46476 22.3477 5.67713 22.4291 5.81294C22.5131 5.94876 22.6587 6.21052 22.7525 6.39325C22.8487 6.57598 22.9968 6.87725 23.0783 7.05999C23.1622 7.24272 23.2634 7.47731 23.3054 7.57856C23.3449 7.6798 23.4387 7.94156 23.5102 8.15886C23.5818 8.37617 23.6633 8.63052 23.6904 8.72682C23.7176 8.82313 23.7719 9.02068 23.8064 9.17131C23.8434 9.32195 23.9052 9.6158 23.9422 9.8257C23.9817 10.0356 24.0286 10.3467 24.0508 10.5171C24.073 10.6875 24.1001 10.9542 24.1125 11.1098C24.1224 11.2654 24.1347 11.6506 24.1372 11.9617C24.1396 12.2976 24.1273 12.7075 24.1051 12.9618C24.0853 13.1989 24.0434 13.5495 24.0162 13.7397C23.9866 13.9298 23.9372 14.2237 23.9027 14.3941C23.8681 14.5645 23.8064 14.8312 23.7669 14.9867C23.725 15.1423 23.6682 15.3423 23.6411 15.4312C23.6176 15.5156 23.5609 15.6889 23.515 15.8288L23.5078 15.851C23.4584 15.9942 23.3918 16.1869 23.3572 16.2832C23.3226 16.3795 23.2215 16.6165 23.1326 16.8141C23.0462 17.0116 22.9179 17.2833 22.8487 17.4191C22.7821 17.5549 22.6538 17.7944 22.5649 17.95C22.4785 18.1056 22.2811 18.4216 22.1256 18.6538C21.9725 18.8859 21.7504 19.197 21.6344 19.3452C21.5184 19.4934 21.3209 19.7329 21.195 19.8761C21.0716 20.0193 20.847 20.2613 20.6965 20.4144C20.5484 20.57 20.2719 20.8293 20.0819 20.9948C19.8943 21.1602 19.6228 21.3874 19.4771 21.501C19.334 21.6146 19.0279 21.8319 18.7959 21.985C18.5639 22.1405 18.2776 22.3233 18.1542 22.3924C18.0308 22.464 17.7494 22.6122 17.5248 22.7258C17.3002 22.8394 17.0064 22.9801 16.8707 23.0369C16.7349 23.0962 16.535 23.1752 16.4264 23.2147C16.3178 23.2567 16.0685 23.3431 15.8711 23.4098C15.6736 23.474 15.3132 23.5777 15.0689 23.6395C14.8245 23.7012 14.4296 23.7852 14.1927 23.8247C13.9557 23.8667 13.6447 23.9111 13.5016 23.9259C13.3584 23.9407 13.2029 23.9605 13.156 23.9679C13.1091 23.9778 11.5763 23.9877 9.74985 23.9926C7.92336 23.9975 6.29433 23.9975 5.8229 23.9877L5.99074 23.7506C6.08206 23.6197 6.26718 23.353 6.398 23.1579C6.52881 22.9629 6.76823 22.6122 6.92867 22.3776C7.0891 22.143 7.26188 21.8936 7.31124 21.822C7.36061 21.7504 7.59509 21.4071 7.82957 21.0614C8.06652 20.7157 8.36764 20.2712 8.5034 20.0737C8.63668 19.8761 8.78231 19.6638 8.8292 19.5971C8.90819 19.4835 8.91312 19.481 8.9773 19.5156C9.01679 19.5353 9.1871 19.602 9.36234 19.6638C9.53512 19.7255 9.78934 19.8094 9.92757 19.849C10.0683 19.8885 10.2929 19.9428 10.4286 19.97C10.5644 19.9996 10.826 20.0465 11.0086 20.0761C11.2876 20.1206 11.4603 20.1305 12.07 20.1379C12.7611 20.1428 12.8203 20.1403 13.2671 20.0737C13.5262 20.0342 13.8743 19.97 14.0446 19.928C14.2149 19.8885 14.4592 19.8218 14.5876 19.7823C14.7159 19.7403 14.9282 19.6662 15.0565 19.6193C15.1849 19.5699 15.3305 19.5107 15.3774 19.4884C15.4243 19.4687 15.6193 19.3724 15.8094 19.2761C15.9994 19.1822 16.2536 19.0439 16.3771 18.9699C16.5005 18.8958 16.7251 18.7427 16.8806 18.634C17.0361 18.5229 17.3199 18.2982 17.51 18.1327C17.7025 17.9697 17.9592 17.7253 18.0801 17.5895C18.2035 17.4561 18.359 17.2783 18.4281 17.1968C18.4973 17.1153 18.6528 16.9104 18.7737 16.74C18.8946 16.5696 19.0575 16.3251 19.1341 16.1967C19.2106 16.0683 19.3439 15.8164 19.4327 15.6411C19.5216 15.4658 19.6326 15.2263 19.6795 15.1102C19.7264 14.9941 19.8079 14.7842 19.8573 14.641C19.9066 14.4978 19.9782 14.2583 20.0177 14.1101C20.0572 13.9619 20.114 13.7224 20.1411 13.5792C20.1707 13.436 20.2151 13.1693 20.2374 12.9865C20.2694 12.747 20.2818 12.4828 20.2843 12.0482C20.2843 11.7148 20.2744 11.3592 20.2645 11.2579L20.2599 11.2202C20.2482 11.1242 20.234 11.008 20.2275 10.9493C20.2201 10.8826 20.2077 10.7863 20.2003 10.7394C20.1929 10.6925 20.1707 10.564 20.151 10.4554C20.1312 10.3467 20.0745 10.1122 20.03 9.93682C19.9831 9.7615 19.9017 9.4874 19.8474 9.33182C19.7955 9.17625 19.7018 8.93178 19.6401 8.78856C19.5783 8.64533 19.4697 8.41321 19.3957 8.26999C19.3216 8.12676 19.1958 7.90452 19.1193 7.77611C19.0403 7.6477 18.8724 7.39582 18.7466 7.2205C18.6207 7.04517 18.401 6.76613 18.2578 6.60315C18.1147 6.44017 17.8925 6.21052 17.7667 6.09445C17.6408 5.97839 17.4655 5.82282 17.3767 5.74874C17.2878 5.67466 17.1447 5.5586 17.0558 5.48945C16.967 5.42031 16.767 5.28202 16.6115 5.17831C16.456 5.0746 16.2216 4.93384 16.0932 4.86223C15.9649 4.79309 15.7551 4.6869 15.6316 4.62517C15.5058 4.5659 15.2935 4.47453 15.1627 4.42021C15.0294 4.36835 14.7924 4.28439 14.6369 4.23253C14.4814 4.18315 14.1705 4.09919 13.9458 4.04733C13.7212 3.99547 13.4719 3.94608 13.3905 3.93621C13.309 3.92633 13.2152 3.91398 13.1807 3.90657C13.1461 3.90164 13.0474 3.88682 12.9586 3.87447C12.8697 3.86459 12.5044 3.85472 12.144 3.85472C11.7837 3.85472 11.4357 3.86459 11.3665 3.87447C11.2999 3.88435 11.137 3.90657 11.0086 3.92386C10.8803 3.93868 10.6902 3.96831 10.5891 3.98806C10.4879 4.00782 10.2929 4.05227 10.1571 4.08684C10.0214 4.12141 9.82143 4.17821 9.71283 4.21278C9.60423 4.24735 9.41417 4.31155 9.29323 4.356C9.17229 4.40292 9.00445 4.4696 8.923 4.50417C8.84154 4.54121 8.62928 4.64245 8.45403 4.73135C8.27879 4.82025 8.04924 4.94372 7.94804 5.00545C7.84685 5.06719 7.67901 5.17337 7.57781 5.24251C7.47661 5.30919 7.2989 5.4376 7.18289 5.52649C7.06689 5.61292 6.93854 5.71664 6.89905 5.75368C6.85955 5.79072 6.76329 5.87468 6.68678 5.93888C6.61026 6.00556 6.42515 6.18829 6.27458 6.34386C6.12402 6.49943 5.91669 6.73403 5.81303 6.86243C5.70936 6.99084 5.55633 7.19333 5.47241 7.31433C5.38849 7.43286 5.25767 7.63288 5.18116 7.75882C5.10464 7.88229 4.96395 8.14158 4.86769 8.33172C4.77143 8.52186 4.64308 8.79844 4.58385 8.94907C4.52214 9.0997 4.43328 9.34911 4.38145 9.50468C4.33209 9.66025 4.2531 9.94423 4.20868 10.1344C4.16178 10.3245 4.10007 10.6406 4.01862 11.1962L4.02356 24H0.148438L0.150906 17.6981C0.153374 12.6581 0.160779 11.3147 0.187929 10.9987C0.205207 10.7814 0.244698 10.448 0.271849 10.2578C0.301468 10.0677 0.353301 9.77384 0.387856 9.60346C0.422411 9.43307 0.486585 9.14415 0.533481 8.96142C0.580378 8.77868 0.68898 8.41568 0.777836 8.15886C0.864224 7.90205 0.997509 7.53905 1.07402 7.35631C1.15301 7.17358 1.29616 6.86243 1.39489 6.66488C1.49362 6.46733 1.65899 6.15619 1.76513 5.97345C1.87126 5.79072 2.08353 5.45735 2.23656 5.23264C2.38959 5.00792 2.63394 4.67702 2.78204 4.49429C2.92766 4.31155 3.19917 4.00041 3.38429 3.80286C3.56694 3.60531 3.873 3.30157 4.06305 3.13119C4.25064 2.9608 4.49499 2.74843 4.60359 2.662C4.71219 2.5731 4.88991 2.43482 4.99851 2.3558C5.10711 2.27678 5.32925 2.12121 5.49216 2.01008C5.65506 1.89896 5.93891 1.72116 6.12155 1.61498C6.3042 1.51127 6.61026 1.34582 6.80032 1.24951C6.99037 1.15567 7.27422 1.02233 7.42972 0.955654C7.58521 0.88898 7.86412 0.780327 8.04677 0.713654C8.22942 0.64698 8.51327 0.553143 8.67617 0.503756C8.83908 0.454368 9.12786 0.375347 9.31791 0.330898C9.50797 0.28398 9.90288 0.207429 10.1941 0.158041Z" fill="#FDFEFE"/>
<path d="M14.6892 11.3339C14.7361 11.3043 14.8249 11.2623 14.8866 11.2376C14.9681 11.2031 15.0446 11.1957 15.1705 11.2006C15.284 11.208 15.3901 11.2327 15.479 11.2722C15.553 11.3068 15.6592 11.3784 15.7135 11.4327C15.7678 11.487 15.8394 11.5858 15.8739 11.6525C15.9183 11.7414 15.9356 11.8254 15.943 11.971C15.9529 12.1488 15.9455 12.1859 15.8813 12.3291C15.8418 12.418 15.7653 12.5341 15.711 12.5859C15.6592 12.6378 15.553 12.7119 15.479 12.7464C15.3655 12.8008 15.3111 12.8106 15.1334 12.8082C14.9434 12.8082 14.9088 12.8008 14.7657 12.7217C14.6793 12.6748 14.5707 12.5933 14.5263 12.539C14.4818 12.4847 14.4201 12.3859 14.3905 12.3168C14.351 12.2254 14.3362 12.1439 14.3362 12.0081C14.3337 11.8673 14.3485 11.7933 14.3905 11.6994C14.4201 11.6327 14.4818 11.534 14.5238 11.4796C14.5682 11.4278 14.6423 11.3611 14.6892 11.3339Z" fill="#FDFEFE"/>
<path d="M8.69711 11.3329C8.75142 11.2958 8.85015 11.2489 8.91926 11.2292C8.98837 11.2094 9.10931 11.1971 9.19076 11.1995C9.29689 11.2045 9.38328 11.2267 9.49929 11.2835C9.58815 11.3255 9.69675 11.402 9.74364 11.4563C9.79054 11.5082 9.85718 11.6119 9.88927 11.686C9.93863 11.7922 9.95098 11.8638 9.95098 12.007C9.95098 12.1552 9.93863 12.2194 9.8868 12.3355C9.84978 12.412 9.77326 12.5231 9.71403 12.5799C9.65726 12.6392 9.55359 12.7133 9.48695 12.7478C9.38328 12.7972 9.32651 12.8071 9.1414 12.8096C8.939 12.8096 8.90691 12.8022 8.7835 12.7355C8.70946 12.6935 8.60579 12.617 8.55396 12.5626C8.50212 12.5083 8.43548 12.4145 8.40586 12.3527C8.36144 12.2614 8.35156 12.1972 8.35156 12.007C8.35156 11.8021 8.36144 11.7576 8.4182 11.649C8.45276 11.5798 8.50953 11.4983 8.53915 11.4613C8.57123 11.4267 8.64281 11.3699 8.69711 11.3329Z" fill="#FDFEFE"/>
<path d="M11.7769 11.3087C11.851 11.2668 11.9497 11.2272 11.9966 11.2174C12.0435 11.205 12.1496 11.2001 12.2311 11.205C12.3224 11.21 12.431 11.2347 12.5149 11.2742C12.589 11.3063 12.6926 11.3754 12.7445 11.4248C12.7938 11.4742 12.8654 11.5754 12.9024 11.647C12.9567 11.7483 12.9715 11.815 12.9765 11.973C12.9814 12.1113 12.9715 12.2051 12.9419 12.2817C12.9197 12.3434 12.8654 12.4422 12.8259 12.499C12.784 12.5582 12.7 12.6397 12.6383 12.6792C12.5766 12.7188 12.473 12.7706 12.4038 12.7928C12.3175 12.82 12.2311 12.8274 12.12 12.82C12.0311 12.8126 11.9102 12.783 11.8485 12.7558C11.7868 12.7286 11.6881 12.6644 11.6288 12.6126C11.5646 12.5558 11.4906 12.4521 11.4437 12.3558C11.3795 12.2199 11.3672 12.1705 11.3672 12.01C11.3697 11.8643 11.382 11.7952 11.4314 11.689C11.4659 11.6149 11.5276 11.5137 11.5696 11.4668C11.6115 11.4199 11.7053 11.3482 11.7769 11.3087Z" fill="#FDFEFE"/>
</svg>
