<svg width="23" height="23" viewBox="0 0 23 23" fill="none" xmlns="http://www.w3.org/2000/svg">
<path d="M0 11.1429C0 4.98883 4.98883 0 11.1429 0C17.2969 0 22.2857 4.98883 22.2857 11.1429C22.2857 17.2969 17.2969 22.2857 11.1429 22.2857C4.98883 22.2857 0 17.2969 0 11.1429Z" fill="#F2F9FC"/>
<path fill-rule="evenodd" clip-rule="evenodd" d="M11.1461 8.51628C10.487 8.51628 9.95218 9.05114 9.95218 9.71016C9.95218 9.90014 9.87671 10.0823 9.74238 10.2167C9.60804 10.351 9.42584 10.4265 9.23586 10.4265C9.04588 10.4265 8.86368 10.351 8.72934 10.2167C8.595 10.0823 8.51953 9.90014 8.51953 9.71016C8.51977 9.23264 8.65019 8.76422 8.89676 8.35529C9.14332 7.94635 9.49671 7.61237 9.9189 7.38927C10.3411 7.16616 10.8161 7.06237 11.2929 7.08907C11.7697 7.11576 12.2301 7.27193 12.6248 7.54077C13.0194 7.80961 13.3333 8.18095 13.5327 8.61486C13.7321 9.04876 13.8094 9.52881 13.7563 10.0034C13.7033 10.4779 13.5218 10.929 13.2315 11.3082C12.9412 11.6873 12.5531 11.9802 12.1088 12.1552C12.0273 12.1853 11.9535 12.2333 11.893 12.2956C11.8802 12.3083 11.8698 12.3232 11.8624 12.3396C11.862 12.5295 11.7862 12.7116 11.6516 12.8457C11.517 12.9797 11.3346 13.0548 11.1446 13.0544C10.9546 13.0541 10.7726 12.9782 10.6385 12.8436C10.5045 12.709 10.4294 12.5267 10.4297 12.3367C10.4297 11.5105 11.0945 11.0139 11.5835 10.8219C11.8428 10.7204 12.0584 10.5315 12.1931 10.2879C12.3278 10.0442 12.3732 9.76115 12.3213 9.48761C12.2694 9.21408 12.1235 8.96728 11.9089 8.78991C11.6943 8.61254 11.4245 8.51575 11.1461 8.51628Z" fill="#00527A"/>
<path d="M11.1465 15.4405C11.3998 15.4405 11.6428 15.3399 11.8219 15.1607C12.001 14.9816 12.1016 14.7387 12.1016 14.4854C12.1016 14.2321 12.001 13.9891 11.8219 13.81C11.6428 13.6309 11.3998 13.5303 11.1465 13.5303C10.8932 13.5303 10.6503 13.6309 10.4711 13.81C10.292 13.9891 10.1914 14.2321 10.1914 14.4854C10.1914 14.7387 10.292 14.9816 10.4711 15.1607C10.6503 15.3399 10.8932 15.4405 11.1465 15.4405Z" fill="#00527A"/>
<path fill-rule="evenodd" clip-rule="evenodd" d="M11.1467 17.8285C12.0246 17.8285 12.894 17.6555 13.7052 17.3195C14.5163 16.9836 15.2533 16.4911 15.8742 15.8703C16.495 15.2494 16.9875 14.5124 17.3234 13.7013C17.6594 12.8901 17.8324 12.0207 17.8324 11.1427C17.8324 10.2648 17.6594 9.39538 17.3234 8.58423C16.9875 7.77309 16.495 7.03606 15.8742 6.41523C15.2533 5.79441 14.5163 5.30194 13.7052 4.96595C12.894 4.62996 12.0246 4.45703 11.1467 4.45703C9.37349 4.45703 7.67295 5.16142 6.41914 6.41523C5.16532 7.66905 4.46094 9.36958 4.46094 11.1427C4.46094 12.9159 5.16532 14.6164 6.41914 15.8703C7.67295 17.1241 9.37349 17.8285 11.1467 17.8285ZM11.1467 16.3958C12.5398 16.3958 13.876 15.8424 14.8611 14.8572C15.8463 13.8721 16.3997 12.5359 16.3997 11.1427C16.3997 9.74955 15.8463 8.41341 14.8611 7.42827C13.876 6.44313 12.5398 5.88968 11.1467 5.88968C9.75345 5.88968 8.41732 6.44313 7.43218 7.42827C6.44704 8.41341 5.89359 9.74955 5.89359 11.1427C5.89359 12.5359 6.44704 13.8721 7.43218 14.8572C8.41732 15.8424 9.75345 16.3958 11.1467 16.3958Z" fill="#00527A"/>
</svg>
