<svg width="116" height="26" viewBox="0 0 116 26" fill="none" xmlns="http://www.w3.org/2000/svg">
<path d="M0.285156 13C0.285156 5.8203 6.10545 0 13.2852 0H102.285C109.465 0 115.285 5.8203 115.285 13C115.285 20.1797 109.465 26 102.285 26H13.2852C6.10546 26 0.285156 20.1797 0.285156 13Z" fill="#F2F9FC"/>
<path d="M9.29084 17V8.27273H10.4798V12.1122H14.984V8.27273H16.1687V17H14.984V13.1477H10.4798V17H9.29084ZM20.7763 17.1364C20.174 17.1364 19.647 16.9957 19.1953 16.7145C18.7436 16.4304 18.3928 16.0355 18.1428 15.5298C17.8928 15.0241 17.7678 14.4347 17.7678 13.7614C17.7678 13.0795 17.8928 12.4844 18.1428 11.9759C18.3928 11.4673 18.7436 11.0724 19.1953 10.7912C19.647 10.5099 20.174 10.3693 20.7763 10.3693C21.3786 10.3693 21.9055 10.5099 22.3572 10.7912C22.8089 11.0724 23.1598 11.4673 23.4098 11.9759C23.6598 12.4844 23.7848 13.0795 23.7848 13.7614C23.7848 14.4347 23.6598 15.0241 23.4098 15.5298C23.1598 16.0355 22.8089 16.4304 22.3572 16.7145C21.9055 16.9957 21.3786 17.1364 20.7763 17.1364ZM20.7763 16.1477C21.2024 16.1477 21.5518 16.0384 21.8246 15.8196C22.1001 15.598 22.3047 15.3068 22.4382 14.946C22.5717 14.5824 22.6385 14.1861 22.6385 13.7571C22.6385 13.331 22.5717 12.9361 22.4382 12.5724C22.3047 12.206 22.1001 11.9119 21.8246 11.6903C21.5518 11.4659 21.2024 11.3537 20.7763 11.3537C20.353 11.3537 20.0036 11.4659 19.728 11.6903C19.4524 11.9119 19.2479 12.206 19.1143 12.5724C18.9808 12.9361 18.9141 13.331 18.9141 13.7571C18.9141 14.1861 18.9808 14.5824 19.1143 14.946C19.2479 15.3068 19.4524 15.598 19.728 15.8196C20.0036 16.0384 20.353 16.1477 20.7763 16.1477ZM26.5036 17L24.5433 10.4545H25.7322L27.0788 15.3636H27.147L28.4851 10.4545H29.6825L31.0121 15.3466H31.076L32.4226 10.4545H33.6072L31.6513 17H30.505L29.1243 12.125H29.0263L27.6456 17H26.5036ZM38.1637 17V10.4545H39.3058V17H38.1637ZM38.7433 9.40625C38.5359 9.40625 38.3569 9.33523 38.2063 9.19318C38.0586 9.05114 37.9847 8.88068 37.9847 8.68182C37.9847 8.4858 38.0586 8.31676 38.2063 8.17472C38.3569 8.03267 38.5359 7.96165 38.7433 7.96165C38.9506 7.96165 39.1282 8.03267 39.2759 8.17472C39.4265 8.31676 39.5018 8.4858 39.5018 8.68182C39.5018 8.88068 39.4265 9.05114 39.2759 9.19318C39.1282 9.33523 38.9506 9.40625 38.7433 9.40625ZM44.0348 10.4545V11.392H40.5533V10.4545H44.0348ZM41.5249 8.88636H42.6669V15.1037C42.6669 15.3679 42.7053 15.5668 42.782 15.7003C42.8615 15.831 42.9638 15.919 43.0888 15.9645C43.2138 16.0099 43.3487 16.0327 43.4936 16.0327C43.5987 16.0327 43.6882 16.027 43.7621 16.0156C43.8359 16.0014 43.8942 15.9901 43.9368 15.9815L44.1541 16.9574C44.0831 16.983 43.9822 17.0099 43.8516 17.0384C43.7237 17.0696 43.5618 17.0852 43.3658 17.0852C43.0561 17.0881 42.7607 17.0284 42.4794 16.9062C42.1982 16.7812 41.968 16.5909 41.7891 16.3352C41.6129 16.0795 41.5249 15.7571 41.5249 15.3679V8.88636ZM50.234 17L48.2738 10.4545H49.4627L50.8093 15.3636H50.8775L52.2156 10.4545H53.413L54.7425 15.3466H54.8065L56.1531 10.4545H57.3377L55.3817 17H54.2354L52.8548 12.125H52.7567L51.3761 17H50.234ZM61.1122 17.1364C60.5099 17.1364 59.983 16.9957 59.5312 16.7145C59.0795 16.4304 58.7287 16.0355 58.4787 15.5298C58.2287 15.0241 58.1037 14.4347 58.1037 13.7614C58.1037 13.0795 58.2287 12.4844 58.4787 11.9759C58.7287 11.4673 59.0795 11.0724 59.5312 10.7912C59.983 10.5099 60.5099 10.3693 61.1122 10.3693C61.7145 10.3693 62.2415 10.5099 62.6932 10.7912C63.1449 11.0724 63.4957 11.4673 63.7457 11.9759C63.9957 12.4844 64.1207 13.0795 64.1207 13.7614C64.1207 14.4347 63.9957 15.0241 63.7457 15.5298C63.4957 16.0355 63.1449 16.4304 62.6932 16.7145C62.2415 16.9957 61.7145 17.1364 61.1122 17.1364ZM61.1122 16.1477C61.5384 16.1477 61.8878 16.0384 62.1605 15.8196C62.4361 15.598 62.6406 15.3068 62.7741 14.946C62.9077 14.5824 62.9744 14.1861 62.9744 13.7571C62.9744 13.331 62.9077 12.9361 62.7741 12.5724C62.6406 12.206 62.4361 11.9119 62.1605 11.6903C61.8878 11.4659 61.5384 11.3537 61.1122 11.3537C60.6889 11.3537 60.3395 11.4659 60.0639 11.6903C59.7884 11.9119 59.5838 12.206 59.4503 12.5724C59.3168 12.9361 59.25 13.331 59.25 13.7571C59.25 14.1861 59.3168 14.5824 59.4503 14.946C59.5838 15.3068 59.7884 15.598 60.0639 15.8196C60.3395 16.0384 60.6889 16.1477 61.1122 16.1477ZM65.5973 17V10.4545H66.701V11.4688H66.7692C66.8885 11.1307 67.1016 10.8608 67.4084 10.6591C67.718 10.4545 68.0661 10.3523 68.4524 10.3523C68.5291 10.3523 68.6214 10.3551 68.7294 10.3608C68.8402 10.3636 68.9268 10.3693 68.9893 10.3778V11.4986C68.9467 11.4872 68.8615 11.473 68.7337 11.456C68.6087 11.4361 68.4808 11.4261 68.3501 11.4261C68.0405 11.4261 67.7635 11.4915 67.5192 11.6222C67.2777 11.75 67.0874 11.9276 66.9482 12.1548C66.8089 12.3821 66.7393 12.6406 66.7393 12.9304V17H65.5973ZM71.1893 14.6989L71.1765 13.2969H71.3896L74.1254 10.4545H75.5103L72.4975 13.5739H72.3569L71.1893 14.6989ZM70.1325 17V8.27273H71.2745V17H70.1325ZM74.283 17L71.8285 13.8253L72.6296 13.0284L75.7021 17H74.283ZM81.5146 11.9886L80.4833 12.2188C80.4322 12.0682 80.3526 11.9247 80.2447 11.7884C80.1396 11.6491 79.9961 11.5341 79.8143 11.4432C79.6325 11.3523 79.4023 11.3068 79.1239 11.3068C78.7433 11.3068 78.4251 11.3935 78.1694 11.5668C77.9165 11.7401 77.7901 11.9602 77.7901 12.2273C77.7901 12.4602 77.8768 12.6463 78.0501 12.7855C78.2234 12.9247 78.4961 13.0398 78.8683 13.1307L79.8739 13.3693C80.4677 13.5085 80.9094 13.7244 81.1992 14.017C81.4918 14.3068 81.6381 14.6818 81.6381 15.142C81.6381 15.5256 81.5273 15.8679 81.3058 16.169C81.087 16.4673 80.7816 16.7031 80.3896 16.8764C79.9975 17.0497 79.5415 17.1364 79.0217 17.1364C78.32 17.1364 77.7447 16.9858 77.2958 16.6847C76.8469 16.3807 76.5657 15.9446 76.4521 15.3764L77.5472 15.1634C77.6325 15.5014 77.7972 15.7557 78.0415 15.9261C78.2887 16.0937 78.6112 16.1776 79.0089 16.1776C79.4521 16.1776 79.8043 16.0838 80.0657 15.8963C80.3299 15.7088 80.4634 15.4815 80.4663 15.2145C80.4634 14.9986 80.3839 14.8182 80.2276 14.6733C80.0742 14.5256 79.837 14.4148 79.516 14.3409L78.4165 14.0895C77.8114 13.9503 77.3654 13.7301 77.0785 13.429C76.7944 13.125 76.6523 12.7443 76.6523 12.2869C76.6523 11.9091 76.7575 11.5767 76.9677 11.2898C77.1808 11 77.4734 10.7741 77.8455 10.6122C78.2177 10.4503 78.6424 10.3693 79.1197 10.3693C79.7958 10.3693 80.3285 10.517 80.7177 10.8125C81.1069 11.108 81.3725 11.5 81.5146 11.9886ZM84.4485 14.5199V14.4517C84.4542 13.9176 84.5082 13.4929 84.6104 13.1776C84.7156 12.8594 84.8647 12.6023 85.0579 12.4062C85.2539 12.2102 85.4869 12.0298 85.7567 11.8651C85.9272 11.7599 86.0792 11.6392 86.2127 11.5028C86.3462 11.3636 86.4528 11.206 86.5323 11.0298C86.6119 10.8509 86.6516 10.652 86.6516 10.4332C86.6516 10.169 86.5891 9.93892 86.4641 9.7429C86.3391 9.54687 86.1715 9.39631 85.9613 9.29119C85.7539 9.18608 85.5238 9.13352 85.271 9.13352C85.0465 9.13352 84.8306 9.1804 84.6232 9.27415C84.4158 9.3679 84.2425 9.5142 84.1033 9.71307C83.9641 9.91193 83.8846 10.1705 83.8647 10.4886H82.68C82.7028 9.99148 82.8306 9.5696 83.0636 9.22301C83.2965 8.87358 83.6048 8.60795 83.9883 8.42614C84.3746 8.24432 84.8022 8.15341 85.271 8.15341C85.7823 8.15341 86.2283 8.25142 86.609 8.44744C86.9925 8.64347 87.2894 8.91619 87.4996 9.26562C87.7099 9.61222 87.815 10.0114 87.815 10.4631C87.815 10.7812 87.7653 11.0668 87.6658 11.3196C87.5692 11.5724 87.43 11.7983 87.2482 11.9972C87.0692 12.196 86.8533 12.3722 86.6005 12.5256C86.3533 12.679 86.1545 12.8395 86.0039 13.0071C85.8562 13.1747 85.7482 13.3722 85.68 13.5994C85.6119 13.8267 85.5749 14.1108 85.5692 14.4517V14.5199H84.4485ZM85.0451 17.0767C84.8207 17.0767 84.6289 16.9972 84.4698 16.8381C84.3136 16.679 84.2354 16.4886 84.2354 16.267C84.2354 16.0455 84.3136 15.8551 84.4698 15.696C84.6289 15.5369 84.8207 15.4574 85.0451 15.4574C85.2638 15.4574 85.4528 15.5369 85.6119 15.696C85.7738 15.8551 85.8548 16.0455 85.8548 16.267C85.8548 16.4119 85.8178 16.5469 85.744 16.6719C85.6701 16.794 85.5721 16.892 85.4499 16.9659C85.3278 17.0398 85.1928 17.0767 85.0451 17.0767Z" fill="#005278"/>
<path d="M99.8614 7.15039C99.6823 7.15039 99.5107 7.22151 99.3841 7.34809C99.2575 7.47468 99.1864 7.64637 99.1864 7.82539C99.1864 8.00441 99.2575 8.1761 99.3841 8.30269C99.5107 8.42927 99.6823 8.50039 99.8614 8.50039H101.832L97.3594 12.9734C97.2931 13.0352 97.2399 13.1097 97.203 13.1925C97.1661 13.2753 97.1462 13.3647 97.1446 13.4553C97.143 13.546 97.1597 13.636 97.1937 13.72C97.2276 13.8041 97.2781 13.8804 97.3422 13.9445C97.4063 14.0086 97.4827 14.0592 97.5667 14.0931C97.6508 14.1271 97.7408 14.1437 97.8314 14.1421C97.9221 14.1405 98.0115 14.1207 98.0943 14.0838C98.1771 14.0469 98.2516 13.9937 98.3134 13.9274L102.786 9.45439V11.4254C102.786 11.6044 102.857 11.7761 102.984 11.9027C103.111 12.0293 103.282 12.1004 103.461 12.1004C103.64 12.1004 103.812 12.0293 103.939 11.9027C104.065 11.7761 104.136 11.6044 104.136 11.4254V7.82539C104.136 7.64637 104.065 7.47468 103.939 7.34809C103.812 7.22151 103.64 7.15039 103.461 7.15039H99.8614Z" fill="#005278"/>
<path d="M102.784 13.8703C102.784 13.6913 102.712 13.5196 102.586 13.393C102.459 13.2664 102.288 13.1953 102.109 13.1953C101.93 13.1953 101.758 13.2664 101.631 13.393C101.505 13.5196 101.434 13.6913 101.434 13.8703V16.375C101.434 16.996 100.93 17.5 100.309 17.5H94.9086C94.2876 17.5 93.7836 16.996 93.7836 16.375V10.975C93.7836 10.354 94.2876 9.85 94.9086 9.85H97.4133C97.5923 9.85 97.764 9.77888 97.8906 9.6523C98.0172 9.52571 98.0883 9.35402 98.0883 9.175C98.0883 8.99598 98.0172 8.82429 97.8906 8.6977C97.764 8.57112 97.5923 8.5 97.4133 8.5H94.9086C94.2522 8.5 93.6227 8.76076 93.1585 9.22491C92.6944 9.68906 92.4336 10.3186 92.4336 10.975V16.375C92.4336 17.0314 92.6944 17.6609 93.1585 18.1251C93.6227 18.5892 94.2522 18.85 94.9086 18.85H100.309C100.965 18.85 101.595 18.5892 102.059 18.1251C102.523 17.6609 102.784 17.0314 102.784 16.375V13.8703Z" fill="#005278"/>
</svg>
