<svg width="20" height="20" viewBox="0 0 20 20" fill="none" xmlns="http://www.w3.org/2000/svg">
<g clip-path="url(#clip0_278_11205)">
<path d="M13.331 0.570312L12.1641 3.80589C13.2412 7.3607 13.2412 12.6369 12.1641 16.1919L13.331 19.4271C17.2144 18.054 19.9972 14.3522 19.9972 9.9985C19.9972 5.64543 17.2144 1.94355 13.331 0.570312Z" fill="#E63026"/>
<path d="M13.3302 3.80697V0.571394C12.2874 0.202582 11.1657 0 9.9963 0C11.5383 0 9.40024 5.22597 13.3302 3.80697ZM9.9963 19.9998C11.1656 19.9998 12.2874 19.7972 13.3302 19.4284V16.1932C9.43972 15.8049 9.9963 19.9998 9.9963 19.9998Z" fill="#E4E4E4"/>
<path d="M0 9.99982C0 14.3681 2.80166 18.0796 6.70515 19.4417V0.558594C2.80166 1.92073 0 5.63219 0 9.99982Z" fill="#359846"/>
<path d="M13.3359 3.80859V16.1946C14.4132 12.6396 14.4132 7.36337 13.3359 3.80859Z" fill="#EF4C4C"/>
<path d="M13.3318 16.1931V3.80697C12.651 1.55952 11.5399 5.34093e-07 9.9979 5.34093e-07C8.87605 -0.000366497 7.76218 0.188438 6.70312 0.558474V19.4417C7.7622 19.8116 8.87607 20.0003 9.9979 19.9999C11.5399 19.9998 12.651 18.4403 13.3318 16.1931Z" fill="#F3F4F5"/>
</g>
<defs>
<clipPath id="clip0_278_11205">
<rect width="20" height="20" fill="white"/>
</clipPath>
</defs>
</svg>
