<svg width="275" height="130" viewBox="0 0 275 130" fill="none" xmlns="http://www.w3.org/2000/svg">
<path d="M0 16C0 7.16344 6.61056 0 14.7651 0H260.235C268.389 0 275 7.16344 275 16V114C275 122.837 268.389 130 260.235 130H14.7651C6.61056 130 0 122.837 0 114V16Z" fill="url(#paint0_linear_1319_16785)"/>
<mask id="mask0_1319_16785" style="mask-type:alpha" maskUnits="userSpaceOnUse" x="0" y="0" width="275" height="130">
<path d="M0 13.6646C0 6.11785 6.11785 0 13.6646 0H261.335C268.882 0 275 6.11785 275 13.6646V116.335C275 123.882 268.882 130 261.335 130H13.6646C6.11786 130 0 123.882 0 116.335V13.6646Z" fill="white"/>
</mask>
<g mask="url(#mask0_1319_16785)">
<g filter="url(#filter0_bdi_1319_16785)">
<rect x="34.8906" y="23" width="197.169" height="23.6604" rx="11.8302" fill="url(#paint1_linear_1319_16785)" shape-rendering="crispEdges"/>
</g>
<g opacity="0.6">
<path fill-rule="evenodd" clip-rule="evenodd" d="M216.74 31.0327C216.784 30.6832 216.954 30.3618 217.218 30.1289C217.483 29.8959 217.823 29.7675 218.175 29.7676H220.344C220.696 29.7675 221.036 29.8959 221.301 30.1289C221.565 30.3618 221.735 30.6832 221.779 31.0327H221.971C222.402 31.0327 222.816 31.2041 223.121 31.5092C223.426 31.8142 223.597 32.228 223.597 32.6594V38.2623C223.597 38.6937 223.426 39.1074 223.121 39.4125C222.816 39.7176 222.402 39.8889 221.971 39.8889H216.549C216.117 39.8889 215.703 39.7176 215.398 39.4125C215.093 39.1074 214.922 38.6937 214.922 38.2623V32.6594C214.922 32.228 215.093 31.8142 215.398 31.5092C215.703 31.2041 216.117 31.0327 216.549 31.0327H216.74ZM218.175 30.852H220.344C220.44 30.852 220.532 30.8901 220.6 30.9579C220.667 31.0257 220.706 31.1176 220.706 31.2135V31.9364C220.706 32.0323 220.667 32.1243 220.6 32.192C220.532 32.2598 220.44 32.2979 220.344 32.2979H218.175C218.079 32.2979 217.987 32.2598 217.92 32.192C217.852 32.1243 217.814 32.0323 217.814 31.9364V31.2135C217.814 31.1176 217.852 31.0257 217.92 30.9579C217.987 30.8901 218.079 30.852 218.175 30.852ZM216.739 32.1027L216.74 32.1172H216.549C216.405 32.1172 216.267 32.1743 216.165 32.276C216.063 32.3777 216.006 32.5156 216.006 32.6594V38.2623C216.006 38.5616 216.249 38.8045 216.549 38.8045H221.971C222.114 38.8045 222.252 38.7474 222.354 38.6457C222.456 38.544 222.513 38.4061 222.513 38.2623V32.6594C222.513 32.5156 222.456 32.3777 222.354 32.276C222.252 32.1743 222.114 32.1172 221.971 32.1172H221.779C221.735 32.4667 221.565 32.7881 221.301 33.021C221.036 33.254 220.696 33.3825 220.344 33.3823H218.175C217.82 33.3824 217.478 33.252 217.213 33.0161C216.948 32.7802 216.779 32.4551 216.739 32.1027Z" fill="white"/>
</g>
<rect x="41.5938" y="31.9746" width="157.011" height="5.95232" rx="2.97616" fill="url(#paint2_linear_1319_16785)"/>
<g filter="url(#filter1_bdi_1319_16785)">
<rect x="46.9609" y="53.1699" width="197.169" height="23.6604" rx="11.8302" fill="url(#paint3_linear_1319_16785)" shape-rendering="crispEdges"/>
</g>
<g opacity="0.6">
<path fill-rule="evenodd" clip-rule="evenodd" d="M228.81 61.2027C228.854 60.8532 229.025 60.5318 229.289 60.2988C229.553 60.0659 229.893 59.9374 230.245 59.9375H232.414C232.767 59.9374 233.107 60.0659 233.371 60.2988C233.635 60.5318 233.805 60.8532 233.849 61.2027H234.041C234.472 61.2027 234.886 61.374 235.191 61.6791C235.496 61.9842 235.668 62.3979 235.668 62.8293V68.4322C235.668 68.8636 235.496 69.2774 235.191 69.5824C234.886 69.8875 234.472 70.0589 234.041 70.0589H228.619C228.187 70.0589 227.774 69.8875 227.469 69.5824C227.164 69.2774 226.992 68.8636 226.992 68.4322V62.8293C226.992 62.3979 227.164 61.9842 227.469 61.6791C227.774 61.374 228.187 61.2027 228.619 61.2027H228.81ZM230.245 61.0219H232.414C232.51 61.0219 232.602 61.06 232.67 61.1278C232.738 61.1956 232.776 61.2875 232.776 61.3834V62.1064C232.776 62.2022 232.738 62.2942 232.67 62.362C232.602 62.4298 232.51 62.4678 232.414 62.4678H230.245C230.15 62.4678 230.058 62.4298 229.99 62.362C229.922 62.2942 229.884 62.2022 229.884 62.1064V61.3834C229.884 61.2875 229.922 61.1956 229.99 61.1278C230.058 61.06 230.15 61.0219 230.245 61.0219ZM228.809 62.2726L228.81 62.2871H228.619C228.475 62.2871 228.337 62.3442 228.235 62.4459C228.134 62.5476 228.077 62.6855 228.077 62.8293V68.4322C228.077 68.7315 228.32 68.9744 228.619 68.9744H234.041C234.185 68.9744 234.323 68.9173 234.424 68.8156C234.526 68.7139 234.583 68.576 234.583 68.4322V62.8293C234.583 62.6855 234.526 62.5476 234.424 62.4459C234.323 62.3442 234.185 62.2871 234.041 62.2871H233.849C233.805 62.6366 233.635 62.958 233.371 63.191C233.107 63.4239 232.767 63.5524 232.414 63.5523H230.245C229.891 63.5523 229.548 63.422 229.284 63.186C229.019 62.9501 228.85 62.625 228.809 62.2726Z" fill="white"/>
</g>
<rect x="53.6641" y="62.1445" width="157.011" height="5.95232" rx="2.97616" fill="url(#paint4_linear_1319_16785)"/>
<g filter="url(#filter2_bdi_1319_16785)">
<rect x="30.875" y="83.3398" width="197.169" height="23.6604" rx="11.8302" fill="url(#paint5_linear_1319_16785)" shape-rendering="crispEdges"/>
</g>
<g opacity="0.6">
<path fill-rule="evenodd" clip-rule="evenodd" d="M212.724 91.3726C212.769 91.0231 212.939 90.7017 213.203 90.4687C213.467 90.2358 213.807 90.1073 214.16 90.1074H216.328C216.681 90.1073 217.021 90.2358 217.285 90.4687C217.549 90.7017 217.719 91.0231 217.763 91.3726H217.955C218.386 91.3726 218.8 91.544 219.105 91.849C219.41 92.1541 219.582 92.5678 219.582 92.9992V98.6021C219.582 99.0335 219.41 99.4473 219.105 99.7523C218.8 100.057 218.386 100.229 217.955 100.229H212.533C212.101 100.229 211.688 100.057 211.383 99.7523C211.078 99.4473 210.906 99.0335 210.906 98.6021V92.9992C210.906 92.5678 211.078 92.1541 211.383 91.849C211.688 91.544 212.101 91.3726 212.533 91.3726H212.724ZM214.16 91.1919H216.328C216.424 91.1919 216.516 91.2299 216.584 91.2977C216.652 91.3655 216.69 91.4575 216.69 91.5533V92.2763C216.69 92.3722 216.652 92.4641 216.584 92.5319C216.516 92.5997 216.424 92.6378 216.328 92.6378H214.16C214.064 92.6378 213.972 92.5997 213.904 92.5319C213.836 92.4641 213.798 92.3722 213.798 92.2763V91.5533C213.798 91.4575 213.836 91.3655 213.904 91.2977C213.972 91.2299 214.064 91.1919 214.16 91.1919ZM212.723 92.4426L212.724 92.457H212.533C212.389 92.457 212.251 92.5141 212.149 92.6158C212.048 92.7175 211.991 92.8554 211.991 92.9992V98.6021C211.991 98.9014 212.234 99.1443 212.533 99.1443H217.955C218.099 99.1443 218.237 99.0872 218.338 98.9855C218.44 98.8838 218.497 98.7459 218.497 98.6021V92.9992C218.497 92.8554 218.44 92.7175 218.338 92.6158C218.237 92.5141 218.099 92.457 217.955 92.457H217.763C217.719 92.8065 217.549 93.1279 217.285 93.3609C217.021 93.5938 216.681 93.7223 216.328 93.7222H214.16C213.805 93.7222 213.462 93.5919 213.198 93.3559C212.933 93.12 212.764 92.7949 212.723 92.4426Z" fill="white"/>
</g>
<rect x="37.5781" y="92.3145" width="157.011" height="5.95232" rx="2.97616" fill="url(#paint6_linear_1319_16785)"/>
</g>
<defs>
<filter id="filter0_bdi_1319_16785" x="26.8455" y="14.9548" width="213.664" height="40.1527" filterUnits="userSpaceOnUse" color-interpolation-filters="sRGB">
<feFlood flood-opacity="0" result="BackgroundImageFix"/>
<feGaussianBlur in="BackgroundImageFix" stdDeviation="4.02258"/>
<feComposite in2="SourceAlpha" operator="in" result="effect1_backgroundBlur_1319_16785"/>
<feColorMatrix in="SourceAlpha" type="matrix" values="0 0 0 0 0 0 0 0 0 0 0 0 0 0 0 0 0 0 127 0" result="hardAlpha"/>
<feOffset dx="2.41355" dy="2.41355"/>
<feGaussianBlur stdDeviation="3.01693"/>
<feComposite in2="hardAlpha" operator="out"/>
<feColorMatrix type="matrix" values="0 0 0 0 0.28066 0 0 0 0 0.454764 0 0 0 0 0.570833 0 0 0 0.4 0"/>
<feBlend mode="normal" in2="effect1_backgroundBlur_1319_16785" result="effect2_dropShadow_1319_16785"/>
<feBlend mode="normal" in="SourceGraphic" in2="effect2_dropShadow_1319_16785" result="shape"/>
<feColorMatrix in="SourceAlpha" type="matrix" values="0 0 0 0 0 0 0 0 0 0 0 0 0 0 0 0 0 0 127 0" result="hardAlpha"/>
<feOffset dy="2.41355"/>
<feGaussianBlur stdDeviation="1.20677"/>
<feComposite in2="hardAlpha" operator="arithmetic" k2="-1" k3="1"/>
<feColorMatrix type="matrix" values="0 0 0 0 1 0 0 0 0 1 0 0 0 0 1 0 0 0 0.25 0"/>
<feBlend mode="overlay" in2="shape" result="effect3_innerShadow_1319_16785"/>
</filter>
<filter id="filter1_bdi_1319_16785" x="38.9158" y="45.1248" width="213.664" height="40.1527" filterUnits="userSpaceOnUse" color-interpolation-filters="sRGB">
<feFlood flood-opacity="0" result="BackgroundImageFix"/>
<feGaussianBlur in="BackgroundImageFix" stdDeviation="4.02258"/>
<feComposite in2="SourceAlpha" operator="in" result="effect1_backgroundBlur_1319_16785"/>
<feColorMatrix in="SourceAlpha" type="matrix" values="0 0 0 0 0 0 0 0 0 0 0 0 0 0 0 0 0 0 127 0" result="hardAlpha"/>
<feOffset dx="2.41355" dy="2.41355"/>
<feGaussianBlur stdDeviation="3.01693"/>
<feComposite in2="hardAlpha" operator="out"/>
<feColorMatrix type="matrix" values="0 0 0 0 0.28066 0 0 0 0 0.454764 0 0 0 0 0.570833 0 0 0 0.4 0"/>
<feBlend mode="normal" in2="effect1_backgroundBlur_1319_16785" result="effect2_dropShadow_1319_16785"/>
<feBlend mode="normal" in="SourceGraphic" in2="effect2_dropShadow_1319_16785" result="shape"/>
<feColorMatrix in="SourceAlpha" type="matrix" values="0 0 0 0 0 0 0 0 0 0 0 0 0 0 0 0 0 0 127 0" result="hardAlpha"/>
<feOffset dy="2.41355"/>
<feGaussianBlur stdDeviation="1.20677"/>
<feComposite in2="hardAlpha" operator="arithmetic" k2="-1" k3="1"/>
<feColorMatrix type="matrix" values="0 0 0 0 1 0 0 0 0 1 0 0 0 0 1 0 0 0 0.25 0"/>
<feBlend mode="overlay" in2="shape" result="effect3_innerShadow_1319_16785"/>
</filter>
<filter id="filter2_bdi_1319_16785" x="22.8298" y="75.2947" width="213.664" height="40.1527" filterUnits="userSpaceOnUse" color-interpolation-filters="sRGB">
<feFlood flood-opacity="0" result="BackgroundImageFix"/>
<feGaussianBlur in="BackgroundImageFix" stdDeviation="4.02258"/>
<feComposite in2="SourceAlpha" operator="in" result="effect1_backgroundBlur_1319_16785"/>
<feColorMatrix in="SourceAlpha" type="matrix" values="0 0 0 0 0 0 0 0 0 0 0 0 0 0 0 0 0 0 127 0" result="hardAlpha"/>
<feOffset dx="2.41355" dy="2.41355"/>
<feGaussianBlur stdDeviation="3.01693"/>
<feComposite in2="hardAlpha" operator="out"/>
<feColorMatrix type="matrix" values="0 0 0 0 0.28066 0 0 0 0 0.454764 0 0 0 0 0.570833 0 0 0 0.4 0"/>
<feBlend mode="normal" in2="effect1_backgroundBlur_1319_16785" result="effect2_dropShadow_1319_16785"/>
<feBlend mode="normal" in="SourceGraphic" in2="effect2_dropShadow_1319_16785" result="shape"/>
<feColorMatrix in="SourceAlpha" type="matrix" values="0 0 0 0 0 0 0 0 0 0 0 0 0 0 0 0 0 0 127 0" result="hardAlpha"/>
<feOffset dy="2.41355"/>
<feGaussianBlur stdDeviation="1.20677"/>
<feComposite in2="hardAlpha" operator="arithmetic" k2="-1" k3="1"/>
<feColorMatrix type="matrix" values="0 0 0 0 1 0 0 0 0 1 0 0 0 0 1 0 0 0 0.25 0"/>
<feBlend mode="overlay" in2="shape" result="effect3_innerShadow_1319_16785"/>
</filter>
<linearGradient id="paint0_linear_1319_16785" x1="111.661" y1="-48" x2="235.079" y2="174.959" gradientUnits="userSpaceOnUse">
<stop offset="0.0064921" stop-color="#F0F5F8"/>
<stop offset="1" stop-color="#19527A"/>
</linearGradient>
<linearGradient id="paint1_linear_1319_16785" x1="70.0464" y1="27.758" x2="72.7639" y2="58.7439" gradientUnits="userSpaceOnUse">
<stop stop-color="white" stop-opacity="0.52"/>
<stop offset="1" stop-color="white" stop-opacity="0"/>
</linearGradient>
<linearGradient id="paint2_linear_1319_16785" x1="30.764" y1="34.9508" x2="198.605" y2="34.9508" gradientUnits="userSpaceOnUse">
<stop stop-color="white"/>
<stop offset="1" stop-color="white" stop-opacity="0"/>
</linearGradient>
<linearGradient id="paint3_linear_1319_16785" x1="82.1168" y1="57.9279" x2="84.8342" y2="88.9138" gradientUnits="userSpaceOnUse">
<stop stop-color="white" stop-opacity="0.52"/>
<stop offset="1" stop-color="white" stop-opacity="0"/>
</linearGradient>
<linearGradient id="paint4_linear_1319_16785" x1="42.8343" y1="65.1207" x2="210.675" y2="65.1207" gradientUnits="userSpaceOnUse">
<stop stop-color="white"/>
<stop offset="1" stop-color="white" stop-opacity="0"/>
</linearGradient>
<linearGradient id="paint5_linear_1319_16785" x1="66.0308" y1="88.0979" x2="68.7483" y2="119.084" gradientUnits="userSpaceOnUse">
<stop stop-color="white" stop-opacity="0.52"/>
<stop offset="1" stop-color="white" stop-opacity="0"/>
</linearGradient>
<linearGradient id="paint6_linear_1319_16785" x1="26.7484" y1="95.2906" x2="194.589" y2="95.2906" gradientUnits="userSpaceOnUse">
<stop stop-color="white"/>
<stop offset="1" stop-color="white" stop-opacity="0"/>
</linearGradient>
</defs>
</svg>
