<svg width="275" height="130" viewBox="0 0 275 130" fill="none" xmlns="http://www.w3.org/2000/svg">
<path d="M0 16C0 7.16344 6.61056 0 14.7651 0H260.235C268.389 0 275 7.16344 275 16V114C275 122.837 268.389 130 260.235 130H14.7651C6.61056 130 0 122.837 0 114V16Z" fill="url(#paint0_linear_1319_17107)"/>
<mask id="mask0_1319_17107" style="mask-type:alpha" maskUnits="userSpaceOnUse" x="0" y="0" width="275" height="130">
<path d="M0 13.6646C0 6.11785 6.11785 0 13.6646 0H261.335C268.882 0 275 6.11785 275 13.6646V116.335C275 123.882 268.882 130 261.335 130H13.6646C6.11786 130 0 123.882 0 116.335V13.6646Z" fill="white"/>
</mask>
<g mask="url(#mask0_1319_17107)">
<path d="M42 27.3773C42 21.0938 47.0938 16 53.3773 16H227.451C233.734 16 238.828 21.0938 238.828 27.3773V129.773H42V27.3773Z" fill="white" fill-opacity="0.37"/>
<rect x="50.1641" y="41.4062" width="179.102" height="3.04703" rx="1.52352" fill="url(#paint1_linear_1319_17107)"/>
<rect x="50.1641" y="67.4492" width="131.82" height="3.04703" rx="1.52352" fill="url(#paint2_linear_1319_17107)"/>
<rect x="50.1641" y="74.3047" width="70.0156" height="3.04703" rx="1.52352" fill="url(#paint3_linear_1319_17107)"/>
<rect x="50.1641" y="48.2617" width="128.631" height="3.04703" rx="1.52352" fill="url(#paint4_linear_1319_17107)"/>
<path d="M54.0977 56.106C54.1954 55.8052 54.6209 55.8052 54.7186 56.106L55.2877 57.8574C55.3314 57.9919 55.4568 58.083 55.5982 58.083L57.4397 58.083C57.756 58.083 57.8875 58.4877 57.6316 58.6736L56.1418 59.756C56.0274 59.8391 55.9795 59.9865 56.0232 60.121L56.5923 61.8724C56.69 62.1732 56.3457 62.4233 56.0899 62.2374L54.6 61.155C54.4856 61.0718 54.3307 61.0718 54.2162 61.155L52.7264 62.2374C52.4705 62.4233 52.1263 62.1732 52.224 61.8724L52.7931 60.121C52.8368 59.9865 52.7889 59.8391 52.6745 59.756L51.1847 58.6736C50.9288 58.4877 51.0603 58.083 51.3765 58.083L53.2181 58.083C53.3595 58.083 53.4849 57.9919 53.5286 57.8574L54.0977 56.106Z" fill="white"/>
<path d="M62.582 56.106C62.6798 55.8052 63.1053 55.8052 63.203 56.106L63.7721 57.8574C63.8158 57.9919 63.9411 58.083 64.0826 58.083L65.9241 58.083C66.2404 58.083 66.3719 58.4877 66.116 58.6736L64.6262 59.756C64.5117 59.8391 64.4639 59.9865 64.5076 60.121L65.0766 61.8724C65.1744 62.1732 64.8301 62.4233 64.5743 62.2374L63.0844 61.155C62.97 61.0718 62.815 61.0718 62.7006 61.155L61.2108 62.2374C60.9549 62.4233 60.6107 62.1732 60.7084 61.8724L61.2775 60.121C61.3212 59.9865 61.2733 59.8391 61.1589 59.756L59.669 58.6736C59.4132 58.4877 59.5447 58.083 59.8609 58.083L61.7025 58.083C61.8439 58.083 61.9693 57.9919 62.013 57.8574L62.582 56.106Z" fill="white"/>
<path d="M71.0742 56.106C71.1719 55.8052 71.5975 55.8052 71.6952 56.106L72.2643 57.8574C72.308 57.9919 72.4333 58.083 72.5748 58.083L74.4163 58.083C74.7326 58.083 74.8641 58.4877 74.6082 58.6736L73.1184 59.756C73.0039 59.8391 72.956 59.9865 72.9998 60.121L73.5688 61.8724C73.6666 62.1732 73.3223 62.4233 73.0664 62.2374L71.5766 61.155C71.4622 61.0718 71.3072 61.0718 71.1928 61.155L69.703 62.2374C69.4471 62.4233 69.1029 62.1732 69.2006 61.8724L69.7697 60.121C69.8134 59.9865 69.7655 59.8391 69.6511 59.756L68.1612 58.6736C67.9054 58.4877 68.0369 58.083 68.3531 58.083L70.1947 58.083C70.3361 58.083 70.4614 57.9919 70.5051 57.8574L71.0742 56.106Z" fill="white"/>
<path d="M79.5586 56.106C79.6563 55.8052 80.0818 55.8052 80.1796 56.106L80.7486 57.8574C80.7923 57.9919 80.9177 58.083 81.0591 58.083L82.9007 58.083C83.2169 58.083 83.3484 58.4877 83.0926 58.6736L81.6027 59.756C81.4883 59.8391 81.4404 59.9865 81.4841 60.121L82.0532 61.8724C82.1509 62.1732 81.8067 62.4233 81.5508 62.2374L80.061 61.155C79.9466 61.0718 79.7916 61.0718 79.6772 61.155L78.1873 62.2374C77.9315 62.4233 77.5872 62.1732 77.685 61.8724L78.254 60.121C78.2977 59.9865 78.2499 59.8391 78.1354 59.756L76.6456 58.6736C76.3897 58.4877 76.5212 58.083 76.8375 58.083L78.679 58.083C78.8205 58.083 78.9458 57.9919 78.9895 57.8574L79.5586 56.106Z" fill="white"/>
<path d="M88.0508 56.106C88.1485 55.8052 88.574 55.8052 88.6718 56.106L89.2408 57.8574C89.2845 57.9919 89.4099 58.083 89.5513 58.083L91.3929 58.083C91.7091 58.083 91.8406 58.4877 91.5848 58.6736L90.0949 59.756C89.9805 59.8391 89.9326 59.9865 89.9763 60.121L90.5454 61.8724C90.6431 62.1732 90.2989 62.4233 90.043 62.2374L88.5532 61.155C88.4387 61.0718 88.2838 61.0718 88.1694 61.155L86.6795 62.2374C86.4237 62.4233 86.0794 62.1732 86.1771 61.8724L86.7462 60.121C86.7899 59.9865 86.742 59.8391 86.6276 59.756L85.1378 58.6736C84.8819 58.4877 85.0134 58.083 85.3297 58.083L87.1712 58.083C87.3127 58.083 87.438 57.9919 87.4817 57.8574L88.0508 56.106Z" fill="white"/>
<g opacity="0.5">
<rect x="50.1641" y="87.4062" width="127.188" height="3.04703" rx="1.52352" fill="url(#paint5_linear_1319_17107)"/>
<rect x="50.1641" y="113.449" width="131.82" height="3.04703" rx="1.52352" fill="url(#paint6_linear_1319_17107)"/>
<rect x="50.1641" y="120.305" width="70.0156" height="3.04703" rx="1.52352" fill="url(#paint7_linear_1319_17107)"/>
<rect x="50.1641" y="94.2617" width="77.7266" height="3.04703" rx="1.52352" fill="url(#paint8_linear_1319_17107)"/>
<path d="M54.0977 102.106C54.1954 101.805 54.6209 101.805 54.7186 102.106L55.2877 103.857C55.3314 103.992 55.4568 104.083 55.5982 104.083L57.4397 104.083C57.756 104.083 57.8875 104.488 57.6316 104.674L56.1418 105.756C56.0274 105.839 55.9795 105.986 56.0232 106.121L56.5923 107.872C56.69 108.173 56.3457 108.423 56.0899 108.237L54.6 107.155C54.4856 107.072 54.3307 107.072 54.2162 107.155L52.7264 108.237C52.4705 108.423 52.1263 108.173 52.224 107.872L52.7931 106.121C52.8368 105.986 52.7889 105.839 52.6745 105.756L51.1847 104.674C50.9288 104.488 51.0603 104.083 51.3765 104.083L53.2181 104.083C53.3595 104.083 53.4849 103.992 53.5286 103.857L54.0977 102.106Z" fill="white"/>
<path d="M62.582 102.106C62.6798 101.805 63.1053 101.805 63.203 102.106L63.7721 103.857C63.8158 103.992 63.9411 104.083 64.0826 104.083L65.9241 104.083C66.2404 104.083 66.3719 104.488 66.116 104.674L64.6262 105.756C64.5117 105.839 64.4639 105.986 64.5076 106.121L65.0766 107.872C65.1744 108.173 64.8301 108.423 64.5743 108.237L63.0844 107.155C62.97 107.072 62.815 107.072 62.7006 107.155L61.2108 108.237C60.9549 108.423 60.6107 108.173 60.7084 107.872L61.2775 106.121C61.3212 105.986 61.2733 105.839 61.1589 105.756L59.669 104.674C59.4132 104.488 59.5447 104.083 59.8609 104.083L61.7025 104.083C61.8439 104.083 61.9693 103.992 62.013 103.857L62.582 102.106Z" fill="white"/>
<path d="M71.0742 102.106C71.1719 101.805 71.5975 101.805 71.6952 102.106L72.2643 103.857C72.308 103.992 72.4333 104.083 72.5748 104.083L74.4163 104.083C74.7326 104.083 74.8641 104.488 74.6082 104.674L73.1184 105.756C73.0039 105.839 72.956 105.986 72.9998 106.121L73.5688 107.872C73.6666 108.173 73.3223 108.423 73.0664 108.237L71.5766 107.155C71.4622 107.072 71.3072 107.072 71.1928 107.155L69.703 108.237C69.4471 108.423 69.1029 108.173 69.2006 107.872L69.7697 106.121C69.8134 105.986 69.7655 105.839 69.6511 105.756L68.1612 104.674C67.9054 104.488 68.0369 104.083 68.3531 104.083L70.1947 104.083C70.3361 104.083 70.4614 103.992 70.5051 103.857L71.0742 102.106Z" fill="white"/>
<path d="M79.5586 102.106C79.6563 101.805 80.0818 101.805 80.1796 102.106L80.7486 103.857C80.7923 103.992 80.9177 104.083 81.0591 104.083L82.9007 104.083C83.2169 104.083 83.3484 104.488 83.0926 104.674L81.6027 105.756C81.4883 105.839 81.4404 105.986 81.4841 106.121L82.0532 107.872C82.1509 108.173 81.8067 108.423 81.5508 108.237L80.061 107.155C79.9466 107.072 79.7916 107.072 79.6772 107.155L78.1873 108.237C77.9315 108.423 77.5872 108.173 77.685 107.872L78.254 106.121C78.2977 105.986 78.2499 105.839 78.1354 105.756L76.6456 104.674C76.3897 104.488 76.5212 104.083 76.8375 104.083L78.679 104.083C78.8205 104.083 78.9458 103.992 78.9895 103.857L79.5586 102.106Z" fill="white"/>
<path d="M88.0508 102.106C88.1485 101.805 88.574 101.805 88.6718 102.106L89.2408 103.857C89.2845 103.992 89.4099 104.083 89.5513 104.083L91.3929 104.083C91.7091 104.083 91.8406 104.488 91.5848 104.674L90.0949 105.756C89.9805 105.839 89.9326 105.986 89.9763 106.121L90.5454 107.872C90.6431 108.173 90.2989 108.423 90.043 108.237L88.5532 107.155C88.4387 107.072 88.2838 107.072 88.1694 107.155L86.6795 108.237C86.4237 108.423 86.0794 108.173 86.1771 107.872L86.7462 106.121C86.7899 105.986 86.742 105.839 86.6276 105.756L85.1378 104.674C84.8819 104.488 85.0134 104.083 85.3297 104.083L87.1712 104.083C87.3127 104.083 87.438 103.992 87.4817 103.857L88.0508 102.106Z" fill="white"/>
</g>
<line x1="42" y1="31.5884" x2="238.828" y2="31.5884" stroke="#A8BECD" stroke-width="0.68264"/>
<circle cx="51.6754" cy="24.5347" r="1.7066" fill="#7C9DB4"/>
<circle cx="56.23" cy="24.5347" r="1.7066" fill="#7C9DB4"/>
<circle cx="60.7769" cy="24.5347" r="1.7066" fill="#7C9DB4"/>
</g>
<defs>
<linearGradient id="paint0_linear_1319_17107" x1="111.661" y1="-48" x2="235.079" y2="174.959" gradientUnits="userSpaceOnUse">
<stop offset="0.0064921" stop-color="#F0F5F8"/>
<stop offset="1" stop-color="#19527A"/>
</linearGradient>
<linearGradient id="paint1_linear_1319_17107" x1="37.8106" y1="42.9298" x2="229.266" y2="42.9298" gradientUnits="userSpaceOnUse">
<stop stop-color="white"/>
<stop offset="1" stop-color="white" stop-opacity="0"/>
</linearGradient>
<linearGradient id="paint2_linear_1319_17107" x1="41.0718" y1="68.9727" x2="181.984" y2="68.9727" gradientUnits="userSpaceOnUse">
<stop stop-color="white"/>
<stop offset="1" stop-color="white" stop-opacity="0"/>
</linearGradient>
<linearGradient id="paint3_linear_1319_17107" x1="45.3348" y1="75.8282" x2="120.18" y2="75.8282" gradientUnits="userSpaceOnUse">
<stop stop-color="white"/>
<stop offset="1" stop-color="white" stop-opacity="0"/>
</linearGradient>
<linearGradient id="paint4_linear_1319_17107" x1="41.2918" y1="49.7852" x2="178.795" y2="49.7852" gradientUnits="userSpaceOnUse">
<stop stop-color="white"/>
<stop offset="1" stop-color="white" stop-opacity="0"/>
</linearGradient>
<linearGradient id="paint5_linear_1319_17107" x1="41.3914" y1="88.9298" x2="177.352" y2="88.9298" gradientUnits="userSpaceOnUse">
<stop stop-color="white"/>
<stop offset="1" stop-color="white" stop-opacity="0"/>
</linearGradient>
<linearGradient id="paint6_linear_1319_17107" x1="41.0718" y1="114.973" x2="181.984" y2="114.973" gradientUnits="userSpaceOnUse">
<stop stop-color="white"/>
<stop offset="1" stop-color="white" stop-opacity="0"/>
</linearGradient>
<linearGradient id="paint7_linear_1319_17107" x1="45.3348" y1="121.828" x2="120.18" y2="121.828" gradientUnits="userSpaceOnUse">
<stop stop-color="white"/>
<stop offset="1" stop-color="white" stop-opacity="0"/>
</linearGradient>
<linearGradient id="paint8_linear_1319_17107" x1="44.8029" y1="95.7852" x2="127.891" y2="95.7852" gradientUnits="userSpaceOnUse">
<stop stop-color="white"/>
<stop offset="1" stop-color="white" stop-opacity="0"/>
</linearGradient>
</defs>
</svg>
