<svg width="241" height="18" viewBox="0 0 241 18" fill="none" xmlns="http://www.w3.org/2000/svg">
<path d="M3.56494 3.99672C3.94411 3.99949 4.31774 4.06868 4.68584 4.20429C5.05394 4.33991 5.38606 4.56132 5.6822 4.86853C5.98111 5.17575 6.21913 5.5909 6.39626 6.11398C6.57616 6.63431 6.66749 7.28194 6.67026 8.05689C6.67026 8.80139 6.59553 9.46425 6.44608 10.0455C6.29663 10.6239 6.08213 11.1124 5.8026 11.5109C5.52583 11.9095 5.18956 12.2125 4.79378 12.4201C4.39801 12.6277 3.95241 12.7315 3.457 12.7315C2.95052 12.7315 2.50077 12.6318 2.10776 12.4326C1.71475 12.2333 1.39509 11.9579 1.14877 11.6064C0.902444 11.2522 0.748838 10.8453 0.687949 10.3859H1.95416C2.03719 10.7512 2.20601 11.0474 2.46064 11.2743C2.71803 11.4985 3.05015 11.6106 3.457 11.6106C4.07973 11.6106 4.56545 11.3393 4.91418 10.7969C5.2629 10.2516 5.43865 9.49054 5.44142 8.51355H5.37499C5.23108 8.75157 5.05118 8.95638 4.8353 9.12797C4.62219 9.29957 4.38279 9.43242 4.11709 9.52652C3.85139 9.62062 3.56771 9.66767 3.26603 9.66767C2.77615 9.66767 2.33056 9.54728 1.92925 9.30649C1.52794 9.0657 1.20827 8.73497 0.970251 8.31428C0.732232 7.89359 0.613222 7.4134 0.613222 6.87371C0.613222 6.33678 0.735 5.84967 0.978554 5.41238C1.22488 4.97509 1.56807 4.62913 2.00813 4.37451C2.45095 4.11711 2.96989 3.99118 3.56494 3.99672ZM3.56909 5.07611C3.24527 5.07611 2.95328 5.15637 2.69312 5.3169C2.43573 5.47465 2.23231 5.68915 2.08285 5.96038C1.9334 6.22884 1.85867 6.52775 1.85867 6.8571C1.85867 7.18646 1.93063 7.48536 2.07455 7.75383C2.22124 8.01952 2.42051 8.23125 2.67237 8.38901C2.92699 8.544 3.2176 8.62149 3.54418 8.62149C3.78774 8.62149 4.01469 8.57444 4.22503 8.48034C4.43537 8.38624 4.61942 8.25616 4.77718 8.0901C4.93493 7.92127 5.0581 7.7303 5.14666 7.51719C5.23523 7.30408 5.27951 7.0799 5.27951 6.84465C5.27951 6.5319 5.20478 6.2413 5.05533 5.97283C4.90864 5.70437 4.7066 5.48849 4.44921 5.3252C4.19182 5.15914 3.89844 5.07611 3.56909 5.07611ZM9.00444 11.5608C8.77749 11.5608 8.58237 11.4805 8.41908 11.32C8.25579 11.1567 8.17414 10.9602 8.17414 10.7305C8.17414 10.5035 8.25579 10.3098 8.41908 10.1492C8.58237 9.98595 8.77749 9.9043 9.00444 9.9043C9.23139 9.9043 9.42651 9.98595 9.5898 10.1492C9.7531 10.3098 9.83474 10.5035 9.83474 10.7305C9.83474 10.8827 9.796 11.0224 9.7185 11.1498C9.64377 11.2743 9.54414 11.3739 9.41959 11.4487C9.29505 11.5234 9.15666 11.5608 9.00444 11.5608ZM9.00444 7.30131C8.77749 7.30131 8.58237 7.22105 8.41908 7.06053C8.25579 6.89723 8.17414 6.70073 8.17414 6.47101C8.17414 6.24407 8.25579 6.05033 8.41908 5.8898C8.58237 5.72651 8.77749 5.64486 9.00444 5.64486C9.23139 5.64486 9.42651 5.72651 9.5898 5.8898C9.7531 6.05033 9.83474 6.24407 9.83474 6.47101C9.83474 6.62324 9.796 6.763 9.7185 6.89032C9.64377 7.01486 9.54414 7.1145 9.41959 7.18922C9.29505 7.26395 9.15666 7.30131 9.00444 7.30131ZM11.3023 10.9546V9.91676L14.9764 4.11296H15.7942V5.64071H15.2753L12.6474 9.80052V9.86694H17.6832V10.9546H11.3023ZM15.3334 12.6152V10.6391L15.3417 10.1658V4.11296H16.5581V12.6152H15.3334ZM22.2415 4.11296V12.6152H20.9545V5.39993H20.9047L18.8705 6.72841V5.49956L20.9919 4.11296H22.2415Z" fill="#090A0A"/>
<path fill-rule="evenodd" clip-rule="evenodd" d="M200.853 5.9043H200.122C199.719 5.9043 199.392 6.21098 199.392 6.58929V12.5259C199.392 12.9043 199.719 13.2109 200.122 13.2109H200.853C201.256 13.2109 201.584 12.9043 201.584 12.5259V6.58929C201.584 6.21098 201.256 5.9043 200.853 5.9043ZM196.469 7.36523H197.2C197.603 7.36523 197.93 7.67928 197.93 8.06667V12.5091C197.93 12.8965 197.603 13.2105 197.2 13.2105H196.469C196.065 13.2105 195.738 12.8965 195.738 12.5091V8.06667C195.738 7.67928 196.065 7.36523 196.469 7.36523ZM193.546 8.82617H192.816C192.412 8.82617 192.085 9.1533 192.085 9.55684V12.4795C192.085 12.883 192.412 13.2102 192.816 13.2102H193.546C193.95 13.2102 194.277 12.883 194.277 12.4795V9.55684C194.277 9.1533 193.95 8.82617 193.546 8.82617ZM189.893 10.2891H189.162C188.759 10.2891 188.432 10.6162 188.432 11.0197V12.4811C188.432 12.8846 188.759 13.2117 189.162 13.2117H189.893C190.297 13.2117 190.624 12.8846 190.624 12.4811V11.0197C190.624 10.6162 190.297 10.2891 189.893 10.2891Z" fill="#090A0A"/>
<path fill-rule="evenodd" clip-rule="evenodd" d="M210.817 6.47255C212.436 6.47263 213.993 7.09474 215.167 8.21032C215.255 8.29644 215.396 8.29536 215.483 8.20788L216.328 7.35544C216.372 7.31107 216.397 7.25097 216.396 7.18844C216.396 7.12591 216.371 7.06611 216.326 7.02226C213.246 4.07071 208.387 4.07071 205.308 7.02226C205.263 7.06607 205.238 7.12586 205.237 7.18839C205.237 7.25092 205.261 7.31104 205.305 7.35544L206.15 8.20788C206.237 8.29549 206.379 8.29658 206.467 8.21032C207.641 7.09467 209.198 6.47255 210.817 6.47255ZM210.817 9.24718C211.707 9.24713 212.565 9.57778 213.224 10.1749C213.313 10.2596 213.454 10.2578 213.541 10.1707L214.385 9.3183C214.429 9.27359 214.454 9.21293 214.453 9.1499C214.452 9.08687 214.426 9.02672 214.381 8.98292C212.373 7.11507 209.263 7.11507 207.255 8.98292C207.21 9.02672 207.184 9.0869 207.184 9.14995C207.183 9.213 207.208 9.27365 207.252 9.3183L208.096 10.1707C208.183 10.2578 208.323 10.2596 208.412 10.1749C209.071 9.57817 209.928 9.24755 210.817 9.24718ZM212.507 11.1122C212.508 11.1754 212.484 11.2363 212.438 11.2806L210.979 12.7534C210.936 12.7967 210.878 12.821 210.817 12.821C210.756 12.821 210.698 12.7967 210.655 12.7534L209.196 11.2806C209.15 11.2363 209.126 11.1753 209.127 11.1121C209.128 11.0489 209.156 10.9891 209.203 10.9467C210.135 10.1584 211.5 10.1584 212.432 10.9467C212.479 10.9891 212.506 11.049 212.507 11.1122Z" fill="#090A0A"/>
<path opacity="0.35" d="M222.529 4.44346H236.898C237.773 4.44346 238.481 5.15224 238.481 6.02656V11.6283C238.481 12.5026 237.773 13.2114 236.898 13.2114H222.529C221.654 13.2114 220.945 12.5026 220.945 11.6283V6.02656C220.945 5.15224 221.654 4.44346 222.529 4.44346Z" stroke="#090A0A" stroke-width="0.730664"/>
<path opacity="0.4" d="M239.321 7.73242V10.6551C239.909 10.4075 240.292 9.83172 240.292 9.19375C240.292 8.55578 239.909 7.97995 239.321 7.73242" fill="#090A0A"/>
<path d="M222.261 6.75742C222.261 6.21938 222.697 5.7832 223.235 5.7832H236.046C236.584 5.7832 237.02 6.21938 237.02 6.75742V10.8954C237.02 11.4335 236.584 11.8696 236.046 11.8696H223.235C222.697 11.8696 222.261 11.4335 222.261 10.8954V6.75742Z" fill="#090A0A"/>
<rect x="94.1133" width="52.7739" height="18" rx="9" fill="#081218"/>
</svg>
