<svg width="20" height="20" viewBox="0 0 20 20" fill="none" xmlns="http://www.w3.org/2000/svg">
<path d="M9.79997 0.199219C15.2125 0.199219 19.5999 4.58658 19.5999 9.99877C19.5999 15.4113 15.2125 19.7996 9.79997 19.7996C4.38778 19.7996 0 15.4114 0 9.99877C7.05567e-05 4.58665 4.38785 0.199219 9.79997 0.199219Z" fill="#D6D4D1"/>
<mask id="mask0_278_11218" style="mask-type:luminance" maskUnits="userSpaceOnUse" x="0" y="0" width="20" height="20">
<path d="M9.80248 0.433594C15.0824 0.433594 19.3628 4.71391 19.3628 9.99353C19.3628 15.2735 15.0825 19.5539 9.80248 19.5539C4.52244 19.5539 0.242188 15.2735 0.242188 9.99353C0.242188 4.71391 4.52251 0.433594 9.80248 0.433594Z" fill="white"/>
</mask>
<g mask="url(#mask0_278_11218)">
<path d="M-4.53906 0.433594H6.93374V19.5555H-4.53906V0.433594Z" fill="#076629"/>
<path d="M6.92969 0.433594H24.1387V19.5555H6.92969V0.433594Z" fill="#E32121"/>
<path d="M2.93623 8.06904C2.9622 8.10982 2.98851 8.15096 3.01525 8.19047C3.5373 8.3634 4.52792 8.60633 6.0863 8.6644C6.41199 8.67717 6.67136 8.67879 6.81833 8.67717H7.04849C7.19503 8.67879 7.45482 8.67717 7.78009 8.6644C9.33847 8.60717 10.329 8.36425 10.852 8.19047C10.8784 8.15096 10.9055 8.10975 10.9302 8.06904C10.9907 7.97249 11.0475 7.87374 11.1006 7.77298C11.0751 7.72437 11.0485 7.67633 11.0208 7.62891C10.493 7.82442 9.20632 8.18884 6.94964 8.17438V8.17353C6.9447 8.17438 6.92205 8.17438 6.91669 8.17353V8.17438C4.66035 8.18884 3.37375 7.82442 2.8455 7.62891C2.81818 7.67654 2.79155 7.72457 2.76562 7.77298C2.81893 7.87368 2.87583 7.97243 2.93623 8.06904C2.93701 8.06904 2.93701 8.06904 2.93623 8.06904Z" fill="#F5E600"/>
<path d="M7.14594 8.688H6.99397L6.94331 8.68673H6.92849L6.88277 8.688H6.73093C6.58932 8.688 6.36326 8.68511 6.09112 8.67523C4.56237 8.61801 3.57592 8.38496 3.01676 8.20045L3.01344 8.19883L3.01182 8.19552C2.98705 8.15883 2.96116 8.11931 2.93237 8.07402L2.91466 8.04523C2.8608 7.95757 2.80932 7.86847 2.76028 7.77803L2.75781 7.77182L2.76028 7.76688C2.78745 7.71622 2.81334 7.66846 2.84058 7.62196L2.84551 7.61328L2.85497 7.61702C3.40298 7.81994 4.64351 8.16172 6.79111 8.16172C6.83063 8.16172 6.87021 8.16172 6.91014 8.16087H6.96737C7.00695 8.16172 7.04646 8.16172 7.08555 8.16172C9.23393 8.16172 10.474 7.81994 11.0217 7.61702L11.0316 7.61328L11.0365 7.62196C11.0644 7.66972 11.0913 7.71803 11.1172 7.76688L11.1205 7.77182L11.1172 7.77803C11.0682 7.86884 11.0166 7.95823 10.9624 8.04608L10.9443 8.07402C10.9188 8.11503 10.8924 8.15554 10.8653 8.19552L10.8636 8.19883L10.8595 8.20045C10.302 8.38489 9.31387 8.61716 7.78519 8.67523C7.51362 8.68518 7.28762 8.688 7.14594 8.688ZM7.0406 8.66415H7.14602C7.28762 8.66415 7.51369 8.66253 7.78505 8.65138C9.30801 8.59494 10.2912 8.364 10.8487 8.1795C10.8684 8.14987 10.889 8.11854 10.9113 8.08312L10.9245 8.06294C10.9842 7.96842 11.0403 7.87159 11.0925 7.77267C11.0693 7.72933 11.0454 7.68638 11.0208 7.64383C10.4667 7.84802 9.22532 8.18691 7.08555 8.18691H6.79119C4.65099 8.18691 3.40969 7.84887 2.85589 7.64383C2.83133 7.68641 2.80744 7.72936 2.7842 7.77267C2.83642 7.87148 2.89232 7.9683 2.95177 8.06294L2.96948 8.0901C2.98966 8.12263 3.01026 8.15226 3.02797 8.1795C3.58502 8.36393 4.56823 8.59409 6.09119 8.65138C6.36255 8.66246 6.58855 8.66415 6.73022 8.66415H6.82329H7.0406Z" fill="#101211"/>
<path d="M6.91718 8.58291H6.95013C9.08616 8.59645 10.3534 8.27126 10.9299 8.07031C10.9047 8.11134 10.8786 8.15182 10.8516 8.19174C10.2415 8.39346 8.99395 8.69121 6.9502 8.67759H6.91725C4.87343 8.69121 3.6255 8.39353 3.01652 8.19174C2.98964 8.15162 2.96329 8.11114 2.9375 8.07031C3.51381 8.27126 4.7815 8.59645 6.91718 8.58291Z" fill="#F5E600"/>
<path d="M7.08474 8.68873C7.04149 8.68873 6.99788 8.68873 6.95386 8.68746H6.92098C4.83927 8.70192 3.57687 8.38731 3.01616 8.20203L3.01284 8.20041L3.01122 8.19716C2.98645 8.16047 2.96056 8.12096 2.93177 8.07566L2.91406 8.04688L2.94617 8.0588C3.49503 8.25029 4.72441 8.57055 6.79214 8.57055H6.91117V8.5697H6.96839V8.57055H7.08742C9.15388 8.57055 10.3837 8.24902 10.9337 8.0588L10.965 8.04688L10.9477 8.07566C10.9198 8.12011 10.8942 8.15962 10.8678 8.19716L10.8662 8.20041L10.8629 8.20203C10.3094 8.38329 9.08989 8.68873 7.08474 8.68873ZM6.96663 8.66488C9.03309 8.67765 10.288 8.36643 10.8488 8.18114C10.8678 8.15313 10.8867 8.12428 10.9072 8.0926C10.3292 8.28903 9.06357 8.60766 6.9547 8.59489H6.79129C4.75983 8.59489 3.53574 8.28529 2.96959 8.0926C2.99062 8.12512 3.01037 8.15398 3.02808 8.18114C3.58844 8.36643 4.84174 8.6768 6.91025 8.66488H6.93869H6.96663Z" fill="#101211"/>
<path d="M6.9204 8.26907H6.95335C9.27467 8.28388 10.5707 7.89893 11.0681 7.70751C11.0533 7.68112 11.0401 7.65438 11.0236 7.62891C10.4959 7.82442 9.20919 8.18884 6.9525 8.17438V8.17353C6.94757 8.17438 6.92449 8.17438 6.91955 8.17353V8.17438C4.66322 8.18884 3.3762 7.82442 2.84836 7.62891C2.83355 7.65438 2.81908 7.68119 2.80469 7.70751C3.30373 7.89893 4.59909 8.28388 6.9204 8.26907Z" fill="#F5E600"/>
<path d="M7.08455 8.28032C7.0413 8.28032 6.9977 8.28032 6.95367 8.27948H6.92079C6.87712 8.28032 6.83309 8.28032 6.79026 8.28032C4.5134 8.28032 3.24281 7.88669 2.80183 7.71707L2.78906 7.71213L2.79562 7.70021C2.81002 7.67424 2.82448 7.64792 2.83972 7.62196L2.84466 7.61328L2.85412 7.61702C3.40213 7.81994 4.64266 8.16172 6.79026 8.16172C6.82977 8.16172 6.86936 8.16172 6.90929 8.16087H6.96651C7.00609 8.16172 7.04561 8.16172 7.08469 8.16172C9.23308 8.16172 10.4732 7.81994 11.0208 7.61702L11.0307 7.61328L11.0357 7.62196L11.0801 7.70021L11.0867 7.71213L11.0735 7.71707C10.632 7.88669 9.36099 8.28032 7.08455 8.28032ZM6.96644 8.25683C9.2927 8.27045 10.5942 7.87476 11.052 7.70021C11.0419 7.68126 11.0315 7.66246 11.0208 7.64383C10.4665 7.84802 9.22524 8.18691 7.08547 8.18691H6.79026C4.65007 8.18691 3.40876 7.84887 2.85496 7.64383C2.84381 7.66232 2.83394 7.68172 2.82286 7.70021C3.27414 7.87145 4.53894 8.25683 6.79026 8.25683H6.93773H6.96644Z" fill="#101211"/>
<path d="M6.61219 11.0408C9.60379 12.7569 10.445 12.9002 10.6648 12.8861C10.7342 12.7969 10.8004 12.7052 10.8632 12.6112C10.9595 12.4555 11.0472 12.2947 11.1259 12.1294C10.8426 12.1188 9.92941 11.8956 7.12147 10.2832C3.78237 8.36791 3.21291 7.41102 3.12606 7.21875C3.05527 7.31033 2.98757 7.40424 2.92306 7.50034C2.81796 7.66908 2.72362 7.84429 2.64062 8.02493C2.78886 8.29791 3.48879 9.25022 6.61219 11.0408Z" fill="#F5E600"/>
<path d="M10.6409 12.8995C10.3972 12.8995 9.51689 12.7199 6.61009 11.0517C3.46157 9.24661 2.77195 8.28273 2.63528 8.03077L2.63281 8.02499L2.63528 8.02005C2.71842 7.8388 2.81304 7.66304 2.91857 7.49384C2.98348 7.39744 3.0516 7.30324 3.12283 7.2114L3.1356 7.19531L3.14301 7.21302C3.21999 7.38553 3.77541 8.34779 7.13221 10.2709C9.98877 11.9097 10.8805 12.1073 11.1317 12.1163H11.1499L11.1424 12.1336C11.0638 12.2997 10.9755 12.4611 10.8781 12.617C10.8161 12.7119 10.7502 12.8042 10.6805 12.8937L10.6772 12.897H10.6714C10.6607 12.8995 10.6524 12.8995 10.6409 12.8995ZM2.6592 8.02414C2.80165 8.28273 3.50158 9.24082 6.62286 11.0318C9.52437 12.6969 10.3996 12.8764 10.6417 12.8764C10.65 12.8764 10.6574 12.8764 10.6639 12.8748C10.7315 12.787 10.796 12.6969 10.8574 12.6047C10.9507 12.4547 11.0357 12.2997 11.1118 12.1403C10.7808 12.1213 9.82727 11.8455 7.12057 10.2949C3.85725 8.42356 3.23466 7.45687 3.12932 7.24153C3.06349 7.32829 3.00006 7.41685 2.9391 7.5071C2.83441 7.67303 2.7409 7.84576 2.6592 8.02414Z" fill="#101211"/>
<path d="M6.61134 11.044C9.60295 12.7601 10.4441 12.9034 10.6639 12.8893C10.6788 12.8721 10.6911 12.8524 10.7067 12.8359C10.4045 12.8177 9.46296 12.5706 6.67103 10.9691C3.63907 9.2295 2.865 8.27261 2.6752 7.95312C2.66327 7.9774 2.65255 8.00251 2.64062 8.02806C2.78802 8.30111 3.48794 9.25341 6.61134 11.044Z" fill="#F5E600"/>
<path d="M10.6409 12.8999C10.3972 12.8999 9.51689 12.7203 6.61009 11.0521C3.46157 9.24703 2.77195 8.28315 2.63528 8.03119L2.63281 8.02541L2.63528 8.02047C2.64721 7.99493 2.65835 7.96981 2.66985 7.94511L2.67931 7.92578L2.69088 7.94434C2.88682 8.27497 3.6683 9.22685 6.68213 10.9565C9.43497 12.5343 10.3889 12.8011 10.7117 12.8209H10.7331L10.72 12.839C10.7059 12.8563 10.6919 12.8769 10.6779 12.8942L10.6746 12.8975H10.6688C10.6607 12.8999 10.6524 12.8999 10.6409 12.8999ZM2.6592 8.02456C2.80165 8.28315 3.50158 9.24124 6.62286 11.0323C9.52437 12.6973 10.3996 12.8768 10.6417 12.8768C10.65 12.8768 10.6574 12.8768 10.6639 12.8752C10.673 12.8653 10.6812 12.8546 10.6886 12.8422C10.3428 12.8126 9.36745 12.5244 6.67021 10.9763C3.70697 9.27666 2.89669 8.32393 2.68178 7.97644C2.67402 7.99161 2.66654 8.00854 2.6592 8.02456Z" fill="#101211"/>
<path d="M3.13129 7.21875C3.10864 7.24838 3.08522 7.27844 3.0625 7.30892C3.21243 7.58727 3.92139 8.5503 7.07852 10.3616C9.78352 11.9129 10.7499 12.1929 11.0842 12.2242C11.0998 12.1929 11.1154 12.1616 11.1302 12.1286C10.8469 12.1187 9.93373 11.8948 7.12579 10.284C3.78676 8.36791 3.21737 7.41186 3.13129 7.21875Z" fill="#F5E600"/>
<path d="M11.0896 12.2374L11.0814 12.2357C10.7421 12.2045 9.76796 11.9179 7.07157 10.3714C3.8877 8.54414 3.1894 7.57039 3.05019 7.31477L3.04688 7.3082L3.05097 7.30242C3.07362 7.27116 3.09669 7.24153 3.12011 7.2114L3.13288 7.19531L3.14029 7.21302C3.21685 7.38553 3.77269 8.34779 7.12957 10.2709C9.98606 11.9097 10.8779 12.1073 11.1291 12.1163H11.1472L11.1398 12.1336C11.1241 12.1665 11.1093 12.1969 11.0929 12.2283L11.0896 12.2374ZM3.07538 7.31053C3.2215 7.57448 3.93222 8.54238 7.08434 10.3516C9.75562 11.8824 10.7306 12.1764 11.0764 12.2127C11.0889 12.1879 11.0995 12.1624 11.111 12.1402C10.78 12.1205 9.82646 11.8446 7.11976 10.294C3.85644 8.42272 3.23385 7.45553 3.12851 7.24061C3.10995 7.26403 3.09224 7.28711 3.07538 7.31053Z" fill="#101211"/>
<path d="M6.93552 12.7809C4.90363 12.7743 3.68081 12.5289 2.96558 12.2852C2.93718 12.3286 2.90959 12.3725 2.88281 12.417C2.97672 12.575 3.07967 12.7241 3.19079 12.8698C4.75165 13.303 6.93545 13.303 6.93545 13.303C6.93545 13.303 9.12045 13.303 10.6809 12.8698C10.7912 12.7241 10.8949 12.5742 10.9888 12.417C10.9622 12.3721 10.9342 12.3282 10.9048 12.2852C10.1902 12.5289 8.96783 12.7743 6.93552 12.7809Z" fill="#F5E600"/>
<path d="M6.93393 13.3145C6.91206 13.3145 4.72995 13.3096 3.18596 12.8814L3.1818 12.8798L3.17891 12.8765C3.06764 12.7314 2.96468 12.5802 2.8705 12.4236L2.86719 12.417L2.8705 12.4112C2.90176 12.3577 2.92773 12.3181 2.95327 12.2786L2.95821 12.2695L2.96646 12.2737C3.61742 12.496 4.83452 12.762 6.93309 12.7694C9.03208 12.762 10.2487 12.496 10.9 12.2737L10.9083 12.2695L10.914 12.2786C10.9395 12.3181 10.9659 12.3593 10.9972 12.4112L11.0005 12.417L10.9972 12.4236C10.9029 12.58 10.8001 12.7312 10.6892 12.8765L10.6859 12.8798L10.6827 12.8814C9.13834 13.3095 6.95574 13.3145 6.93393 13.3145ZM3.19584 12.8599C4.73652 13.2848 6.91206 13.2914 6.93393 13.2914C6.95574 13.2914 9.13135 13.2848 10.672 12.8599C10.7806 12.7182 10.8809 12.5703 10.9725 12.417C10.9462 12.3725 10.9214 12.3346 10.8984 12.2983C10.2446 12.5206 9.02587 12.7875 6.93309 12.7924C4.84108 12.7875 3.62278 12.5206 2.96731 12.2983C2.94466 12.3346 2.92123 12.3725 2.894 12.417C2.9861 12.5703 3.08688 12.7182 3.19584 12.8599Z" fill="#101211"/>
<path d="M6.93552 12.8746C4.85706 12.8697 3.62521 12.6128 2.91661 12.3633C2.90511 12.3806 2.89481 12.3995 2.88281 12.4184C2.95099 12.532 3.02394 12.6428 3.10147 12.7503C4.66564 13.2081 6.93552 13.2081 6.93552 13.2081C6.93552 13.2081 9.20455 13.2081 10.7698 12.7503C10.8472 12.6428 10.9201 12.532 10.9881 12.4184C10.9776 12.3996 10.9663 12.3812 10.9543 12.3633C10.2462 12.6128 9.01433 12.8697 6.93552 12.8746Z" fill="#F5E600"/>
<path d="M6.93302 13.2204C6.91037 13.2204 4.64381 13.2138 3.09572 12.7609L3.0912 12.7593L3.08874 12.756C3.01164 12.648 2.93884 12.537 2.8705 12.4233L2.86719 12.4184L2.88405 12.3904C2.89061 12.3789 2.89724 12.3673 2.90423 12.3558L2.90917 12.3477L2.91862 12.3509C3.57036 12.5807 4.79649 12.8565 6.93379 12.8623C9.07145 12.8557 10.2979 12.5807 10.9494 12.3509L10.9576 12.3477L10.9634 12.3558C10.9699 12.3673 10.9766 12.3789 10.984 12.3904L11.0012 12.4184L10.9971 12.4233C10.9287 12.5372 10.8557 12.6482 10.7781 12.756L10.7756 12.7593L10.7714 12.7609C9.22265 13.2138 6.95567 13.2204 6.93302 13.2204ZM3.1056 12.7395C4.65044 13.1907 6.91037 13.1957 6.93302 13.1957C6.95567 13.1957 9.21567 13.1907 10.7608 12.7395C10.835 12.6351 10.9053 12.5279 10.9715 12.4183L10.9634 12.401C10.9572 12.3926 10.9517 12.3838 10.9469 12.3747C10.2914 12.6044 9.06369 12.8811 6.93302 12.8845C4.80235 12.8795 3.57537 12.6044 2.91947 12.3747C2.91411 12.3838 2.90917 12.392 2.90423 12.401L2.89478 12.4183C2.9604 12.5283 3.03074 12.6355 3.1056 12.7395Z" fill="#101211"/>
<path d="M6.93146 11.1794C6.93146 11.1794 10.2668 11.1794 11.6387 10.3642C11.6458 10.2793 11.6505 10.1942 11.6527 10.109C11.6514 10.0126 11.6467 9.91634 11.6387 9.82031C11.2203 10.0958 9.99588 10.6492 6.93146 10.6574C3.86902 10.6492 2.64366 10.0958 2.22371 9.82031C2.21678 9.91639 2.21253 10.0126 2.21094 10.109C2.21316 10.1942 2.21767 10.2793 2.22448 10.3642C3.59646 11.1794 6.93146 11.1794 6.93146 11.1794Z" fill="#F5E600"/>
<path d="M6.93515 11.1942C6.90135 11.1942 3.58074 11.1843 2.22253 10.3757L2.21759 10.3715L2.21674 10.365C2.20987 10.2797 2.20533 10.1943 2.20312 10.1088C2.20475 10.0017 2.20891 9.90789 2.21547 9.82096L2.21674 9.80078L2.23361 9.81193C2.61278 10.0611 3.82946 10.6391 6.9343 10.6474C10.0391 10.6391 11.2553 10.0611 11.6358 9.81193L11.6531 9.80078L11.6547 9.82096C11.6617 9.91677 11.6658 10.0128 11.667 10.1088C11.6651 10.1943 11.6607 10.2797 11.6538 10.365V10.3715L11.6472 10.3757C10.2886 11.1843 6.9681 11.1942 6.93515 11.1942ZM2.23939 10.3592C3.59606 11.1596 6.90142 11.1695 6.93515 11.1695C6.96888 11.1695 10.2738 11.1596 11.6308 10.3592C11.6377 10.2765 11.6421 10.1936 11.644 10.1106C11.643 10.0213 11.6392 9.93204 11.6325 9.84297C11.2332 10.0991 10.0021 10.664 6.93515 10.6722C3.86862 10.664 2.63754 10.0991 2.2377 9.84297C2.23143 9.93206 2.22772 10.0213 2.22655 10.1106C2.22929 10.1935 2.23357 10.2764 2.23939 10.3592Z" fill="#101211"/>
<path d="M6.93716 10.7546C3.87472 10.7464 2.64936 10.1914 2.2294 9.91797C2.22374 9.99636 2.22019 10.0749 2.21875 10.1535C2.2196 10.1914 2.22122 10.2293 2.22369 10.2672C3.59228 11.0873 6.93716 11.0873 6.93716 11.0873C6.93716 11.0873 10.2825 11.0873 11.651 10.2672L11.6559 10.1535C11.6546 10.0749 11.6507 9.99633 11.6443 9.91797C11.2244 10.1914 10.0008 10.7464 6.93716 10.7546Z" fill="#F5E600"/>
<path d="M6.93353 11.098C6.89973 11.098 3.56924 11.0881 2.21427 10.2762L2.20891 10.2729L2.20806 10.2672C2.20644 10.2276 2.20482 10.1897 2.20312 10.1519C2.20559 10.0589 2.20891 9.98386 2.21427 9.91471L2.21512 9.89453L2.23198 9.90568C2.61115 10.1535 3.82783 10.7342 6.93268 10.7423C10.0375 10.7342 11.2537 10.1544 11.6342 9.90568L11.6514 9.89453L11.6531 9.91471C11.6579 9.98386 11.6612 10.0589 11.6637 10.1502L11.6588 10.268V10.2729L11.6531 10.2762C10.2985 11.0882 6.96648 11.098 6.93353 11.098ZM2.23205 10.2597C3.5854 11.0651 6.90065 11.0749 6.9336 11.0749C6.96655 11.0749 10.2821 11.0651 11.6359 10.2597C11.6375 10.2235 11.6392 10.1873 11.6408 10.151C11.6397 10.0795 11.6364 10.0081 11.6309 9.93687C11.2316 10.1922 10.0005 10.7571 6.93353 10.7653C3.86699 10.7562 2.63592 10.1914 2.23607 9.93687C2.23121 10.0087 2.22806 10.0806 2.22662 10.1526C2.22747 10.1873 2.22916 10.2235 2.23205 10.2597Z" fill="#101211"/>
<path d="M6.93224 5.27344C4.32517 5.27344 2.21094 7.38725 2.21094 9.99516C2.21094 12.6039 4.32517 14.7168 6.93224 14.7168C9.53973 14.7168 11.6543 12.6039 11.6543 9.99516C11.6544 7.38725 9.53973 5.27344 6.93224 5.27344ZM6.93224 14.2442C4.58581 14.2442 2.6824 12.342 2.6824 9.99516C2.6824 7.64873 4.58496 5.74567 6.93224 5.74567C9.27987 5.74567 11.1817 7.64866 11.1817 9.99516C11.1817 12.342 9.2791 14.2442 6.93224 14.2442Z" fill="#F5E600"/>
<path d="M6.93593 14.7277C4.32639 14.7277 2.20312 12.6048 2.20312 9.99452C2.20312 7.38576 4.32639 5.26172 6.93593 5.26172C9.54582 5.26172 11.6695 7.38576 11.6695 9.99452C11.6696 12.6048 9.54589 14.7277 6.93593 14.7277ZM6.93593 5.28557C4.33874 5.28557 2.22655 7.39775 2.22655 9.99452C2.22655 12.5917 4.33951 14.7047 6.93593 14.7047C9.53227 14.7047 11.6448 12.5917 11.6448 9.99452C11.6448 7.39768 9.53312 5.28557 6.93593 5.28557ZM6.93593 14.2567C4.58575 14.2567 2.67536 12.3446 2.67536 9.99445C2.67536 7.6447 4.5866 5.73304 6.93593 5.73304C9.28525 5.73304 11.1968 7.64555 11.1968 9.99445C11.1968 12.3447 9.2861 14.2567 6.93593 14.2567ZM6.93593 5.7578C4.59937 5.7578 2.69879 7.65916 2.69879 9.99452C2.69879 12.3316 4.59937 14.232 6.93593 14.232C9.27248 14.232 11.1738 12.3315 11.1738 9.99452C11.1738 7.65916 9.27248 5.7578 6.93593 5.7578Z" fill="#101211"/>
<path d="M6.93911 5.36719C4.38348 5.36719 2.3125 7.43901 2.3125 9.9938C2.3125 12.5499 4.38433 14.6216 6.93911 14.6216C9.49425 14.6216 11.5657 12.5499 11.5657 9.9938C11.5657 7.43901 9.4951 5.36719 6.93911 5.36719ZM6.93911 14.3383C4.54033 14.3383 2.59579 12.3934 2.59579 9.99373C2.59579 7.59579 4.5404 5.65083 6.93911 5.65083C9.33825 5.65083 11.2824 7.59579 11.2824 9.99373C11.2824 12.3934 9.33825 14.3383 6.93911 14.3383Z" fill="#F5E600"/>
<path d="M6.93541 14.6322C4.37731 14.6322 2.29688 12.5505 2.29688 9.99281C2.29688 7.4347 4.37816 5.35547 6.93541 5.35547C9.49309 5.35547 11.5735 7.43548 11.5735 9.99281C11.5735 12.5505 9.49309 14.6322 6.93541 14.6322ZM6.93541 5.37734C4.3905 5.37734 2.32037 7.44747 2.32037 9.99281C2.32037 12.5373 4.3905 14.6091 6.93541 14.6091C9.48025 14.6091 11.5505 12.5373 11.5505 9.99281C11.5505 7.44832 9.48032 5.37734 6.93541 5.37734ZM6.93541 14.3488C4.5338 14.3488 2.57931 12.3965 2.57931 9.99274C2.57931 7.59155 4.53296 5.63784 6.93541 5.63784C9.3378 5.63784 11.2919 7.59071 11.2919 9.99274C11.2902 12.3957 9.33702 14.3488 6.93541 14.3488ZM6.93541 5.66056C4.54658 5.66056 2.60401 7.60432 2.60401 9.99274C2.60401 12.3825 4.54735 14.3258 6.93541 14.3258C9.3234 14.3258 11.2672 12.3825 11.2672 9.99274C11.2672 7.60432 9.32348 5.66056 6.93541 5.66056Z" fill="#101211"/>
<path d="M6.70312 5.27344H7.17536V14.7168H6.70312V5.27344Z" fill="#F5E600"/>
<path d="M7.18408 14.7277H6.6875V5.26172H7.18408V14.7277ZM6.71184 14.7047H7.16065V5.28634H6.71184V14.7047Z" fill="#101211"/>
<path d="M6.70312 5.22656H6.79739V14.7643H6.70312V5.22656Z" fill="#F5E600"/>
<path d="M6.80653 14.7748H6.6875V5.21484H6.80653V14.7748ZM6.71184 14.7517H6.78268V5.23665H6.71184V14.7517Z" fill="#101211"/>
<path d="M7.07812 5.22656H7.17281V14.7643H7.07812V5.22656Z" fill="#F5E600"/>
<path d="M7.18153 14.7748H7.0625V5.21484H7.18153V14.7748ZM7.08727 14.7517H7.1581V5.23665H7.08727V14.7517Z" fill="#101211"/>
<path d="M2.21468 9.8222C2.21305 9.87942 2.21094 9.93622 2.21094 9.99393C2.21094 10.1174 2.21545 10.2393 2.22533 10.3604C2.64444 10.0854 3.8698 9.53157 6.93309 9.5229C9.99666 9.53157 11.2212 10.0853 11.6411 10.3604C11.6511 10.2393 11.6559 10.1183 11.6559 9.99393C11.6559 9.93706 11.6544 9.88026 11.6518 9.8222C10.2865 9 6.93386 9 6.93386 9C6.93386 9 3.57953 9 2.21468 9.8222Z" fill="#F5E600"/>
<path d="M11.6547 10.3808L11.6374 10.3693C11.2586 10.1206 10.0407 9.54208 6.93593 9.53383C3.83108 9.54208 2.61441 10.1206 2.23523 10.3693L2.21837 10.3808L2.21752 10.3618C2.20337 10.1822 2.19965 10.002 2.20638 9.82198V9.81542L2.21131 9.8121C3.56389 8.99731 6.90213 8.98828 6.93593 8.98828C6.96973 8.98828 10.3083 8.99731 11.6596 9.8121L11.6654 9.81542L11.6663 9.82198C11.6687 9.88788 11.6704 9.94263 11.6704 9.99371C11.6704 10.1164 11.6646 10.2391 11.6556 10.3618L11.6547 10.3808ZM6.93671 9.50998C10.0036 9.51943 11.2347 10.0844 11.6341 10.338C11.6423 10.2244 11.6473 10.1091 11.6473 9.99378C11.6473 9.94439 11.6457 9.89211 11.644 9.82946C10.2927 9.02165 6.9705 9.01178 6.93678 9.01178C6.90305 9.01178 3.58082 9.02165 2.22987 9.82946C2.22825 9.89204 2.22663 9.94432 2.22663 9.99378C2.22663 10.1091 2.23072 10.2244 2.2394 10.338C2.6391 10.0843 3.87017 9.51943 6.93671 9.50998Z" fill="#101211"/>
<path d="M6.93793 9.09375C6.93793 9.09375 3.58522 9.09375 2.22037 9.91552C2.21953 9.9369 2.21953 9.95835 2.21875 9.98142C2.22037 10.0753 2.22369 10.1709 2.2311 10.2648C2.6502 9.98968 3.87556 9.4351 6.93885 9.42685C10.0024 9.4351 11.2269 9.98968 11.6469 10.2648C11.6543 10.1709 11.6585 10.0753 11.6602 9.98142L11.6577 9.91552C10.2906 9.09375 6.93793 9.09375 6.93793 9.09375Z" fill="#F5E600"/>
<path d="M11.6531 10.2847L11.6358 10.2748C11.257 10.0261 10.0391 9.44723 6.9343 9.43771C3.82946 9.44716 2.61278 10.0261 2.23361 10.2748L2.21674 10.2847L2.2159 10.265C2.20851 10.1707 2.20425 10.0762 2.20312 9.98163C2.20312 9.95856 2.20397 9.93718 2.20475 9.91573V9.90917L2.20969 9.9067C3.56226 9.09191 6.90051 9.08203 6.9343 9.08203C6.9681 9.08203 10.3067 9.09191 11.658 9.9067L11.6638 9.90917L11.6646 9.91573C11.6646 9.93711 11.6655 9.95856 11.6671 9.97994C11.6653 10.075 11.6609 10.1701 11.6539 10.2649L11.6531 10.2847ZM2.22817 9.92398C2.22733 9.94212 2.22733 9.96187 2.22655 9.98163C2.22762 10.069 2.23134 10.1564 2.2377 10.2435C2.63754 9.98819 3.86855 9.42331 6.93515 9.41506C10.002 9.42331 11.2332 9.98819 11.6325 10.2435C11.6391 10.1645 11.6424 10.078 11.644 9.98001C11.6424 9.96187 11.6424 9.94212 11.6424 9.92406C10.2912 9.11583 6.96895 9.10637 6.93522 9.10637C6.90149 9.10637 3.57912 9.11491 2.22817 9.92398Z" fill="#101211"/>
<path d="M2.65625 7.99565C3.00007 7.84417 4.31306 7.35662 6.91766 7.37355V7.3744H6.95061V7.37355C9.55521 7.35669 10.8694 7.84501 11.2136 7.99565C11.1294 7.81827 11.0348 7.646 10.9303 7.47974C10.9051 7.43872 10.879 7.39823 10.852 7.35832C10.33 7.18538 9.3386 6.94245 7.78022 6.88439C7.45495 6.87161 7.19516 6.86999 7.04854 6.87161H6.81839C6.67142 6.86999 6.41156 6.87161 6.08629 6.88439C4.52791 6.94161 3.53729 7.18453 3.01524 7.35832C2.9885 7.39783 2.96218 7.43903 2.93622 7.47974C2.83285 7.64607 2.73936 7.81834 2.65625 7.99565Z" fill="#F5E600"/>
<path d="M2.63281 8.01869L2.64636 7.9911C2.72493 7.82275 2.81333 7.65915 2.91109 7.50116L2.9288 7.47399C2.95766 7.42792 2.98355 7.38834 3.00824 7.35172L3.00987 7.34847L3.01318 7.34685C3.57227 7.16242 4.5588 6.93021 6.08755 6.87215C6.35969 6.86227 6.58575 6.85938 6.72736 6.85938C6.76193 6.85938 6.79326 6.85938 6.82042 6.86022H7.05065C7.07739 6.85938 7.10872 6.85938 7.14329 6.85938C7.2849 6.85938 7.51096 6.86227 7.7831 6.87215C9.31185 6.92937 10.2992 7.16242 10.8575 7.34685L10.8608 7.34847L10.8641 7.35172C10.8879 7.38841 10.9143 7.42707 10.9431 7.47399L10.9604 7.50116C11.0584 7.6597 11.149 7.82396 11.2247 7.9911L11.2387 8.01869L11.2107 8.00634C10.874 7.85853 9.56261 7.36943 6.96549 7.38545H6.90784C6.86833 7.3846 6.82875 7.3846 6.78924 7.3846C4.27114 7.3846 2.99392 7.86015 2.66252 8.00634L2.63281 8.01869ZM2.96259 7.46574L2.94982 7.48507C2.8514 7.64277 2.76003 7.80625 2.68178 7.97255C3.05439 7.81408 4.3345 7.3611 6.78917 7.3611H6.95349C9.49346 7.34424 10.8122 7.81076 11.1918 7.97255C11.112 7.80491 11.0223 7.64213 10.9233 7.48507L10.9052 7.45791H10.9068C10.8854 7.42538 10.8656 7.39652 10.8475 7.36851C10.29 7.18408 9.30684 6.95392 7.78423 6.8967C7.57121 6.88807 7.35804 6.88381 7.14484 6.88393H6.73025C6.58822 6.88393 6.36258 6.88555 6.0908 6.8967C4.56783 6.95307 3.58462 7.18408 3.02751 7.36851C3.00542 7.39822 2.98524 7.42954 2.96259 7.46574Z" fill="#101211"/>
<path d="M6.95061 7.27781H6.91766C4.44112 7.26095 3.13258 7.70186 2.71347 7.87564C2.69414 7.91558 2.67481 7.95509 2.65625 7.99467C3.00007 7.84318 4.31306 7.35564 6.91766 7.37257V7.37342H6.95061V7.37257C9.55521 7.35571 10.8694 7.84403 11.2136 7.99467C11.1938 7.95509 11.174 7.9148 11.1542 7.87564C10.736 7.70108 9.42708 7.26173 6.95061 7.27781Z" fill="#F5E600"/>
<path d="M2.63281 8.01704L2.64636 7.98945C2.66492 7.94909 2.68425 7.90916 2.70443 7.86965L2.70605 7.86556L2.71057 7.86393C3.15232 7.6807 4.45833 7.24924 6.91885 7.26611H6.95265C9.41225 7.24924 10.7183 7.6807 11.1613 7.86393L11.1654 7.86556L11.1679 7.86965C11.1869 7.90923 11.2074 7.94909 11.2247 7.98945L11.2387 8.01704L11.2115 8.00469C10.8739 7.85688 9.56254 7.36778 6.96542 7.38379H6.9082C4.31185 7.36855 2.99964 7.85772 2.66245 8.00469L2.63281 8.01704ZM2.72383 7.88404C2.70901 7.91367 2.6954 7.94126 2.681 7.97174C3.06144 7.80996 4.38022 7.34428 6.91892 7.3603H7.0836C9.53791 7.3603 10.818 7.81243 11.1901 7.97174C11.1769 7.94211 11.163 7.91452 11.1474 7.88404C10.7109 7.70454 9.44781 7.28953 7.08367 7.28953H6.90742C4.46623 7.27514 3.16848 7.70088 2.72383 7.88404Z" fill="#101211"/>
<path d="M6.91718 6.96623C6.92212 6.96623 6.94512 6.96623 6.95013 6.96708V6.96623C9.08616 6.95269 10.3534 7.27788 10.9299 7.47883C10.9047 7.4378 10.8786 7.39731 10.8516 7.3574C10.2415 7.15568 8.99395 6.85793 6.9502 6.87154H6.91725C4.87343 6.85793 3.6255 7.15561 3.01652 7.3574C2.98978 7.39691 2.96346 7.43812 2.9375 7.47883C3.51381 7.27795 4.7815 6.95353 6.91718 6.96623Z" fill="#F5E600"/>
<path d="M2.91406 7.50072L2.93177 7.47277C2.96063 7.4267 2.98652 7.3867 3.01122 7.3505L3.01284 7.34725L3.01616 7.34563C3.57694 7.15993 4.84012 6.84658 6.92098 6.85978H6.95477C9.03768 6.84658 10.2988 7.15993 10.8595 7.34563L10.8628 7.34725L10.8653 7.3505C10.8908 7.38797 10.9172 7.42748 10.9443 7.47277L10.9625 7.50072L10.9304 7.48879C10.3828 7.29737 9.15212 6.97704 7.08446 6.97704C7.04494 6.97704 7.00543 6.97704 6.96585 6.97789H6.90821C6.86869 6.97704 6.82911 6.97704 6.7896 6.97704C4.72278 6.97704 3.49249 7.29822 2.9437 7.48879L2.91406 7.50072ZM3.02893 7.36736C3.01122 7.39453 2.99146 7.42339 2.97044 7.45591C3.54816 7.25948 4.81211 6.94085 6.92267 6.95362H6.95647C9.06696 6.94 10.331 7.25871 10.9081 7.45591C10.8884 7.42423 10.8686 7.39537 10.8506 7.36736C10.2906 7.18208 9.0369 6.8717 6.96839 6.88363H6.91117C4.84181 6.87163 3.58844 7.18208 3.02893 7.36736Z" fill="#101211"/>
<path d="M2.71875 12.1176C2.79348 12.2656 2.87594 12.4097 2.96577 12.5491C3.68171 12.3036 4.9046 12.0583 6.93564 12.0534C8.96796 12.0583 10.1903 12.3037 10.9059 12.5491C10.9953 12.4094 11.0777 12.2654 11.153 12.1176C9.60854 11.5312 6.93564 11.5312 6.93564 11.5312C6.93564 11.5312 4.26359 11.5313 2.71875 12.1176Z" fill="#F5E600"/>
<path d="M10.9122 12.5645L10.9039 12.5612C10.2534 12.338 9.03601 12.072 6.93702 12.0654C4.83845 12.0721 3.62135 12.338 2.97039 12.5612L2.96214 12.5645L2.9572 12.5562C2.86691 12.416 2.78403 12.2712 2.70891 12.1223L2.70312 12.1099L2.7159 12.105C4.24465 11.5253 6.91106 11.5195 6.9378 11.5195C6.96496 11.5195 9.63088 11.5261 11.16 12.105L11.1723 12.1099L11.1658 12.1223C11.0912 12.2714 11.0085 12.4163 10.9179 12.5562L10.9122 12.5645ZM2.73615 12.1247C2.80841 12.2655 2.88714 12.4029 2.97209 12.5364C3.62756 12.3124 4.84501 12.0473 6.93787 12.0424C9.03065 12.0473 10.2485 12.3124 10.9039 12.5364C10.9885 12.4027 11.0671 12.2654 11.1394 12.1247C9.61239 11.5499 6.96496 11.5434 6.93787 11.5434C6.91106 11.5434 4.2632 11.5499 2.73615 12.1247Z" fill="#101211"/>
<path d="M2.75781 12.1964C2.80742 12.2899 2.8603 12.3817 2.91635 12.4715C3.62495 12.2211 4.8568 11.9642 6.93526 11.9593C9.01407 11.9642 10.2459 12.222 10.954 12.4715C11.0099 12.3817 11.0627 12.2899 11.1121 12.1964C9.56286 11.625 6.93519 11.625 6.93519 11.625C6.93519 11.625 4.30879 11.625 2.75781 12.1964Z" fill="#F5E600"/>
<path d="M10.9602 12.4861L10.952 12.4829C10.2998 12.2522 9.07331 11.9757 6.93643 11.9707C4.79913 11.9764 3.57384 12.2522 2.92126 12.4829L2.91181 12.4861L2.90687 12.478C2.85114 12.3874 2.79827 12.2951 2.74833 12.2012L2.74219 12.1897L2.75496 12.1848C4.28985 11.6199 6.90969 11.6133 6.93565 11.6133C6.96197 11.6133 9.58266 11.6199 11.1167 12.1848L11.129 12.1897L11.1217 12.2012C11.0725 12.2954 11.0198 12.3877 10.9636 12.478L10.9602 12.4861ZM6.93643 11.946C9.0671 11.9526 10.2949 12.226 10.9503 12.4565C11.0016 12.3734 11.0505 12.2888 11.0969 12.2029C9.56488 11.6429 6.96275 11.6355 6.93643 11.6355C6.91047 11.6355 4.30833 11.6429 2.77591 12.2029C2.82225 12.2888 2.871 12.3733 2.92211 12.4565C3.578 12.2259 4.80576 11.9525 6.93643 11.946Z" fill="#101211"/>
<path d="M10.6631 12.8952C10.8544 12.6506 11.0207 12.3874 11.1597 12.1097C11.037 11.8659 10.3832 10.9107 7.17786 9.07191C4.11788 7.31632 3.30761 7.20759 3.11083 7.22862C2.93888 7.46611 2.78931 7.71903 2.66406 7.98414C2.94735 7.99444 3.86056 8.21966 6.66851 9.82913C10.0076 11.7457 10.5766 12.7025 10.6631 12.8952Z" fill="#F5E600"/>
<path d="M10.6548 12.9186L10.6466 12.9005C10.5692 12.7276 10.0142 11.7674 6.65699 9.84216C3.80248 8.20468 2.90945 8.00748 2.65833 7.99802L2.64062 7.99718L2.64803 7.98031C2.77361 7.71419 2.92385 7.46041 3.09677 7.22232L3.09924 7.21816L3.10418 7.21731C3.11773 7.21654 3.13212 7.21484 3.14736 7.21484C3.39114 7.21484 4.2714 7.39519 7.17777 9.0623C10.3765 10.897 11.0369 11.8547 11.1645 12.105L11.1669 12.1099L11.1645 12.1166C11.0241 12.3942 10.8575 12.6577 10.6671 12.9037L10.6548 12.9186ZM2.6776 7.97537C3.00907 7.99471 3.96342 8.26974 6.66934 9.82114C9.93266 11.6934 10.5544 12.6584 10.6598 12.8741C10.8441 12.6353 11.0051 12.3795 11.1407 12.11C11.0089 11.8547 10.3386 10.9028 7.16592 9.08333C4.26449 7.41953 3.38916 7.23919 3.14743 7.23919C3.13466 7.23919 3.12274 7.24003 3.11208 7.24081C2.94556 7.47217 2.80015 7.71801 2.6776 7.97537Z" fill="#101211"/>
<path d="M6.71585 9.75019C4.01078 8.19879 3.0445 7.91882 2.71056 7.88672C2.69447 7.91805 2.6793 7.951 2.66406 7.98183C2.94735 7.99213 3.86056 8.21735 6.66851 9.82675C10.0076 11.7418 10.5766 12.6994 10.6631 12.8913C10.6861 12.8617 10.7091 12.8329 10.7322 12.8016C10.5824 12.5249 9.87249 11.5614 6.71585 9.75019Z" fill="#F5E600"/>
<path d="M10.6548 12.9163L10.6466 12.8981C10.5691 12.7252 10.0142 11.765 6.65699 9.83979C3.80248 8.20231 2.90945 8.00511 2.65833 7.99565L2.64062 7.99481L2.64803 7.97794C2.66327 7.94584 2.67929 7.91409 2.69453 7.88283L2.69785 7.875L2.70653 7.87585C3.04618 7.90795 4.01916 8.1937 6.71591 9.74017C9.89978 11.5674 10.598 12.5424 10.7364 12.7969L10.7405 12.8042L10.7364 12.8092C10.7134 12.8404 10.6894 12.8701 10.6672 12.9006L10.6548 12.9163ZM2.6776 7.973C3.00907 7.99234 3.96342 8.26737 6.66934 9.81877C9.93266 11.691 10.5544 12.656 10.6598 12.8718C10.6779 12.8488 10.6961 12.8257 10.7134 12.8026C10.5676 12.5391 9.85688 11.5691 6.70483 9.76239C4.03271 8.22912 3.05811 7.93674 2.71309 7.90139C2.70025 7.92397 2.68867 7.94831 2.6776 7.973Z" fill="#101211"/>
<path d="M7.11554 9.14804C10.2001 10.9173 10.947 11.8775 11.1208 12.1805C11.1332 12.1574 11.1455 12.1344 11.157 12.1097C11.0335 11.8659 10.3797 10.9107 7.17523 9.07191C4.11526 7.31632 3.30498 7.20759 3.1082 7.22862C3.09585 7.24633 3.08308 7.26404 3.07031 7.28175C3.36298 7.29522 4.29313 7.52997 7.11554 9.14804Z" fill="#F5E600"/>
<path d="M11.1207 12.2047L11.1092 12.1857C10.9206 11.8572 10.1557 10.9069 7.10854 9.1591C4.33595 7.56897 3.38731 7.30925 3.06868 7.29478L3.04688 7.29401L3.06952 7.26183C3.07898 7.24864 3.08808 7.23587 3.09753 7.22232L3.1 7.21816L3.10494 7.21731C3.11849 7.21647 3.13288 7.21484 3.14819 7.21484C3.39197 7.21484 4.27223 7.39519 7.1786 9.0623C10.3781 10.897 11.0385 11.8538 11.1653 12.1041L11.1677 12.1091L11.1653 12.1164C11.1538 12.1354 11.1439 12.1576 11.1324 12.1782L11.1207 12.2047ZM3.09126 7.27221C3.43219 7.2957 4.40255 7.57899 7.12039 9.13815C10.1177 10.8583 10.9132 11.8095 11.1191 12.1561C11.1273 12.1405 11.1355 12.1265 11.1421 12.1092C11.0104 11.8539 10.3401 10.9021 7.16739 9.08255C4.26595 7.41875 3.39063 7.23841 3.1489 7.23841C3.13613 7.23841 3.12421 7.23926 3.11355 7.24003C3.1065 7.25033 3.09909 7.26106 3.09126 7.27221Z" fill="#101211"/>
<path d="M4.51331 11.894C4.98639 12.8013 5.79955 13.2609 6.93347 13.2609C8.06689 13.2609 8.88055 12.8013 9.35356 11.894C9.70684 11.2146 9.72618 10.5237 9.72618 10.5171V6.80859H4.14062V10.5187C4.14062 10.5237 4.15918 11.2154 4.51331 11.894Z" fill="white"/>
<path d="M9.72537 6.80906V10.5163C9.72537 10.5229 9.70604 11.2146 9.35276 11.8932C9.1461 12.2909 8.86613 12.6071 8.52316 12.8335C8.09213 13.1168 7.55766 13.2601 6.93352 13.2601C6.30972 13.2601 5.77406 13.1168 5.34423 12.8335C5.00005 12.6062 4.72086 12.29 4.51462 11.8932C4.16014 11.2146 4.14159 10.5229 4.14159 10.5179V6.80906H9.72537ZM9.77272 6.76172H4.09375V10.5179C4.09375 10.5179 4.15182 13.3087 6.93345 13.3087C9.7155 13.3087 9.77349 10.5179 9.77349 10.5179V6.76172H9.77272Z" fill="black"/>
<path d="M4.49227 11.9038C4.81965 12.5345 5.50927 13.2839 6.93346 13.2839C8.35842 13.2839 9.04854 12.5328 9.37535 11.9021C9.7311 11.2162 9.75008 10.5253 9.75008 10.5171V6.78516H4.11719V10.5187C4.11719 10.5253 4.13567 11.2187 4.49227 11.9038ZM5.3211 7.99026H8.54575V10.4907C8.54081 10.5632 8.5037 11.0005 8.27933 11.3982C8.10145 11.716 7.78691 12.08 6.93339 12.08C6.08029 12.08 5.76574 11.716 5.58702 11.3982C5.36343 11.0004 5.32554 10.5632 5.32103 10.4907L5.3211 7.99026Z" fill="black"/>
<path d="M4.49227 11.9038C4.81965 12.5345 5.50927 13.2839 6.93346 13.2839C8.35842 13.2839 9.04854 12.5328 9.37535 11.9021C9.7311 11.2162 9.75008 10.5253 9.75008 10.5171V6.78516H4.11719V10.5187C4.11719 10.5253 4.13567 11.2187 4.49227 11.9038ZM5.29266 7.96148H8.57454V10.4924C8.56917 10.5633 8.53213 11.0054 8.30529 11.4113C8.18838 11.6205 8.04466 11.7753 7.86678 11.8873C7.63006 12.0339 7.31715 12.1096 6.93339 12.1096C6.54963 12.1096 6.23713 12.0339 6.00084 11.8873C5.82297 11.7745 5.67967 11.6205 5.56233 11.4113C5.33549 11.0063 5.29838 10.5632 5.29344 10.4924V7.96148H5.29266Z" fill="#E32121"/>
<path d="M4.49227 11.9038C4.81965 12.5345 5.50927 13.2839 6.93346 13.2839C8.35842 13.2839 9.04854 12.5328 9.37535 11.9021C9.7311 11.2162 9.75008 10.5253 9.75008 10.5171V6.78516H4.11719V10.5187C4.11719 10.5253 4.13567 11.2187 4.49227 11.9038ZM4.26296 6.93213H9.60311V10.5155C9.60311 10.5501 9.57877 11.194 9.24574 11.8346C8.79615 12.6993 8.01876 13.1389 6.93353 13.1389C5.85274 13.1389 5.07662 12.7025 4.62661 11.8445C4.29019 11.2038 4.26472 10.5484 4.2631 10.5154V6.93213H4.26296Z" fill="black"/>
<path d="M4.49227 11.9038C4.81965 12.5345 5.50927 13.2839 6.93346 13.2839C8.35842 13.2839 9.04854 12.5328 9.37535 11.9021C9.7311 11.2162 9.75008 10.5253 9.75008 10.5171V6.78516H4.11719V10.5187C4.11719 10.5253 4.13567 11.2187 4.49227 11.9038ZM4.23537 6.90412H9.63105V10.5171C9.6302 10.5484 9.60636 11.2014 9.26994 11.8477C9.07111 12.2314 8.80222 12.5362 8.47244 12.7535C8.05743 13.0286 7.53905 13.1669 6.93261 13.1669C6.329 13.1669 5.81189 13.0286 5.39807 12.7568C5.06744 12.541 4.79947 12.238 4.59937 11.8559C4.26049 11.2086 4.23537 10.5466 4.23459 10.517V6.90412H4.23537Z" fill="white"/>
<path d="M7.27936 7.549L6.93843 7.54695L6.59793 7.549L6.56166 7.84667H7.31556L7.27936 7.549ZM7.32219 7.85246H6.5539C6.54155 7.85246 6.53125 7.86318 6.53125 7.87511C6.53125 7.88703 6.54155 7.89776 6.5539 7.89776H7.32219C7.33496 7.89776 7.34484 7.88703 7.34484 7.87511C7.34484 7.86318 7.33574 7.85246 7.32219 7.85246ZM7.2987 7.50165H6.57859C6.57483 7.50354 6.57165 7.50641 6.5694 7.50997C6.56715 7.51352 6.56592 7.51762 6.56582 7.52183C6.56581 7.52481 6.56639 7.52776 6.56753 7.53051C6.56866 7.53326 6.57033 7.53576 6.57244 7.53787C6.57454 7.53997 6.57704 7.54164 6.57979 7.54277C6.58254 7.54391 6.58549 7.54449 6.58847 7.54448H7.28762C7.29361 7.54442 7.29934 7.54202 7.30357 7.53778C7.30781 7.53355 7.31021 7.52782 7.31027 7.52183C7.31049 7.51771 7.30952 7.51361 7.30747 7.51003C7.30541 7.50645 7.30237 7.50354 7.2987 7.50165ZM7.3296 7.22909V7.14513H7.27153V7.18796H7.23195V7.14598H7.17268V7.18796H7.1331V7.14513H7.07503V7.22909C7.07503 7.26042 7.1113 7.26204 7.1113 7.26204L7.10473 7.43251H7.03559L7.0286 7.10682C7.0286 7.10682 7.0648 7.10597 7.0648 7.07514V6.98828H7.00758V7.03196H6.96807V6.98997H6.90915V7.03196H6.86922V6.98828H6.81115V7.07514C6.81115 7.10604 6.84734 7.10682 6.84734 7.10682L6.84078 7.43251H6.77164L6.76458 7.26366C6.76458 7.26366 6.80085 7.26204 6.80085 7.23071V7.14506H6.74285V7.18789H6.70334V7.1459H6.64407V7.18789H6.60449V7.14506H6.54727V7.23071C6.54727 7.26197 6.58353 7.26366 6.58353 7.26366L6.57697 7.43251H6.56914C6.55637 7.43251 6.54727 7.44365 6.54727 7.45516C6.54727 7.46708 6.55757 7.4778 6.56914 7.4778H7.30533C7.30836 7.47786 7.31137 7.47732 7.31419 7.47621C7.31701 7.4751 7.31958 7.47345 7.32177 7.47135C7.32395 7.46924 7.32569 7.46673 7.32691 7.46395C7.32812 7.46117 7.32877 7.45819 7.32882 7.45516C7.3285 7.44911 7.3259 7.44341 7.32154 7.4392C7.31718 7.435 7.31138 7.43261 7.30533 7.43251H7.29954L7.29178 7.26204C7.29249 7.26204 7.3296 7.26042 7.3296 7.22909Z" fill="#F5E600"/>
<path d="M6.65059 7.31392C6.65383 7.30235 6.65927 7.29705 6.66745 7.29705C6.67528 7.29705 6.68107 7.30242 6.68431 7.31392C6.68583 7.31942 6.68666 7.32508 6.68678 7.33078V7.37488H6.64889V7.33078C6.64812 7.33085 6.64812 7.3226 6.65059 7.31392ZM7.17842 7.31392C7.18174 7.30235 7.18788 7.29705 7.19529 7.29705C7.20312 7.29705 7.20883 7.30242 7.21215 7.31392C7.21366 7.31942 7.21449 7.32508 7.21462 7.33078V7.37488H7.17673V7.33078C7.17595 7.33085 7.17595 7.3226 7.17842 7.31392ZM6.91454 7.21387C6.91779 7.20025 6.92315 7.19531 6.9314 7.19531C6.94001 7.19531 6.94495 7.2011 6.94827 7.21387C6.95074 7.22375 6.95074 7.2332 6.95074 7.2332V7.28633H6.91207V7.2332C6.91207 7.23405 6.91207 7.22375 6.91454 7.21387Z" fill="black"/>
<path d="M7.31839 7.831L7.28706 7.5679C7.29838 7.56667 7.30886 7.56135 7.31651 7.55292C7.32417 7.5445 7.32848 7.53356 7.32862 7.52218C7.32894 7.51316 7.32618 7.5043 7.32079 7.49706C7.3285 7.4932 7.33497 7.48727 7.33949 7.47992C7.344 7.47258 7.34637 7.46412 7.34633 7.4555C7.34643 7.44409 7.3422 7.43306 7.33449 7.42465C7.32677 7.41625 7.31615 7.41108 7.30477 7.4102L7.29983 7.26853C7.31669 7.26486 7.3361 7.25329 7.3361 7.22697V7.13348H7.25411V7.17469H7.23725V7.13433H7.15491V7.17469H7.13804V7.13348H7.05698V7.22697C7.05698 7.25329 7.07631 7.26486 7.09317 7.26853L7.08823 7.40936H7.04089L7.03433 7.11245C7.05119 7.10836 7.07052 7.09637 7.07052 7.07005V6.97656H6.98945V7.01854H6.97259V6.97819H6.89025V7.01854H6.87339V6.97656H6.79225V7.07005C6.79225 7.09644 6.81243 7.10836 6.82851 7.11245L6.82195 7.40936H6.77538L6.7696 7.26853C6.78646 7.26486 6.80586 7.25329 6.80586 7.22697V7.13348H6.72472V7.17469H6.70779V7.13433H6.62545V7.17469H6.60859V7.13348H6.52752V7.22697C6.52752 7.25329 6.54685 7.26486 6.56294 7.26853L6.558 7.4102C6.54661 7.41097 6.53597 7.41611 6.5283 7.42456C6.52063 7.433 6.51653 7.4441 6.51686 7.4555C6.51686 7.47321 6.52674 7.4893 6.54198 7.49706C6.53689 7.50445 6.53416 7.5132 6.53415 7.52218C6.53415 7.54483 6.55228 7.56543 6.57571 7.5679L6.54445 7.831C6.53256 7.83115 6.52121 7.836 6.51289 7.84449C6.50456 7.85297 6.49993 7.86441 6.5 7.8763C6.5 7.90184 6.52018 7.9228 6.54614 7.9228H7.31444C7.32055 7.92281 7.3266 7.92161 7.33224 7.91928C7.33789 7.91694 7.34302 7.91352 7.34734 7.9092C7.35166 7.90488 7.35508 7.89975 7.35741 7.89411C7.35975 7.88846 7.36094 7.88241 7.36093 7.8763C7.36326 7.85111 7.34393 7.831 7.31839 7.831ZM6.9371 7.62427L6.93301 7.6218L6.92884 7.62427C6.82506 7.66541 6.81236 7.79022 6.81151 7.83016H6.75753C6.75916 7.78528 6.77609 7.62512 6.92553 7.56867H6.94162C7.09232 7.62427 7.10756 7.78521 7.10919 7.83016H7.05528C7.05366 7.79022 7.04089 7.66463 6.9371 7.62427ZM7.03186 7.83016H6.83465C6.83627 7.79431 6.84785 7.68396 6.93308 7.64692C7.01824 7.68396 7.03016 7.79474 7.03186 7.83016ZM6.87247 7.56867C6.75019 7.64198 6.73658 7.78691 6.73411 7.83016H6.5707L6.6016 7.56867H6.87247ZM7.13106 7.83016C7.12944 7.78691 7.11462 7.64198 6.99312 7.56867H7.26448L7.29574 7.83016H7.13106ZM7.08167 7.22774V7.15698H7.11709V7.19853H7.17925V7.15775H7.21552V7.19853H7.2781V7.15698H7.31352V7.22774C7.31352 7.24545 7.29087 7.24708 7.28713 7.24708H7.10679C7.10432 7.24715 7.08167 7.24545 7.08167 7.22774ZM7.28219 7.4102H7.11173L7.11709 7.271H7.27641L7.28219 7.4102ZM6.81772 7.0709V7.00006H6.85314V7.04253H6.9153V7.00175H6.95149V7.04253H7.01408V7.00006H7.04865V7.0709C7.04865 7.08945 7.02558 7.09023 7.02311 7.09108H6.84354C6.84037 7.09108 6.81772 7.0903 6.81772 7.0709ZM7.01824 7.40936H6.84693L6.85391 7.11499H7.01245L7.01824 7.40936ZM6.55384 7.22774V7.15698H6.58841V7.19853H6.65057V7.15775H6.68684V7.19853H6.74942V7.15698H6.78477V7.22774C6.78477 7.24545 6.7617 7.24708 6.75838 7.24708H6.57888C6.57648 7.24715 6.55384 7.24545 6.55384 7.22774ZM6.75436 7.4102H6.58305L6.58841 7.271H6.7478L6.75436 7.4102ZM6.54269 7.45543C6.54269 7.44478 6.5501 7.4361 6.5604 7.43363C6.56202 7.43363 6.56371 7.43278 6.56534 7.43278H7.30152C7.30753 7.43278 7.31329 7.43517 7.31754 7.43942C7.32179 7.44366 7.32417 7.44942 7.32417 7.45543C7.32417 7.46144 7.32179 7.4672 7.31754 7.47145C7.31329 7.47569 7.30753 7.47808 7.30152 7.47808H6.56534C6.55172 7.47935 6.54269 7.46827 6.54269 7.45543ZM6.5604 7.52218C6.5604 7.51272 6.56534 7.50531 6.57317 7.502H7.29334C7.29699 7.50397 7.30006 7.50688 7.30223 7.51043C7.3044 7.51397 7.30559 7.51802 7.30569 7.52218C7.30569 7.53495 7.29581 7.54483 7.28304 7.54483H6.58389C6.58084 7.54499 6.57778 7.54452 6.57491 7.54346C6.57204 7.54239 6.56942 7.54074 6.56722 7.53861C6.56501 7.53649 6.56327 7.53393 6.5621 7.53111C6.56092 7.52828 6.56034 7.52524 6.5604 7.52218ZM7.31677 7.89888H6.54847C6.5425 7.89877 6.5368 7.89635 6.53258 7.89213C6.52835 7.8879 6.52593 7.8822 6.52583 7.87623C6.52583 7.86473 6.53613 7.85358 6.54847 7.85358H7.31677C7.32954 7.85358 7.33941 7.86473 7.33941 7.87623C7.33941 7.88823 7.33031 7.89888 7.31677 7.89888Z" fill="black"/>
<path d="M5.13057 7.549L4.79007 7.54695L4.44914 7.549L4.41372 7.84667H5.16677L5.13057 7.549ZM5.1746 7.85246H4.40546C4.39269 7.85246 4.38281 7.86318 4.38281 7.87511C4.38281 7.88703 4.39269 7.89776 4.40546 7.89776H5.1746C5.18695 7.89776 5.19725 7.88703 5.19725 7.87511C5.19725 7.86318 5.18695 7.85246 5.1746 7.85246ZM5.1499 7.50165H4.4298C4.42615 7.50363 4.42308 7.50654 4.42091 7.51008C4.41875 7.51362 4.41755 7.51768 4.41746 7.52183C4.41746 7.5346 4.42733 7.54448 4.4401 7.54448H5.14003C5.14602 7.54442 5.15175 7.54202 5.15598 7.53778C5.16022 7.53355 5.16262 7.52782 5.16268 7.52183C5.16258 7.51762 5.16134 7.51352 5.15909 7.50997C5.15684 7.50641 5.15367 7.50354 5.1499 7.50165ZM5.18123 7.22909V7.14513H5.12316V7.18796H5.08358V7.14598H5.02431V7.18796H4.98473V7.14513H4.92673V7.22909C4.92673 7.26042 4.963 7.26204 4.963 7.26204L4.95602 7.43251H4.88687L4.88031 7.10682C4.88031 7.10682 4.9165 7.10597 4.9165 7.07514V6.98828H4.85851V7.03196H4.81892V6.98997H4.75966V7.03196H4.72014V6.98828H4.66208V7.07514C4.66208 7.10604 4.69912 7.10682 4.69912 7.10682L4.69129 7.43251H4.62214L4.61551 7.26366C4.61551 7.26366 4.65177 7.26204 4.65177 7.23071V7.14506H4.59371V7.18789H4.55377V7.1459H4.49486V7.18789H4.45534V7.14506H4.39805V7.23071C4.39805 7.26197 4.43432 7.26366 4.43432 7.26366L4.42733 7.43251H4.42077C4.4148 7.43263 4.40912 7.43506 4.4049 7.43928C4.40068 7.4435 4.39825 7.44919 4.39812 7.45516C4.39812 7.46708 4.408 7.4778 4.42077 7.4778H5.15774C5.16373 7.47775 5.16945 7.47534 5.17369 7.47111C5.17793 7.46687 5.18033 7.46114 5.18039 7.45516C5.18005 7.44926 5.17755 7.44369 5.17338 7.43951C5.1692 7.43534 5.16363 7.43284 5.15774 7.43251H5.15068L5.14334 7.26204C5.14412 7.26204 5.18123 7.26042 5.18123 7.22909Z" fill="#F5E600"/>
<path d="M4.50996 7.31392C4.51321 7.30235 4.51822 7.29705 4.52683 7.29705C4.53508 7.29705 4.54037 7.30242 4.54369 7.31392C4.5452 7.31942 4.54603 7.32508 4.54616 7.33078V7.37488H4.50827V7.33078C4.50749 7.33085 4.50749 7.3226 4.50996 7.31392ZM5.0378 7.31392C5.04111 7.30235 5.04725 7.29705 5.05466 7.29705C5.06207 7.29705 5.06821 7.30242 5.07152 7.31392C5.07304 7.31942 5.07387 7.32508 5.07399 7.33078V7.37488H5.0361V7.33078C5.03533 7.33085 5.03533 7.3226 5.0378 7.31392ZM4.77392 7.21387C4.77716 7.20025 4.7821 7.19531 4.79078 7.19531C4.79896 7.19531 4.80433 7.2011 4.80764 7.21387C4.81011 7.22375 4.81011 7.2332 4.81011 7.2332V7.28633H4.77222V7.2332C4.77138 7.23405 4.77138 7.22375 4.77392 7.21387Z" fill="black"/>
<path d="M5.16974 7.831L5.13756 7.5679C5.14887 7.56673 5.15933 7.5614 5.16693 7.55295C5.17453 7.54451 5.17873 7.53354 5.1787 7.52218C5.17896 7.51323 5.17637 7.50443 5.17129 7.49706C5.17916 7.49337 5.18579 7.48748 5.1904 7.48011C5.19501 7.47274 5.19739 7.46419 5.19726 7.4555C5.19737 7.44416 5.19319 7.43319 5.18557 7.42479C5.17794 7.41639 5.16742 7.41118 5.15612 7.4102L5.15034 7.26853C5.1672 7.26486 5.1866 7.25329 5.1866 7.22697V7.13348H5.10461V7.17469H5.08775V7.13433H5.00626V7.17469H4.9894V7.13348H4.90833V7.22697C4.90833 7.25329 4.92766 7.26486 4.94452 7.26853L4.93874 7.40936H4.89139L4.88483 7.11245C4.90169 7.10836 4.92103 7.09637 4.92103 7.07005V6.97656H4.83996V7.01854H4.82309V6.97819H4.74111V7.01854H4.72467V6.97656H4.64522V7.07005C4.64522 7.09644 4.6654 7.10836 4.68149 7.11245L4.67485 7.40936H4.62836L4.62257 7.26853C4.63943 7.26486 4.65877 7.25329 4.65877 7.22697V7.13348H4.5777V7.17469H4.56083V7.13433H4.47849V7.17469H4.46156V7.13348H4.38042V7.22697C4.38042 7.25329 4.39975 7.26486 4.41577 7.26853L4.40998 7.4102C4.39856 7.41095 4.38786 7.41607 4.38011 7.42451C4.37237 7.43295 4.36818 7.44405 4.36843 7.4555C4.36843 7.47321 4.37873 7.4893 4.39397 7.49706C4.38869 7.50436 4.38594 7.51318 4.38614 7.52218C4.38628 7.53356 4.39058 7.5445 4.39824 7.55292C4.4059 7.56135 4.41638 7.56667 4.42769 7.5679L4.39644 7.831C4.39051 7.83102 4.38465 7.83221 4.37919 7.8345C4.37372 7.83679 4.36877 7.84013 4.3646 7.84434C4.36043 7.84855 4.35713 7.85354 4.35489 7.85902C4.35266 7.86451 4.35153 7.87038 4.35156 7.8763C4.35156 7.90184 4.37174 7.9228 4.39813 7.9228H5.1672C5.17328 7.9228 5.17931 7.92159 5.18493 7.91925C5.19055 7.91691 5.19564 7.91348 5.19993 7.90915C5.20421 7.90483 5.2076 7.8997 5.20989 7.89406C5.21218 7.88842 5.21333 7.88239 5.21327 7.8763C5.21349 7.87044 5.21253 7.8646 5.21044 7.85912C5.20835 7.85364 5.20518 7.84864 5.20112 7.84441C5.19706 7.84019 5.19218 7.83682 5.18679 7.83452C5.1814 7.83221 5.1756 7.83102 5.16974 7.831ZM4.7876 7.62427L4.78351 7.6218L4.77935 7.62427C4.67478 7.66541 4.66286 7.79022 4.66117 7.83016H4.60804C4.60966 7.78528 4.62659 7.62512 4.77561 7.56867H4.79085C4.94198 7.62427 4.95715 7.78521 4.95884 7.83016H4.90572C4.90416 7.79022 4.89139 7.66463 4.7876 7.62427ZM4.88314 7.83016H4.68466C4.68628 7.79431 4.69828 7.68396 4.78351 7.64692C4.86874 7.68396 4.88109 7.79474 4.88314 7.83016ZM4.7234 7.56867C4.60112 7.64198 4.58708 7.78691 4.58546 7.83016H4.42078L4.45204 7.56867H4.7234ZM4.98156 7.83016C4.97994 7.78691 4.9647 7.64198 4.8432 7.56867H5.11499L5.14624 7.83016H4.98156ZM4.93175 7.22774V7.15698H4.96717V7.19853H5.02975V7.15775H5.06517V7.19853H5.12733V7.15698H5.16318V7.22774C5.16318 7.24545 5.1401 7.24708 5.13764 7.24708H4.95736C4.95475 7.24715 4.93175 7.24545 4.93175 7.22774ZM5.13347 7.4102H4.96301L4.96879 7.271H5.12726L5.13347 7.4102ZM4.6678 7.0709V7.00006H4.70322V7.04253H4.7658V7.00175H4.80122V7.04253H4.86338V7.00006H4.89922V7.0709C4.89922 7.08945 4.87615 7.09023 4.87368 7.09108H4.69327C4.69087 7.09108 4.6678 7.0903 4.6678 7.0709ZM4.86952 7.40936H4.69743L4.70399 7.11499H4.86253L4.86952 7.40936ZM4.40392 7.22774V7.15698H4.43849V7.19853H4.50107V7.15775H4.53734V7.19853H4.5995V7.15698H4.63485V7.22774C4.63485 7.24545 4.6122 7.24708 4.60973 7.24708H4.43023C4.42692 7.24715 4.40392 7.24545 4.40392 7.22774ZM4.60564 7.4102H4.43433L4.44011 7.271H4.59865L4.60564 7.4102ZM4.39319 7.45543C4.39319 7.44478 4.4006 7.4361 4.4109 7.43363C4.41252 7.43363 4.41422 7.43278 4.41584 7.43278H5.15203C5.1648 7.43278 5.17468 7.44393 5.17468 7.45543C5.17468 7.46735 5.1648 7.47808 5.15203 7.47808H4.41584C4.40222 7.47935 4.39319 7.46827 4.39319 7.45543ZM4.4109 7.52218C4.4109 7.51272 4.41584 7.50531 4.42325 7.502H5.14342C5.14718 7.50388 5.15036 7.50676 5.15261 7.51031C5.15486 7.51387 5.1561 7.51797 5.15619 7.52218C5.15619 7.53495 5.14631 7.54483 5.13354 7.54483H4.43362C4.42078 7.54567 4.4109 7.53495 4.4109 7.52218ZM5.16805 7.89888H4.39891C4.39291 7.89884 4.38717 7.89644 4.38293 7.8922C4.37869 7.88797 4.3763 7.88223 4.37626 7.87623C4.37626 7.86473 4.38614 7.85358 4.39891 7.85358H5.16805C5.18039 7.85358 5.19069 7.86473 5.19069 7.87623C5.19069 7.88823 5.18039 7.89888 5.16805 7.89888Z" fill="black"/>
<path d="M5.13058 9.71619L4.79007 9.71456L4.44914 9.71619L4.41373 10.0147H5.16678L5.13058 9.71619ZM5.17461 10.0213H4.40547C4.40245 10.0213 4.39945 10.0218 4.39666 10.023C4.39387 10.0242 4.39135 10.0259 4.38923 10.028C4.38712 10.0302 4.38546 10.0328 4.38436 10.0356C4.38326 10.0384 4.38274 10.0414 4.38282 10.0444C4.38282 10.0559 4.3927 10.0675 4.40547 10.0675H5.17461C5.18696 10.0675 5.19726 10.0551 5.19726 10.0444C5.19731 10.0414 5.19677 10.0384 5.19566 10.0356C5.19455 10.0328 5.19289 10.0303 5.19078 10.0281C5.18867 10.0259 5.18616 10.0242 5.18338 10.0231C5.1806 10.0219 5.17762 10.0213 5.17461 10.0213ZM5.14991 9.66884H4.42981C4.42619 9.67086 4.42316 9.67378 4.421 9.67732C4.41883 9.68085 4.41762 9.68488 4.41747 9.68902C4.41747 9.70179 4.42734 9.71209 4.44011 9.71209H5.14004C5.14608 9.71197 5.15183 9.70948 5.15606 9.70517C5.16029 9.70086 5.16267 9.69506 5.16268 9.68902C5.16254 9.68483 5.16128 9.68075 5.15903 9.6772C5.15679 9.67366 5.15364 9.67077 5.14991 9.66884ZM5.18124 9.39748V9.31225H5.12317V9.35508H5.08359V9.31394H5.02432V9.35508H4.98474V9.31225H4.92674V9.39748L4.96301 9.42959L4.95602 9.59963H4.88688L4.88032 9.27521C4.88032 9.27521 4.91651 9.27436 4.91651 9.24226V9.15625H4.85851V9.20028H4.81893V9.1571H4.75966V9.20028H4.72015V9.15625H4.66208V9.24226C4.66208 9.27521 4.69913 9.27521 4.69913 9.27521L4.6913 9.59963H4.62215L4.61552 9.43121C4.61552 9.43121 4.65178 9.42959 4.65178 9.39826V9.31218H4.59372V9.35585H4.55378V9.31387H4.49487V9.35585H4.45535V9.31218H4.39806V9.39826C4.39806 9.43036 4.43433 9.43121 4.43433 9.43121L4.42734 9.59963H4.42078C4.41475 9.59979 4.40902 9.60229 4.4048 9.60659C4.40057 9.61089 4.39819 9.61667 4.39813 9.6227C4.39813 9.6342 4.40801 9.64535 4.42078 9.64535H5.15775C5.16371 9.64522 5.1694 9.6428 5.17362 9.63858C5.17784 9.63435 5.18027 9.62867 5.18039 9.6227C5.18039 9.61078 5.16925 9.59963 5.15775 9.59963H5.15069L5.14335 9.42959C5.14413 9.42959 5.18124 9.42881 5.18124 9.39748Z" fill="#F5E600"/>
<path d="M4.50996 9.48302C4.51321 9.47194 4.51822 9.46615 4.52683 9.46615C4.53508 9.46615 4.54037 9.47194 4.54369 9.48302C4.54616 9.49127 4.54616 9.49988 4.54616 9.49988V9.54355H4.50827V9.49988C4.50749 9.4991 4.50749 9.4905 4.50996 9.48302ZM5.0378 9.48302C5.04111 9.47194 5.04725 9.46615 5.05466 9.46615C5.06207 9.46615 5.06821 9.47194 5.07152 9.48302C5.07399 9.49127 5.07399 9.49988 5.07399 9.49988V9.54355H5.0361V9.49988C5.03533 9.4991 5.03533 9.4905 5.0378 9.48302ZM4.77392 9.38177C4.77716 9.369 4.7821 9.36328 4.79078 9.36328C4.79896 9.36328 4.80433 9.36984 4.80764 9.38177C4.81011 9.39207 4.81011 9.4011 4.81011 9.4011V9.45423H4.77222V9.4011C4.77138 9.40195 4.77138 9.39207 4.77392 9.38177Z" fill="black"/>
<path d="M5.16977 9.99848L5.1376 9.73495C5.14897 9.73395 5.15954 9.72868 5.16717 9.72019C5.1748 9.71171 5.17894 9.70064 5.17873 9.68923C5.17893 9.68029 5.17634 9.67151 5.17132 9.66411C5.17918 9.66052 5.18582 9.65472 5.19043 9.64741C5.19504 9.6401 5.19742 9.63161 5.19729 9.62298C5.19749 9.61157 5.19336 9.60051 5.18572 9.59204C5.17809 9.58357 5.16752 9.57831 5.15615 9.57733L5.15037 9.43565C5.16723 9.4324 5.18663 9.42041 5.18663 9.39451V9.3006H5.10465V9.34301H5.08778V9.30145H5.00629V9.34301H4.98943V9.3006H4.90836V9.39451C4.90836 9.42048 4.92769 9.4324 4.94455 9.43565L4.93877 9.57648H4.89142L4.88486 9.27958C4.90173 9.27626 4.92106 9.26434 4.92106 9.23844V9.14453H4.83999V9.18694H4.82313V9.1458H4.74114V9.18694H4.7247V9.14453H4.64525V9.23844C4.64525 9.26441 4.66543 9.27633 4.68152 9.27958L4.67489 9.57648H4.62839L4.6226 9.43565C4.63947 9.4324 4.6588 9.42041 4.6588 9.39451V9.3006H4.57773V9.34301H4.56087V9.30145H4.47853V9.34301H4.46159V9.3006H4.38045V9.39451C4.38045 9.42048 4.39978 9.4324 4.4158 9.43565L4.41002 9.57733C4.39853 9.57807 4.38777 9.58325 4.38002 9.59176C4.37227 9.60028 4.36812 9.61147 4.36846 9.62298C4.36846 9.64069 4.37876 9.65635 4.394 9.66411C4.38962 9.67069 4.38702 9.67829 4.38646 9.68618C4.3859 9.69406 4.38739 9.70195 4.39078 9.70909C4.39418 9.71622 4.39937 9.72236 4.40585 9.72689C4.41232 9.73142 4.41986 9.7342 4.42773 9.73495L4.39647 9.99848C4.39045 9.99842 4.38448 9.99958 4.37893 10.0019C4.37337 10.0042 4.36834 10.0076 4.36415 10.0119C4.35995 10.0163 4.35667 10.0214 4.35452 10.027C4.35236 10.0326 4.35137 10.0386 4.35159 10.0446C4.35159 10.0693 4.37177 10.0907 4.39816 10.0907H5.16723C5.17939 10.0905 5.19099 10.0856 5.19959 10.077C5.20819 10.0684 5.2131 10.0568 5.2133 10.0446C5.21364 10.0387 5.21276 10.0328 5.21073 10.0272C5.20869 10.0216 5.20554 10.0165 5.20147 10.0122C5.19739 10.0079 5.19248 10.0044 5.18703 10.0021C5.18158 9.99971 5.17571 9.99849 5.16977 9.99848ZM4.78764 9.79132L4.78354 9.7897L4.77938 9.79132C4.67481 9.83288 4.66289 9.95727 4.6612 9.99848H4.60807C4.60969 9.95396 4.62663 9.79217 4.77564 9.73657H4.79088C4.94201 9.79302 4.95718 9.95233 4.95888 9.99848H4.90575C4.90419 9.95727 4.89142 9.83288 4.78764 9.79132ZM4.88317 9.99848H4.68469C4.68632 9.96221 4.69831 9.85151 4.78354 9.8144C4.86878 9.85144 4.88112 9.96221 4.88317 9.99848ZM4.72343 9.73573C4.60115 9.80903 4.58711 9.95558 4.58549 9.99848H4.42081L4.45207 9.73573H4.72343ZM4.9816 9.99848C4.97997 9.95565 4.96473 9.80903 4.84323 9.73573H5.11502L5.14627 9.99848H4.9816ZM4.93178 9.39522V9.32445H4.9672V9.36643H5.02979V9.32607H5.06521V9.36643H5.12737V9.32445H5.16321V9.39522C5.16321 9.41293 5.14014 9.41455 5.13767 9.41455H4.95739C4.95478 9.4154 4.93178 9.41378 4.93178 9.39522ZM5.1335 9.57726H4.96304L4.96882 9.43805H5.1273L5.1335 9.57726ZM4.66783 9.23999V9.16916H4.70325V9.21114H4.76583V9.17H4.80125V9.21114H4.86341V9.16916H4.89926V9.23999C4.89926 9.2577 4.87618 9.25933 4.87371 9.25933L4.86257 9.26017H4.70156L4.6933 9.25933C4.6909 9.25933 4.66783 9.2577 4.66783 9.23999ZM4.86955 9.57641H4.69746L4.70403 9.28282H4.86257L4.86955 9.57641ZM4.40395 9.39522V9.32445H4.43852V9.36643H4.5011V9.32607H4.53737V9.36643H4.59953V9.32445H4.63488V9.39522C4.63488 9.41293 4.61223 9.41455 4.60976 9.41455H4.43027C4.42695 9.4154 4.40395 9.41378 4.40395 9.39522ZM4.60567 9.57726H4.43436L4.44014 9.43805H4.59868L4.60567 9.57726ZM4.39322 9.62375C4.39322 9.6126 4.40063 9.6052 4.41093 9.60153C4.41256 9.60153 4.41425 9.60068 4.41587 9.60068H5.15206C5.15809 9.60084 5.16382 9.60334 5.16804 9.60764C5.17227 9.61195 5.17466 9.61772 5.17471 9.62375C5.17471 9.63525 5.16483 9.6464 5.15206 9.6464H4.41587C4.4129 9.64641 4.40995 9.64583 4.40719 9.6447C4.40444 9.64356 4.40194 9.64189 4.39984 9.63979C4.39773 9.63768 4.39606 9.63518 4.39493 9.63243C4.39379 9.62968 4.39321 9.62673 4.39322 9.62375ZM4.41093 9.69001C4.41093 9.68097 4.41587 9.67357 4.42328 9.66983H5.14345C5.14718 9.67175 5.15033 9.67464 5.15257 9.67818C5.15482 9.68173 5.15608 9.68581 5.15622 9.69001C5.15622 9.70278 5.14635 9.71308 5.13357 9.71308H4.43365C4.42761 9.71293 4.42186 9.71044 4.41763 9.70614C4.41339 9.70183 4.41099 9.69605 4.41093 9.69001ZM5.16808 10.0676H4.39894C4.39306 10.0675 4.38746 10.0651 4.38326 10.0609C4.37906 10.0568 4.37657 10.0513 4.37629 10.0454C4.37629 10.0314 4.38617 10.0223 4.39894 10.0223H5.16808C5.17412 10.0224 5.17986 10.0249 5.18408 10.0292C5.18831 10.0336 5.19069 10.0394 5.19073 10.0454C5.19036 10.0512 5.18785 10.0568 5.18367 10.0609C5.17949 10.065 5.17393 10.0674 5.16808 10.0676Z" fill="black"/>
<path d="M5.596 11.747L5.35392 11.9858L5.11466 12.2279L5.29994 12.465L5.56552 12.1982L5.83194 11.9331L5.596 11.747ZM5.84224 11.9315L5.29832 12.475C5.28929 12.4831 5.28929 12.498 5.29832 12.5079C5.3029 12.5119 5.30875 12.514 5.3148 12.514C5.32085 12.514 5.32669 12.5119 5.33127 12.5079L5.87519 11.9644C5.88422 11.9545 5.88422 11.9397 5.87519 11.9315C5.87313 11.9291 5.87059 11.9273 5.86775 11.926C5.86491 11.9247 5.86183 11.924 5.85872 11.924C5.8556 11.924 5.85253 11.9247 5.84969 11.926C5.84685 11.9273 5.84431 11.9291 5.84224 11.9315ZM5.57667 11.6993L5.06739 12.2098C5.06616 12.2136 5.06597 12.2177 5.06684 12.2216C5.06771 12.2255 5.0696 12.229 5.07233 12.232C5.07449 12.2341 5.07706 12.2358 5.07989 12.237C5.08271 12.2382 5.08574 12.2388 5.0888 12.2388C5.09186 12.2388 5.09489 12.2382 5.09772 12.237C5.10055 12.2358 5.10312 12.2341 5.10528 12.232L5.59932 11.7363C5.60884 11.728 5.60884 11.7141 5.59932 11.705C5.59438 11.6993 5.58485 11.6976 5.57667 11.6993ZM5.4062 11.4851C5.38433 11.4637 5.34729 11.4258 5.34729 11.4258L5.30573 11.467L5.33621 11.4966L5.30778 11.5246L5.27814 11.4949L5.25712 11.5164L5.23574 11.5378L5.26537 11.5675L5.23778 11.5946L5.2073 11.5634L5.16695 11.6054C5.16695 11.6054 5.20399 11.6432 5.22664 11.6638C5.24844 11.6861 5.2756 11.6622 5.2756 11.6622L5.39174 11.7866L5.3432 11.8352L5.10852 11.6103C5.10852 11.6103 5.13407 11.5848 5.11099 11.5609C5.09044 11.541 5.07025 11.5207 5.05046 11.5L5.00932 11.5411L5.04022 11.5725L5.01264 11.6004L4.98216 11.5708L4.96198 11.5905L4.94102 11.6119L4.97108 11.6415L4.94349 11.6688L4.91216 11.64L4.87181 11.6795C4.87181 11.6795 4.9097 11.7191 4.93234 11.7397C4.95499 11.7627 4.98131 11.7381 4.98131 11.7381L5.20653 11.9719L5.15749 12.0213L5.03359 11.906C5.03359 11.906 5.05871 11.8796 5.03606 11.8558C5.01341 11.8352 4.97552 11.7973 4.97552 11.7973L4.93474 11.8368L4.966 11.8681L4.93764 11.8953L4.908 11.8665L4.88705 11.8871L4.86644 11.9068L4.89608 11.9365L4.86849 11.9644L4.83801 11.9348L4.79688 11.976C4.79688 11.976 4.83476 12.0138 4.85741 12.0352C4.88006 12.0575 4.90638 12.0336 4.90638 12.0336L5.02089 12.1563L5.01595 12.1612C5.0077 12.1719 5.0077 12.186 5.01595 12.1941C5.01782 12.1966 5.02024 12.1987 5.02303 12.2001C5.02581 12.2015 5.02889 12.2022 5.03201 12.2022C5.03512 12.2022 5.0382 12.2015 5.04098 12.2001C5.04377 12.1987 5.04619 12.1966 5.04806 12.1941L5.56891 11.6746C5.57309 11.6702 5.57541 11.6643 5.57541 11.6581C5.57541 11.652 5.57309 11.6461 5.56891 11.6416C5.56678 11.6395 5.56424 11.6378 5.56145 11.6366C5.55866 11.6354 5.55567 11.6348 5.55264 11.6348C5.54962 11.6348 5.54663 11.6354 5.54384 11.6366C5.54104 11.6378 5.53851 11.6395 5.53638 11.6416L5.53102 11.6466L5.40627 11.5304C5.40373 11.5346 5.428 11.5082 5.4062 11.4851Z" fill="#F5E600"/>
<path d="M4.99621 12.0256C4.99085 12.0157 4.99085 12.0075 4.99621 12.0025C5.00199 11.9959 5.0094 11.9959 5.0197 12.0025C5.02711 12.0058 5.03325 12.0116 5.03325 12.0133L5.06458 12.042L5.03741 12.07L5.00616 12.0387C5.00524 12.0387 5.0003 12.0322 4.99621 12.0256ZM5.3696 11.6517C5.36466 11.6418 5.36466 11.6336 5.3696 11.6287C5.37453 11.6238 5.38321 11.6238 5.39224 11.6287C5.39739 11.631 5.40199 11.6344 5.40579 11.6386L5.43705 11.6699L5.40988 11.6962L5.37856 11.6649C5.3787 11.6649 5.37291 11.6599 5.3696 11.6517ZM5.1115 11.7686C5.10494 11.7571 5.10409 11.7472 5.10903 11.7423C5.11482 11.7374 5.12349 11.7374 5.13457 11.7439C5.14035 11.7476 5.14562 11.7521 5.15023 11.7571L5.1877 11.7934L5.16054 11.8213L5.12349 11.7835C5.12342 11.7835 5.11679 11.7769 5.1115 11.7686Z" fill="black"/>
<path d="M5.83036 11.9173L5.62285 11.7542C5.63024 11.7458 5.63411 11.7348 5.63365 11.7236C5.63319 11.7124 5.62844 11.7018 5.62038 11.694C5.61454 11.687 5.60659 11.6821 5.59773 11.6801C5.60034 11.6718 5.60069 11.6631 5.59872 11.6546C5.59676 11.6462 5.59257 11.6385 5.58658 11.6323C5.57835 11.6245 5.56755 11.6201 5.55624 11.6198C5.54493 11.6195 5.5339 11.6234 5.52527 11.6307L5.42148 11.5351C5.43051 11.5203 5.43672 11.4989 5.41817 11.4791L5.35149 11.4141L5.29427 11.4709L5.32355 11.5006L5.31198 11.5121L5.28319 11.4833L5.22512 11.5418L5.25349 11.5697L5.24199 11.5812L5.21235 11.5516L5.15513 11.6092L5.22181 11.6751C5.24036 11.6948 5.26216 11.6883 5.27656 11.68L5.37167 11.7838L5.33872 11.8167L5.12465 11.6109C5.1341 11.5977 5.13989 11.5746 5.12133 11.5574L5.05466 11.4898L4.99744 11.5466L5.02665 11.5763L5.01507 11.5887L4.98629 11.5607L4.92822 11.6175L4.95665 11.6455L4.94508 11.6595L4.91545 11.6298L4.85823 11.685L4.9249 11.7525C4.94346 11.7707 4.96526 11.7649 4.97966 11.7558L5.18427 11.9699L5.1509 12.0029L5.04718 11.9082C5.05543 11.8942 5.06199 11.8719 5.04344 11.8546L4.97719 11.7887L4.92039 11.8439L4.95002 11.8735L4.9381 11.8875L4.90966 11.8579L4.85117 11.9147L4.88003 11.9444L4.8681 11.9567L4.83889 11.9271L4.78125 11.9839L4.84793 12.0498C4.85506 12.0569 4.86458 12.0612 4.87467 12.0618C4.88476 12.0625 4.89473 12.0593 4.90268 12.0531L4.99821 12.1569C4.98297 12.1742 4.98382 12.2038 5.00068 12.2186C5.00656 12.225 5.01415 12.2295 5.02254 12.2317C5.03093 12.2339 5.03978 12.2337 5.04802 12.231C5.0492 12.2397 5.05361 12.2476 5.06037 12.2532C5.07724 12.2705 5.10362 12.2705 5.12211 12.2574L5.28552 12.4641C5.26866 12.4822 5.26866 12.511 5.28637 12.5267C5.29062 12.531 5.29568 12.5344 5.30127 12.5367C5.30685 12.5391 5.31284 12.5403 5.31889 12.5403C5.32494 12.5403 5.33093 12.5391 5.33652 12.5367C5.3421 12.5344 5.34717 12.531 5.35142 12.5267L5.89534 11.9832C5.90385 11.9747 5.90862 11.9631 5.90862 11.9511C5.90862 11.939 5.90385 11.9275 5.89534 11.919C5.8868 11.9104 5.87528 11.9054 5.86319 11.9051C5.85109 11.9048 5.83934 11.9092 5.83036 11.9173ZM5.4145 12.0408L5.4104 12.0441L5.40878 12.0475C5.36433 12.1495 5.4442 12.2484 5.47136 12.2763L5.43348 12.3142C5.403 12.2813 5.30168 12.1553 5.3668 12.0112L5.37752 11.9996C5.52449 11.9337 5.64924 12.0359 5.68134 12.0655L5.64345 12.1034C5.6146 12.077 5.51744 11.9963 5.4145 12.0408ZM5.62821 12.1198L5.48823 12.2598C5.46353 12.2334 5.39439 12.1479 5.42811 12.0606C5.51497 12.0276 5.60098 12.0968 5.62821 12.1198ZM5.33046 12.0475C5.29589 12.1857 5.38853 12.2993 5.41817 12.3307L5.30168 12.4476L5.13904 12.2401L5.33046 12.0475ZM5.69813 12.0506C5.66688 12.021 5.55363 11.9287 5.4157 11.9633L5.60754 11.7699L5.81427 11.9321L5.69813 12.0506ZM5.23662 11.6588L5.18639 11.6094L5.21066 11.5846L5.24029 11.6142L5.28474 11.5698L5.25638 11.5418L5.2815 11.5155L5.31035 11.5451L5.35396 11.5006L5.32432 11.471L5.34902 11.4462L5.39883 11.4956C5.41203 11.5089 5.39721 11.5269 5.39509 11.5286L5.39262 11.5302L5.26781 11.6554C5.26626 11.6588 5.24939 11.6719 5.23662 11.6588ZM5.50756 11.6455L5.38691 11.7682L5.29264 11.6644L5.40462 11.5524L5.50756 11.6455ZM4.93979 11.7361L4.88955 11.685L4.91383 11.6619L4.94346 11.6899L4.98713 11.6454L4.9587 11.6175L4.98382 11.5927L5.01268 11.6207L5.05713 11.5763L5.02749 11.5466L5.05219 11.5219L5.10285 11.573C5.11639 11.5862 5.10122 11.6026 5.09833 11.6042L5.09092 11.6124L4.97726 11.7261L4.97112 11.7334C4.96942 11.7345 4.95249 11.7493 4.93979 11.7361ZM5.32016 11.8316L5.19873 11.9535L4.99574 11.7411L5.10772 11.629L5.32016 11.8316ZM4.86317 12.0326L4.81251 11.9832L4.8372 11.9585L4.86641 11.9881L4.91129 11.9437L4.88243 11.914L4.90797 11.8893L4.9364 11.9172L4.98128 11.8728L4.95164 11.8431L4.97634 11.82L5.02658 11.8703C5.04019 11.8835 5.02495 11.8991 5.02333 11.9008L5.02248 11.9024L4.89689 12.0276L4.89605 12.0291C4.89365 12.0309 4.87678 12.0458 4.86317 12.0326ZM5.13368 12.0194L5.01345 12.1396L4.91876 12.0375L5.03116 11.9255L5.13368 12.0194ZM5.01677 12.2022C5.01307 12.1986 5.01079 12.1938 5.01033 12.1887C5.00988 12.1835 5.01129 12.1784 5.0143 12.1742L5.01677 12.1693L5.53804 11.6489C5.5463 11.6407 5.56154 11.6407 5.57057 11.6489C5.57925 11.6596 5.57925 11.6736 5.57057 11.6818L5.04972 12.2023C5.03942 12.2121 5.02502 12.2121 5.01677 12.2022ZM5.07646 12.2368C5.07376 12.2336 5.07189 12.2299 5.07103 12.2259C5.07016 12.2219 5.07033 12.2177 5.07152 12.2138L5.5808 11.704C5.58905 11.7024 5.59851 11.704 5.60429 11.7114C5.60652 11.7133 5.60831 11.7156 5.60954 11.7182C5.61076 11.7209 5.6114 11.7237 5.6114 11.7266C5.6114 11.7295 5.61076 11.7324 5.60954 11.735C5.60831 11.7377 5.60652 11.74 5.60429 11.7419L5.11026 12.2384C5.10031 12.245 5.08507 12.245 5.07646 12.2368ZM5.87855 11.9683L5.33463 12.5118C5.33005 12.5157 5.3242 12.5179 5.31815 12.5179C5.3121 12.5179 5.30625 12.5157 5.30168 12.5118C5.29264 12.5018 5.29264 12.487 5.30168 12.4788L5.8456 11.9353C5.84766 11.933 5.8502 11.9311 5.85304 11.9299C5.85588 11.9286 5.85896 11.9279 5.86207 11.9279C5.86519 11.9279 5.86827 11.9286 5.87111 11.9299C5.87395 11.9311 5.87648 11.933 5.87855 11.9353C5.88673 11.9437 5.88673 11.9585 5.87855 11.9683Z" fill="black"/>
<path d="M9.42083 7.549L9.07913 7.54695L8.73862 7.549L8.7032 7.84667H9.45625L9.42083 7.549ZM9.46366 7.85246H8.69495C8.68218 7.85246 8.67188 7.86318 8.67188 7.87511C8.67188 7.88703 8.68218 7.89776 8.69495 7.89776H9.46366C9.47643 7.89776 9.48673 7.88703 9.48673 7.87511C9.48673 7.86318 9.47643 7.85246 9.46366 7.85246ZM9.44017 7.50165H8.71999C8.71629 7.50361 8.71316 7.5065 8.71092 7.51004C8.70868 7.51358 8.70741 7.51765 8.70722 7.52183C8.70722 7.5346 8.71753 7.54448 8.7303 7.54448H9.42987C9.43287 7.54453 9.43586 7.54398 9.43865 7.54286C9.44144 7.54174 9.44399 7.54008 9.44613 7.53798C9.44828 7.53587 9.44999 7.53336 9.45115 7.53059C9.45232 7.52781 9.45293 7.52484 9.45294 7.52183C9.45276 7.51765 9.45148 7.51358 9.44924 7.51004C9.447 7.5065 9.44387 7.50361 9.44017 7.50165ZM9.47149 7.22909V7.14513H9.413V7.18796H9.37342V7.14598H9.31458V7.18796H9.27499V7.14513H9.21735V7.22909C9.21735 7.26042 9.25361 7.26204 9.25361 7.26204L9.24705 7.43251H9.17791L9.1705 7.10682C9.1705 7.10682 9.20754 7.10597 9.20754 7.07514V6.98828H9.14905V7.03196H9.10954V6.98997H9.05147V7.03196H9.01111V6.98828H8.95347V7.07514C8.95347 7.10604 8.98966 7.10682 8.98966 7.10682L8.9831 7.43251H8.91395L8.90739 7.26366C8.90739 7.26366 8.94366 7.26204 8.94366 7.23071V7.14506H8.88517V7.18789H8.84566V7.1459H8.78674V7.18789H8.74723V7.14506H8.68958V7.23071C8.68958 7.26197 8.72585 7.26366 8.72585 7.26366L8.71922 7.43251H8.71266C8.70664 7.43261 8.7009 7.43502 8.69661 7.43923C8.69231 7.44344 8.6898 7.44914 8.68958 7.45516C8.68975 7.46118 8.69225 7.46691 8.69655 7.47114C8.70085 7.47536 8.70663 7.47775 8.71266 7.4778H9.44884C9.45481 7.47768 9.4605 7.47525 9.46472 7.47103C9.46894 7.46681 9.47137 7.46112 9.47149 7.45516C9.4713 7.44921 9.46885 7.44356 9.46465 7.43935C9.46044 7.43515 9.45479 7.4327 9.44884 7.43251H9.44179L9.43523 7.26204C9.43438 7.26204 9.47149 7.26042 9.47149 7.22909Z" fill="#F5E600"/>
<path d="M8.80724 7.31392C8.81049 7.30235 8.8155 7.29705 8.82368 7.29705C8.83236 7.29705 8.8373 7.30242 8.84055 7.31392C8.84344 7.3226 8.84344 7.33078 8.84344 7.33078V7.37488H8.80513V7.33078C8.80435 7.33085 8.80435 7.3226 8.80724 7.31392ZM9.33508 7.31392C9.33839 7.30235 9.34333 7.29705 9.35152 7.29705C9.35935 7.29705 9.36506 7.30242 9.36838 7.31392C9.37127 7.3226 9.37127 7.33078 9.37127 7.33078V7.37488H9.33296V7.33078C9.33218 7.33085 9.33218 7.3226 9.33508 7.31392ZM9.0712 7.21387C9.07444 7.20025 9.08023 7.19531 9.08806 7.19531C9.09547 7.19531 9.10125 7.2011 9.1045 7.21387C9.10739 7.22375 9.10739 7.2332 9.10739 7.2332V7.28633H9.06915V7.2332C9.0683 7.23405 9.0683 7.22375 9.0712 7.21387Z" fill="black"/>
<path d="M9.47189 7.831L9.44098 7.5679C9.45222 7.56658 9.4626 7.56121 9.47017 7.55279C9.47774 7.54438 9.48199 7.5335 9.48212 7.52218C9.48238 7.51323 9.47978 7.50443 9.47471 7.49706C9.48242 7.49316 9.48891 7.48723 9.49349 7.4799C9.49806 7.47258 9.50055 7.46414 9.50067 7.4555C9.50064 7.4442 9.49642 7.43331 9.48882 7.42494C9.48122 7.41657 9.47079 7.41132 9.45954 7.4102L9.4534 7.26853C9.47026 7.26486 9.48967 7.25329 9.48967 7.22697V7.13348H9.40895V7.17469H9.39209V7.13433H9.31017V7.17469H9.29331V7.13348H9.21259V7.22697C9.21259 7.25329 9.23192 7.26486 9.24886 7.26853L9.24272 7.40936H9.19657L9.18881 7.11245C9.20568 7.10836 9.22585 7.09637 9.22585 7.07005V6.97656H9.14436V7.01854H9.1275V6.97819H9.04474V7.01854H9.02787V6.97656H8.94716V7.07005C8.94716 7.09644 8.96649 7.10836 8.98342 7.11245L8.97644 7.40936H8.93029L8.92415 7.26853C8.94102 7.26486 8.96042 7.25329 8.96042 7.22697V7.13348H8.8797V7.17469H8.86284V7.13433H8.78092V7.17469H8.76406V7.13348H8.68299V7.22697C8.68299 7.25329 8.70275 7.26486 8.71961 7.26853L8.71347 7.4102C8.70211 7.41102 8.69149 7.41618 8.68383 7.42461C8.67617 7.43305 8.67206 7.44411 8.67234 7.4555C8.67234 7.47321 8.68222 7.4893 8.6983 7.49706C8.69334 7.50448 8.69075 7.51325 8.69089 7.52218C8.69102 7.5335 8.69527 7.54438 8.70284 7.55279C8.71041 7.56121 8.72079 7.56658 8.73203 7.5679L8.70113 7.831C8.6952 7.83102 8.68934 7.83221 8.68388 7.8345C8.67841 7.83679 8.67345 7.84013 8.66929 7.84434C8.66512 7.84855 8.66182 7.85354 8.65958 7.85902C8.65735 7.86451 8.65621 7.87038 8.65625 7.8763C8.65625 7.90184 8.67721 7.9228 8.70275 7.9228H9.47146C9.47758 7.92284 9.48365 7.92167 9.48931 7.91935C9.49497 7.91703 9.50012 7.91361 9.50445 7.90928C9.50877 7.90496 9.5122 7.89981 9.51452 7.89415C9.51684 7.88849 9.51801 7.88242 9.51796 7.8763C9.5177 7.86423 9.51274 7.85275 9.50413 7.84428C9.49553 7.83582 9.48396 7.83106 9.47189 7.831ZM9.09102 7.62427L9.08651 7.6218L9.08234 7.62427C8.97855 7.66541 8.96621 7.79022 8.96416 7.83016H8.91103C8.91308 7.78528 8.92874 7.62512 9.07903 7.56867H9.09427C9.24618 7.62427 9.26099 7.78521 9.26184 7.83016H9.20871C9.20716 7.79022 9.19481 7.66463 9.09102 7.62427ZM9.18451 7.83016H8.9873C8.98893 7.79431 9.00085 7.68396 9.08573 7.64692C9.17181 7.68396 9.18366 7.79474 9.18451 7.83016ZM9.02604 7.56867C8.90376 7.64198 8.8893 7.78691 8.88768 7.83016H8.72342L8.75468 7.56867H9.02604ZM9.28498 7.83016C9.28336 7.78691 9.26812 7.64198 9.14662 7.56867H9.41798L9.44924 7.83016H9.28498ZM9.23517 7.22774V7.15698H9.26974V7.19853H9.3331V7.15775H9.36852V7.19853H9.43068V7.15698H9.4661V7.22774C9.4661 7.24545 9.44345 7.24708 9.44021 7.24708H9.26029C9.25697 7.24715 9.23517 7.24545 9.23517 7.22774ZM9.43569 7.4102H9.2648L9.26974 7.271H9.42906L9.43569 7.4102ZM8.97122 7.0709V7.00006H9.00579V7.04253H9.06795V7.00175H9.10422V7.04253H9.1668V7.00006H9.20222V7.0709C9.20222 7.08945 9.17957 7.09023 9.17625 7.09108H8.99626C8.99309 7.09108 8.97122 7.0903 8.97122 7.0709ZM9.17259 7.40936H9.00092L9.00748 7.11499H9.16602L9.17259 7.40936ZM8.70733 7.22774V7.15698H8.74191V7.19853H8.80491V7.15775H8.84033V7.19853H8.90292V7.15698H8.93827V7.22774C8.93827 7.24545 8.91562 7.24708 8.91315 7.24708H8.73323C8.72914 7.24715 8.70733 7.24545 8.70733 7.22774ZM8.90786 7.4102H8.73697L8.74275 7.271H8.90129L8.90786 7.4102ZM8.69541 7.45543C8.69541 7.44478 8.70324 7.4361 8.71312 7.43363C8.71474 7.43363 8.71644 7.43278 8.71806 7.43278H9.45425C9.46702 7.43278 9.47732 7.44393 9.47732 7.45543C9.47716 7.46146 9.47466 7.46719 9.47036 7.47141C9.46605 7.47564 9.46028 7.47803 9.45425 7.47808H8.71806C8.70571 7.47935 8.69541 7.46827 8.69541 7.45543ZM8.71312 7.52218C8.71312 7.51272 8.71806 7.50531 8.72589 7.502H9.44606C9.44977 7.50395 9.4529 7.50685 9.45514 7.51039C9.45738 7.51393 9.45865 7.51799 9.45883 7.52218C9.45883 7.52519 9.45823 7.52817 9.45707 7.53094C9.45591 7.53372 9.4542 7.53624 9.45205 7.53834C9.4499 7.54045 9.44736 7.54211 9.44456 7.54323C9.44176 7.54434 9.43877 7.54488 9.43576 7.54483H8.73619C8.7242 7.54567 8.71312 7.53495 8.71312 7.52218ZM9.47026 7.89888H8.70155C8.69551 7.89884 8.68973 7.89646 8.68542 7.89223C8.68111 7.888 8.67862 7.88226 8.67848 7.87623C8.67848 7.86473 8.68878 7.85358 8.70155 7.85358H9.47026C9.48303 7.85358 9.49334 7.86473 9.49334 7.87623C9.49334 7.88823 9.48303 7.89888 9.47026 7.89888Z" fill="black"/>
<path d="M9.42084 9.71619L9.07913 9.71456L8.73862 9.71619L8.7032 10.0147H9.45626L9.42084 9.71619ZM9.46366 10.0213H8.69495C8.69191 10.0212 8.68889 10.0218 8.68607 10.023C8.68325 10.0241 8.68069 10.0258 8.67855 10.028C8.6764 10.0301 8.6747 10.0327 8.67355 10.0355C8.67241 10.0384 8.67184 10.0414 8.67188 10.0444C8.67188 10.0559 8.68218 10.0675 8.69495 10.0675H9.46366C9.47643 10.0675 9.48674 10.0551 9.48674 10.0444C9.48751 10.0312 9.47643 10.0213 9.46366 10.0213ZM9.44017 9.66884H8.72C8.71259 9.67336 8.70723 9.68077 8.70723 9.68902C8.70723 9.70179 8.71753 9.71209 8.7303 9.71209H9.42987C9.4329 9.7121 9.4359 9.71151 9.43871 9.71036C9.44151 9.7092 9.44406 9.7075 9.4462 9.70536C9.44835 9.70321 9.45005 9.70067 9.4512 9.69786C9.45236 9.69506 9.45295 9.69206 9.45294 9.68902C9.45294 9.68077 9.44758 9.67336 9.44017 9.66884ZM9.4715 9.39748V9.31225H9.413V9.35508H9.37342V9.31394H9.31458V9.35508H9.275V9.31225H9.21735V9.39748L9.25362 9.42959L9.24705 9.59963H9.17791L9.1705 9.27521C9.1705 9.27521 9.20754 9.27436 9.20754 9.24226V9.15625H9.14905V9.20028H9.10954V9.1571H9.05147V9.20028H9.01111V9.15625H8.95347V9.24226C8.95347 9.27521 8.98966 9.27521 8.98966 9.27521L8.9831 9.59963H8.91396L8.90739 9.43121C8.90739 9.43121 8.94366 9.42959 8.94366 9.39826V9.31218H8.88517V9.35585H8.84566V9.31387H8.78674V9.35585H8.74723V9.31218H8.68959V9.39826C8.68959 9.43036 8.72585 9.43121 8.72585 9.43121L8.71922 9.59963H8.71266C8.70658 9.59975 8.70078 9.60222 8.69648 9.60652C8.69218 9.61082 8.68971 9.61662 8.68959 9.6227C8.68959 9.6342 8.69989 9.64535 8.71266 9.64535H9.44885C9.45479 9.64515 9.46044 9.64271 9.46465 9.6385C9.46885 9.63429 9.4713 9.62864 9.4715 9.6227C9.47139 9.61669 9.46898 9.61094 9.46477 9.60665C9.46056 9.60236 9.45486 9.59984 9.44885 9.59963H9.44179L9.43523 9.42959C9.43438 9.42959 9.4715 9.42881 9.4715 9.39748Z" fill="#F5E600"/>
<path d="M8.80724 9.48302C8.81049 9.47194 8.8155 9.46615 8.82368 9.46615C8.83236 9.46615 8.8373 9.47194 8.84055 9.48302C8.84344 9.49127 8.84344 9.49988 8.84344 9.49988V9.54355H8.80513V9.49988C8.80435 9.4991 8.80435 9.4905 8.80724 9.48302ZM9.33508 9.48302C9.33839 9.47194 9.34333 9.46615 9.35152 9.46615C9.35935 9.46615 9.36506 9.47194 9.36838 9.48302C9.37127 9.49127 9.37127 9.49988 9.37127 9.49988V9.54355H9.33296V9.49988C9.33218 9.4991 9.33218 9.4905 9.33508 9.48302ZM9.0712 9.38177C9.07444 9.369 9.08023 9.36328 9.08806 9.36328C9.09547 9.36328 9.10125 9.36984 9.1045 9.38177C9.10739 9.39207 9.10739 9.4011 9.10739 9.4011V9.45423H9.06915V9.4011C9.0683 9.40195 9.0683 9.39207 9.0712 9.38177Z" fill="black"/>
<path d="M9.47192 9.99848L9.44101 9.73495C9.45233 9.73381 9.46281 9.72849 9.47042 9.72004C9.47802 9.71159 9.48221 9.7006 9.48215 9.68923C9.48235 9.68029 9.47976 9.67151 9.47474 9.66411C9.48381 9.65986 9.49123 9.65273 9.49585 9.64384C9.50048 9.63495 9.50205 9.62479 9.50032 9.61492C9.4986 9.60505 9.49367 9.59602 9.48631 9.58923C9.47894 9.58243 9.46955 9.57825 9.45957 9.57733L9.45343 9.43565C9.4703 9.4324 9.4897 9.42041 9.4897 9.39451V9.3006H9.40898V9.34301H9.39212V9.30145H9.3102V9.34301H9.29334V9.3006H9.21262V9.39451C9.21262 9.42048 9.23195 9.4324 9.24889 9.43565L9.24275 9.57648H9.19661L9.18884 9.27958C9.20571 9.27626 9.22589 9.26434 9.22589 9.23844V9.14453H9.14439V9.18694H9.12753V9.1458H9.04477V9.18694H9.0279V9.14453H8.94719V9.23844C8.94719 9.26441 8.96652 9.27633 8.98345 9.27958L8.97647 9.57648H8.93032L8.92419 9.43565C8.94105 9.4324 8.96045 9.42041 8.96045 9.39451V9.3006H8.87974V9.34301H8.86287V9.30145H8.78096V9.34301H8.76409V9.3006H8.68302V9.39451C8.68302 9.42048 8.70278 9.4324 8.71964 9.43565L8.7135 9.57733C8.70209 9.57818 8.69144 9.5834 8.68378 9.5919C8.67612 9.6004 8.67203 9.61153 8.67237 9.62298C8.67237 9.64069 8.68225 9.65635 8.69833 9.66411C8.69343 9.67156 8.69085 9.68031 8.69093 9.68923C8.69093 9.71308 8.70864 9.73248 8.73206 9.73495L8.70116 9.99848C8.69514 9.99842 8.68917 9.99958 8.68361 10.0019C8.67806 10.0042 8.67303 10.0076 8.66883 10.0119C8.66464 10.0163 8.66136 10.0214 8.6592 10.027C8.65705 10.0326 8.65605 10.0386 8.65628 10.0446C8.65628 10.0693 8.67724 10.0907 8.70278 10.0907H9.47149C9.48372 10.0906 9.49542 10.0857 9.5041 10.0771C9.51279 10.0685 9.51777 10.0568 9.51799 10.0446C9.51679 10.0182 9.49746 9.99848 9.47192 9.99848ZM9.09105 9.79132L9.08654 9.7897L9.08237 9.79132C8.97859 9.83288 8.96624 9.95727 8.96419 9.99848H8.91106C8.91311 9.95396 8.92877 9.79217 9.07906 9.73657H9.0943C9.24621 9.79302 9.26102 9.95233 9.26187 9.99848H9.20874C9.20719 9.95727 9.19484 9.83288 9.09105 9.79132ZM9.18454 9.99848H8.98733C8.98896 9.96221 9.00088 9.85151 9.08576 9.8144C9.17184 9.85144 9.18369 9.96221 9.18454 9.99848ZM9.02607 9.73573C8.9038 9.80903 8.88933 9.95558 8.88771 9.99848H8.72345L8.75471 9.73573H9.02607ZM9.28501 9.99848C9.28339 9.95565 9.26815 9.80903 9.14665 9.73573H9.41801L9.44927 9.99848H9.28501ZM9.2352 9.39522V9.32445H9.26977V9.36643H9.33313V9.32607H9.36855V9.36643H9.43071V9.32445H9.46613V9.39522C9.46613 9.41293 9.44348 9.41455 9.44024 9.41455H9.26032C9.257 9.4154 9.2352 9.41378 9.2352 9.39522ZM9.43572 9.57726H9.26483L9.26977 9.43805H9.42909L9.43572 9.57726ZM8.97125 9.23999V9.16916H9.00582V9.21114H9.06798V9.17H9.10425V9.21114H9.16683V9.16916H9.20225V9.23999C9.20225 9.2577 9.1796 9.25933 9.17628 9.25933L9.16598 9.26017H9.00497L8.9963 9.25933C8.99312 9.25933 8.97125 9.2577 8.97125 9.23999ZM9.17262 9.57641H9.00095L9.00751 9.28282H9.16605L9.17262 9.57641ZM8.70737 9.39522V9.32445H8.74194V9.36643H8.80495V9.32607H8.84037V9.36643H8.90295V9.32445H8.9383V9.39522C8.9383 9.41293 8.91565 9.41455 8.91318 9.41455H8.73326C8.72917 9.4154 8.70737 9.41378 8.70737 9.39522ZM8.90789 9.57726H8.737L8.74279 9.43805H8.90133L8.90789 9.57726ZM8.69544 9.62375C8.69544 9.6126 8.70327 9.6052 8.71315 9.60153C8.71477 9.60153 8.71647 9.60068 8.71809 9.60068H9.45428C9.46705 9.60068 9.47735 9.61183 9.47735 9.62375C9.47714 9.62976 9.47462 9.63546 9.47033 9.63968C9.46604 9.64389 9.46029 9.6463 9.45428 9.6464H8.71809C8.71214 9.64621 8.7065 9.64376 8.70229 9.63955C8.69808 9.63535 8.69564 9.6297 8.69544 9.62375ZM8.71315 9.69001C8.71309 9.68577 8.71427 9.6816 8.71654 9.67802C8.71881 9.67444 8.72207 9.67159 8.72592 9.66983H9.44609C9.4535 9.67434 9.45886 9.68175 9.45886 9.69001C9.45887 9.69304 9.45828 9.69604 9.45713 9.69885C9.45597 9.70165 9.45427 9.7042 9.45213 9.70634C9.44998 9.70848 9.44744 9.71018 9.44463 9.71134C9.44183 9.7125 9.43883 9.71309 9.43579 9.71308H8.73622C8.73019 9.71282 8.72447 9.7103 8.7202 9.70603C8.71592 9.70176 8.71341 9.69604 8.71315 9.69001ZM9.4703 10.0676H8.70158C8.69566 10.0675 8.69001 10.0651 8.68574 10.061C8.68147 10.0569 8.67889 10.0513 8.67851 10.0454C8.67851 10.0314 8.68881 10.0223 8.70158 10.0223H9.4703C9.48307 10.0223 9.49337 10.0331 9.49337 10.0454C9.49414 10.0561 9.48307 10.0676 9.4703 10.0676Z" fill="black"/>
<path d="M8.75286 12.2322L8.5124 11.9901L8.27025 11.7513L8.03516 11.9374L8.30073 12.2026L8.56715 12.4694L8.75286 12.2322ZM8.568 12.4793L8.02415 11.9358C8.01589 11.9259 8.00065 11.9259 7.9912 11.9358C7.98905 11.9378 7.98733 11.9402 7.98616 11.9429C7.98498 11.9456 7.98438 11.9485 7.98438 11.9514C7.98438 11.9544 7.98498 11.9573 7.98616 11.96C7.98733 11.9627 7.98905 11.9651 7.9912 11.9671L8.53505 12.5114C8.53944 12.5158 8.54536 12.5182 8.55152 12.5182C8.55769 12.5182 8.56361 12.5158 8.568 12.5114C8.57023 12.5094 8.57201 12.5069 8.57323 12.5041C8.57445 12.5014 8.57508 12.4984 8.57508 12.4954C8.57508 12.4923 8.57445 12.4894 8.57323 12.4866C8.57201 12.4838 8.57023 12.4814 8.568 12.4793ZM8.79893 12.2142L8.28965 11.7036C8.28563 11.7026 8.28142 11.7027 8.27745 11.7039C8.27347 11.7051 8.26987 11.7073 8.267 11.7102C8.26487 11.7123 8.26317 11.7147 8.26201 11.7174C8.26085 11.72 8.26025 11.7229 8.26025 11.7259C8.26025 11.7288 8.26085 11.7317 8.26201 11.7344C8.26317 11.7371 8.26487 11.7395 8.267 11.7415L8.76111 12.2372C8.76568 12.2411 8.77153 12.2433 8.77759 12.2433C8.78365 12.2433 8.7895 12.2411 8.79406 12.2372C8.80098 12.2306 8.80267 12.2207 8.79893 12.2142ZM9.01349 12.0429C9.03614 12.0214 9.07319 11.9835 9.07319 11.9835L9.03283 11.9424L9.00235 11.972L8.97349 11.9441L9.00312 11.9144L8.98294 11.8947L8.96199 11.8741L8.93236 11.9029L8.90357 11.8757L8.93482 11.8461L8.89369 11.8049C8.89369 11.8049 8.8558 11.8428 8.83358 11.8633C8.81177 11.8847 8.83647 11.9136 8.83647 11.9136L8.7113 12.0297L8.66276 11.9795L8.88755 11.7464C8.88755 11.7464 8.91394 11.7703 8.93652 11.748C8.95959 11.7266 8.99748 11.6871 8.99748 11.6871L8.95585 11.6475L8.92579 11.6772L8.89785 11.6492L8.92833 11.6196L8.90731 11.5981L8.8867 11.5784L8.85665 11.6081L8.82871 11.5801L8.85996 11.5488L8.81961 11.5077C8.81961 11.5077 8.78129 11.5472 8.75864 11.5686C8.73684 11.5916 8.76111 11.618 8.76111 11.618L8.52687 11.8428L8.4779 11.7943L8.59277 11.6699C8.59277 11.6699 8.61873 11.6946 8.64131 11.6741L8.70227 11.6131L8.66191 11.572L8.63143 11.6024L8.60342 11.5753L8.63305 11.5456L8.6121 11.5242L8.59107 11.5027L8.56144 11.5324L8.53343 11.5044L8.56391 11.4748L8.52355 11.4336L8.46259 11.4945C8.44079 11.5159 8.46506 11.5423 8.46506 11.5423L8.34031 11.6585L8.33537 11.6527C8.32719 11.6445 8.31188 11.6445 8.30327 11.6527C8.29424 11.6633 8.29424 11.6774 8.30327 11.6856L8.8237 12.206C8.82567 12.2084 8.82813 12.2103 8.8309 12.2115C8.83367 12.2128 8.83669 12.2135 8.83975 12.2135C8.84281 12.2135 8.84582 12.2128 8.8486 12.2115C8.85137 12.2103 8.85383 12.2084 8.8558 12.206C8.8649 12.1978 8.8649 12.1838 8.8558 12.1731L8.85129 12.1698L8.967 12.0438C8.9653 12.0395 8.9912 12.0659 9.01349 12.0429Z" fill="#F5E600"/>
<path d="M8.48188 11.6287C8.49218 11.6238 8.49959 11.6238 8.50453 11.6287C8.50989 11.6336 8.50989 11.6419 8.50453 11.6517C8.50121 11.6599 8.4955 11.6649 8.4955 11.6649L8.46424 11.6962L8.4375 11.6699L8.4684 11.6386C8.4722 11.6344 8.47678 11.6311 8.48188 11.6287ZM8.85527 12.0025C8.86557 11.9959 8.87298 11.9959 8.87834 12.0025C8.88328 12.0075 8.88328 12.0157 8.87834 12.0256C8.87382 12.0322 8.86888 12.0388 8.86888 12.0388L8.83756 12.0701L8.81082 12.0421L8.84207 12.0125C8.84207 12.0124 8.84786 12.0058 8.85527 12.0025ZM8.7392 11.744C8.75077 11.7374 8.75938 11.7374 8.76517 11.7424C8.77053 11.7473 8.76968 11.7572 8.7627 11.7687C8.75776 11.777 8.75077 11.7835 8.75077 11.7835L8.71451 11.8214L8.68692 11.7935L8.72396 11.7572C8.72823 11.752 8.73339 11.7475 8.7392 11.744Z" fill="black"/>
<path d="M8.59201 12.4645L8.75464 12.257C8.77277 12.2702 8.79951 12.2702 8.81638 12.2537C8.82248 12.2472 8.82687 12.2393 8.82915 12.2307C8.84524 12.2356 8.86372 12.2322 8.87614 12.2191C8.88434 12.2113 8.88921 12.2006 8.88975 12.1892C8.89028 12.1779 8.88645 12.1668 8.87903 12.1582L8.97414 12.0528C8.98861 12.0628 9.01041 12.0676 9.02889 12.0495L9.09564 11.9836L9.03842 11.926L9.00879 11.9557L8.99686 11.9442L9.02572 11.9145L8.96765 11.8569L8.93879 11.8865L8.92687 11.8733L8.95566 11.8454L8.89928 11.7877L8.83261 11.8536C8.81405 11.8718 8.81983 11.8948 8.82929 11.908L8.72557 12.0036L8.69262 11.9706L8.89766 11.7565C8.91163 11.7647 8.9347 11.7714 8.95326 11.7532L9.01993 11.6857L8.96229 11.6297L8.93393 11.6594L8.92115 11.6461L8.95079 11.6182L8.8923 11.5605L8.86386 11.5885L8.85194 11.577L8.88157 11.5473L8.82393 11.4898L8.75767 11.5573C8.73912 11.5754 8.7449 11.5984 8.75393 11.6117L8.53987 11.8175L8.50607 11.7846L8.6016 11.6808C8.616 11.689 8.6378 11.6956 8.65635 11.6759L8.72303 11.61L8.66539 11.5524L8.63618 11.582L8.62425 11.5705L8.65311 11.5425L8.59462 11.4832L8.56625 11.5128L8.55433 11.5013L8.58396 11.4717L8.52667 11.4141L8.46 11.48C8.44144 11.4997 8.44723 11.5212 8.4559 11.536L8.35211 11.6307C8.34359 11.623 8.33242 11.6188 8.32092 11.6191C8.30942 11.6194 8.29849 11.6241 8.29038 11.6323C8.28421 11.6386 8.27991 11.6464 8.27795 11.655C8.276 11.6636 8.27646 11.6725 8.2793 11.6808C8.27053 11.6827 8.2626 11.6874 8.25665 11.6941C8.24865 11.702 8.24387 11.7127 8.24326 11.7239C8.24265 11.7352 8.24624 11.7462 8.25334 11.755L8.04583 11.9172C8.04158 11.913 8.03653 11.9097 8.03099 11.9075C8.02545 11.9054 8.01952 11.9043 8.01356 11.9045C8.0076 11.9046 8.00173 11.906 7.9963 11.9084C7.99088 11.9109 7.986 11.9144 7.98197 11.9188C7.9735 11.9274 7.96875 11.9389 7.96875 11.9509C7.96875 11.963 7.9735 11.9745 7.98197 11.983L8.52582 12.5274C8.54311 12.5447 8.57282 12.5447 8.5913 12.5274C8.59966 12.5191 8.60443 12.5079 8.60456 12.4961C8.60469 12.4843 8.60018 12.473 8.59201 12.4645ZM8.46804 12.0479L8.46642 12.0446L8.4631 12.0412C8.36016 11.9967 8.26215 12.0775 8.23379 12.1038L8.19675 12.0659C8.22885 12.0363 8.35529 11.9342 8.50021 12L8.51051 12.0116C8.57761 12.1582 8.47509 12.2817 8.44461 12.3146L8.40673 12.2768C8.43262 12.2487 8.51291 12.1499 8.46804 12.0479ZM8.38902 12.2602L8.24903 12.1203C8.27577 12.0972 8.36185 12.0264 8.44786 12.061C8.48243 12.1483 8.41329 12.2339 8.38902 12.2602ZM8.46148 11.9638C8.32396 11.9292 8.2103 12.0214 8.17904 12.0519L8.06255 11.9341L8.27006 11.7719L8.46148 11.9638ZM8.45978 12.3311C8.48907 12.2998 8.58128 12.1861 8.54749 12.0478L8.73891 12.2404L8.5767 12.4479L8.45978 12.3311ZM8.8501 11.8699L8.90076 11.8205L8.92503 11.8445L8.89575 11.8724L8.9402 11.9168L8.96906 11.8897L8.99496 11.9136L8.96532 11.9432L9.0102 11.9877L9.03983 11.9589L9.0641 11.9827L9.01344 12.033C9.0011 12.0463 8.98339 12.0314 8.98134 12.0297L8.97972 12.0281L8.8542 11.9013C8.8518 11.8996 8.83656 11.8831 8.8501 11.8699ZM8.86372 12.14L8.74314 12.0198L8.84601 11.926L8.95799 12.0379L8.86372 12.14ZM8.77355 11.5735L8.82379 11.5224L8.84848 11.5471L8.81885 11.5768L8.86372 11.6213L8.89215 11.5933L8.9177 11.618L8.88884 11.646L8.93371 11.6905L8.96208 11.6608L8.98684 11.6856L8.93703 11.7366C8.92341 11.7498 8.90655 11.735 8.90486 11.7333L8.8966 11.7251L8.78173 11.6116L8.7768 11.6049C8.77602 11.6032 8.76078 11.5866 8.77355 11.5735ZM8.67717 11.9539L8.55574 11.832L8.76819 11.6294L8.88058 11.7414L8.67717 11.9539ZM8.47749 11.496L8.52731 11.4467L8.55165 11.4714L8.52201 11.5011L8.56689 11.5455L8.59525 11.5159L8.62079 11.5423L8.59201 11.5702L8.63688 11.6147L8.66616 11.585L8.69086 11.6098L8.6402 11.6608C8.62658 11.6724 8.60972 11.6576 8.60809 11.6559L8.60647 11.6543L8.48173 11.5291C8.47919 11.5274 8.46395 11.5093 8.47749 11.496ZM8.48984 11.7678L8.36877 11.6459L8.47128 11.5521L8.58368 11.664L8.48984 11.7678ZM8.30703 11.6492C8.31082 11.6459 8.31553 11.6438 8.32052 11.6433C8.32552 11.6427 8.33058 11.6436 8.33504 11.6459C8.33666 11.6475 8.33836 11.6475 8.3392 11.6492L8.85921 12.1697C8.86866 12.1796 8.86866 12.1936 8.85921 12.2026C8.85727 12.2049 8.85485 12.2068 8.8521 12.2081C8.84936 12.2094 8.84636 12.2101 8.84333 12.2101C8.8403 12.2101 8.8373 12.2094 8.83456 12.2081C8.83181 12.2068 8.82939 12.2049 8.82745 12.2026L8.30703 11.6822C8.29757 11.674 8.29757 11.6592 8.30703 11.6492ZM8.2733 11.7102C8.27617 11.7072 8.27977 11.705 8.28374 11.7039C8.28772 11.7027 8.29193 11.7026 8.29595 11.7036L8.80523 12.2141C8.80812 12.2207 8.80608 12.2305 8.80029 12.2371C8.79204 12.2454 8.7768 12.2454 8.76734 12.2371L8.27323 11.7406C8.26427 11.7333 8.26427 11.7184 8.2733 11.7102ZM8.54212 12.5123L7.99827 11.9671C7.99429 11.9629 7.99207 11.9573 7.99207 11.9515C7.99207 11.9456 7.99429 11.9401 7.99827 11.9358C8.00034 11.9335 8.00287 11.9316 8.00571 11.9304C8.00855 11.9291 8.01163 11.9284 8.01475 11.9284C8.01786 11.9284 8.02094 11.9291 8.02378 11.9304C8.02662 11.9316 8.02916 11.9335 8.03122 11.9358L8.57507 12.4802C8.57925 12.4846 8.58157 12.4905 8.58157 12.4966C8.58157 12.5028 8.57925 12.5087 8.57507 12.5131C8.57031 12.5168 8.56444 12.5187 8.55845 12.5185C8.55245 12.5184 8.54669 12.5162 8.54212 12.5123Z" fill="black"/>
<path d="M6.57827 8.35938V8.87444C6.57827 8.87529 6.58074 8.9716 6.62561 9.06586C6.68615 9.19145 6.78994 9.2565 6.93486 9.2565C7.07978 9.2565 7.1835 9.19223 7.24446 9.06586C7.28891 8.97244 7.29181 8.87522 7.29181 8.87444V8.35938H6.57827ZM6.74168 8.48581C6.78041 8.48581 6.81251 8.51707 6.81251 8.55658C6.81238 8.57532 6.80488 8.59326 6.79162 8.6065C6.77836 8.61975 6.76042 8.62724 6.74168 8.62735C6.72295 8.62722 6.70502 8.61972 6.69178 8.60648C6.67853 8.59324 6.67104 8.57531 6.67091 8.55658C6.67091 8.51707 6.70301 8.48581 6.74168 8.48581ZM6.74168 9.01195C6.7229 9.01194 6.7049 9.00446 6.69163 8.99118C6.67836 8.9779 6.67091 8.95989 6.67091 8.94112C6.67104 8.92239 6.67853 8.90446 6.69178 8.89122C6.70502 8.87797 6.72295 8.87048 6.74168 8.87035C6.76042 8.87046 6.77836 8.87795 6.79162 8.89119C6.80488 8.90444 6.81238 8.92237 6.81251 8.94112C6.81259 8.95044 6.81081 8.95968 6.80728 8.96831C6.80374 8.97694 6.79853 8.98478 6.79193 8.99137C6.78534 8.99797 6.7775 9.00318 6.76887 9.00672C6.76024 9.01025 6.751 9.01203 6.74168 9.01195ZM6.93479 8.82053C6.91605 8.82039 6.89811 8.81288 6.88486 8.79962C6.87161 8.78637 6.8641 8.76844 6.86395 8.74969C6.86365 8.74021 6.86526 8.73076 6.86868 8.72191C6.87211 8.71306 6.87727 8.70498 6.88388 8.69817C6.89048 8.69135 6.89839 8.68593 6.90713 8.68223C6.91587 8.67853 6.92526 8.67662 6.93475 8.67662C6.94424 8.67662 6.95364 8.67853 6.96238 8.68223C6.97112 8.68593 6.97902 8.69135 6.98563 8.69817C6.99223 8.70498 6.9974 8.71306 7.00082 8.72191C7.00425 8.73076 7.00586 8.74021 7.00556 8.74969C7.0053 8.76839 6.99777 8.78625 6.98455 8.79948C6.97134 8.81271 6.95348 8.82026 6.93479 8.82053ZM7.12706 8.48581C7.16572 8.48581 7.19782 8.51707 7.19782 8.55658C7.19769 8.57531 7.1902 8.59324 7.17695 8.60648C7.16371 8.61972 7.14578 8.62722 7.12706 8.62735C7.10831 8.62724 7.09037 8.61975 7.07711 8.6065C7.06385 8.59326 7.05635 8.57532 7.05622 8.55658C7.05622 8.51707 7.08839 8.48581 7.12706 8.48581ZM7.12706 9.0128C7.10831 9.01265 7.09038 9.00514 7.07713 8.99189C7.06388 8.97864 7.05636 8.9607 7.05622 8.94196C7.05623 8.92797 7.06039 8.9143 7.06817 8.90267C7.07595 8.89104 7.08701 8.88199 7.09994 8.87664C7.11286 8.87129 7.12709 8.86989 7.14081 8.87263C7.15453 8.87536 7.16713 8.8821 7.17703 8.89199C7.18692 8.90188 7.19366 8.91449 7.19639 8.92821C7.19912 8.94193 7.19773 8.95615 7.19238 8.96908C7.18703 8.98201 7.17797 8.99306 7.16635 9.00084C7.15472 9.00863 7.14105 9.01279 7.12706 9.0128ZM6.57827 10.8051V11.3222C6.57827 11.3222 6.58074 11.4177 6.62561 11.5132C6.68615 11.6384 6.78994 11.7034 6.93486 11.7034C7.07978 11.7034 7.1835 11.64 7.24446 11.5132C7.272 11.4525 7.28806 11.3871 7.29181 11.3206V10.8051H6.57827ZM6.74168 10.9319C6.76037 10.9322 6.77822 10.9397 6.79144 10.9529C6.80467 10.9662 6.81222 10.984 6.81251 11.0027C6.81281 11.0122 6.8112 11.0216 6.80778 11.0305C6.80436 11.0394 6.79919 11.0474 6.79259 11.0542C6.78598 11.0611 6.77807 11.0665 6.76933 11.0702C6.7606 11.0739 6.7512 11.0758 6.74171 11.0758C6.73222 11.0758 6.72283 11.0739 6.71409 11.0702C6.70535 11.0665 6.69744 11.0611 6.69084 11.0542C6.68423 11.0474 6.67906 11.0394 6.67564 11.0305C6.67222 11.0216 6.67061 11.0122 6.67091 11.0027C6.67091 10.9648 6.70301 10.9319 6.74168 10.9319ZM6.74168 11.4589C6.7229 11.4589 6.7049 11.4514 6.69163 11.4382C6.67836 11.4249 6.67091 11.4069 6.67091 11.3881C6.67091 11.3502 6.70301 11.3173 6.74168 11.3173C6.76037 11.3175 6.77822 11.3251 6.79144 11.3383C6.80467 11.3515 6.81222 11.3694 6.81251 11.3881C6.81259 11.3974 6.81081 11.4067 6.80728 11.4153C6.80374 11.4239 6.79853 11.4318 6.79193 11.4383C6.78534 11.4449 6.7775 11.4502 6.76887 11.4537C6.76024 11.4572 6.751 11.459 6.74168 11.4589ZM6.93479 11.2662C6.92548 11.2662 6.91627 11.2644 6.90767 11.2609C6.89907 11.2573 6.89126 11.2521 6.88468 11.2455C6.8781 11.2389 6.87288 11.2311 6.86932 11.2225C6.86577 11.2139 6.86394 11.2047 6.86395 11.1954C6.86424 11.1767 6.8718 11.1589 6.88502 11.1456C6.89824 11.1324 6.91609 11.1249 6.93479 11.1246C6.97345 11.1246 7.00556 11.1575 7.00556 11.1954C7.00558 11.2047 7.00376 11.2139 7.00021 11.2225C6.99666 11.2311 6.99145 11.2389 6.98488 11.2455C6.9783 11.2521 6.97049 11.2573 6.9619 11.2609C6.9533 11.2644 6.94409 11.2662 6.93479 11.2662ZM7.12706 10.9319C7.16572 10.9319 7.19782 10.9648 7.19782 11.0027C7.19812 11.0122 7.19651 11.0216 7.19309 11.0305C7.18967 11.0394 7.1845 11.0474 7.1779 11.0542C7.17129 11.0611 7.16338 11.0665 7.15464 11.0702C7.14591 11.0739 7.13651 11.0758 7.12702 11.0758C7.11753 11.0758 7.10814 11.0739 7.0994 11.0702C7.09066 11.0665 7.08275 11.0611 7.07615 11.0542C7.06954 11.0474 7.06437 11.0394 7.06095 11.0305C7.05753 11.0216 7.05592 11.0122 7.05622 11.0027C7.05651 10.984 7.06406 10.9662 7.07729 10.9529C7.09051 10.9397 7.10836 10.9322 7.12706 10.9319ZM7.12706 11.4589C7.11775 11.4589 7.10854 11.4571 7.09995 11.4535C7.09135 11.45 7.08354 11.4448 7.07697 11.4382C7.07039 11.4316 7.06517 11.4238 7.06161 11.4152C7.05805 11.4066 7.05622 11.3974 7.05622 11.3881C7.05651 11.3694 7.06406 11.3515 7.07729 11.3383C7.09051 11.3251 7.10836 11.3175 7.12706 11.3173C7.16572 11.3173 7.19782 11.3502 7.19782 11.3881C7.1979 11.3974 7.19612 11.4066 7.19259 11.4153C7.18906 11.4239 7.18385 11.4317 7.17727 11.4383C7.17068 11.4449 7.16285 11.4501 7.15423 11.4537C7.14561 11.4572 7.13637 11.459 7.12706 11.4589ZM6.57827 9.58262V10.0986C6.57827 10.0986 6.58074 10.1941 6.62561 10.2904C6.68615 10.4148 6.78994 10.4807 6.93486 10.4807C7.07978 10.4807 7.1835 10.4165 7.24446 10.2904C7.28891 10.1949 7.29181 10.0986 7.29181 10.0986V9.58262H6.57827ZM6.74168 9.70948C6.75098 9.70944 6.7602 9.71124 6.76881 9.71479C6.77742 9.71833 6.78524 9.72354 6.79182 9.73012C6.79841 9.7367 6.80363 9.74451 6.80718 9.75311C6.81073 9.76172 6.81254 9.77094 6.81251 9.78025C6.81251 9.81891 6.78041 9.85108 6.74168 9.85108C6.72295 9.85092 6.70503 9.8434 6.69179 9.83015C6.67856 9.8169 6.67105 9.79898 6.67091 9.78025C6.67088 9.77094 6.67269 9.76173 6.67624 9.75313C6.67978 9.74453 6.68499 9.73672 6.69157 9.73014C6.69815 9.72357 6.70596 9.71835 6.71456 9.71481C6.72316 9.71126 6.73237 9.70945 6.74168 9.70948ZM6.74168 10.2353C6.7229 10.2352 6.7049 10.2278 6.69163 10.2145C6.67836 10.2012 6.67091 10.1832 6.67091 10.1644C6.67091 10.1265 6.70301 10.0936 6.74168 10.0936C6.76037 10.0939 6.77822 10.1014 6.79144 10.1147C6.80467 10.1279 6.81222 10.1457 6.81251 10.1644C6.81259 10.1738 6.81081 10.183 6.80728 10.1916C6.80374 10.2003 6.79853 10.2081 6.79193 10.2147C6.78534 10.2213 6.7775 10.2265 6.76887 10.23C6.76024 10.2336 6.751 10.2353 6.74168 10.2353ZM6.93479 10.0442C6.89605 10.0442 6.86395 10.0112 6.86395 9.97167C6.86395 9.93378 6.89605 9.90125 6.93479 9.90125C6.97345 9.90125 7.00556 9.93378 7.00556 9.97167C7.00563 10.0112 6.97352 10.0442 6.93479 10.0442ZM7.12706 9.70948C7.13636 9.70945 7.14557 9.71126 7.15417 9.71481C7.16277 9.71835 7.17058 9.72357 7.17716 9.73014C7.18374 9.73672 7.18895 9.74453 7.19249 9.75313C7.19604 9.76173 7.19785 9.77094 7.19782 9.78025C7.19782 9.81891 7.16572 9.85108 7.12706 9.85108C7.10831 9.85094 7.09038 9.84343 7.07713 9.83017C7.06388 9.81692 7.05636 9.79899 7.05622 9.78025C7.05619 9.77094 7.058 9.76172 7.06155 9.75311C7.0651 9.74451 7.07032 9.7367 7.07691 9.73012C7.08349 9.72354 7.09131 9.71833 7.09992 9.71479C7.10853 9.71124 7.11775 9.70944 7.12706 9.70948ZM7.12706 10.2353C7.11775 10.2353 7.10854 10.2334 7.09995 10.2299C7.09135 10.2263 7.08354 10.2211 7.07697 10.2145C7.07039 10.2079 7.06517 10.2001 7.06161 10.1915C7.05805 10.1829 7.05622 10.1737 7.05622 10.1644C7.05651 10.1457 7.06406 10.1279 7.07729 10.1147C7.09051 10.1014 7.10836 10.0939 7.12706 10.0936C7.16572 10.0936 7.19782 10.1265 7.19782 10.1644C7.1979 10.1737 7.19612 10.183 7.19259 10.1916C7.18906 10.2002 7.18385 10.2081 7.17727 10.2147C7.17068 10.2213 7.16285 10.2265 7.15423 10.23C7.14561 10.2335 7.13637 10.2353 7.12706 10.2353ZM5.57812 9.58262V10.0986C5.57812 10.0986 5.58059 10.1941 5.62632 10.2904C5.68678 10.4148 5.79057 10.4807 5.93549 10.4807C6.08084 10.4807 6.18421 10.4165 6.24517 10.2904C6.29082 10.1949 6.29336 10.0986 6.29336 10.0986V9.58262H5.57812ZM5.74245 9.70948C5.75176 9.70941 5.761 9.7112 5.76961 9.71473C5.77823 9.71826 5.78605 9.72347 5.79264 9.73006C5.79922 9.73664 5.80443 9.74447 5.80797 9.75309C5.8115 9.7617 5.81329 9.77093 5.81322 9.78025C5.81322 9.81891 5.78154 9.85108 5.74245 9.85108C5.72371 9.85094 5.70578 9.84343 5.69252 9.83017C5.67927 9.81692 5.67176 9.79899 5.67161 9.78025C5.67158 9.77094 5.6734 9.76172 5.67695 9.75311C5.6805 9.74451 5.68572 9.7367 5.6923 9.73012C5.69889 9.72354 5.70671 9.71833 5.71531 9.71479C5.72392 9.71124 5.73314 9.70944 5.74245 9.70948ZM5.74245 10.2353C5.72366 10.2353 5.70565 10.2278 5.69236 10.2145C5.67908 10.2012 5.67161 10.1832 5.67161 10.1644C5.6719 10.1457 5.67946 10.1279 5.69268 10.1147C5.70591 10.1014 5.72375 10.0939 5.74245 10.0936C5.78154 10.0936 5.81322 10.1265 5.81322 10.1644C5.81333 10.1738 5.81158 10.183 5.80807 10.1917C5.80455 10.2003 5.79934 10.2081 5.79275 10.2147C5.78616 10.2213 5.77831 10.2266 5.76967 10.2301C5.76103 10.2336 5.75178 10.2354 5.74245 10.2353ZM5.93549 10.0442C5.89598 10.0442 5.86473 10.0112 5.86473 9.97167C5.86473 9.93378 5.89598 9.90125 5.93549 9.90125C5.97423 9.90125 6.00633 9.93378 6.00633 9.97167C6.00633 10.0112 5.97423 10.0442 5.93549 10.0442ZM6.12783 9.70948C6.13709 9.70946 6.14627 9.71128 6.15482 9.71484C6.16337 9.7184 6.17113 9.72362 6.17764 9.73021C6.18416 9.73679 6.1893 9.74461 6.19276 9.7532C6.19622 9.76179 6.19795 9.77098 6.19782 9.78025C6.19782 9.81891 6.16657 9.85108 6.12783 9.85108C6.10904 9.85108 6.09103 9.84362 6.07774 9.83034C6.06446 9.81705 6.05699 9.79903 6.05699 9.78025C6.05689 9.77092 6.05865 9.76166 6.06217 9.75302C6.0657 9.74439 6.07091 9.73654 6.07751 9.72995C6.08411 9.72335 6.09196 9.71815 6.10061 9.71463C6.10925 9.71112 6.1185 9.70936 6.12783 9.70948ZM6.12783 10.2353C6.11851 10.2353 6.10926 10.2336 6.10063 10.23C6.09201 10.2265 6.08417 10.2213 6.07757 10.2147C6.07098 10.2081 6.06577 10.2003 6.06223 10.1916C6.0587 10.183 6.05692 10.1738 6.05699 10.1644C6.05699 10.1265 6.08825 10.0936 6.12783 10.0936C6.1665 10.0936 6.19782 10.1265 6.19782 10.1644C6.19808 10.1737 6.19645 10.183 6.19304 10.1916C6.18962 10.2003 6.18449 10.2082 6.17795 10.2148C6.17141 10.2214 6.1636 10.2266 6.15499 10.2302C6.14637 10.2337 6.13714 10.2354 6.12783 10.2353ZM7.57749 9.58262V10.0986C7.57749 10.0986 7.57911 10.1941 7.62526 10.2904C7.68622 10.4148 7.78994 10.4807 7.93486 10.4807C8.07978 10.4807 8.18357 10.4165 8.24453 10.2904C8.27181 10.2299 8.28799 10.1649 8.2923 10.0986V9.58262H7.57749ZM7.74182 9.70948C7.75108 9.70946 7.76025 9.71128 7.7688 9.71484C7.77736 9.7184 7.78511 9.72362 7.79163 9.73021C7.79814 9.73679 7.80328 9.74461 7.80674 9.7532C7.81021 9.76179 7.81193 9.77098 7.81181 9.78025C7.81181 9.81891 7.78055 9.85108 7.74182 9.85108C7.73251 9.85108 7.7233 9.84925 7.71471 9.84569C7.70611 9.84213 7.6983 9.83691 7.69173 9.83034C7.68515 9.82376 7.67993 9.81595 7.67637 9.80735C7.67281 9.79876 7.67098 9.78955 7.67098 9.78025C7.67013 9.74031 7.70223 9.70948 7.74182 9.70948ZM7.74182 10.2353C7.73249 10.2353 7.72325 10.2336 7.71462 10.23C7.70599 10.2265 7.69815 10.2213 7.69156 10.2147C7.68497 10.2081 7.67975 10.2003 7.67622 10.1916C7.67268 10.183 7.6709 10.1738 7.67098 10.1644C7.67098 10.1265 7.70223 10.0936 7.74182 10.0936C7.78048 10.0936 7.81258 10.1265 7.81258 10.1644C7.81258 10.2039 7.78048 10.2353 7.74182 10.2353ZM7.93401 10.0442C7.89535 10.0442 7.86324 10.0112 7.86324 9.97167C7.86324 9.93378 7.89535 9.90125 7.93401 9.90125C7.97359 9.90125 8.00485 9.93378 8.00485 9.97167C8.00485 10.0112 7.97359 10.0442 7.93401 10.0442ZM8.12635 9.70948C8.13565 9.70945 8.14487 9.71126 8.15347 9.71481C8.16206 9.71835 8.16988 9.72357 8.17645 9.73014C8.18303 9.73672 8.18824 9.74453 8.19179 9.75313C8.19534 9.76173 8.19715 9.77094 8.19712 9.78025C8.19712 9.81891 8.16502 9.85108 8.12635 9.85108C8.10761 9.85094 8.08968 9.84343 8.07642 9.83017C8.06317 9.81692 8.05566 9.79899 8.05551 9.78025C8.05559 9.76149 8.06308 9.74352 8.07635 9.73026C8.08962 9.717 8.10759 9.70953 8.12635 9.70948ZM8.12635 10.2353C8.10756 10.2353 8.08954 10.2278 8.07626 10.2145C8.06297 10.2012 8.05551 10.1832 8.05551 10.1644C8.0558 10.1457 8.06336 10.1279 8.07658 10.1147C8.0898 10.1014 8.10765 10.0939 8.12635 10.0936C8.16502 10.0936 8.19712 10.1265 8.19712 10.1644C8.19712 10.2039 8.16502 10.2353 8.12635 10.2353Z" fill="#153A8D"/>
</g>
</svg>
