<svg width="94" height="94" viewBox="0 0 94 94" fill="none" xmlns="http://www.w3.org/2000/svg">
<mask id="mask0_1034_7281" style="mask-type:alpha" maskUnits="userSpaceOnUse" x="0" y="0" width="94" height="94">
<circle cx="46.9977" cy="47.0001" r="46.943" fill="#D9D9D9"/>
</mask>
<g mask="url(#mask0_1034_7281)">
<g filter="url(#filter0_f_1034_7281)">
<ellipse cx="56.6359" cy="50.4198" rx="42.9016" ry="18.0311" fill="#00845C"/>
</g>
<g filter="url(#filter1_d_1034_7281)">
<path d="M21.8125 31.7668C21.8125 27.6461 25.153 24.3057 29.2736 24.3057H147.408C151.529 24.3057 154.869 27.6461 154.869 31.7668V69.0725C154.869 73.1932 151.529 76.5336 147.408 76.5336H29.2736C25.153 76.5336 21.8125 73.1932 21.8125 69.0725V31.7668Z" fill="white" shape-rendering="crispEdges"/>
<path d="M21.999 31.7668C21.999 27.7491 25.256 24.4922 29.2736 24.4922H147.408C151.426 24.4922 154.683 27.7491 154.683 31.7668V69.0725C154.683 73.0902 151.426 76.3471 147.408 76.3471H29.2736C25.256 76.3471 21.999 73.0902 21.999 69.0725V31.7668Z" stroke="#D9D9D9" stroke-width="0.373057" shape-rendering="crispEdges"/>
<path d="M35.5017 34.074C35.2482 33.5424 34.4928 33.5424 34.2393 34.074L33.4615 35.7035L31.6713 35.9391C31.0883 36.0163 30.8544 36.7348 31.2813 37.14L32.5907 38.3834L32.2623 40.1584C32.1548 40.737 32.7665 41.1813 33.2835 40.9009L34.8705 40.0392L36.4575 40.9009C36.9745 41.1813 37.5862 40.737 37.4787 40.1584L37.1502 38.3834L38.4597 37.14C38.8861 36.7348 38.6527 36.0163 38.0696 35.9391L36.279 35.7035L35.5017 34.074Z" fill="#FFB934"/>
<path d="M46.697 34.074C46.4435 33.5424 45.6881 33.5424 45.4346 34.074L44.6568 35.7035L42.8667 35.9391C42.2836 36.0163 42.0497 36.7348 42.4766 37.14L43.7861 38.3834L43.4576 40.1584C43.3501 40.737 43.9618 41.1813 44.4788 40.9009L46.0658 40.0392L47.6528 40.9009C48.1699 41.1813 48.7815 40.737 48.674 40.1584L48.3456 38.3834L49.655 37.14C50.0814 36.7348 49.848 36.0163 49.265 35.9391L47.4743 35.7035L46.697 34.074Z" fill="#FFB934"/>
<path d="M57.8845 34.074C57.631 33.5424 56.8756 33.5424 56.6221 34.074L55.8443 35.7035L54.0542 35.9391C53.4711 36.0163 53.2372 36.7348 53.6641 37.14L54.9736 38.3834L54.6451 40.1584C54.5376 40.737 55.1493 41.1813 55.6663 40.9009L57.2533 40.0392L58.8403 40.9009C59.3574 41.1813 59.969 40.737 59.8615 40.1584L59.5331 38.3834L60.8425 37.14C61.2689 36.7348 61.0355 36.0163 60.4525 35.9391L58.6618 35.7035L57.8845 34.074Z" fill="#FFB934"/>
<path d="M69.0798 34.074C68.8263 33.5424 68.0709 33.5424 67.8174 34.074L67.0396 35.7035L65.2495 35.9391C64.6664 36.0163 64.4325 36.7348 64.8594 37.14L66.1689 38.3834L65.8404 40.1584C65.733 40.737 66.3446 41.1813 66.8616 40.9009L68.4486 40.0392L70.0356 40.9009C70.5527 41.1813 71.1643 40.737 71.0568 40.1584L70.7284 38.3834L72.0378 37.14C72.4642 36.7348 72.2309 36.0163 71.6478 35.9391L69.8571 35.7035L69.0798 34.074Z" fill="#FFB934"/>
<path d="M80.2673 34.074C80.0138 33.5424 79.2584 33.5424 79.0049 34.074L78.2271 35.7035L76.437 35.9391C75.8539 36.0163 75.62 36.7348 76.0469 37.14L77.3564 38.3834L77.0279 40.1584C76.9205 40.737 77.5321 41.1813 78.0491 40.9009L79.6361 40.0392L81.2231 40.9009C81.7402 41.1813 82.3518 40.737 82.2443 40.1584L81.9159 38.3834L83.2253 37.14C83.6517 36.7348 83.4184 36.0163 82.8353 35.9391L81.0446 35.7035L80.2673 34.074Z" fill="#FFB934"/>
<rect x="29.2734" y="48.5542" width="61.5544" height="4.35233" rx="2.17617" fill="url(#paint0_linear_1034_7281)"/>
<rect x="29.2734" y="56.6372" width="69.6373" height="4.35233" rx="2.17617" fill="url(#paint1_linear_1034_7281)"/>
<rect x="29.2734" y="64.7202" width="29.8446" height="4.35233" rx="2.17617" fill="url(#paint2_linear_1034_7281)"/>
</g>
</g>
<g clip-path="url(#clip0_1034_7281)">
<path d="M43.0625 31C43.0625 32.2 41.5883 33.1891 41.293 34.2953C40.9883 35.4391 41.7594 37.0328 41.1805 38.0336C40.5922 39.0508 38.8227 39.1727 37.9977 39.9977C37.1727 40.8227 37.0508 42.5922 36.0336 43.1805C35.0328 43.7594 33.4391 42.9883 32.2953 43.293C31.1891 43.5883 30.2 45.0625 29 45.0625C27.8 45.0625 26.8109 43.5883 25.7047 43.293C24.5609 42.9883 22.9672 43.7594 21.9664 43.1805C20.9492 42.5922 20.8273 40.8227 20.0023 39.9977C19.1773 39.1727 17.4078 39.0508 16.8195 38.0336C16.2406 37.0328 17.0117 35.4391 16.707 34.2953C16.4117 33.1891 14.9375 32.2 14.9375 31C14.9375 29.8 16.4117 28.8109 16.707 27.7047C17.0117 26.5609 16.2406 24.9672 16.8195 23.9664C17.4078 22.9492 19.1773 22.8273 20.0023 22.0023C20.8273 21.1773 20.9492 19.4078 21.9664 18.8195C22.9672 18.2406 24.5609 19.0117 25.7047 18.707C26.8109 18.4117 27.8 16.9375 29 16.9375C30.2 16.9375 31.1891 18.4117 32.2953 18.707C33.4391 19.0117 35.0328 18.2406 36.0336 18.8195C37.0508 19.4078 37.1727 21.1773 37.9977 22.0023C38.8227 22.8273 40.5922 22.9492 41.1805 23.9664C41.7594 24.9672 40.9883 26.5609 41.293 27.7047C41.5883 28.8109 43.0625 29.8 43.0625 31Z" fill="#00845C"/>
<path d="M21.6641 31.0003C21.6641 31.0003 24.3307 25.667 28.9974 25.667C33.6641 25.667 36.3307 31.0003 36.3307 31.0003C36.3307 31.0003 33.6641 36.3337 28.9974 36.3337C24.3307 36.3337 21.6641 31.0003 21.6641 31.0003Z" stroke="white" stroke-width="2" stroke-linecap="round" stroke-linejoin="round"/>
<path d="M28.9974 33.0003C30.102 33.0003 30.9974 32.1049 30.9974 31.0003C30.9974 29.8958 30.102 29.0003 28.9974 29.0003C27.8928 29.0003 26.9974 29.8958 26.9974 31.0003C26.9974 32.1049 27.8928 33.0003 28.9974 33.0003Z" stroke="white" stroke-width="2" stroke-linecap="round" stroke-linejoin="round"/>
</g>
<defs>
<filter id="filter0_f_1034_7281" x="-13.6231" y="5.03116" width="140.52" height="90.777" filterUnits="userSpaceOnUse" color-interpolation-filters="sRGB">
<feFlood flood-opacity="0" result="BackgroundImageFix"/>
<feBlend mode="normal" in="SourceGraphic" in2="BackgroundImageFix" result="shape"/>
<feGaussianBlur stdDeviation="13.6788" result="effect1_foregroundBlur_1034_7281"/>
</filter>
<filter id="filter1_d_1034_7281" x="18.0819" y="23.0621" width="140.516" height="59.6892" filterUnits="userSpaceOnUse" color-interpolation-filters="sRGB">
<feFlood flood-opacity="0" result="BackgroundImageFix"/>
<feColorMatrix in="SourceAlpha" type="matrix" values="0 0 0 0 0 0 0 0 0 0 0 0 0 0 0 0 0 0 127 0" result="hardAlpha"/>
<feOffset dy="2.48705"/>
<feGaussianBlur stdDeviation="1.86529"/>
<feComposite in2="hardAlpha" operator="out"/>
<feColorMatrix type="matrix" values="0 0 0 0 0.258824 0 0 0 0 0.223529 0 0 0 0 0.192157 0 0 0 0.2 0"/>
<feBlend mode="normal" in2="BackgroundImageFix" result="effect1_dropShadow_1034_7281"/>
<feBlend mode="normal" in="SourceGraphic" in2="effect1_dropShadow_1034_7281" result="shape"/>
</filter>
<linearGradient id="paint0_linear_1034_7281" x1="29.2734" y1="50.7304" x2="90.8278" y2="50.7304" gradientUnits="userSpaceOnUse">
<stop stop-color="#D9D9D9"/>
<stop offset="1" stop-color="white"/>
</linearGradient>
<linearGradient id="paint1_linear_1034_7281" x1="29.2734" y1="58.8134" x2="98.9107" y2="58.8134" gradientUnits="userSpaceOnUse">
<stop stop-color="#D9D9D9"/>
<stop offset="1" stop-color="white"/>
</linearGradient>
<linearGradient id="paint2_linear_1034_7281" x1="29.2734" y1="66.8964" x2="59.118" y2="66.8964" gradientUnits="userSpaceOnUse">
<stop stop-color="#D9D9D9"/>
<stop offset="1" stop-color="white"/>
</linearGradient>
<clipPath id="clip0_1034_7281">
<rect width="30" height="30" fill="white" transform="translate(14 16)"/>
</clipPath>
</defs>
</svg>
