<svg width="275" height="130" viewBox="0 0 275 130" fill="none" xmlns="http://www.w3.org/2000/svg">
<path d="M0 16C0 7.16344 6.61056 0 14.7651 0H260.235C268.389 0 275 7.16344 275 16V114C275 122.837 268.389 130 260.235 130H14.7651C6.61056 130 0 122.837 0 114V16Z" fill="url(#paint0_linear_675_3622)"/>
<mask id="mask0_675_3622" style="mask-type:alpha" maskUnits="userSpaceOnUse" x="0" y="0" width="275" height="130">
<path d="M0 16C0 7.16344 7.16344 0 16 0H259C267.837 0 275 7.16344 275 16V114C275 122.837 267.837 130 259 130H16C7.16345 130 0 122.837 0 114V16Z" fill="white"/>
</mask>
<g mask="url(#mask0_675_3622)">
<rect x="29.75" y="46.4487" width="118" height="121.344" rx="13" transform="rotate(13.7745 29.75 46.4487)" fill="white" fill-opacity="0.37"/>
<path d="M45.1072 80.6427L36.0881 109.622C35.0005 113.116 37.0839 116.803 40.6369 117.674L93.2399 130.575C96.7927 131.446 100.346 129.142 100.998 125.542L106.41 95.6775C107.667 88.7444 103.312 82.0304 96.4692 80.3522L61.0111 71.656C54.1684 69.9778 47.2007 73.9147 45.1072 80.6427Z" fill="url(#paint1_linear_675_3622)"/>
<path d="M100.998 125.542L106.41 95.6777C107.667 88.7446 103.312 82.0307 96.4692 80.3524L91.7432 79.1934C98.586 80.8716 102.941 87.5855 101.685 94.5188L96.2723 124.383C95.6198 127.983 92.0673 130.288 88.5141 129.416L93.2401 130.575C96.7927 131.447 100.346 129.142 100.998 125.542Z" fill="#A6C5D3"/>
<path d="M30.4852 141.757C28.4799 141.265 27.4741 139.016 28.4457 137.194L33.3312 128.022L42.3302 130.229L33.6806 140.699C33.3013 141.158 32.8003 141.5 32.2351 141.687C31.6699 141.875 31.0634 141.899 30.4852 141.757ZM91.0979 156.622C93.1032 157.114 95.0347 155.586 95.0171 153.521L94.9295 143.129L85.9305 140.922L88.7547 154.206C88.8785 154.788 89.1641 155.324 89.5786 155.751C89.9931 156.179 90.5197 156.48 91.0979 156.622Z" fill="#BCD0D9"/>
<path d="M33.3304 128.022L31.2884 131.856C32.9976 133.42 35.1082 134.579 37.4884 135.163L38.1245 135.319L42.3294 130.23L33.3304 128.022ZM94.9288 143.13L85.9298 140.923L87.303 147.38L87.9393 147.536C90.3193 148.119 92.7263 148.069 94.9656 147.473L94.9288 143.13Z" fill="#A6C5D3"/>
<path d="M52.0708 104.285C64.8865 105.67 77.2962 108.714 89.2989 113.415C94.8196 115.577 97.8931 121.486 96.4807 127.244L96.3849 127.635L39.2088 113.613L39.3047 113.222C40.717 107.463 46.1761 103.647 52.0708 104.285Z" fill="url(#paint2_linear_675_3622)"/>
<path d="M54.6215 135.188L38.4549 131.223C33.9324 130.114 30.7533 126.059 30.7563 121.402L30.7597 115.171L30.7754 96.0101C30.778 92.5715 33.5481 89.7761 36.9863 89.7426L36.9869 89.7419C40.4484 89.708 43.3136 92.4247 43.4632 95.8827L44.1413 111.538C44.1827 112.495 44.5336 113.414 45.1414 114.155C45.7493 114.897 46.5812 115.421 47.5123 115.649L88.0825 125.599C89.0135 125.828 89.9936 125.748 90.8754 125.372C91.7573 124.996 92.4934 124.344 92.9732 123.514L100.817 109.949C102.55 106.953 106.347 105.87 109.4 107.501L109.401 107.502C112.432 109.123 113.595 112.883 112.007 115.932L103.155 132.926L100.275 138.452C98.1229 142.581 93.4283 144.705 88.9059 143.596L54.6215 135.188Z" fill="url(#paint3_linear_675_3622)"/>
<path d="M109.399 107.502L109.399 107.501C108.271 106.897 106.987 106.644 105.714 106.777C108.364 108.528 109.309 112.032 107.812 114.904L98.9607 131.898L96.0807 137.423C93.9291 141.553 89.2343 143.677 84.7126 142.568L88.9053 143.596C93.427 144.705 98.1216 142.581 100.274 138.452L103.153 132.926L112.005 115.932C113.594 112.883 112.432 109.123 109.399 107.502Z" fill="#A6C5D3"/>
<path d="M63.9978 87.6828L62.8027 87.3897L63.0957 86.1951C63.1354 86.0334 63.1429 85.8655 63.1177 85.7009C63.0925 85.5364 63.0351 85.3784 62.9488 85.236C62.8625 85.0936 62.749 84.9696 62.6147 84.8711C62.4805 84.7726 62.3282 84.7015 62.1664 84.662C62.0048 84.6223 61.8369 84.6149 61.6724 84.6402C61.5079 84.6654 61.3499 84.7228 61.2076 84.8091C61.0653 84.8955 60.9414 85.009 60.8429 85.1432C60.7445 85.2774 60.6735 85.4297 60.6339 85.5914L60.341 86.7858L59.1459 86.4927C58.4663 86.326 57.7796 86.7422 57.6129 87.422C57.4462 88.1017 57.8623 88.7882 58.542 88.955L59.7371 89.248L59.4442 90.4425C59.4044 90.6041 59.3969 90.772 59.4221 90.9365C59.4473 91.101 59.5046 91.259 59.5909 91.4014C59.6771 91.5437 59.7905 91.6677 59.9247 91.7662C60.0589 91.8647 60.2111 91.9358 60.3728 91.9755C60.5345 92.0152 60.7024 92.0227 60.867 91.9975C61.0316 91.9722 61.1895 91.9148 61.3319 91.8285C61.4743 91.7422 61.5983 91.6287 61.6968 91.4945C61.7953 91.3603 61.8664 91.2079 61.906 91.0462L62.1989 89.8518L63.3939 90.1449C64.0735 90.3116 64.7602 89.8955 64.9269 89.2158C65.0936 88.536 64.6775 87.8495 63.9978 87.6828ZM91.2579 94.3684L90.0628 94.0753L90.3558 92.8808C90.3955 92.7191 90.403 92.5511 90.3778 92.3866C90.3526 92.222 90.2952 92.064 90.2089 91.9216C90.1226 91.7792 90.0091 91.6552 89.8748 91.5568C89.7406 91.4583 89.5883 91.3872 89.4266 91.3476C89.2649 91.3079 89.097 91.3005 88.9325 91.3258C88.768 91.351 88.6101 91.4085 88.4677 91.4948C88.3254 91.5811 88.2015 91.6946 88.1031 91.8288C88.0046 91.963 87.9336 92.1153 87.894 92.277L87.6011 93.4714L86.406 93.1783C85.7265 93.0116 85.0397 93.4279 84.873 94.1076C84.7063 94.7874 85.1224 95.4739 85.8022 95.6406L86.9972 95.9337L86.7043 97.1281C86.6645 97.2897 86.6571 97.4576 86.6822 97.6221C86.7074 97.7867 86.7647 97.9446 86.851 98.087C86.9372 98.2294 87.0506 98.3533 87.1848 98.4518C87.319 98.5504 87.4712 98.6215 87.6329 98.6611C87.7946 98.7008 87.9625 98.7083 88.1271 98.6831C88.2917 98.6579 88.4497 98.6005 88.592 98.5142C88.7344 98.4279 88.8584 98.3144 88.9569 98.1801C89.0554 98.0459 89.1265 97.8936 89.1661 97.7319L89.459 96.5374L90.654 96.8305C91.3336 96.9972 92.0203 96.5811 92.187 95.9014C92.3537 95.2217 91.9376 94.5351 91.2579 94.3684Z" fill="#A6C5D3"/>
<g filter="url(#filter0_di_675_3622)">
<rect x="17" y="23" width="85.7143" height="24" rx="12" fill="url(#paint4_linear_675_3622)" shape-rendering="crispEdges"/>
<path d="M29.599 29.2439C29.77 28.7174 30.5148 28.7174 30.6859 29.2439L31.682 32.3095C31.7585 32.5449 31.9779 32.7043 32.2254 32.7043H35.4488C36.0023 32.7043 36.2325 33.4127 35.7846 33.738L33.1769 35.6327C32.9766 35.7782 32.8928 36.0361 32.9693 36.2715L33.9654 39.3371C34.1364 39.8636 33.5339 40.3013 33.086 39.976L30.4783 38.0814C30.278 37.9358 30.0068 37.9358 29.8066 38.0814L27.1988 39.976C26.751 40.3013 26.1484 39.8636 26.3195 39.3371L27.3156 36.2715C27.3921 36.0361 27.3083 35.7782 27.108 35.6327L24.5002 33.738C24.0524 33.4127 24.2826 32.7043 24.8361 32.7043H28.0595C28.307 32.7043 28.5264 32.5449 28.6029 32.3095L29.599 29.2439Z" fill="white"/>
<path d="M44.4564 29.2439C44.6275 28.7174 45.3723 28.7174 45.5433 29.2439L46.5394 32.3095C46.6159 32.5449 46.8353 32.7043 47.0828 32.7043H50.3062C50.8597 32.7043 51.0899 33.4127 50.6421 33.738L48.0343 35.6327C47.834 35.7782 47.7502 36.0361 47.8267 36.2715L48.8228 39.3371C48.9939 39.8636 48.3913 40.3013 47.9435 39.976L45.3357 38.0814C45.1355 37.9358 44.8643 37.9358 44.664 38.0814L42.0563 39.976C41.6084 40.3013 41.0059 39.8636 41.1769 39.3371L42.173 36.2715C42.2495 36.0361 42.1657 35.7782 41.9654 35.6327L39.3577 33.738C38.9098 33.4127 39.14 32.7043 39.6935 32.7043H42.9169C43.1644 32.7043 43.3838 32.5449 43.4603 32.3095L44.4564 29.2439Z" fill="white"/>
<path d="M59.3138 29.2439C59.4849 28.7174 60.2297 28.7174 60.4007 29.2439L61.3968 32.3095C61.4733 32.5449 61.6927 32.7043 61.9403 32.7043H65.1636C65.7172 32.7043 65.9473 33.4127 65.4995 33.738L62.8917 35.6327C62.6915 35.7782 62.6077 36.0361 62.6842 36.2715L63.6802 39.3371C63.8513 39.8636 63.2487 40.3013 62.8009 39.976L60.1932 38.0814C59.9929 37.9358 59.7217 37.9358 59.5214 38.0814L56.9137 39.976C56.4658 40.3013 55.8633 39.8636 56.0343 39.3371L57.0304 36.2715C57.1069 36.0361 57.0231 35.7782 56.8228 35.6327L54.2151 33.738C53.7673 33.4127 53.9974 32.7043 54.551 32.7043H57.7743C58.0219 32.7043 58.2413 32.5449 58.3178 32.3095L59.3138 29.2439Z" fill="white"/>
<path d="M74.1703 29.2439C74.3413 28.7174 75.0861 28.7174 75.2572 29.2439L76.2533 32.3095C76.3298 32.5449 76.5492 32.7043 76.7967 32.7043H80.02C80.5736 32.7043 80.8038 33.4127 80.3559 33.738L77.7482 35.6327C77.5479 35.7782 77.4641 36.0361 77.5406 36.2715L78.5367 39.3371C78.7077 39.8636 78.1052 40.3013 77.6573 39.976L75.0496 38.0814C74.8493 37.9358 74.5781 37.9358 74.3779 38.0814L71.7701 39.976C71.3223 40.3013 70.7197 39.8636 70.8908 39.3371L71.8868 36.2715C71.9633 36.0361 71.8795 35.7782 71.6793 35.6327L69.0715 33.738C68.6237 33.4127 68.8539 32.7043 69.4074 32.7043H72.6307C72.8783 32.7043 73.0977 32.5449 73.1742 32.3095L74.1703 29.2439Z" fill="white"/>
<path d="M89.0277 29.2439C89.1987 28.7174 89.9436 28.7174 90.1146 29.2439L91.1107 32.3095C91.1872 32.5449 91.4066 32.7043 91.6541 32.7043H94.8775C95.431 32.7043 95.6612 33.4127 95.2133 33.738L92.6056 35.6327C92.4053 35.7782 92.3215 36.0361 92.398 36.2715L93.3941 39.3371C93.5652 39.8636 92.9626 40.3013 92.5148 39.976L89.907 38.0814C89.7067 37.9358 89.4356 37.9358 89.2353 38.0814L86.6275 39.976C86.1797 40.3013 85.5771 39.8636 85.7482 39.3371L86.7443 36.2715C86.8208 36.0361 86.737 35.7782 86.5367 35.6327L83.929 33.738C83.4811 33.4127 83.7113 32.7043 84.2648 32.7043H87.4882C87.7357 32.7043 87.9551 32.5449 88.0316 32.3095L89.0277 29.2439Z" fill="white"/>
</g>
<rect x="107" y="9.51074" width="118" height="121.344" rx="13" transform="rotate(-7.55325 107 9.51074)" fill="white" fill-opacity="0.37"/>
<path d="M210.641 40.9506L194.604 51.5148L193.191 51.702L191.131 36.1618C189.611 24.6902 196.181 19.1617 197.194 18.2367C197.655 18.5907 198.059 19.012 198.395 19.4864L211.235 37.8386C211.403 38.081 211.522 38.3544 211.583 38.643C211.644 38.9317 211.647 39.2296 211.592 39.5194C211.537 39.8092 211.424 40.0851 211.261 40.3309C211.098 40.5766 210.887 40.7873 210.641 40.9506ZM148.749 41.7792L150.808 57.3194L149.396 57.5067L131.16 51.4851C130.88 51.3915 130.622 51.2429 130.4 51.0482C130.178 50.8535 129.998 50.6164 129.869 50.351C129.74 50.0856 129.665 49.7972 129.649 49.5026C129.633 49.2079 129.676 48.9131 129.776 48.6353L137.392 27.5717C137.592 27.0263 137.873 26.5141 138.226 26.0524C139.445 26.6815 147.228 30.3076 148.749 41.7792Z" fill="url(#paint5_linear_675_3622)"/>
<path d="M197.194 18.2368C196.181 19.1617 191.023 24.503 192.544 35.9746L199.472 88.2465C199.621 89.3705 199.317 90.5077 198.628 91.4079C197.938 92.3081 196.919 92.8975 195.795 93.0465L159.064 97.9149C157.94 98.0639 156.802 97.7602 155.902 97.0707C155.002 96.3813 154.413 95.3624 154.264 94.2384L147.336 41.9665C145.815 30.4949 139.444 26.6816 138.225 26.0525C138.595 25.5595 139.043 25.1309 139.552 24.7841L152.99 15.6427C153.521 15.2854 154.156 15.1153 154.794 15.1591C155.753 15.2333 157.408 15.3589 159.494 15.37C161.922 15.4055 164.349 15.2664 166.756 14.9537C170.715 14.3892 174.604 13.4112 178.359 12.0359C178.964 11.8272 179.622 11.826 180.227 12.0326L195.582 17.3578C196.164 17.5601 196.709 17.857 197.194 18.2368Z" fill="url(#paint6_linear_675_3622)"/>
<path d="M179.288 11.8836C179.356 12.5071 180.415 23.206 168.067 24.8426C155.72 26.4791 153.955 15.8738 153.858 15.254C154.162 15.1658 154.479 15.1335 154.795 15.1587C158.778 15.5084 162.787 15.4395 166.757 14.9533C170.716 14.3887 174.604 13.4108 178.359 12.0354C178.657 11.929 178.972 11.8775 179.288 11.8836Z" fill="#85AFC1"/>
<g filter="url(#filter1_di_675_3622)">
<rect x="182" y="97" width="85.7143" height="24" rx="12" fill="url(#paint7_linear_675_3622)" shape-rendering="crispEdges"/>
<path d="M194.599 103.244C194.77 102.717 195.515 102.717 195.686 103.244L196.682 106.309C196.758 106.545 196.978 106.704 197.225 106.704H200.449C201.002 106.704 201.232 107.413 200.785 107.738L198.177 109.633C197.977 109.778 197.893 110.036 197.969 110.272L198.965 113.337C199.136 113.864 198.534 114.301 198.086 113.976L195.478 112.081C195.278 111.936 195.007 111.936 194.807 112.081L192.199 113.976C191.751 114.301 191.148 113.864 191.319 113.337L192.316 110.272C192.392 110.036 192.308 109.778 192.108 109.633L189.5 107.738C189.052 107.413 189.283 106.704 189.836 106.704H193.059C193.307 106.704 193.526 106.545 193.603 106.309L194.599 103.244Z" fill="white"/>
<path d="M209.456 103.244C209.627 102.717 210.372 102.717 210.543 103.244L211.539 106.309C211.616 106.545 211.835 106.704 212.083 106.704H215.306C215.86 106.704 216.09 107.413 215.642 107.738L213.034 109.633C212.834 109.778 212.75 110.036 212.827 110.272L213.823 113.337C213.994 113.864 213.391 114.301 212.943 113.976L210.336 112.081C210.135 111.936 209.864 111.936 209.664 112.081L207.056 113.976C206.608 114.301 206.006 113.864 206.177 113.337L207.173 110.272C207.249 110.036 207.166 109.778 206.965 109.633L204.358 107.738C203.91 107.413 204.14 106.704 204.694 106.704H207.917C208.164 106.704 208.384 106.545 208.46 106.309L209.456 103.244Z" fill="white"/>
<path d="M224.314 103.244C224.485 102.717 225.23 102.717 225.401 103.244L226.397 106.309C226.473 106.545 226.693 106.704 226.94 106.704H230.164C230.717 106.704 230.947 107.413 230.499 107.738L227.892 109.633C227.691 109.778 227.608 110.036 227.684 110.272L228.68 113.337C228.851 113.864 228.249 114.301 227.801 113.976L225.193 112.081C224.993 111.936 224.722 111.936 224.521 112.081L221.914 113.976C221.466 114.301 220.863 113.864 221.034 113.337L222.03 110.272C222.107 110.036 222.023 109.778 221.823 109.633L219.215 107.738C218.767 107.413 218.997 106.704 219.551 106.704H222.774C223.022 106.704 223.241 106.545 223.318 106.309L224.314 103.244Z" fill="white"/>
<path d="M239.17 103.244C239.341 102.717 240.086 102.717 240.257 103.244L241.253 106.309C241.33 106.545 241.549 106.704 241.797 106.704H245.02C245.574 106.704 245.804 107.413 245.356 107.738L242.748 109.633C242.548 109.778 242.464 110.036 242.541 110.272L243.537 113.337C243.708 113.864 243.105 114.301 242.657 113.976L240.05 112.081C239.849 111.936 239.578 111.936 239.378 112.081L236.77 113.976C236.322 114.301 235.72 113.864 235.891 113.337L236.887 110.272C236.963 110.036 236.88 109.778 236.679 109.633L234.072 107.738C233.624 107.413 233.854 106.704 234.407 106.704H237.631C237.878 106.704 238.098 106.545 238.174 106.309L239.17 103.244Z" fill="white"/>
<path d="M254.028 103.244C254.199 102.717 254.944 102.717 255.115 103.244L256.111 106.309C256.187 106.545 256.407 106.704 256.654 106.704H259.877C260.431 106.704 260.661 107.413 260.213 107.738L257.606 109.633C257.405 109.778 257.322 110.036 257.398 110.272L258.394 113.337C258.565 113.864 257.963 114.301 257.515 113.976L254.907 112.081C254.707 111.936 254.436 111.936 254.235 112.081L251.628 113.976C251.18 114.301 250.577 113.864 250.748 113.337L251.744 110.272C251.821 110.036 251.737 109.778 251.537 109.633L248.929 107.738C248.481 107.413 248.711 106.704 249.265 106.704H252.488C252.736 106.704 252.955 106.545 253.032 106.309L254.028 103.244Z" fill="white"/>
</g>
</g>
<defs>
<filter id="filter0_di_675_3622" x="11" y="17" width="105.714" height="44" filterUnits="userSpaceOnUse" color-interpolation-filters="sRGB">
<feFlood flood-opacity="0" result="BackgroundImageFix"/>
<feColorMatrix in="SourceAlpha" type="matrix" values="0 0 0 0 0 0 0 0 0 0 0 0 0 0 0 0 0 0 127 0" result="hardAlpha"/>
<feOffset dx="4" dy="4"/>
<feGaussianBlur stdDeviation="5"/>
<feComposite in2="hardAlpha" operator="out"/>
<feColorMatrix type="matrix" values="0 0 0 0 0.57066 0 0 0 0 0.660764 0 0 0 0 0.720833 0 0 0 0.8 0"/>
<feBlend mode="normal" in2="BackgroundImageFix" result="effect1_dropShadow_675_3622"/>
<feBlend mode="normal" in="SourceGraphic" in2="effect1_dropShadow_675_3622" result="shape"/>
<feColorMatrix in="SourceAlpha" type="matrix" values="0 0 0 0 0 0 0 0 0 0 0 0 0 0 0 0 0 0 127 0" result="hardAlpha"/>
<feOffset dy="4"/>
<feGaussianBlur stdDeviation="2"/>
<feComposite in2="hardAlpha" operator="arithmetic" k2="-1" k3="1"/>
<feColorMatrix type="matrix" values="0 0 0 0 1 0 0 0 0 1 0 0 0 0 1 0 0 0 0.25 0"/>
<feBlend mode="overlay" in2="shape" result="effect2_innerShadow_675_3622"/>
</filter>
<filter id="filter1_di_675_3622" x="176" y="91" width="105.714" height="44" filterUnits="userSpaceOnUse" color-interpolation-filters="sRGB">
<feFlood flood-opacity="0" result="BackgroundImageFix"/>
<feColorMatrix in="SourceAlpha" type="matrix" values="0 0 0 0 0 0 0 0 0 0 0 0 0 0 0 0 0 0 127 0" result="hardAlpha"/>
<feOffset dx="4" dy="4"/>
<feGaussianBlur stdDeviation="5"/>
<feComposite in2="hardAlpha" operator="out"/>
<feColorMatrix type="matrix" values="0 0 0 0 0.28066 0 0 0 0 0.454764 0 0 0 0 0.570833 0 0 0 0.8 0"/>
<feBlend mode="normal" in2="BackgroundImageFix" result="effect1_dropShadow_675_3622"/>
<feBlend mode="normal" in="SourceGraphic" in2="effect1_dropShadow_675_3622" result="shape"/>
<feColorMatrix in="SourceAlpha" type="matrix" values="0 0 0 0 0 0 0 0 0 0 0 0 0 0 0 0 0 0 127 0" result="hardAlpha"/>
<feOffset dy="4"/>
<feGaussianBlur stdDeviation="2"/>
<feComposite in2="hardAlpha" operator="arithmetic" k2="-1" k3="1"/>
<feColorMatrix type="matrix" values="0 0 0 0 1 0 0 0 0 1 0 0 0 0 1 0 0 0 0.25 0"/>
<feBlend mode="overlay" in2="shape" result="effect2_innerShadow_675_3622"/>
</filter>
<linearGradient id="paint0_linear_675_3622" x1="111.661" y1="-48" x2="235.079" y2="174.959" gradientUnits="userSpaceOnUse">
<stop offset="0.0064921" stop-color="#F0F5F8"/>
<stop offset="1" stop-color="#19527A"/>
</linearGradient>
<linearGradient id="paint1_linear_675_3622" x1="78.7402" y1="76.0041" x2="66.9384" y2="124.125" gradientUnits="userSpaceOnUse">
<stop stop-color="#B4CEDC"/>
<stop offset="1" stop-color="white"/>
</linearGradient>
<linearGradient id="paint2_linear_675_3622" x1="72.2056" y1="107.905" x2="66.5806" y2="120.326" gradientUnits="userSpaceOnUse">
<stop stop-color="#A6C5D3"/>
<stop offset="1" stop-color="#E4EDF1"/>
</linearGradient>
<linearGradient id="paint3_linear_675_3622" x1="73.2414" y1="98.4261" x2="63.6806" y2="137.41" gradientUnits="userSpaceOnUse">
<stop stop-color="#79A6BB"/>
<stop offset="1" stop-color="#E8F0F4"/>
</linearGradient>
<linearGradient id="paint4_linear_675_3622" x1="32.2831" y1="27.8263" x2="44.0088" y2="98.2318" gradientUnits="userSpaceOnUse">
<stop stop-color="#ABC1CF"/>
<stop offset="1" stop-color="white" stop-opacity="0"/>
</linearGradient>
<linearGradient id="paint5_linear_675_3622" x1="167.71" y1="22.1446" x2="172" y2="54.5107" gradientUnits="userSpaceOnUse">
<stop stop-color="#79A6BB"/>
<stop offset="1" stop-color="#E8F0F4"/>
</linearGradient>
<linearGradient id="paint6_linear_675_3622" x1="166.569" y1="13.5404" x2="182.499" y2="130" gradientUnits="userSpaceOnUse">
<stop stop-color="#D2E3EB"/>
<stop offset="1" stop-color="#FDFEFF"/>
</linearGradient>
<linearGradient id="paint7_linear_675_3622" x1="197.283" y1="101.826" x2="203.504" y2="132.226" gradientUnits="userSpaceOnUse">
<stop stop-color="white" stop-opacity="0.52"/>
<stop offset="1" stop-color="white" stop-opacity="0"/>
</linearGradient>
</defs>
</svg>
