<svg width="275" height="130" viewBox="0 0 275 130" fill="none" xmlns="http://www.w3.org/2000/svg">
<path d="M0 16C0 7.16344 6.61056 0 14.7651 0H260.235C268.389 0 275 7.16344 275 16V114C275 122.837 268.389 130 260.235 130H14.7651C6.61056 130 0 122.837 0 114V16Z" fill="url(#paint0_linear_675_4977)"/>
<mask id="mask0_675_4977" style="mask-type:alpha" maskUnits="userSpaceOnUse" x="0" y="0" width="275" height="130">
<path d="M0 13.6646C0 6.11785 6.11785 0 13.6646 0H261.335C268.882 0 275 6.11785 275 13.6646V116.335C275 123.882 268.882 130 261.335 130H13.6646C6.11786 130 0 123.882 0 116.335V13.6646Z" fill="white"/>
</mask>
<g mask="url(#mask0_675_4977)">
<path d="M177.092 99.471L180.892 99.994C182.231 100.178 183.319 101.128 183.832 102.378C184.35 103.64 184.259 105.102 183.435 106.188L181.134 109.222C180.628 109.895 180.696 110.822 181.285 111.428L187.752 117.895C188.341 118.484 189.284 118.551 189.958 118.046L192.991 115.745C194.077 114.921 195.54 114.83 196.801 115.347C198.052 115.861 199.001 116.949 199.186 118.288L199.709 122.088C199.827 122.913 200.551 123.536 201.376 123.536H210.537C211.362 123.536 212.086 122.913 212.204 122.088L212.727 118.288C212.912 116.949 213.861 115.861 215.112 115.347C216.373 114.83 217.836 114.921 218.922 115.745L221.955 118.046C222.629 118.551 223.572 118.484 224.161 117.895L230.628 111.428C231.217 110.822 231.285 109.895 230.78 109.222L228.478 106.188C227.654 105.102 227.563 103.64 228.081 102.378C228.594 101.128 229.682 100.178 231.021 99.994L234.821 99.471C235.646 99.3531 236.27 98.629 236.27 97.8038V88.6425C236.27 87.8173 235.646 87.0932 234.821 86.9753L231.021 86.4523C229.682 86.2679 228.594 85.3187 228.081 84.0681C227.563 82.8068 227.654 81.344 228.478 80.2579L230.78 77.2246C231.285 76.551 231.217 75.6248 230.628 75.0185L224.161 68.5517C223.572 67.9623 222.629 67.895 221.955 68.4002L218.922 70.7016C217.836 71.5257 216.373 71.6165 215.112 71.0988C213.861 70.5855 212.912 69.4978 212.727 68.1585L212.204 64.3584C212.086 63.5333 211.362 62.9102 210.537 62.9102H201.376C200.551 62.9102 199.827 63.5333 199.709 64.3584L199.186 68.1585C199.001 69.4978 198.052 70.5855 196.801 71.0988C195.54 71.6165 194.077 71.5257 192.991 70.7016L189.958 68.4002C189.284 67.895 188.341 67.9623 187.752 68.5517L181.285 75.0185C180.696 75.6248 180.628 76.551 181.134 77.2246L183.435 80.2579C184.259 81.344 184.35 82.8068 183.832 84.0681C183.319 85.3187 182.231 86.2679 180.892 86.4523L177.092 86.9753C176.267 87.0932 175.644 87.8173 175.644 88.6425V97.8038C175.644 98.629 176.267 99.3531 177.092 99.471ZM191.676 93.2231C191.676 85.3418 198.075 78.9424 205.957 78.9424C213.838 78.9424 220.237 85.3418 220.237 93.2231C220.237 101.105 213.838 107.504 205.957 107.504C198.075 107.504 191.676 101.105 191.676 93.2231Z" fill="url(#paint1_linear_675_4977)"/>
<path d="M156.883 102.688L163.445 103.593C166.129 103.964 168.29 105.915 169.327 108.418C170.358 110.908 170.199 113.789 168.571 115.937L164.562 121.229C164.057 121.886 164.124 122.829 164.714 123.435L175.744 134.466C176.351 135.055 177.277 135.123 177.95 134.617L183.242 130.608C185.39 128.981 188.272 128.821 190.762 129.852C193.265 130.889 195.216 133.051 195.586 135.735L196.492 142.297C196.61 143.122 197.317 143.745 198.159 143.745H213.753C214.595 143.745 215.303 143.122 215.421 142.297L216.326 135.735C216.697 133.051 218.648 130.889 221.151 129.852C223.641 128.821 226.522 128.981 228.67 130.608L233.962 134.617C234.636 135.123 235.562 135.055 236.168 134.466L247.199 123.435C247.788 122.829 247.855 121.886 247.35 121.229L243.341 115.937C241.714 113.789 241.554 110.908 242.585 108.418C243.622 105.915 245.784 103.964 248.467 103.593L255.03 102.688C255.855 102.57 256.478 101.863 256.478 101.02V85.4261C256.478 84.5841 255.855 83.8768 255.03 83.7589L248.467 82.8531C245.784 82.4826 243.622 80.5316 242.585 78.0287C241.554 75.5388 241.714 72.6574 243.341 70.5093L247.35 65.2175C247.855 64.5607 247.788 63.6176 247.199 63.0114L236.168 51.9808C235.562 51.3914 234.636 51.324 233.962 51.8292L228.67 55.8385C226.522 57.466 223.641 57.6256 221.151 56.5941C218.648 55.5572 216.697 53.3958 216.326 50.712L215.421 44.1499C215.303 43.3248 214.595 42.7017 213.753 42.7017H198.159C197.317 42.7017 196.61 43.3248 196.492 44.1499L195.586 50.712C195.216 53.3958 193.265 55.5572 190.762 56.5941C188.272 57.6256 185.39 57.466 183.242 55.8385L177.95 51.8292C177.277 51.324 176.351 51.3914 175.744 51.9808L164.714 63.0114C164.124 63.6176 164.057 64.5607 164.562 65.2175L168.571 70.5093C170.199 72.6574 170.358 75.5388 169.327 78.0287C168.29 80.5316 166.129 82.4826 163.445 82.8531L156.883 83.7589C156.058 83.8768 155.435 84.5841 155.435 85.4261V101.02C155.435 101.863 156.058 102.57 156.883 102.688ZM158.803 93.2233C158.803 89.5942 161.48 86.5215 165.075 86.0251L169.412 85.4261C170.103 85.3251 170.642 84.8367 170.827 84.1631C171.669 80.8623 172.982 77.6963 174.7 74.7829C175.054 74.1935 175.02 73.4525 174.599 72.8968L171.957 69.4087C169.765 66.5144 170.045 62.4464 172.612 59.879C175.179 57.3117 179.247 57.0322 182.142 59.2243L185.63 61.8662C186.185 62.2872 186.926 62.3209 187.516 61.9672C190.429 60.2495 193.595 58.9359 196.896 58.0939C197.57 57.9087 198.058 57.3698 198.159 56.6793L198.758 52.3423C199.254 48.7473 202.327 46.0698 205.956 46.0698C209.585 46.0698 212.658 48.7473 213.154 52.3423L213.753 56.6793C213.854 57.3698 214.343 57.9087 215.016 58.0939C218.317 58.9359 221.483 60.2495 224.397 61.9672C224.986 62.3209 225.727 62.2872 226.283 61.8662L229.771 59.2244C232.665 57.0322 236.733 57.3117 239.3 59.879C241.868 62.4464 242.147 66.5144 239.955 69.4087L237.313 72.8968C236.892 73.4525 236.859 74.1935 237.212 74.7829C238.93 77.6963 240.244 80.8623 241.086 84.1631C241.271 84.8367 241.81 85.3251 242.5 85.4261L246.837 86.0251C250.432 86.5215 253.11 89.5942 253.11 93.2233C253.11 96.8524 250.432 99.9251 246.837 100.422L242.5 101.02C241.81 101.122 241.271 101.61 241.086 102.284C240.244 105.584 238.93 108.75 237.212 111.664C236.859 112.253 236.892 112.994 237.313 113.55L239.955 117.038C242.147 119.932 241.868 124 239.3 126.568C236.733 129.135 232.665 129.414 229.771 127.222L226.283 124.58C226.015 124.376 225.692 124.258 225.355 124.24C225.019 124.221 224.685 124.305 224.397 124.479C221.483 126.197 218.317 127.511 215.016 128.353C214.343 128.538 213.854 129.077 213.753 129.767L213.154 134.104C212.658 137.699 209.585 140.377 205.956 140.377C202.327 140.377 199.254 137.699 198.758 134.104L198.159 129.767C198.058 129.077 197.57 128.538 196.896 128.353C193.595 127.511 190.429 126.197 187.516 124.479C187.228 124.305 186.894 124.221 186.557 124.24C186.221 124.258 185.898 124.376 185.63 124.58L182.142 127.222C179.247 129.414 175.179 129.135 172.612 126.568C170.045 124 169.765 119.932 171.957 117.038L174.599 113.55C175.02 112.994 175.054 112.253 174.7 111.664C172.982 108.75 171.669 105.584 170.827 102.284C170.642 101.61 170.103 101.122 169.412 101.02L165.075 100.422C161.48 99.9251 158.803 96.8524 158.803 93.2233Z" fill="url(#paint2_linear_675_4977)"/>
<path d="M31.7249 20.3364L34.7441 20.7519C35.8081 20.8984 36.6723 21.6526 37.0802 22.6462C37.4915 23.6483 37.4193 24.8105 36.7646 25.6734L34.9361 28.0833C34.5347 28.6185 34.5882 29.3544 35.0565 29.8361L40.1944 34.974C40.6627 35.4423 41.412 35.4958 41.9471 35.0944L44.3571 33.2659C45.22 32.6111 46.3822 32.539 47.3843 32.9503C48.3779 33.3582 49.1321 34.2224 49.2786 35.2864L49.6941 38.3056C49.7878 38.9612 50.3631 39.4563 51.0187 39.4563H58.2974C58.953 39.4563 59.5284 38.9612 59.622 38.3056L60.0376 35.2864C60.184 34.2224 60.9382 33.3582 61.9318 32.9503C62.9339 32.539 64.0961 32.6111 64.9591 33.2659L67.369 35.0944C67.9042 35.4958 68.6535 35.4423 69.1218 34.974L74.2597 29.8361C74.7279 29.3544 74.7815 28.6185 74.3801 28.0833L72.5516 25.6734C71.8968 24.8105 71.8246 23.6483 72.236 22.6462C72.6438 21.6526 73.508 20.8984 74.5721 20.7519L77.5912 20.3364C78.2469 20.2427 78.7419 19.6674 78.7419 19.0118V11.7331C78.7419 11.0775 78.2469 10.5021 77.5912 10.4085L74.5721 9.99291C73.508 9.84646 72.6438 9.09229 72.236 8.09867C71.8246 7.09655 71.8968 5.93439 72.5516 5.07143L74.3801 2.6615C74.7815 2.12631 74.7279 1.39041 74.2597 0.908735L69.1218 -4.22915C68.6535 -4.69745 67.9042 -4.75097 67.369 -4.34957L64.9591 -2.52106C64.0961 -1.8663 62.9339 -1.79415 61.9318 -2.20549C60.9382 -2.61334 60.184 -3.47752 60.0376 -4.54156L59.622 -7.56075C59.5284 -8.21637 58.953 -8.71143 58.2974 -8.71143H51.0187C50.3631 -8.71143 49.7878 -8.21637 49.6941 -7.56075L49.2786 -4.54156C49.1321 -3.47752 48.3779 -2.61334 47.3843 -2.20549C46.3822 -1.79415 45.22 -1.8663 44.3571 -2.52106L41.9471 -4.34957C41.412 -4.75097 40.6627 -4.69745 40.1944 -4.22915L35.0565 0.908735C34.5882 1.39041 34.5347 2.12631 34.9361 2.6615L36.7646 5.07143C37.4193 5.93439 37.4915 7.09655 37.0802 8.09867C36.6723 9.09229 35.8081 9.84646 34.7441 9.99291L31.7249 10.4085C31.0693 10.5021 30.5742 11.0775 30.5742 11.7331V19.0118C30.5742 19.6674 31.0693 20.2427 31.7249 20.3364ZM43.3119 15.3724C43.3119 9.11062 48.3963 4.02626 54.6581 4.02626C60.9199 4.02626 66.0042 9.11062 66.0042 15.3724C66.0042 21.6342 60.9199 26.7186 54.6581 26.7186C48.3963 26.7186 43.3119 21.6342 43.3119 15.3724Z" fill="url(#paint3_linear_675_4977)"/>
<path d="M15.6692 22.8922L20.8828 23.6118C23.0151 23.9062 24.7324 25.4563 25.5562 27.4449C26.3757 29.4231 26.2489 31.7124 24.9559 33.4191L21.7705 37.6235C21.3691 38.1453 21.4226 38.8946 21.8909 39.3762L30.6547 48.1401C31.1364 48.6084 31.8723 48.6619 32.4075 48.2605L36.6119 45.0751C38.3186 43.7821 40.6079 43.6553 42.5861 44.4748C44.5747 45.2986 46.1248 47.0159 46.4191 49.1481L47.1388 54.3617C47.2325 55.0174 47.7944 55.5124 48.4634 55.5124H60.8532C61.5222 55.5124 62.0842 55.0174 62.1778 54.3617L62.8975 49.1481C63.1918 47.0159 64.7419 45.2986 66.7305 44.4748C68.7087 43.6553 70.998 43.7821 72.7047 45.0751L76.9091 48.2605C77.4443 48.6619 78.1802 48.6084 78.6619 48.1401L87.4257 39.3762C87.894 38.8946 87.9475 38.1453 87.5461 37.6235L84.3608 33.4191C83.0677 31.7124 82.9409 29.4231 83.7604 27.4449C84.5842 25.4563 86.3015 23.9062 88.4338 23.6118L93.6474 22.8922C94.303 22.7985 94.7981 22.2366 94.7981 21.5676V9.17776C94.7981 8.50877 94.303 7.94681 93.6474 7.85315L88.4338 7.13348C86.3015 6.83915 84.5842 5.28906 83.7604 3.30046C82.9409 1.32225 83.0677 -0.967041 84.3608 -2.67375L87.5461 -6.87814C87.9475 -7.39996 87.894 -8.14923 87.4257 -8.63091L78.6619 -17.3948C78.1802 -17.8631 77.4443 -17.9166 76.9091 -17.5152L72.7047 -14.3298C70.998 -13.0367 68.7087 -12.9099 66.7305 -13.7294C64.7419 -14.5533 63.1918 -16.2705 62.8975 -18.4028L62.1778 -23.6164C62.0842 -24.272 61.5222 -24.7671 60.8532 -24.7671H48.4634C47.7944 -24.7671 47.2325 -24.272 47.1388 -23.6164L46.4191 -18.4028C46.1248 -16.2705 44.5747 -14.5533 42.5861 -13.7294C40.6079 -12.9099 38.3186 -13.0367 36.6119 -14.3298L32.4075 -17.5152C31.8723 -17.9166 31.1364 -17.8631 30.6547 -17.3948L21.8909 -8.63091C21.4226 -8.14923 21.3691 -7.39996 21.7705 -6.87814L24.9559 -2.67375C26.2489 -0.967041 26.3757 1.32225 25.5562 3.30045C24.7324 5.28906 23.0151 6.83915 20.8828 7.13348L15.6692 7.85315C15.0136 7.94681 14.5186 8.50877 14.5186 9.17776V21.5676C14.5186 22.2366 15.0136 22.7985 15.6692 22.8922ZM17.1945 15.3727C17.1945 12.4893 19.3219 10.048 22.1781 9.65361L25.6239 9.17776C26.1725 9.09748 26.6006 8.70947 26.7478 8.17427C27.4168 5.5518 28.4604 3.03638 29.8252 0.721651C30.1062 0.253355 30.0794 -0.335361 29.7449 -0.776897L27.6459 -3.54819C25.9042 -5.84776 26.1263 -9.07979 28.1661 -11.1196C30.2059 -13.1594 33.4379 -13.3814 35.7375 -11.6397L38.5087 -9.54074C38.9503 -9.20625 39.539 -9.17949 40.0073 -9.46047C42.322 -10.8252 44.8374 -11.8688 47.4599 -12.5378C47.9951 -12.685 48.3831 -13.1132 48.4634 -13.6618L48.9393 -17.1075C49.3337 -19.9638 51.775 -22.0911 54.6583 -22.0911C57.5416 -22.0911 59.9829 -19.9638 60.3774 -17.1076L60.8532 -13.6618C60.9335 -13.1132 61.3215 -12.685 61.8567 -12.5378C64.4792 -11.8688 66.9946 -10.8252 69.3093 -9.46047C69.7776 -9.17949 70.3663 -9.20625 70.8079 -9.54074L73.5792 -11.6397C75.8787 -13.3814 79.1108 -13.1594 81.1505 -11.1196C83.1903 -9.07979 83.4124 -5.84776 81.6707 -3.54819L79.5717 -0.776897C79.2372 -0.335361 79.2105 0.253355 79.4914 0.721651C80.8562 3.03638 81.8998 5.5518 82.5688 8.17427C82.716 8.70947 83.1441 9.09748 83.6927 9.17776L87.1385 9.65361C89.9948 10.048 92.1221 12.4893 92.1221 15.3727C92.1221 18.256 89.9948 20.6973 87.1385 21.0917L83.6927 21.5676C83.1441 21.6478 82.716 22.0359 82.5688 22.5711C81.8998 25.1935 80.8562 27.7089 79.4914 30.0237C79.2105 30.492 79.2372 31.0807 79.5717 31.5222L81.6707 34.2935C83.4124 36.5931 83.1903 39.8251 81.1505 41.8649C79.1108 43.9047 75.8787 44.1267 73.5792 42.385L70.8079 40.2861C70.595 40.1239 70.3382 40.0295 70.0709 40.0152C69.8037 40.0009 69.5383 40.0673 69.3093 40.2058C66.9946 41.5705 64.4792 42.6142 61.8567 43.2832C61.3215 43.4304 60.9335 43.8585 60.8532 44.4071L60.3774 47.8529C59.9829 50.7091 57.5416 52.8364 54.6583 52.8364C51.775 52.8364 49.3337 50.7091 48.9393 47.8529L48.4634 44.4071C48.3831 43.8585 47.9951 43.4304 47.4599 43.2832C44.8374 42.6142 42.322 41.5705 40.0073 40.2058C39.7783 40.0673 39.5129 40.0009 39.2457 40.0152C38.9784 40.0295 38.7217 40.1239 38.5087 40.2861L35.7375 42.385C33.4379 44.1267 30.2059 43.9047 28.1661 41.8649C26.1263 39.8251 25.9042 36.5931 27.6459 34.2935L29.7449 31.5222C30.0794 31.0807 30.1062 30.492 29.8252 30.0237C28.4604 27.7089 27.4168 25.1935 26.7478 22.5711C26.6006 22.0359 26.1725 21.6478 25.6239 21.5676L22.1781 21.0917C19.3219 20.6973 17.1945 18.256 17.1945 15.3727Z" fill="url(#paint4_linear_675_4977)"/>
</g>
<defs>
<linearGradient id="paint0_linear_675_4977" x1="111.661" y1="-48" x2="235.079" y2="174.959" gradientUnits="userSpaceOnUse">
<stop offset="0.0064921" stop-color="#F0F5F8"/>
<stop offset="1" stop-color="#19527A"/>
</linearGradient>
<linearGradient id="paint1_linear_675_4977" x1="186.453" y1="75.1018" x2="224.568" y2="127.254" gradientUnits="userSpaceOnUse">
<stop stop-color="white" stop-opacity="0.52"/>
<stop offset="1" stop-color="white" stop-opacity="0"/>
</linearGradient>
<linearGradient id="paint2_linear_675_4977" x1="173.451" y1="63.0211" x2="236.975" y2="149.941" gradientUnits="userSpaceOnUse">
<stop stop-color="white" stop-opacity="0.52"/>
<stop offset="1" stop-color="white" stop-opacity="0"/>
</linearGradient>
<linearGradient id="paint3_linear_675_4977" x1="39.1627" y1="0.974903" x2="69.4447" y2="42.4102" gradientUnits="userSpaceOnUse">
<stop stop-color="white" stop-opacity="0.52"/>
<stop offset="1" stop-color="white" stop-opacity="0"/>
</linearGradient>
<linearGradient id="paint4_linear_675_4977" x1="28.8327" y1="-8.62321" x2="79.3027" y2="60.4356" gradientUnits="userSpaceOnUse">
<stop stop-color="white" stop-opacity="0.52"/>
<stop offset="1" stop-color="white" stop-opacity="0"/>
</linearGradient>
</defs>
</svg>
