<svg width="275" height="130" viewBox="0 0 275 130" fill="none" xmlns="http://www.w3.org/2000/svg">
<path d="M0 16C0 7.16344 6.61056 0 14.7651 0H260.235C268.389 0 275 7.16344 275 16V114C275 122.837 268.389 130 260.235 130H14.7651C6.61056 130 0 122.837 0 114V16Z" fill="url(#paint0_linear_675_2388)"/>
<mask id="mask0_675_2388" style="mask-type:alpha" maskUnits="userSpaceOnUse" x="0" y="0" width="275" height="130">
<path d="M0 13.6646C0 6.11785 6.11785 0 13.6646 0H261.335C268.882 0 275 6.11785 275 13.6646V116.335C275 123.882 268.882 130 261.335 130H13.6646C6.11786 130 0 123.882 0 116.335V13.6646Z" fill="white"/>
</mask>
<g mask="url(#mask0_675_2388)">
<path d="M56.9185 50.2099C56.2344 45.8309 52.438 42.4699 47.8697 42.4699C46.1512 42.4699 44.4998 42.9454 43.0674 43.8322C40.8883 40.17 36.9653 37.8911 32.6072 37.8911C25.8746 37.8911 20.3971 43.3686 20.3971 50.1012C20.3971 50.1429 20.3971 50.1861 20.3986 50.2279C16.0717 50.9567 12.6641 54.7291 12.6641 59.2587C12.6641 64.3085 16.8736 68.4163 21.9234 68.4163H55.501C60.5508 68.4163 64.7603 64.3085 64.7603 59.2587C64.7603 54.6904 61.2976 50.8941 56.9185 50.2099Z" fill="url(#paint1_linear_675_2388)"/>
<path d="M38.7119 63.9395V78.0311H180.055" stroke="#DDE6EC" stroke-width="0.854037" stroke-dasharray="2.56 2.56"/>
<path d="M97.2139 42.5884V51.1288H131.802" stroke="#DDE6EC" stroke-width="0.854037" stroke-dasharray="2.56 2.56"/>
<path d="M111.739 29.7717C111.241 26.5862 108.48 24.1413 105.157 24.1413C103.906 24.1413 102.705 24.4872 101.663 25.1323C100.078 22.4683 97.2244 20.8105 94.0541 20.8105C89.1567 20.8105 85.1721 24.7951 85.1721 29.6925C85.1721 29.7229 85.1721 29.7543 85.1732 29.7847C82.0257 30.3149 79.5469 33.059 79.5469 36.354C79.5469 40.0274 82.609 43.0155 86.2824 43.0155H110.708C114.381 43.0155 117.443 40.0274 117.443 36.354C117.443 33.0309 114.924 30.2693 111.739 29.7717Z" fill="url(#paint2_linear_675_2388)"/>
<path d="M91.8278 97.2404C91.3302 94.055 88.5686 91.61 85.2455 91.61C83.9953 91.61 82.794 91.9559 81.7521 92.6011C80.167 89.937 77.3133 88.2793 74.143 88.2793C69.2455 88.2793 65.261 92.2638 65.261 97.1613C65.261 97.1916 65.261 97.2231 65.2621 97.2534C62.1146 97.7836 59.6357 100.528 59.6357 103.823C59.6357 107.496 62.6979 110.484 66.3712 110.484H90.7967C94.4701 110.484 97.5322 107.496 97.5322 103.823C97.5322 100.5 95.0133 97.7381 91.8278 97.2404Z" fill="url(#paint3_linear_675_2388)"/>
<path d="M97.2129 102.798L132.228 102.798" stroke="#DDE6EC" stroke-width="0.854037" stroke-dasharray="2.56 2.56"/>
<g opacity="0.9">
<g filter="url(#filter0_di_675_2388)">
<rect x="180.056" y="66.0747" width="73.2032" height="20.4969" rx="10.2484" fill="url(#paint4_linear_675_2388)" shape-rendering="crispEdges"/>
<path d="M190.816 71.4075C190.962 70.9578 191.598 70.9578 191.744 71.4075L192.595 74.0256C192.66 74.2267 192.847 74.3628 193.059 74.3628H195.812C196.284 74.3628 196.481 74.9678 196.098 75.2456L193.871 76.8637C193.7 76.988 193.629 77.2083 193.694 77.4093L194.545 80.0274C194.691 80.4771 194.176 80.851 193.794 80.5731L191.567 78.955C191.396 78.8307 191.164 78.8307 190.993 78.955L188.766 80.5731C188.383 80.851 187.869 80.4771 188.015 80.0274L188.866 77.4093C188.931 77.2083 188.859 76.988 188.688 76.8637L186.461 75.2456C186.079 74.9677 186.275 74.3628 186.748 74.3628H189.501C189.712 74.3628 189.9 74.2267 189.965 74.0256L190.816 71.4075Z" fill="white"/>
<path d="M203.504 71.4075C203.65 70.9578 204.286 70.9578 204.432 71.4075L205.283 74.0256C205.348 74.2267 205.536 74.3628 205.747 74.3628H208.5C208.973 74.3628 209.169 74.9678 208.787 75.2456L206.56 76.8637C206.389 76.988 206.317 77.2083 206.383 77.4093L207.233 80.0274C207.379 80.4771 206.865 80.851 206.482 80.5731L204.255 78.955C204.084 78.8307 203.852 78.8307 203.681 78.955L201.454 80.5731C201.072 80.851 200.557 80.4771 200.703 80.0274L201.554 77.4093C201.619 77.2083 201.548 76.988 201.377 76.8637L199.15 75.2456C198.767 74.9677 198.964 74.3628 199.437 74.3628H202.189C202.401 74.3628 202.588 74.2267 202.653 74.0256L203.504 71.4075Z" fill="white"/>
<path d="M216.193 71.4075C216.339 70.9578 216.975 70.9578 217.121 71.4075L217.972 74.0256C218.037 74.2267 218.224 74.3628 218.436 74.3628H221.189C221.661 74.3628 221.858 74.9678 221.475 75.2456L219.248 76.8637C219.077 76.988 219.006 77.2083 219.071 77.4093L219.922 80.0274C220.068 80.4771 219.553 80.851 219.171 80.5731L216.944 78.955C216.773 78.8307 216.541 78.8307 216.37 78.955L214.143 80.5731C213.76 80.851 213.246 80.4771 213.392 80.0274L214.243 77.4093C214.308 77.2083 214.236 76.988 214.065 76.8637L211.838 75.2456C211.456 74.9677 211.652 74.3628 212.125 74.3628H214.878C215.089 74.3628 215.277 74.2267 215.342 74.0256L216.193 71.4075Z" fill="white"/>
<path d="M228.882 71.4075C229.028 70.9578 229.664 70.9578 229.81 71.4075L230.661 74.0256C230.726 74.2267 230.914 74.3628 231.125 74.3628H233.878C234.351 74.3628 234.547 74.9678 234.165 75.2456L231.938 76.8637C231.767 76.988 231.695 77.2083 231.76 77.4093L232.611 80.0274C232.757 80.4771 232.243 80.851 231.86 80.5731L229.633 78.955C229.462 78.8307 229.23 78.8307 229.059 78.955L226.832 80.5731C226.45 80.851 225.935 80.4771 226.081 80.0274L226.932 77.4093C226.997 77.2083 226.926 76.988 226.755 76.8637L224.528 75.2456C224.145 74.9677 224.342 74.3628 224.814 74.3628H227.567C227.779 74.3628 227.966 74.2267 228.031 74.0256L228.882 71.4075Z" fill="white"/>
<path d="M241.571 71.4075C241.717 70.9578 242.353 70.9578 242.499 71.4075L243.35 74.0256C243.415 74.2267 243.602 74.3628 243.814 74.3628H246.566C247.039 74.3628 247.236 74.9678 246.853 75.2456L244.626 76.8637C244.455 76.988 244.384 77.2083 244.449 77.4093L245.3 80.0274C245.446 80.4771 244.931 80.851 244.549 80.5731L242.322 78.955C242.151 78.8307 241.919 78.8307 241.748 78.955L239.521 80.5731C239.138 80.851 238.624 80.4771 238.77 80.0274L239.62 77.4093C239.686 77.2083 239.614 76.988 239.443 76.8637L237.216 75.2456C236.834 74.9677 237.03 74.3628 237.503 74.3628H240.256C240.467 74.3628 240.655 74.2267 240.72 74.0256L241.571 71.4075Z" fill="white"/>
</g>
<g filter="url(#filter1_di_675_2388)">
<rect x="258.627" y="66.0747" width="73.2032" height="20.4969" rx="10.2484" fill="url(#paint5_linear_675_2388)" shape-rendering="crispEdges"/>
<path d="M269.387 71.4075C269.533 70.9578 270.169 70.9578 270.315 71.4075L271.166 74.0256C271.231 74.2267 271.419 74.3628 271.63 74.3628H274.383C274.856 74.3628 275.052 74.9678 274.67 75.2456L272.443 76.8637C272.272 76.988 272.2 77.2083 272.265 77.4093L273.116 80.0274C273.262 80.4771 272.748 80.851 272.365 80.5731L270.138 78.955C269.967 78.8307 269.735 78.8307 269.564 78.955L267.337 80.5731C266.955 80.851 266.44 80.4771 266.586 80.0274L267.437 77.4093C267.502 77.2083 267.431 76.988 267.26 76.8637L265.032 75.2456C264.65 74.9677 264.847 74.3628 265.319 74.3628H268.072C268.284 74.3628 268.471 74.2267 268.536 74.0256L269.387 71.4075Z" fill="white"/>
</g>
</g>
<g opacity="0.9">
<g filter="url(#filter2_di_675_2388)">
<rect x="180.056" y="14.8325" width="73.2032" height="20.4969" rx="10.2484" fill="url(#paint6_linear_675_2388)" shape-rendering="crispEdges"/>
<path d="M190.816 20.1653C190.962 19.7157 191.598 19.7157 191.744 20.1653L192.595 22.7834C192.66 22.9845 192.847 23.1206 193.059 23.1206H195.812C196.284 23.1206 196.481 23.7256 196.098 24.0034L193.871 25.6215C193.7 25.7458 193.629 25.9661 193.694 26.1671L194.545 28.7853C194.691 29.2349 194.176 29.6088 193.794 29.3309L191.567 27.7128C191.396 27.5885 191.164 27.5885 190.993 27.7128L188.766 29.3309C188.383 29.6088 187.869 29.2349 188.015 28.7853L188.866 26.1671C188.931 25.9661 188.859 25.7458 188.688 25.6215L186.461 24.0034C186.079 23.7256 186.275 23.1206 186.748 23.1206H189.501C189.712 23.1206 189.9 22.9845 189.965 22.7834L190.816 20.1653Z" fill="white"/>
<path d="M203.504 20.1653C203.65 19.7157 204.286 19.7157 204.432 20.1653L205.283 22.7834C205.348 22.9845 205.536 23.1206 205.747 23.1206H208.5C208.973 23.1206 209.169 23.7256 208.787 24.0034L206.56 25.6215C206.389 25.7458 206.317 25.9661 206.383 26.1671L207.233 28.7853C207.379 29.2349 206.865 29.6088 206.482 29.3309L204.255 27.7128C204.084 27.5885 203.852 27.5885 203.681 27.7128L201.454 29.3309C201.072 29.6088 200.557 29.2349 200.703 28.7853L201.554 26.1671C201.619 25.9661 201.548 25.7458 201.377 25.6215L199.15 24.0034C198.767 23.7256 198.964 23.1206 199.437 23.1206H202.189C202.401 23.1206 202.588 22.9845 202.653 22.7834L203.504 20.1653Z" fill="white"/>
<path d="M216.193 20.1653C216.339 19.7157 216.975 19.7157 217.121 20.1653L217.972 22.7834C218.037 22.9845 218.224 23.1206 218.436 23.1206H221.189C221.661 23.1206 221.858 23.7256 221.475 24.0034L219.248 25.6215C219.077 25.7458 219.006 25.9661 219.071 26.1671L219.922 28.7853C220.068 29.2349 219.553 29.6088 219.171 29.3309L216.944 27.7128C216.773 27.5885 216.541 27.5885 216.37 27.7128L214.143 29.3309C213.76 29.6088 213.246 29.2349 213.392 28.7853L214.243 26.1671C214.308 25.9661 214.236 25.7458 214.065 25.6215L211.838 24.0034C211.456 23.7256 211.652 23.1206 212.125 23.1206H214.878C215.089 23.1206 215.277 22.9845 215.342 22.7834L216.193 20.1653Z" fill="white"/>
<path d="M228.882 20.1653C229.028 19.7157 229.664 19.7157 229.81 20.1653L230.661 22.7834C230.726 22.9845 230.914 23.1206 231.125 23.1206H233.878C234.351 23.1206 234.547 23.7256 234.165 24.0034L231.938 25.6215C231.767 25.7458 231.695 25.9661 231.76 26.1671L232.611 28.7853C232.757 29.2349 232.243 29.6088 231.86 29.3309L229.633 27.7128C229.462 27.5885 229.23 27.5885 229.059 27.7128L226.832 29.3309C226.45 29.6088 225.935 29.2349 226.081 28.7853L226.932 26.1671C226.997 25.9661 226.926 25.7458 226.755 25.6215L224.528 24.0034C224.145 23.7256 224.342 23.1206 224.814 23.1206H227.567C227.779 23.1206 227.966 22.9845 228.031 22.7834L228.882 20.1653Z" fill="white"/>
<path d="M241.571 20.1653C241.717 19.7157 242.353 19.7157 242.499 20.1653L243.35 22.7834C243.415 22.9845 243.602 23.1206 243.814 23.1206H246.566C247.039 23.1206 247.236 23.7256 246.853 24.0034L244.626 25.6215C244.455 25.7458 244.384 25.9661 244.449 26.1671L245.3 28.7853C245.446 29.2349 244.931 29.6088 244.549 29.3309L242.322 27.7128C242.151 27.5885 241.919 27.5885 241.748 27.7128L239.521 29.3309C239.138 29.6088 238.624 29.2349 238.77 28.7853L239.62 26.1671C239.686 25.9661 239.614 25.7458 239.443 25.6215L237.216 24.0034C236.834 23.7256 237.03 23.1206 237.503 23.1206H240.256C240.467 23.1206 240.655 22.9845 240.72 22.7834L241.571 20.1653Z" fill="white"/>
</g>
<g filter="url(#filter3_di_675_2388)">
<rect x="258.627" y="14.8325" width="73.2032" height="20.4969" rx="10.2484" fill="url(#paint7_linear_675_2388)" shape-rendering="crispEdges"/>
<path d="M269.387 20.1653C269.533 19.7157 270.169 19.7157 270.315 20.1653L271.166 22.7834C271.231 22.9845 271.419 23.1206 271.63 23.1206H274.383C274.856 23.1206 275.052 23.7256 274.67 24.0034L272.443 25.6215C272.272 25.7458 272.2 25.9661 272.265 26.1671L273.116 28.7853C273.262 29.2349 272.748 29.6088 272.365 29.3309L270.138 27.7128C269.967 27.5885 269.735 27.5885 269.564 27.7128L267.337 29.3309C266.955 29.6088 266.44 29.2349 266.586 28.7853L267.437 26.1671C267.502 25.9661 267.431 25.7458 267.26 25.6215L265.032 24.0034C264.65 23.7256 264.847 23.1206 265.319 23.1206H268.072C268.284 23.1206 268.471 22.9845 268.536 22.7834L269.387 20.1653Z" fill="white"/>
</g>
</g>
<g opacity="0.9">
<g filter="url(#filter4_di_675_2388)">
<rect x="132.229" y="91.6958" width="73.2032" height="20.4969" rx="10.2484" fill="url(#paint8_linear_675_2388)" shape-rendering="crispEdges"/>
<path d="M142.99 97.0286C143.136 96.5789 143.772 96.5789 143.918 97.0286L144.768 99.6467C144.834 99.8477 145.021 99.9839 145.233 99.9839H147.985C148.458 99.9839 148.655 100.589 148.272 100.867L146.045 102.485C145.874 102.609 145.803 102.829 145.868 103.03L146.719 105.649C146.865 106.098 146.35 106.472 145.968 106.194L143.741 104.576C143.569 104.452 143.338 104.452 143.167 104.576L140.94 106.194C140.557 106.472 140.043 106.098 140.189 105.649L141.039 103.03C141.105 102.829 141.033 102.609 140.862 102.485L138.635 100.867C138.253 100.589 138.449 99.9839 138.922 99.9839H141.675C141.886 99.9839 142.074 99.8477 142.139 99.6467L142.99 97.0286Z" fill="white"/>
<path d="M155.679 97.0286C155.825 96.5789 156.461 96.5789 156.607 97.0286L157.458 99.6467C157.523 99.8477 157.711 99.9839 157.922 99.9839H160.675C161.148 99.9839 161.344 100.589 160.962 100.867L158.735 102.485C158.564 102.609 158.492 102.829 158.557 103.03L159.408 105.649C159.554 106.098 159.04 106.472 158.657 106.194L156.43 104.576C156.259 104.452 156.027 104.452 155.856 104.576L153.629 106.194C153.247 106.472 152.732 106.098 152.878 105.649L153.729 103.03C153.794 102.829 153.723 102.609 153.552 102.485L151.324 100.867C150.942 100.589 151.139 99.9839 151.611 99.9839H154.364C154.576 99.9839 154.763 99.8477 154.828 99.6467L155.679 97.0286Z" fill="white"/>
<path d="M168.366 97.0286C168.513 96.5789 169.149 96.5789 169.295 97.0286L170.145 99.6467C170.211 99.8477 170.398 99.9839 170.61 99.9839H173.362C173.835 99.9839 174.032 100.589 173.649 100.867L171.422 102.485C171.251 102.609 171.18 102.829 171.245 103.03L172.096 105.649C172.242 106.098 171.727 106.472 171.345 106.194L169.117 104.576C168.946 104.452 168.715 104.452 168.544 104.576L166.317 106.194C165.934 106.472 165.42 106.098 165.566 105.649L166.416 103.03C166.482 102.829 166.41 102.609 166.239 102.485L164.012 100.867C163.629 100.589 163.826 99.9839 164.299 99.9839H167.052C167.263 99.9839 167.45 99.8477 167.516 99.6467L168.366 97.0286Z" fill="white"/>
<path d="M181.056 97.0286C181.202 96.5789 181.838 96.5789 181.984 97.0286L182.835 99.6467C182.9 99.8477 183.088 99.9839 183.299 99.9839H186.052C186.525 99.9839 186.721 100.589 186.339 100.867L184.112 102.485C183.941 102.609 183.869 102.829 183.934 103.03L184.785 105.649C184.931 106.098 184.416 106.472 184.034 106.194L181.807 104.576C181.636 104.452 181.404 104.452 181.233 104.576L179.006 106.194C178.624 106.472 178.109 106.098 178.255 105.649L179.106 103.03C179.171 102.829 179.1 102.609 178.929 102.485L176.701 100.867C176.319 100.589 176.516 99.9839 176.988 99.9839H179.741C179.953 99.9839 180.14 99.8477 180.205 99.6467L181.056 97.0286Z" fill="white"/>
<path d="M193.744 97.0286C193.89 96.5789 194.527 96.5789 194.673 97.0286L195.523 99.6467C195.589 99.8477 195.776 99.9839 195.987 99.9839H198.74C199.213 99.9839 199.41 100.589 199.027 100.867L196.8 102.485C196.629 102.609 196.557 102.829 196.623 103.03L197.473 105.649C197.62 106.098 197.105 106.472 196.722 106.194L194.495 104.576C194.324 104.452 194.093 104.452 193.922 104.576L191.695 106.194C191.312 106.472 190.798 106.098 190.944 105.649L191.794 103.03C191.86 102.829 191.788 102.609 191.617 102.485L189.39 100.867C189.007 100.589 189.204 99.9839 189.677 99.9839H192.43C192.641 99.9839 192.828 99.8477 192.894 99.6467L193.744 97.0286Z" fill="white"/>
</g>
<g filter="url(#filter5_di_675_2388)">
<rect x="210.801" y="91.6958" width="73.2032" height="20.4969" rx="10.2484" fill="url(#paint9_linear_675_2388)" shape-rendering="crispEdges"/>
<path d="M221.561 97.0286C221.707 96.5789 222.343 96.5789 222.489 97.0286L223.34 99.6467C223.405 99.8477 223.592 99.9839 223.804 99.9839H226.557C227.029 99.9839 227.226 100.589 226.844 100.867L224.616 102.485C224.445 102.609 224.374 102.829 224.439 103.03L225.29 105.649C225.436 106.098 224.921 106.472 224.539 106.194L222.312 104.576C222.141 104.452 221.909 104.452 221.738 104.576L219.511 106.194C219.129 106.472 218.614 106.098 218.76 105.649L219.611 103.03C219.676 102.829 219.604 102.609 219.433 102.485L217.206 100.867C216.824 100.589 217.02 99.9839 217.493 99.9839H220.246C220.457 99.9839 220.645 99.8477 220.71 99.6467L221.561 97.0286Z" fill="white"/>
<path d="M234.249 97.0286C234.395 96.5789 235.031 96.5789 235.178 97.0286L236.028 99.6467C236.094 99.8477 236.281 99.9839 236.492 99.9839H239.245C239.718 99.9839 239.915 100.589 239.532 100.867L237.305 102.485C237.134 102.609 237.062 102.829 237.128 103.03L237.978 105.649C238.124 106.098 237.61 106.472 237.227 106.194L235 104.576C234.829 104.452 234.598 104.452 234.427 104.576L232.199 106.194C231.817 106.472 231.302 106.098 231.448 105.649L232.299 103.03C232.364 102.829 232.293 102.609 232.122 102.485L229.895 100.867C229.512 100.589 229.709 99.9839 230.182 99.9839H232.934C233.146 99.9839 233.333 99.8477 233.399 99.6467L234.249 97.0286Z" fill="white"/>
<path d="M246.938 97.0286C247.084 96.5789 247.72 96.5789 247.866 97.0286L248.717 99.6467C248.782 99.8477 248.969 99.9839 249.181 99.9839H251.934C252.406 99.9839 252.603 100.589 252.221 100.867L249.993 102.485C249.822 102.609 249.751 102.829 249.816 103.03L250.667 105.649C250.813 106.098 250.298 106.472 249.916 106.194L247.689 104.576C247.518 104.452 247.286 104.452 247.115 104.576L244.888 106.194C244.505 106.472 243.991 106.098 244.137 105.649L244.988 103.03C245.053 102.829 244.981 102.609 244.81 102.485L242.583 100.867C242.201 100.589 242.397 99.9839 242.87 99.9839H245.623C245.834 99.9839 246.022 99.8477 246.087 99.6467L246.938 97.0286Z" fill="white"/>
<path d="M259.626 97.0286C259.772 96.5789 260.408 96.5789 260.555 97.0286L261.405 99.6467C261.471 99.8477 261.658 99.9839 261.869 99.9839H264.622C265.095 99.9839 265.291 100.589 264.909 100.867L262.682 102.485C262.511 102.609 262.439 102.829 262.505 103.03L263.355 105.649C263.501 106.098 262.987 106.472 262.604 106.194L260.377 104.576C260.206 104.452 259.975 104.452 259.804 104.576L257.576 106.194C257.194 106.472 256.679 106.098 256.825 105.649L257.676 103.03C257.741 102.829 257.67 102.609 257.499 102.485L255.272 100.867C254.889 100.589 255.086 99.9839 255.559 99.9839H258.311C258.523 99.9839 258.71 99.8477 258.776 99.6467L259.626 97.0286Z" fill="white"/>
<path d="M272.316 97.0286C272.462 96.5789 273.098 96.5789 273.244 97.0286L274.095 99.6467C274.16 99.8477 274.347 99.9839 274.559 99.9839H277.312C277.784 99.9839 277.981 100.589 277.598 100.867L275.371 102.485C275.2 102.609 275.129 102.829 275.194 103.03L276.045 105.649C276.191 106.098 275.676 106.472 275.294 106.194L273.067 104.576C272.896 104.452 272.664 104.452 272.493 104.576L270.266 106.194C269.883 106.472 269.369 106.098 269.515 105.649L270.366 103.03C270.431 102.829 270.359 102.609 270.188 102.485L267.961 100.867C267.579 100.589 267.775 99.9839 268.248 99.9839H271.001C271.212 99.9839 271.4 99.8477 271.465 99.6467L272.316 97.0286Z" fill="white"/>
</g>
</g>
<g opacity="0.9">
<g filter="url(#filter6_di_675_2388)">
<rect x="132.229" y="40.4536" width="73.2032" height="20.4969" rx="10.2484" fill="url(#paint10_linear_675_2388)" shape-rendering="crispEdges"/>
<path d="M142.99 45.7864C143.136 45.3368 143.772 45.3368 143.918 45.7864L144.768 48.4045C144.834 48.6056 145.021 48.7417 145.233 48.7417H147.985C148.458 48.7417 148.655 49.3467 148.272 49.6245L146.045 51.2426C145.874 51.3669 145.803 51.5872 145.868 51.7882L146.719 54.4064C146.865 54.856 146.35 55.2299 145.968 54.952L143.741 53.3339C143.569 53.2096 143.338 53.2096 143.167 53.3339L140.94 54.952C140.557 55.2299 140.043 54.856 140.189 54.4064L141.039 51.7882C141.105 51.5872 141.033 51.3669 140.862 51.2426L138.635 49.6245C138.253 49.3467 138.449 48.7417 138.922 48.7417H141.675C141.886 48.7417 142.074 48.6056 142.139 48.4045L142.99 45.7864Z" fill="white"/>
<path d="M155.679 45.7864C155.825 45.3368 156.461 45.3368 156.607 45.7864L157.458 48.4045C157.523 48.6056 157.711 48.7417 157.922 48.7417H160.675C161.148 48.7417 161.344 49.3467 160.962 49.6245L158.735 51.2426C158.564 51.3669 158.492 51.5872 158.557 51.7882L159.408 54.4064C159.554 54.856 159.04 55.2299 158.657 54.952L156.43 53.3339C156.259 53.2096 156.027 53.2096 155.856 53.3339L153.629 54.952C153.247 55.2299 152.732 54.856 152.878 54.4064L153.729 51.7882C153.794 51.5872 153.723 51.3669 153.552 51.2426L151.324 49.6245C150.942 49.3467 151.139 48.7417 151.611 48.7417H154.364C154.576 48.7417 154.763 48.6056 154.828 48.4045L155.679 45.7864Z" fill="white"/>
<path d="M168.366 45.7864C168.513 45.3368 169.149 45.3368 169.295 45.7864L170.145 48.4045C170.211 48.6056 170.398 48.7417 170.61 48.7417H173.362C173.835 48.7417 174.032 49.3467 173.649 49.6245L171.422 51.2426C171.251 51.3669 171.18 51.5872 171.245 51.7882L172.096 54.4064C172.242 54.856 171.727 55.2299 171.345 54.952L169.117 53.3339C168.946 53.2096 168.715 53.2096 168.544 53.3339L166.317 54.952C165.934 55.2299 165.42 54.856 165.566 54.4064L166.416 51.7882C166.482 51.5872 166.41 51.3669 166.239 51.2426L164.012 49.6245C163.629 49.3467 163.826 48.7417 164.299 48.7417H167.052C167.263 48.7417 167.45 48.6056 167.516 48.4045L168.366 45.7864Z" fill="white"/>
<path d="M181.056 45.7864C181.202 45.3368 181.838 45.3368 181.984 45.7864L182.835 48.4045C182.9 48.6056 183.088 48.7417 183.299 48.7417H186.052C186.525 48.7417 186.721 49.3467 186.339 49.6245L184.112 51.2426C183.941 51.3669 183.869 51.5872 183.934 51.7882L184.785 54.4064C184.931 54.856 184.416 55.2299 184.034 54.952L181.807 53.3339C181.636 53.2096 181.404 53.2096 181.233 53.3339L179.006 54.952C178.624 55.2299 178.109 54.856 178.255 54.4064L179.106 51.7882C179.171 51.5872 179.1 51.3669 178.929 51.2426L176.701 49.6245C176.319 49.3467 176.516 48.7417 176.988 48.7417H179.741C179.953 48.7417 180.14 48.6056 180.205 48.4045L181.056 45.7864Z" fill="white"/>
<path d="M193.744 45.7864C193.89 45.3368 194.527 45.3368 194.673 45.7864L195.523 48.4045C195.589 48.6056 195.776 48.7417 195.987 48.7417H198.74C199.213 48.7417 199.41 49.3467 199.027 49.6245L196.8 51.2426C196.629 51.3669 196.557 51.5872 196.623 51.7882L197.473 54.4064C197.62 54.856 197.105 55.2299 196.722 54.952L194.495 53.3339C194.324 53.2096 194.093 53.2096 193.922 53.3339L191.695 54.952C191.312 55.2299 190.798 54.856 190.944 54.4064L191.794 51.7882C191.86 51.5872 191.788 51.3669 191.617 51.2426L189.39 49.6245C189.007 49.3467 189.204 48.7417 189.677 48.7417H192.43C192.641 48.7417 192.828 48.6056 192.894 48.4045L193.744 45.7864Z" fill="white"/>
</g>
<g filter="url(#filter7_di_675_2388)">
<rect x="210.801" y="40.4536" width="73.2032" height="20.4969" rx="10.2484" fill="url(#paint11_linear_675_2388)" shape-rendering="crispEdges"/>
<path d="M221.561 45.7864C221.707 45.3368 222.343 45.3368 222.489 45.7864L223.34 48.4045C223.405 48.6056 223.592 48.7417 223.804 48.7417H226.557C227.029 48.7417 227.226 49.3467 226.844 49.6245L224.616 51.2426C224.445 51.3669 224.374 51.5872 224.439 51.7882L225.29 54.4064C225.436 54.856 224.921 55.2299 224.539 54.952L222.312 53.3339C222.141 53.2096 221.909 53.2096 221.738 53.3339L219.511 54.952C219.129 55.2299 218.614 54.856 218.76 54.4064L219.611 51.7882C219.676 51.5872 219.604 51.3669 219.433 51.2426L217.206 49.6245C216.824 49.3467 217.02 48.7417 217.493 48.7417H220.246C220.457 48.7417 220.645 48.6056 220.71 48.4045L221.561 45.7864Z" fill="white"/>
<path d="M234.249 45.7864C234.395 45.3368 235.031 45.3368 235.178 45.7864L236.028 48.4045C236.094 48.6056 236.281 48.7417 236.492 48.7417H239.245C239.718 48.7417 239.915 49.3467 239.532 49.6245L237.305 51.2426C237.134 51.3669 237.062 51.5872 237.128 51.7882L237.978 54.4064C238.124 54.856 237.61 55.2299 237.227 54.952L235 53.3339C234.829 53.2096 234.598 53.2096 234.427 53.3339L232.199 54.952C231.817 55.2299 231.302 54.856 231.448 54.4064L232.299 51.7882C232.364 51.5872 232.293 51.3669 232.122 51.2426L229.895 49.6245C229.512 49.3467 229.709 48.7417 230.182 48.7417H232.934C233.146 48.7417 233.333 48.6056 233.399 48.4045L234.249 45.7864Z" fill="white"/>
<path d="M246.938 45.7864C247.084 45.3368 247.72 45.3368 247.866 45.7864L248.717 48.4045C248.782 48.6056 248.969 48.7417 249.181 48.7417H251.934C252.406 48.7417 252.603 49.3467 252.221 49.6245L249.993 51.2426C249.822 51.3669 249.751 51.5872 249.816 51.7882L250.667 54.4064C250.813 54.856 250.298 55.2299 249.916 54.952L247.689 53.3339C247.518 53.2096 247.286 53.2096 247.115 53.3339L244.888 54.952C244.505 55.2299 243.991 54.856 244.137 54.4064L244.988 51.7882C245.053 51.5872 244.981 51.3669 244.81 51.2426L242.583 49.6245C242.201 49.3467 242.397 48.7417 242.87 48.7417H245.623C245.834 48.7417 246.022 48.6056 246.087 48.4045L246.938 45.7864Z" fill="white"/>
<path d="M259.626 45.7864C259.772 45.3368 260.408 45.3368 260.555 45.7864L261.405 48.4045C261.471 48.6056 261.658 48.7417 261.869 48.7417H264.622C265.095 48.7417 265.291 49.3467 264.909 49.6245L262.682 51.2426C262.511 51.3669 262.439 51.5872 262.505 51.7882L263.355 54.4064C263.501 54.856 262.987 55.2299 262.604 54.952L260.377 53.3339C260.206 53.2096 259.975 53.2096 259.804 53.3339L257.576 54.952C257.194 55.2299 256.679 54.856 256.825 54.4064L257.676 51.7882C257.741 51.5872 257.67 51.3669 257.499 51.2426L255.272 49.6245C254.889 49.3467 255.086 48.7417 255.559 48.7417H258.311C258.523 48.7417 258.71 48.6056 258.776 48.4045L259.626 45.7864Z" fill="white"/>
<path d="M272.316 45.7864C272.462 45.3368 273.098 45.3368 273.244 45.7864L274.095 48.4045C274.16 48.6056 274.347 48.7417 274.559 48.7417H277.312C277.784 48.7417 277.981 49.3467 277.598 49.6245L275.371 51.2426C275.2 51.3669 275.129 51.5872 275.194 51.7882L276.045 54.4064C276.191 54.856 275.676 55.2299 275.294 54.952L273.067 53.3339C272.896 53.2096 272.664 53.2096 272.493 53.3339L270.266 54.952C269.883 55.2299 269.369 54.856 269.515 54.4064L270.366 51.7882C270.431 51.5872 270.359 51.3669 270.188 51.2426L267.961 49.6245C267.579 49.3467 267.775 48.7417 268.248 48.7417H271.001C271.212 48.7417 271.4 48.6056 271.465 48.4045L272.316 45.7864Z" fill="white"/>
</g>
</g>
</g>
<defs>
<filter id="filter0_di_675_2388" x="174.931" y="60.9505" width="90.2839" height="37.5778" filterUnits="userSpaceOnUse" color-interpolation-filters="sRGB">
<feFlood flood-opacity="0" result="BackgroundImageFix"/>
<feColorMatrix in="SourceAlpha" type="matrix" values="0 0 0 0 0 0 0 0 0 0 0 0 0 0 0 0 0 0 127 0" result="hardAlpha"/>
<feOffset dx="3.41615" dy="3.41615"/>
<feGaussianBlur stdDeviation="4.27019"/>
<feComposite in2="hardAlpha" operator="out"/>
<feColorMatrix type="matrix" values="0 0 0 0 0.28066 0 0 0 0 0.454764 0 0 0 0 0.570833 0 0 0 0.8 0"/>
<feBlend mode="normal" in2="BackgroundImageFix" result="effect1_dropShadow_675_2388"/>
<feBlend mode="normal" in="SourceGraphic" in2="effect1_dropShadow_675_2388" result="shape"/>
<feColorMatrix in="SourceAlpha" type="matrix" values="0 0 0 0 0 0 0 0 0 0 0 0 0 0 0 0 0 0 127 0" result="hardAlpha"/>
<feOffset dy="3.41615"/>
<feGaussianBlur stdDeviation="1.70807"/>
<feComposite in2="hardAlpha" operator="arithmetic" k2="-1" k3="1"/>
<feColorMatrix type="matrix" values="0 0 0 0 1 0 0 0 0 1 0 0 0 0 1 0 0 0 0.25 0"/>
<feBlend mode="overlay" in2="shape" result="effect2_innerShadow_675_2388"/>
</filter>
<filter id="filter1_di_675_2388" x="253.503" y="60.9505" width="90.2839" height="37.5778" filterUnits="userSpaceOnUse" color-interpolation-filters="sRGB">
<feFlood flood-opacity="0" result="BackgroundImageFix"/>
<feColorMatrix in="SourceAlpha" type="matrix" values="0 0 0 0 0 0 0 0 0 0 0 0 0 0 0 0 0 0 127 0" result="hardAlpha"/>
<feOffset dx="3.41615" dy="3.41615"/>
<feGaussianBlur stdDeviation="4.27019"/>
<feComposite in2="hardAlpha" operator="out"/>
<feColorMatrix type="matrix" values="0 0 0 0 0.28066 0 0 0 0 0.454764 0 0 0 0 0.570833 0 0 0 0.8 0"/>
<feBlend mode="normal" in2="BackgroundImageFix" result="effect1_dropShadow_675_2388"/>
<feBlend mode="normal" in="SourceGraphic" in2="effect1_dropShadow_675_2388" result="shape"/>
<feColorMatrix in="SourceAlpha" type="matrix" values="0 0 0 0 0 0 0 0 0 0 0 0 0 0 0 0 0 0 127 0" result="hardAlpha"/>
<feOffset dy="3.41615"/>
<feGaussianBlur stdDeviation="1.70807"/>
<feComposite in2="hardAlpha" operator="arithmetic" k2="-1" k3="1"/>
<feColorMatrix type="matrix" values="0 0 0 0 1 0 0 0 0 1 0 0 0 0 1 0 0 0 0.25 0"/>
<feBlend mode="overlay" in2="shape" result="effect2_innerShadow_675_2388"/>
</filter>
<filter id="filter2_di_675_2388" x="174.931" y="9.7083" width="90.2839" height="37.5778" filterUnits="userSpaceOnUse" color-interpolation-filters="sRGB">
<feFlood flood-opacity="0" result="BackgroundImageFix"/>
<feColorMatrix in="SourceAlpha" type="matrix" values="0 0 0 0 0 0 0 0 0 0 0 0 0 0 0 0 0 0 127 0" result="hardAlpha"/>
<feOffset dx="3.41615" dy="3.41615"/>
<feGaussianBlur stdDeviation="4.27019"/>
<feComposite in2="hardAlpha" operator="out"/>
<feColorMatrix type="matrix" values="0 0 0 0 0.28066 0 0 0 0 0.454764 0 0 0 0 0.570833 0 0 0 0.8 0"/>
<feBlend mode="normal" in2="BackgroundImageFix" result="effect1_dropShadow_675_2388"/>
<feBlend mode="normal" in="SourceGraphic" in2="effect1_dropShadow_675_2388" result="shape"/>
<feColorMatrix in="SourceAlpha" type="matrix" values="0 0 0 0 0 0 0 0 0 0 0 0 0 0 0 0 0 0 127 0" result="hardAlpha"/>
<feOffset dy="3.41615"/>
<feGaussianBlur stdDeviation="1.70807"/>
<feComposite in2="hardAlpha" operator="arithmetic" k2="-1" k3="1"/>
<feColorMatrix type="matrix" values="0 0 0 0 1 0 0 0 0 1 0 0 0 0 1 0 0 0 0.25 0"/>
<feBlend mode="overlay" in2="shape" result="effect2_innerShadow_675_2388"/>
</filter>
<filter id="filter3_di_675_2388" x="253.503" y="9.7083" width="90.2839" height="37.5778" filterUnits="userSpaceOnUse" color-interpolation-filters="sRGB">
<feFlood flood-opacity="0" result="BackgroundImageFix"/>
<feColorMatrix in="SourceAlpha" type="matrix" values="0 0 0 0 0 0 0 0 0 0 0 0 0 0 0 0 0 0 127 0" result="hardAlpha"/>
<feOffset dx="3.41615" dy="3.41615"/>
<feGaussianBlur stdDeviation="4.27019"/>
<feComposite in2="hardAlpha" operator="out"/>
<feColorMatrix type="matrix" values="0 0 0 0 0.28066 0 0 0 0 0.454764 0 0 0 0 0.570833 0 0 0 0.8 0"/>
<feBlend mode="normal" in2="BackgroundImageFix" result="effect1_dropShadow_675_2388"/>
<feBlend mode="normal" in="SourceGraphic" in2="effect1_dropShadow_675_2388" result="shape"/>
<feColorMatrix in="SourceAlpha" type="matrix" values="0 0 0 0 0 0 0 0 0 0 0 0 0 0 0 0 0 0 127 0" result="hardAlpha"/>
<feOffset dy="3.41615"/>
<feGaussianBlur stdDeviation="1.70807"/>
<feComposite in2="hardAlpha" operator="arithmetic" k2="-1" k3="1"/>
<feColorMatrix type="matrix" values="0 0 0 0 1 0 0 0 0 1 0 0 0 0 1 0 0 0 0.25 0"/>
<feBlend mode="overlay" in2="shape" result="effect2_innerShadow_675_2388"/>
</filter>
<filter id="filter4_di_675_2388" x="127.105" y="86.5716" width="90.2839" height="37.5778" filterUnits="userSpaceOnUse" color-interpolation-filters="sRGB">
<feFlood flood-opacity="0" result="BackgroundImageFix"/>
<feColorMatrix in="SourceAlpha" type="matrix" values="0 0 0 0 0 0 0 0 0 0 0 0 0 0 0 0 0 0 127 0" result="hardAlpha"/>
<feOffset dx="3.41615" dy="3.41615"/>
<feGaussianBlur stdDeviation="4.27019"/>
<feComposite in2="hardAlpha" operator="out"/>
<feColorMatrix type="matrix" values="0 0 0 0 0.28066 0 0 0 0 0.454764 0 0 0 0 0.570833 0 0 0 0.8 0"/>
<feBlend mode="normal" in2="BackgroundImageFix" result="effect1_dropShadow_675_2388"/>
<feBlend mode="normal" in="SourceGraphic" in2="effect1_dropShadow_675_2388" result="shape"/>
<feColorMatrix in="SourceAlpha" type="matrix" values="0 0 0 0 0 0 0 0 0 0 0 0 0 0 0 0 0 0 127 0" result="hardAlpha"/>
<feOffset dy="3.41615"/>
<feGaussianBlur stdDeviation="1.70807"/>
<feComposite in2="hardAlpha" operator="arithmetic" k2="-1" k3="1"/>
<feColorMatrix type="matrix" values="0 0 0 0 1 0 0 0 0 1 0 0 0 0 1 0 0 0 0.25 0"/>
<feBlend mode="overlay" in2="shape" result="effect2_innerShadow_675_2388"/>
</filter>
<filter id="filter5_di_675_2388" x="205.677" y="86.5716" width="90.2839" height="37.5778" filterUnits="userSpaceOnUse" color-interpolation-filters="sRGB">
<feFlood flood-opacity="0" result="BackgroundImageFix"/>
<feColorMatrix in="SourceAlpha" type="matrix" values="0 0 0 0 0 0 0 0 0 0 0 0 0 0 0 0 0 0 127 0" result="hardAlpha"/>
<feOffset dx="3.41615" dy="3.41615"/>
<feGaussianBlur stdDeviation="4.27019"/>
<feComposite in2="hardAlpha" operator="out"/>
<feColorMatrix type="matrix" values="0 0 0 0 0.28066 0 0 0 0 0.454764 0 0 0 0 0.570833 0 0 0 0.8 0"/>
<feBlend mode="normal" in2="BackgroundImageFix" result="effect1_dropShadow_675_2388"/>
<feBlend mode="normal" in="SourceGraphic" in2="effect1_dropShadow_675_2388" result="shape"/>
<feColorMatrix in="SourceAlpha" type="matrix" values="0 0 0 0 0 0 0 0 0 0 0 0 0 0 0 0 0 0 127 0" result="hardAlpha"/>
<feOffset dy="3.41615"/>
<feGaussianBlur stdDeviation="1.70807"/>
<feComposite in2="hardAlpha" operator="arithmetic" k2="-1" k3="1"/>
<feColorMatrix type="matrix" values="0 0 0 0 1 0 0 0 0 1 0 0 0 0 1 0 0 0 0.25 0"/>
<feBlend mode="overlay" in2="shape" result="effect2_innerShadow_675_2388"/>
</filter>
<filter id="filter6_di_675_2388" x="127.105" y="35.3294" width="90.2839" height="37.5778" filterUnits="userSpaceOnUse" color-interpolation-filters="sRGB">
<feFlood flood-opacity="0" result="BackgroundImageFix"/>
<feColorMatrix in="SourceAlpha" type="matrix" values="0 0 0 0 0 0 0 0 0 0 0 0 0 0 0 0 0 0 127 0" result="hardAlpha"/>
<feOffset dx="3.41615" dy="3.41615"/>
<feGaussianBlur stdDeviation="4.27019"/>
<feComposite in2="hardAlpha" operator="out"/>
<feColorMatrix type="matrix" values="0 0 0 0 0.28066 0 0 0 0 0.454764 0 0 0 0 0.570833 0 0 0 0.8 0"/>
<feBlend mode="normal" in2="BackgroundImageFix" result="effect1_dropShadow_675_2388"/>
<feBlend mode="normal" in="SourceGraphic" in2="effect1_dropShadow_675_2388" result="shape"/>
<feColorMatrix in="SourceAlpha" type="matrix" values="0 0 0 0 0 0 0 0 0 0 0 0 0 0 0 0 0 0 127 0" result="hardAlpha"/>
<feOffset dy="3.41615"/>
<feGaussianBlur stdDeviation="1.70807"/>
<feComposite in2="hardAlpha" operator="arithmetic" k2="-1" k3="1"/>
<feColorMatrix type="matrix" values="0 0 0 0 1 0 0 0 0 1 0 0 0 0 1 0 0 0 0.25 0"/>
<feBlend mode="overlay" in2="shape" result="effect2_innerShadow_675_2388"/>
</filter>
<filter id="filter7_di_675_2388" x="205.677" y="35.3294" width="90.2839" height="37.5778" filterUnits="userSpaceOnUse" color-interpolation-filters="sRGB">
<feFlood flood-opacity="0" result="BackgroundImageFix"/>
<feColorMatrix in="SourceAlpha" type="matrix" values="0 0 0 0 0 0 0 0 0 0 0 0 0 0 0 0 0 0 127 0" result="hardAlpha"/>
<feOffset dx="3.41615" dy="3.41615"/>
<feGaussianBlur stdDeviation="4.27019"/>
<feComposite in2="hardAlpha" operator="out"/>
<feColorMatrix type="matrix" values="0 0 0 0 0.28066 0 0 0 0 0.454764 0 0 0 0 0.570833 0 0 0 0.8 0"/>
<feBlend mode="normal" in2="BackgroundImageFix" result="effect1_dropShadow_675_2388"/>
<feBlend mode="normal" in="SourceGraphic" in2="effect1_dropShadow_675_2388" result="shape"/>
<feColorMatrix in="SourceAlpha" type="matrix" values="0 0 0 0 0 0 0 0 0 0 0 0 0 0 0 0 0 0 127 0" result="hardAlpha"/>
<feOffset dy="3.41615"/>
<feGaussianBlur stdDeviation="1.70807"/>
<feComposite in2="hardAlpha" operator="arithmetic" k2="-1" k3="1"/>
<feColorMatrix type="matrix" values="0 0 0 0 1 0 0 0 0 1 0 0 0 0 1 0 0 0 0.25 0"/>
<feBlend mode="overlay" in2="shape" result="effect2_innerShadow_675_2388"/>
</filter>
<linearGradient id="paint0_linear_675_2388" x1="111.661" y1="-48" x2="235.079" y2="174.959" gradientUnits="userSpaceOnUse">
<stop offset="0.0064921" stop-color="#F0F5F8"/>
<stop offset="1" stop-color="#19527A"/>
</linearGradient>
<linearGradient id="paint1_linear_675_2388" x1="21.953" y1="44.0296" x2="38.1197" y2="90.3182" gradientUnits="userSpaceOnUse">
<stop stop-color="white"/>
<stop offset="1" stop-color="white" stop-opacity="0"/>
</linearGradient>
<linearGradient id="paint2_linear_675_2388" x1="86.3039" y1="25.2759" x2="98.0641" y2="58.9477" gradientUnits="userSpaceOnUse">
<stop stop-color="white"/>
<stop offset="1" stop-color="white" stop-opacity="0"/>
</linearGradient>
<linearGradient id="paint3_linear_675_2388" x1="66.3928" y1="92.7446" x2="78.153" y2="126.416" gradientUnits="userSpaceOnUse">
<stop stop-color="white"/>
<stop offset="1" stop-color="white" stop-opacity="0"/>
</linearGradient>
<linearGradient id="paint4_linear_675_2388" x1="193.108" y1="70.1965" x2="198.421" y2="96.1588" gradientUnits="userSpaceOnUse">
<stop stop-color="white" stop-opacity="0.52"/>
<stop offset="1" stop-color="white" stop-opacity="0"/>
</linearGradient>
<linearGradient id="paint5_linear_675_2388" x1="271.679" y1="70.1965" x2="276.992" y2="96.1588" gradientUnits="userSpaceOnUse">
<stop stop-color="white" stop-opacity="0.52"/>
<stop offset="1" stop-color="white" stop-opacity="0"/>
</linearGradient>
<linearGradient id="paint6_linear_675_2388" x1="193.108" y1="18.9544" x2="198.421" y2="44.9166" gradientUnits="userSpaceOnUse">
<stop stop-color="white" stop-opacity="0.52"/>
<stop offset="1" stop-color="white" stop-opacity="0"/>
</linearGradient>
<linearGradient id="paint7_linear_675_2388" x1="271.679" y1="18.9544" x2="276.992" y2="44.9166" gradientUnits="userSpaceOnUse">
<stop stop-color="white" stop-opacity="0.52"/>
<stop offset="1" stop-color="white" stop-opacity="0"/>
</linearGradient>
<linearGradient id="paint8_linear_675_2388" x1="145.282" y1="95.8176" x2="150.595" y2="121.78" gradientUnits="userSpaceOnUse">
<stop stop-color="white" stop-opacity="0.52"/>
<stop offset="1" stop-color="white" stop-opacity="0"/>
</linearGradient>
<linearGradient id="paint9_linear_675_2388" x1="223.853" y1="95.8176" x2="229.166" y2="121.78" gradientUnits="userSpaceOnUse">
<stop stop-color="white" stop-opacity="0.52"/>
<stop offset="1" stop-color="white" stop-opacity="0"/>
</linearGradient>
<linearGradient id="paint10_linear_675_2388" x1="145.282" y1="44.5755" x2="150.595" y2="70.5377" gradientUnits="userSpaceOnUse">
<stop stop-color="white" stop-opacity="0.52"/>
<stop offset="1" stop-color="white" stop-opacity="0"/>
</linearGradient>
<linearGradient id="paint11_linear_675_2388" x1="223.853" y1="44.5755" x2="229.166" y2="70.5377" gradientUnits="userSpaceOnUse">
<stop stop-color="white" stop-opacity="0.52"/>
<stop offset="1" stop-color="white" stop-opacity="0"/>
</linearGradient>
</defs>
</svg>
