<svg width="275" height="130" viewBox="0 0 275 130" fill="none" xmlns="http://www.w3.org/2000/svg">
<path d="M0 16C0 7.16344 6.61056 0 14.7651 0H260.235C268.389 0 275 7.16344 275 16V114C275 122.837 268.389 130 260.235 130H14.7651C6.61056 130 0 122.837 0 114V16Z" fill="url(#paint0_linear_675_1833)"/>
<mask id="mask0_675_1833" style="mask-type:alpha" maskUnits="userSpaceOnUse" x="0" y="0" width="275" height="130">
<path d="M0 13.6521C0 6.11226 6.11226 0 13.6521 0H261.348C268.888 0 275 6.11226 275 13.6521V116.348C275 123.888 268.888 130 261.348 130H13.6521C6.11225 130 0 123.888 0 116.348V13.6521Z" fill="white"/>
</mask>
<g mask="url(#mask0_675_1833)">
</g>
<g clip-path="url(#clip0_675_1833)">
<path fill-rule="evenodd" clip-rule="evenodd" d="M36.332 58.7168C25.6723 58.7168 17 50.0445 17 39.3848C17 28.725 25.6723 20.0527 36.332 20.0527C46.9918 20.0527 55.6641 28.725 55.6641 39.3848C55.6641 50.0445 46.9918 58.7168 36.332 58.7168ZM33.4549 33.3888C33.7593 33.2421 33.9764 33.5931 33.7375 33.832C33.1981 34.3713 33.1981 35.2456 33.7375 35.7849C33.8655 35.9133 34.0177 36.0151 34.1853 36.0845C34.3528 36.154 34.5324 36.1896 34.7138 36.1894C35.0671 36.1894 35.4206 36.0545 35.6902 35.7849L38.7959 32.6791C39.3352 32.1399 39.3352 31.2655 38.7959 30.7264L35.6902 27.6205C35.1511 27.0812 34.2767 27.0812 33.7373 27.6205C33.198 28.1598 33.198 29.0341 33.7373 29.5734C34.0001 29.8361 33.8683 30.291 33.5138 30.4024C29.6953 31.6029 26.9179 35.1754 26.9179 39.385C26.9179 41.5833 27.6919 43.7227 29.0973 45.409C29.3705 45.7367 29.7633 45.9057 30.1588 45.9057C30.4705 45.9057 30.784 45.8007 31.0422 45.5856C31.628 45.0973 31.7071 44.2265 31.2188 43.6407C30.2261 42.4498 29.6795 40.9384 29.6795 39.3848C29.6797 36.7468 31.2235 34.4635 33.4549 33.3888ZM41.7627 33.3073C41.1658 33.782 41.0668 34.6507 41.5416 35.2475C42.4855 36.4341 42.9843 37.8647 42.9843 39.3849C42.9843 42.0646 41.391 44.3782 39.1024 45.4306C38.7672 45.5847 38.5352 45.1986 38.7961 44.9377C39.3354 44.3985 39.3354 43.5242 38.7961 42.9849C38.2569 42.4457 37.3825 42.4457 36.8434 42.9849L33.7375 46.0906C33.1982 46.6298 33.1982 47.5041 33.7375 48.0433L36.8433 51.1491C36.9713 51.2776 37.1235 51.3795 37.2911 51.4489C37.4586 51.5183 37.6382 51.5539 37.8196 51.5537C38.173 51.5537 38.5264 51.4188 38.796 51.1491C39.3353 50.6099 39.3353 49.7356 38.796 49.1963C38.545 48.9453 38.6736 48.5107 39.0138 48.4094C42.9024 47.252 45.746 43.6443 45.746 39.3848C45.746 37.2645 45.0204 35.1845 43.7028 33.5282C43.2282 32.9315 42.3595 32.8324 41.7627 33.3073Z" fill="url(#paint1_linear_675_1833)"/>
</g>
<path d="M107 24.1223C107 20.1888 110.189 17 114.122 17H275V62H114.122C110.189 62 107 58.8112 107 54.8777V24.1223Z" fill="url(#paint2_linear_675_1833)"/>
<rect x="112.643" y="23.105" width="32.5592" height="32.5592" rx="4.0699" fill="white" fill-opacity="0.3"/>
<rect x="150.289" y="34.5151" width="122.711" height="9.73896" rx="4.86948" fill="url(#paint3_linear_675_1833)" fill-opacity="0.3"/>
<path d="M70 76.1223C70 72.1888 73.1888 69 77.1223 69H275V114H77.1223C73.1888 114 70 110.811 70 106.878V76.1223Z" fill="url(#paint4_linear_675_1833)"/>
<rect x="76.0127" y="74.9961" width="32.5592" height="32.5592" rx="4.0699" fill="white" fill-opacity="0.3"/>
<rect x="113.66" y="86.1885" width="128.202" height="10.1748" rx="5.08738" fill="url(#paint5_linear_675_1833)" fill-opacity="0.3"/>
<path d="M106.538 42.437H52.6113V91.7846H69.9084" stroke="#DDE6EC" stroke-width="1.01748" stroke-dasharray="3.05 3.05"/>
<defs>
<linearGradient id="paint0_linear_675_1833" x1="111.661" y1="-48" x2="235.079" y2="174.959" gradientUnits="userSpaceOnUse">
<stop offset="0.0064921" stop-color="#F0F5F8"/>
<stop offset="1" stop-color="#19527A"/>
</linearGradient>
<linearGradient id="paint1_linear_675_1833" x1="23.8939" y1="27.8279" x2="52.8255" y2="76.3652" gradientUnits="userSpaceOnUse">
<stop stop-color="white"/>
<stop offset="1" stop-color="white" stop-opacity="0"/>
</linearGradient>
<linearGradient id="paint2_linear_675_1833" x1="136.955" y1="26.0493" x2="148.151" y2="83.2434" gradientUnits="userSpaceOnUse">
<stop stop-color="white" stop-opacity="0.52"/>
<stop offset="1" stop-color="white" stop-opacity="0"/>
</linearGradient>
<linearGradient id="paint3_linear_675_1833" x1="150.289" y1="39.3846" x2="273" y2="39.3846" gradientUnits="userSpaceOnUse">
<stop stop-color="white"/>
<stop offset="1" stop-color="white" stop-opacity="0.4"/>
</linearGradient>
<linearGradient id="paint4_linear_675_1833" x1="106.552" y1="78.0493" x2="115.84" y2="135.945" gradientUnits="userSpaceOnUse">
<stop stop-color="white" stop-opacity="0.52"/>
<stop offset="1" stop-color="white" stop-opacity="0"/>
</linearGradient>
<linearGradient id="paint5_linear_675_1833" x1="113.66" y1="91.2759" x2="241.862" y2="91.2759" gradientUnits="userSpaceOnUse">
<stop stop-color="white"/>
<stop offset="1" stop-color="white" stop-opacity="0.4"/>
</linearGradient>
<clipPath id="clip0_675_1833">
<rect width="38.6641" height="38.6641" fill="white" transform="translate(17 20.0527)"/>
</clipPath>
</defs>
</svg>
