<svg width="275" height="130" viewBox="0 0 275 130" fill="none" xmlns="http://www.w3.org/2000/svg">
<path d="M0 16C0 7.16344 6.61056 0 14.7651 0H260.235C268.389 0 275 7.16344 275 16V114C275 122.837 268.389 130 260.235 130H14.7651C6.61056 130 0 122.837 0 114V16Z" fill="url(#paint0_linear_1188_1148)"/>
<mask id="mask0_1188_1148" style="mask-type:alpha" maskUnits="userSpaceOnUse" x="0" y="0" width="275" height="130">
<path d="M0 13.6646C0 6.11785 6.11785 0 13.6646 0H261.335C268.882 0 275 6.11785 275 13.6646V116.335C275 123.882 268.882 130 261.335 130H13.6646C6.11786 130 0 123.882 0 116.335V13.6646Z" fill="white"/>
</mask>
<g mask="url(#mask0_1188_1148)">
<path d="M165.895 59.9778C166.471 59.4021 167.252 59.0786 168.066 59.0786C168.88 59.0786 169.662 59.4021 170.237 59.9778C172.41 62.1484 176.104 61.9874 176.9 59.0215C177.188 57.9459 177.334 56.8286 177.327 55.6978C177.308 52.6514 176.177 49.7166 174.149 47.4438C172.12 45.171 169.332 43.7163 166.307 43.3523C163.282 42.9884 160.229 43.7403 157.719 45.467C155.209 47.1938 153.415 49.7767 152.673 52.7317C151.932 55.6866 152.294 58.8105 153.691 61.5178C155.088 64.225 157.425 66.3297 160.263 67.4371C161.675 67.9879 163.162 68.2732 164.653 68.2921C166.771 68.319 167.393 65.8185 165.895 64.3205C165.319 63.7446 164.996 62.9636 164.996 62.1492C164.996 61.3348 165.319 60.5538 165.895 59.9778Z" fill="url(#paint1_linear_1188_1148)"/>
<path d="M195.431 25.6356C190.788 20.9748 185.137 17.4431 178.913 15.3131C172.689 13.183 166.059 12.5116 159.534 13.3507C152.532 14.244 145.858 16.8484 140.102 20.9338C134.345 25.0192 129.684 30.4598 126.529 36.7746C123.375 43.0894 121.825 50.084 122.016 57.1403C122.207 64.1965 124.133 71.0971 127.624 77.232C128.042 77.9167 128.194 78.7308 128.051 79.5201L125.772 90.3584C125.556 91.3898 125.609 92.4595 125.925 93.4647C126.242 94.4698 126.812 95.3766 127.58 96.0978C128.349 96.819 129.29 97.3304 130.313 97.5828C131.336 97.8352 132.407 97.8201 133.423 97.5389L144.194 94.5475C144.968 94.3566 145.785 94.4526 146.494 94.8178C152.278 97.5812 158.609 99.0117 165.019 99.0039C167.193 99.0029 169.364 98.8428 171.515 98.5248C179.37 97.3226 186.739 93.9671 192.802 88.8306C198.866 83.6942 203.387 76.9778 205.865 69.4272C208.342 61.8765 208.679 53.787 206.837 46.0567C204.995 38.3264 201.047 31.2578 195.431 25.6356ZM182.532 72.2628C182.825 72.5461 183.059 72.885 183.22 73.2597C183.381 73.6344 183.465 74.0374 183.469 74.4452C183.473 74.853 183.395 75.2574 183.24 75.6348C183.086 76.0123 182.858 76.3552 182.57 76.6436C182.281 76.9319 181.938 77.16 181.561 77.3144C181.183 77.4688 180.779 77.5465 180.371 77.543C179.963 77.5394 179.56 77.4547 179.186 77.2937C178.811 77.1328 178.472 76.8988 178.189 76.6055C175.576 73.9978 171.563 73.6291 167.924 74.2489C165.431 74.6734 162.857 74.5898 160.359 73.9772C155.822 72.8644 151.868 70.0873 149.283 66.1965C146.697 62.3057 145.668 57.5853 146.399 52.9712C147.13 48.3571 149.568 44.1862 153.23 41.2854C156.892 38.3846 161.51 36.9658 166.169 37.3102C170.828 37.6545 175.188 39.737 178.383 43.1447C181.579 46.5524 183.377 51.0365 183.422 55.7079C183.449 58.5211 182.839 61.2785 181.666 63.7845C180.355 66.5843 180.343 70.0795 182.532 72.2628ZM207.795 102.727C206.567 105.183 208.385 108.065 211.13 108.014C213.816 107.965 215.532 105.131 214.331 102.728C212.984 100.034 209.141 100.034 207.795 102.727Z" fill="url(#paint2_linear_1188_1148)"/>
<path d="M245.427 123.911C245.291 123.117 245.444 122.3 245.857 121.608C249.066 115.91 250.825 109.51 250.979 102.973C251.133 96.4352 249.677 89.96 246.741 84.117C243.804 78.2741 239.476 73.2426 234.138 69.4655C228.8 65.6883 222.615 63.2813 216.128 62.4563C215.36 62.3677 214.592 62.2791 213.824 62.2451C213.774 62.2429 213.732 62.2832 213.732 62.3335C212.384 72.9134 207.621 82.7647 200.166 90.3917C192.711 98.0187 182.971 103.005 172.424 104.593C171.764 104.695 171.267 105.286 171.334 105.95C171.377 106.378 171.425 106.806 171.472 107.235C172.645 116.191 176.818 124.485 183.31 130.766C189.803 137.046 198.231 140.941 207.221 141.817C208.48 141.939 209.77 142.001 211.03 142.001C216.923 142.008 222.745 140.708 228.075 138.193C228.777 137.839 229.581 137.741 230.347 137.916L239.776 140.527C240.788 140.817 241.858 140.839 242.881 140.592C243.903 140.344 244.845 139.835 245.611 139.114C246.385 138.389 246.958 137.476 247.275 136.465C247.593 135.453 247.644 134.377 247.423 133.34L245.427 123.911ZM227.789 122.781C227.429 122.965 227.035 123.075 226.632 123.106C226.229 123.137 225.823 123.088 225.439 122.962C225.054 122.836 224.698 122.635 224.392 122.371C224.085 122.107 223.834 121.785 223.652 121.424C221.402 116.887 216.738 114.055 211.675 114.149L209.919 114.182C205.051 114.272 200.637 117.064 198.468 121.424C198.102 122.153 197.461 122.706 196.686 122.963C195.911 123.219 195.066 123.157 194.337 122.79C193.608 122.424 193.055 121.783 192.799 121.008C192.542 120.233 192.604 119.389 192.971 118.66L208.327 87.9474C208.611 87.4722 209.014 87.0788 209.496 86.8057C209.977 86.5325 210.522 86.389 211.076 86.389C211.629 86.389 212.174 86.5325 212.655 86.8057C213.137 87.0788 213.54 87.4722 213.824 87.9474L224.574 109.504C224.614 109.581 224.653 109.652 224.687 109.735L229.18 118.66C229.36 119.021 229.467 119.415 229.494 119.818C229.522 120.222 229.47 120.626 229.34 121.009C229.211 121.392 229.007 121.746 228.741 122.05C228.475 122.354 228.152 122.602 227.789 122.781Z" fill="url(#paint3_linear_1188_1148)"/>
</g>
<defs>
<linearGradient id="paint0_linear_1188_1148" x1="111.661" y1="-48" x2="235.079" y2="174.959" gradientUnits="userSpaceOnUse">
<stop offset="0.0064921" stop-color="#F0F5F8"/>
<stop offset="1" stop-color="#19527A"/>
</linearGradient>
<linearGradient id="paint1_linear_1188_1148" x1="156.76" y1="48.2962" x2="172.496" y2="69.8281" gradientUnits="userSpaceOnUse">
<stop stop-color="white" stop-opacity="0.52"/>
<stop offset="1" stop-color="white" stop-opacity="0"/>
</linearGradient>
<linearGradient id="paint2_linear_1188_1148" x1="138.925" y1="32.1293" x2="198.767" y2="113.836" gradientUnits="userSpaceOnUse">
<stop stop-color="white" stop-opacity="0.52"/>
<stop offset="1" stop-color="white" stop-opacity="0"/>
</linearGradient>
<linearGradient id="paint3_linear_1188_1148" x1="185.449" y1="78.2807" x2="235.591" y2="146.894" gradientUnits="userSpaceOnUse">
<stop stop-color="white" stop-opacity="0.52"/>
<stop offset="1" stop-color="white" stop-opacity="0"/>
</linearGradient>
</defs>
</svg>
