<svg width="275" height="130" viewBox="0 0 275 130" fill="none" xmlns="http://www.w3.org/2000/svg">
<path d="M0 16C0 7.16344 6.61056 0 14.7651 0H260.235C268.389 0 275 7.16344 275 16V114C275 122.837 268.389 130 260.235 130H14.7651C6.61056 130 0 122.837 0 114V16Z" fill="url(#paint0_linear_675_15505)"/>
<mask id="mask0_675_15505" style="mask-type:alpha" maskUnits="userSpaceOnUse" x="0" y="0" width="275" height="130">
<path d="M0 13.6646C0 6.11785 6.11785 0 13.6646 0H261.335C268.882 0 275 6.11785 275 13.6646V116.335C275 123.882 268.882 130 261.335 130H13.6646C6.11786 130 0 123.882 0 116.335V13.6646Z" fill="white"/>
</mask>
<g mask="url(#mask0_675_15505)">
<path d="M42.0752 27.6039C42.0752 21.3204 47.169 16.2266 53.4525 16.2266H227.526C233.809 16.2266 238.903 21.3204 238.903 27.6039V130H42.0752V27.6039Z" fill="white" fill-opacity="0.37"/>
<line x1="42.0752" y1="31.8135" x2="238.903" y2="31.8135" stroke="#A8BECD" stroke-width="0.68264"/>
<circle cx="51.7457" cy="24.7593" r="1.7066" fill="#7C9DB4"/>
<circle cx="56.2964" cy="24.7593" r="1.7066" fill="#7C9DB4"/>
<circle cx="60.8472" cy="24.7593" r="1.7066" fill="#7C9DB4"/>
<rect x="52.3145" y="51.4961" width="54.6112" height="63.7131" rx="8.19988" fill="url(#paint1_linear_675_15505)"/>
<rect x="113.752" y="51.4961" width="54.6112" height="63.7131" rx="8.19988" fill="url(#paint2_linear_675_15505)"/>
<path d="M125.198 90.4023L124.885 91.5174C124.834 91.7067 124.857 91.9085 124.949 92.0817C125.041 92.255 125.195 92.3868 125.381 92.4502C125.448 92.46 128.427 93.5313 128.39 93.4402C128.544 93.4385 128.693 93.391 128.82 93.3037C128.947 93.2164 129.044 93.0933 129.101 92.9501L129.521 91.8869L125.198 90.4023ZM156.497 89.3045L152.077 73.507C151.938 73.0167 151.677 72.57 151.317 72.2087C150.958 71.8475 150.513 71.5837 150.023 71.4423L147.139 70.623C147.263 72.1382 146.902 73.4862 144.335 75.9873C143.251 76.9398 142.309 75.8351 141.547 75.0994C141.547 75.1 141.54 97.0851 141.547 97.2967C143.361 97.239 145.154 96.8953 146.86 96.2785L148.317 95.7493C148.465 95.6954 148.593 95.5972 148.684 95.4679C148.774 95.3387 148.823 95.1847 148.823 95.0268V79.0079C148.826 77.8177 149.022 76.6358 149.403 75.5082C149.426 75.4392 149.463 75.3756 149.512 75.3211C149.56 75.2665 149.619 75.2221 149.684 75.1903C149.75 75.1585 149.821 75.14 149.894 75.1359C149.967 75.1318 150.04 75.1421 150.108 75.1663L150.128 75.1726C150.266 75.2177 150.38 75.3151 150.447 75.4438C150.513 75.5725 150.526 75.7221 150.483 75.8605C150.139 76.8745 149.963 77.9377 149.961 79.0084V85.5102L152.065 90.8232C152.633 90.6312 155.932 89.5012 156.497 89.3045Z" fill="url(#paint3_linear_675_15505)"/>
<path d="M157.117 91.5172L156.804 90.4021C156.44 90.5163 152.878 91.7536 152.486 91.881L152.907 92.9505C152.978 93.1352 153.118 93.2849 153.298 93.3679C153.477 93.4508 153.682 93.4603 153.869 93.3944L156.628 92.4501C156.812 92.3857 156.966 92.2535 157.057 92.0803C157.148 91.9071 157.169 91.7058 157.117 91.5172ZM138.368 69.622H143.584C143.584 69.622 141.568 71.7708 141.547 71.8002V73.5414L143.271 75.1511C143.311 75.1881 143.362 75.2086 143.416 75.2086C143.47 75.2086 143.522 75.1881 143.561 75.1511C146.718 72.2326 145.973 70.6056 145.945 70.5433L145.324 69.178C145.219 68.9477 145.051 68.7524 144.838 68.6152C144.625 68.478 144.378 68.4048 144.125 68.4043H137.827C137.579 68.4062 137.337 68.4771 137.127 68.609C136.613 68.8431 136.258 70.0832 136.007 70.5375C135.978 70.6056 135.233 72.2326 138.39 75.1511C138.429 75.1894 138.481 75.2109 138.535 75.2109C138.589 75.2109 138.642 75.1894 138.68 75.1511L140.41 73.5356V71.8002L138.368 69.622Z" fill="#8AA6BA"/>
<path d="M137.617 75.9871C135.07 73.5056 134.698 72.1715 134.806 70.6401L131.985 71.4473C131.493 71.5838 131.045 71.8452 130.685 72.2061C130.324 72.567 130.062 73.015 129.926 73.5068L125.506 89.3043C125.878 89.422 129.607 90.7169 129.943 90.8288L132.047 85.4985C131.926 82.7829 132.431 78.5943 131.53 75.8516C131.487 75.7144 131.499 75.5654 131.564 75.4371C131.629 75.3087 131.742 75.2111 131.879 75.1655L131.892 75.1609C131.961 75.1365 132.034 75.1259 132.107 75.1298C132.18 75.1337 132.251 75.152 132.317 75.1836C132.383 75.2152 132.442 75.2596 132.49 75.314C132.539 75.3685 132.576 75.4321 132.6 75.5011C132.985 76.6342 133.183 77.8225 133.185 79.0192V95.0266C133.185 95.1845 133.234 95.3385 133.324 95.4678C133.415 95.597 133.543 95.6952 133.692 95.7491L135.142 96.2726C136.834 96.8883 138.611 97.2339 140.41 97.2965C140.418 97.0544 140.41 75.0883 140.41 75.0883L139.454 75.9819C139.205 76.2144 138.877 76.3443 138.536 76.3453C138.195 76.3464 137.867 76.2186 137.616 75.9877L137.617 75.9871Z" fill="url(#paint4_linear_675_15505)"/>
<rect x="175.851" y="51.0757" width="54.6112" height="63.7131" rx="8.19988" fill="url(#paint5_linear_675_15505)"/>
<g clip-path="url(#clip0_675_15505)">
<path d="M216.484 72.2924L213.89 80.937H217.034C217.498 80.937 217.874 80.5605 217.874 80.0962V75.5114C217.874 74.2671 217.353 73.1115 216.484 72.2924ZM189.175 75.5113V80.0961C189.175 80.5605 189.551 80.9369 190.016 80.9369H193.159L190.566 72.2923C189.696 73.1115 189.175 74.2671 189.175 75.5113ZM203.525 72.1029C205.047 72.1029 206.286 70.8641 206.286 69.3413V68.5005H200.763V69.3413C200.763 70.8641 202.002 72.1029 203.525 72.1029Z" fill="#8AA6BA"/>
<path d="M207.967 68.7319V69.3415C207.967 71.7915 205.974 73.7847 203.524 73.7847C201.074 73.7847 199.081 71.7915 199.081 69.3415V68.7319L192.044 71.3707L194.878 80.819C194.902 80.8974 194.914 80.9787 194.914 81.0606V96.3595C194.914 96.8238 195.29 97.2003 195.755 97.2003H211.293C211.757 97.2003 212.134 96.8238 212.134 96.3595V81.0606C212.134 80.9787 212.146 80.8974 212.169 80.819L215.004 71.3707L207.967 68.7319ZM209.768 78.7978C209.768 80.6159 207.734 81.6854 207.502 81.8013C207.385 81.8597 207.257 81.8901 207.126 81.8901C206.996 81.8901 206.867 81.8597 206.75 81.8013C206.518 81.6854 204.484 80.6159 204.484 78.7978V77.4469C204.484 76.9826 204.861 76.6061 205.325 76.6061H208.927C209.392 76.6061 209.768 76.9826 209.768 77.4469V78.7978Z" fill="url(#paint6_linear_675_15505)"/>
<path d="M206.167 78.7977C206.167 79.268 206.687 79.7609 207.127 80.0678C207.568 79.761 208.088 79.268 208.088 78.7977V78.2876H206.167V78.7977H206.167Z" fill="#8AA6BA"/>
</g>
<rect x="52.3145" y="38.981" width="67.1263" height="6.8264" rx="3.4132" fill="url(#paint7_linear_675_15505)"/>
<g filter="url(#filter0_di_675_15505)">
<rect x="20" y="65" width="98.1089" height="27.4705" rx="13.7352" fill="url(#paint8_linear_675_15505)" shape-rendering="crispEdges"/>
<path d="M34.4217 72.1469C34.6175 71.5443 35.47 71.5443 35.6658 72.1469L36.8059 75.6557C36.8935 75.9252 37.1446 76.1077 37.428 76.1077H41.1174C41.751 76.1077 42.0145 76.9185 41.5019 77.2909L38.517 79.4595C38.2878 79.626 38.1919 79.9213 38.2794 80.1908L39.4195 83.6996C39.6153 84.3022 38.9256 84.8033 38.413 84.4309L35.4282 82.2623C35.199 82.0957 34.8886 82.0957 34.6593 82.2623L31.6745 84.4309C31.1619 84.8033 30.4722 84.3022 30.668 83.6996L31.8081 80.1908C31.8957 79.9213 31.7998 79.626 31.5705 79.4595L28.5857 77.2909C28.0731 76.9185 28.3366 76.1077 28.9702 76.1077H32.6596C32.9429 76.1077 33.1941 75.9252 33.2816 75.6557L34.4217 72.1469Z" fill="white"/>
<path d="M51.4266 72.1469C51.6224 71.5443 52.4749 71.5443 52.6707 72.1469L53.8108 75.6557C53.8984 75.9252 54.1495 76.1077 54.4329 76.1077H58.1223C58.7559 76.1077 59.0193 76.9185 58.5067 77.2909L55.5219 79.4595C55.2927 79.626 55.1968 79.9213 55.2843 80.1908L56.4244 83.6996C56.6202 84.3022 55.9305 84.8033 55.4179 84.4309L52.4331 82.2623C52.2039 82.0957 51.8935 82.0957 51.6642 82.2623L48.6794 84.4309C48.1668 84.8033 47.4771 84.3022 47.6729 83.6996L48.813 80.1908C48.9006 79.9213 48.8046 79.626 48.5754 79.4595L45.5906 77.2909C45.078 76.9185 45.3414 76.1077 45.975 76.1077H49.6645C49.9478 76.1077 50.199 75.9252 50.2865 75.6557L51.4266 72.1469Z" fill="white"/>
<path d="M68.4325 72.1469C68.6283 71.5443 69.4808 71.5443 69.6766 72.1469L70.8167 75.6557C70.9042 75.9252 71.1554 76.1077 71.4387 76.1077H75.1282C75.7618 76.1077 76.0252 76.9185 75.5126 77.2909L72.5278 79.4595C72.2985 79.626 72.2026 79.9213 72.2902 80.1908L73.4303 83.6996C73.6261 84.3022 72.9364 84.8033 72.4238 84.4309L69.439 82.2623C69.2097 82.0957 68.8993 82.0957 68.6701 82.2623L65.6853 84.4309C65.1727 84.8033 64.483 84.3022 64.6788 83.6996L65.8189 80.1908C65.9064 79.9213 65.8105 79.626 65.5813 79.4595L62.5965 77.2909C62.0839 76.9185 62.3473 76.1077 62.9809 76.1077H66.6703C66.9537 76.1077 67.2048 75.9252 67.2924 75.6557L68.4325 72.1469Z" fill="white"/>
<path d="M85.4374 72.1469C85.6332 71.5443 86.4857 71.5443 86.6815 72.1469L87.8216 75.6557C87.9091 75.9252 88.1602 76.1077 88.4436 76.1077H92.133C92.7666 76.1077 93.0301 76.9185 92.5175 77.2909L89.5327 79.4595C89.3034 79.626 89.2075 79.9213 89.2951 80.1908L90.4352 83.6996C90.631 84.3022 89.9413 84.8033 89.4287 84.4309L86.4439 82.2623C86.2146 82.0957 85.9042 82.0957 85.675 82.2623L82.6901 84.4309C82.1776 84.8033 81.4879 84.3022 81.6837 83.6996L82.8238 80.1908C82.9113 79.9213 82.8154 79.626 82.5862 79.4595L79.6013 77.2909C79.0887 76.9185 79.3522 76.1077 79.9858 76.1077H83.6752C83.9586 76.1077 84.2097 75.9252 84.2973 75.6557L85.4374 72.1469Z" fill="white"/>
<path d="M102.443 72.1469C102.639 71.5443 103.492 71.5443 103.687 72.1469L104.827 75.6557C104.915 75.9252 105.166 76.1077 105.449 76.1077H109.139C109.773 76.1077 110.036 76.9185 109.523 77.2909L106.539 79.4595C106.309 79.626 106.213 79.9213 106.301 80.1908L107.441 83.6996C107.637 84.3022 106.947 84.8033 106.435 84.4309L103.45 82.2623C103.22 82.0957 102.91 82.0957 102.681 82.2623L99.696 84.4309C99.1834 84.8033 98.4937 84.3022 98.6895 83.6996L99.8296 80.1908C99.9172 79.9213 99.8213 79.626 99.592 79.4595L96.6072 77.2909C96.0946 76.9185 96.358 76.1077 96.9916 76.1077H100.681C100.964 76.1077 101.216 75.9252 101.303 75.6557L102.443 72.1469Z" fill="white"/>
</g>
</g>
<defs>
<filter id="filter0_di_675_15505" x="13.1324" y="58.1324" width="121.001" height="50.3628" filterUnits="userSpaceOnUse" color-interpolation-filters="sRGB">
<feFlood flood-opacity="0" result="BackgroundImageFix"/>
<feColorMatrix in="SourceAlpha" type="matrix" values="0 0 0 0 0 0 0 0 0 0 0 0 0 0 0 0 0 0 127 0" result="hardAlpha"/>
<feOffset dx="4.57841" dy="4.57841"/>
<feGaussianBlur stdDeviation="5.72302"/>
<feComposite in2="hardAlpha" operator="out"/>
<feColorMatrix type="matrix" values="0 0 0 0 0.51151 0 0 0 0 0.607104 0 0 0 0 0.670833 0 0 0 0.8 0"/>
<feBlend mode="normal" in2="BackgroundImageFix" result="effect1_dropShadow_675_15505"/>
<feBlend mode="normal" in="SourceGraphic" in2="effect1_dropShadow_675_15505" result="shape"/>
<feColorMatrix in="SourceAlpha" type="matrix" values="0 0 0 0 0 0 0 0 0 0 0 0 0 0 0 0 0 0 127 0" result="hardAlpha"/>
<feOffset dy="4.57841"/>
<feGaussianBlur stdDeviation="2.28921"/>
<feComposite in2="hardAlpha" operator="arithmetic" k2="-1" k3="1"/>
<feColorMatrix type="matrix" values="0 0 0 0 1 0 0 0 0 1 0 0 0 0 1 0 0 0 0.25 0"/>
<feBlend mode="overlay" in2="shape" result="effect2_innerShadow_675_15505"/>
</filter>
<linearGradient id="paint0_linear_675_15505" x1="111.661" y1="-48" x2="235.079" y2="174.959" gradientUnits="userSpaceOnUse">
<stop offset="0.0064921" stop-color="#F0F5F8"/>
<stop offset="1" stop-color="#19527A"/>
</linearGradient>
<linearGradient id="paint1_linear_675_15505" x1="62.0518" y1="64.3085" x2="103.564" y2="112.995" gradientUnits="userSpaceOnUse">
<stop stop-color="white" stop-opacity="0.52"/>
<stop offset="1" stop-color="white" stop-opacity="0"/>
</linearGradient>
<linearGradient id="paint2_linear_675_15505" x1="123.489" y1="64.3085" x2="165.001" y2="112.995" gradientUnits="userSpaceOnUse">
<stop stop-color="white" stop-opacity="0.52"/>
<stop offset="1" stop-color="white" stop-opacity="0"/>
</linearGradient>
<linearGradient id="paint3_linear_675_15505" x1="140.678" y1="70.623" x2="140.678" y2="97.2967" gradientUnits="userSpaceOnUse">
<stop stop-color="#B5C8D7"/>
<stop offset="1" stop-color="#87A4B8"/>
</linearGradient>
<linearGradient id="paint4_linear_675_15505" x1="132.96" y1="70.6401" x2="132.96" y2="97.2965" gradientUnits="userSpaceOnUse">
<stop stop-color="#B5C8D7"/>
<stop offset="1" stop-color="#87A4B8"/>
</linearGradient>
<linearGradient id="paint5_linear_675_15505" x1="185.588" y1="63.8881" x2="227.1" y2="112.575" gradientUnits="userSpaceOnUse">
<stop stop-color="white" stop-opacity="0.52"/>
<stop offset="1" stop-color="white" stop-opacity="0"/>
</linearGradient>
<linearGradient id="paint6_linear_675_15505" x1="203.524" y1="68.7319" x2="203.524" y2="97.2003" gradientUnits="userSpaceOnUse">
<stop stop-color="#B5C8D7"/>
<stop offset="1" stop-color="#87A4B8"/>
</linearGradient>
<linearGradient id="paint7_linear_675_15505" x1="52.3145" y1="42.3942" x2="119.441" y2="42.3942" gradientUnits="userSpaceOnUse">
<stop stop-color="white" stop-opacity="0.52"/>
<stop offset="1" stop-color="white" stop-opacity="0"/>
</linearGradient>
<linearGradient id="paint8_linear_675_15505" x1="37.4931" y1="70.5242" x2="47.0501" y2="114.432" gradientUnits="userSpaceOnUse">
<stop stop-color="#9BB5C6"/>
<stop offset="1" stop-color="#FBFBFB"/>
</linearGradient>
<clipPath id="clip0_675_15505">
<rect width="28.6996" height="28.6996" fill="white" transform="translate(189.175 68.5005)"/>
</clipPath>
</defs>
</svg>
