<svg width="275" height="130" viewBox="0 0 275 130" fill="none" xmlns="http://www.w3.org/2000/svg">
<path d="M0 16C0 7.16344 6.61056 0 14.7651 0H260.235C268.389 0 275 7.16344 275 16V114C275 122.837 268.389 130 260.235 130H14.7651C6.61056 130 0 122.837 0 114V16Z" fill="url(#paint0_linear_675_1972)"/>
<mask id="mask0_675_1972" style="mask-type:alpha" maskUnits="userSpaceOnUse" x="0" y="0" width="275" height="130">
<path d="M0 13.6646C0 6.11785 6.11785 0 13.6646 0H261.335C268.882 0 275 6.11785 275 13.6646V116.335C275 123.882 268.882 130 261.335 130H13.6646C6.11786 130 0 123.882 0 116.335V13.6646Z" fill="white"/>
</mask>
<g mask="url(#mask0_675_1972)">
<rect x="86.9111" y="8.54053" width="60.4554" height="60.4554" rx="8.63649" fill="url(#paint1_linear_675_1972)"/>
<path d="M136.891 14.0436C136.994 13.7253 137.445 13.7253 137.548 14.0436L138.15 15.8973C138.197 16.0397 138.329 16.136 138.479 16.136L140.428 16.136C140.763 16.136 140.902 16.5644 140.631 16.7611L139.054 17.9067C138.933 17.9947 138.883 18.1507 138.929 18.2931L139.531 20.1467C139.634 20.4651 139.27 20.7298 138.999 20.533L137.423 19.3874C137.301 19.2994 137.137 19.2994 137.016 19.3874L135.439 20.533C135.169 20.7298 134.804 20.4651 134.908 20.1467L135.51 18.2931C135.556 18.1507 135.506 17.9947 135.385 17.9067L133.808 16.7611C133.537 16.5644 133.676 16.136 134.011 16.136L135.96 16.136C136.11 16.136 136.242 16.0397 136.289 15.8973L136.891 14.0436Z" fill="white"/>
<path d="M113.862 25.0707H123.834C123.766 24.3295 123.699 23.7231 123.699 23.2515H109.415C109.347 23.7231 109.347 24.3295 109.28 25.0707H112.312H113.862ZM123.564 31.8085C123.497 31.7411 123.429 31.7411 123.362 31.6737C123.227 31.6064 123.092 31.539 122.958 31.4042C122.89 31.3369 122.823 31.3369 122.823 31.2695C122.688 31.1347 122.486 31.0673 122.351 30.9326H122.284C122.149 30.7978 121.947 30.6631 121.812 30.5283L121.677 30.3936L121.408 30.124L121.273 29.9893C121.206 29.9219 121.138 29.7872 121.071 29.7198L120.936 29.585C120.869 29.5176 120.802 29.3829 120.734 29.3155C120.734 29.2481 120.667 29.2481 120.667 29.1807C120.599 29.1134 120.532 28.9786 120.465 28.8439L120.397 28.7765L120.195 28.3722L119.993 27.9679C119.993 27.9006 119.993 27.9006 119.926 27.8332C119.926 27.6984 119.858 27.631 119.858 27.4963C119.858 27.4289 119.858 27.4289 119.791 27.3615C119.791 27.2942 119.723 27.1594 119.723 27.092C119.723 27.0246 119.723 27.0246 119.656 26.9573C119.656 26.8899 119.589 26.8225 119.589 26.6878C119.589 26.6204 119.589 26.6204 119.521 26.553V26.4856H113.525V26.553C113.525 26.6204 113.525 26.6204 113.457 26.6878C113.457 26.7551 113.39 26.8225 113.39 26.8899C113.39 26.9573 113.39 27.0246 113.323 27.0246C113.323 27.092 113.255 27.1594 113.255 27.2942C113.255 27.3615 113.188 27.3615 113.188 27.4289C113.255 27.631 113.188 27.6984 113.188 27.7658C113.188 27.8332 113.12 27.8332 113.12 27.9006L112.918 28.3048L112.716 28.7091C112.716 28.7765 112.649 28.7765 112.649 28.8439C112.581 28.9786 112.514 29.1134 112.447 29.1807C112.447 29.2481 112.379 29.2481 112.379 29.3155C112.312 29.3829 112.244 29.5176 112.177 29.585L112.042 29.7198C111.975 29.7872 111.908 29.9219 111.84 29.9893L111.705 30.124L111.436 30.3936L111.301 30.5283C111.166 30.6631 111.032 30.7978 110.83 30.9326C110.695 31.0673 110.493 31.2021 110.358 31.2695C110.291 31.3369 110.223 31.3369 110.223 31.4042C110.088 31.4716 109.954 31.539 109.819 31.6737C109.751 31.7411 109.684 31.7411 109.617 31.8085L109.212 32.0106C109.145 32.078 109.078 32.078 109.01 32.1454C108.943 32.1454 108.876 32.2128 108.876 32.2128C108.808 34.0994 108.741 35.5143 108.808 36.3902C108.876 39.557 110.358 51.8872 110.695 54.8518H115.95V33.2234H117.433V54.9192H122.688C123.025 51.8872 124.507 39.6244 124.575 36.4576C124.575 35.5143 124.575 34.0994 124.507 32.2801C124.44 32.2801 124.373 32.2128 124.373 32.2128C124.305 32.1454 124.238 32.1454 124.17 32.078C123.834 32.0106 123.699 31.8759 123.564 31.8085ZM108.943 30.4609C109.145 30.3262 109.28 30.2588 109.482 30.124C109.549 30.0567 109.617 30.0567 109.617 29.9893C109.751 29.8545 109.886 29.7872 110.021 29.6524L110.088 29.585L110.493 29.1807C110.56 29.1134 110.56 29.1134 110.56 29.046C110.695 28.9112 110.762 28.7765 110.83 28.7091C110.83 28.6417 110.897 28.6417 110.897 28.5743C111.032 28.4396 111.099 28.2375 111.166 28.1027C111.166 28.1027 111.166 28.0353 111.234 28.0353L111.436 27.631C111.436 27.5637 111.503 27.5637 111.503 27.4963C111.571 27.3615 111.638 27.1594 111.705 27.0246C111.773 26.8899 111.84 26.7551 111.84 26.6204V26.553H109.145C109.01 27.9679 108.943 29.3155 108.943 30.4609ZM121.138 26.553C121.273 26.8899 121.341 27.2268 121.475 27.5637C121.475 27.631 121.543 27.631 121.543 27.6984L121.745 28.1027C121.745 28.1027 121.745 28.1701 121.812 28.1701C121.88 28.3048 122.014 28.507 122.149 28.6417L122.216 28.7091C122.284 28.8439 122.419 28.9786 122.553 29.1134C122.553 29.1807 122.621 29.1807 122.621 29.2481L123.025 29.6524C123.025 29.6524 123.092 29.6524 123.092 29.7198C123.227 29.8545 123.362 29.9893 123.564 30.0567C123.631 30.0567 123.631 30.124 123.699 30.124C123.901 30.2588 124.036 30.3936 124.238 30.4609C124.17 29.046 124.036 27.631 123.968 26.553H121.138Z" fill="url(#paint2_linear_675_1972)"/>
<rect x="124.643" y="39.0854" width="60.4554" height="60.4554" rx="8.63649" fill="url(#paint3_linear_675_1972)"/>
<path d="M174.623 44.5885C174.727 44.2702 175.177 44.2702 175.28 44.5885L175.883 46.4422C175.929 46.5846 176.062 46.681 176.211 46.681L178.16 46.681C178.495 46.681 178.634 47.1093 178.364 47.306L176.787 48.4517C176.666 48.5397 176.615 48.6956 176.661 48.838L177.263 50.6917C177.367 51.01 177.003 51.2747 176.732 51.078L175.155 49.9323C175.034 49.8443 174.87 49.8443 174.749 49.9323L173.172 51.078C172.901 51.2747 172.537 51.01 172.64 50.6917L173.242 48.838C173.289 48.6956 173.238 48.5397 173.117 48.4517L171.54 47.306C171.269 47.1093 171.409 46.681 171.743 46.681L173.692 46.681C173.842 46.681 173.975 46.5846 174.021 46.4422L174.623 44.5885Z" fill="white"/>
<g clip-path="url(#clip0_675_1972)">
<path d="M152.492 55.6156H162.464C162.397 54.8744 162.33 54.268 162.33 53.7964H148.045C147.978 54.268 147.978 54.8744 147.911 55.6156H150.943H152.492ZM162.195 62.3534C162.127 62.286 162.06 62.286 161.993 62.2187C161.858 62.1513 161.723 62.0839 161.588 61.9492C161.521 61.8818 161.454 61.8818 161.454 61.8144C161.319 61.6796 161.117 61.6123 160.982 61.4775H160.915C160.78 61.3427 160.578 61.208 160.443 61.0732L160.308 60.9385L160.039 60.669L159.904 60.5342C159.837 60.4668 159.769 60.3321 159.702 60.2647L159.567 60.1299C159.5 60.0626 159.432 59.9278 159.365 59.8604C159.365 59.793 159.298 59.793 159.298 59.7257C159.23 59.6583 159.163 59.5235 159.095 59.3888L159.028 59.3214L158.826 58.9171L158.624 58.5129C158.624 58.4455 158.624 58.4455 158.556 58.3781C158.556 58.2433 158.489 58.176 158.489 58.0412C158.489 57.9738 158.489 57.9738 158.422 57.9065C158.422 57.8391 158.354 57.7043 158.354 57.6369C158.354 57.5696 158.354 57.5696 158.287 57.5022C158.287 57.4348 158.22 57.3674 158.22 57.2327C158.22 57.1653 158.22 57.1653 158.152 57.0979V57.0305H152.156V57.0979C152.156 57.1653 152.156 57.1653 152.088 57.2327C152.088 57.3001 152.021 57.3674 152.021 57.4348C152.021 57.5022 152.021 57.5696 151.953 57.5696C151.953 57.6369 151.886 57.7043 151.886 57.8391C151.886 57.9065 151.819 57.9065 151.819 57.9738C151.886 58.176 151.819 58.2433 151.819 58.3107C151.819 58.3781 151.751 58.3781 151.751 58.4455L151.549 58.8498L151.347 59.254C151.347 59.3214 151.28 59.3214 151.28 59.3888C151.212 59.5235 151.145 59.6583 151.077 59.7257C151.077 59.793 151.01 59.793 151.01 59.8604C150.943 59.9278 150.875 60.0626 150.808 60.1299L150.673 60.2647C150.606 60.3321 150.538 60.4668 150.471 60.5342L150.336 60.669L150.067 60.9385L149.932 61.0732C149.797 61.208 149.663 61.3427 149.46 61.4775C149.326 61.6123 149.123 61.747 148.989 61.8144C148.921 61.8818 148.854 61.8818 148.854 61.9492C148.719 62.0165 148.584 62.0839 148.45 62.2187C148.382 62.286 148.315 62.286 148.248 62.3534L147.843 62.5556C147.776 62.6229 147.709 62.6229 147.641 62.6903C147.574 62.6903 147.506 62.7577 147.506 62.7577C147.439 64.6443 147.372 66.0592 147.439 66.9351C147.506 70.1019 148.989 82.4321 149.326 85.3968H154.581V63.7684H156.063V85.4641H161.319C161.656 82.4321 163.138 70.1693 163.206 67.0025C163.206 66.0592 163.206 64.6443 163.138 62.8251C163.071 62.8251 163.003 62.7577 163.003 62.7577C162.936 62.6903 162.869 62.6903 162.801 62.6229C162.464 62.5556 162.33 62.4208 162.195 62.3534ZM147.574 61.0059C147.776 60.8711 147.911 60.8037 148.113 60.669C148.18 60.6016 148.248 60.6016 148.248 60.5342C148.382 60.3995 148.517 60.3321 148.652 60.1973L148.719 60.1299L149.123 59.7257C149.191 59.6583 149.191 59.6583 149.191 59.5909C149.326 59.4562 149.393 59.3214 149.46 59.254C149.46 59.1866 149.528 59.1866 149.528 59.1193C149.663 58.9845 149.73 58.7824 149.797 58.6476C149.797 58.6476 149.797 58.5802 149.865 58.5802L150.067 58.176C150.067 58.1086 150.134 58.1086 150.134 58.0412C150.202 57.9065 150.269 57.7043 150.336 57.5696C150.404 57.4348 150.471 57.3001 150.471 57.1653V57.0979H147.776C147.641 58.5129 147.574 59.8604 147.574 61.0059ZM159.769 57.0979C159.904 57.4348 159.971 57.7717 160.106 58.1086C160.106 58.176 160.174 58.176 160.174 58.2433L160.376 58.6476C160.376 58.6476 160.376 58.715 160.443 58.715C160.51 58.8498 160.645 59.0519 160.78 59.1866L160.847 59.254C160.915 59.3888 161.049 59.5235 161.184 59.6583C161.184 59.7257 161.252 59.7257 161.252 59.793L161.656 60.1973C161.656 60.1973 161.723 60.1973 161.723 60.2647C161.858 60.3995 161.993 60.5342 162.195 60.6016C162.262 60.6016 162.262 60.669 162.33 60.669C162.532 60.8037 162.667 60.9385 162.869 61.0059C162.801 59.5909 162.667 58.176 162.599 57.0979H159.769Z" fill="url(#paint4_linear_675_1972)"/>
</g>
<rect x="56.3662" y="61.5444" width="60.4554" height="60.4554" rx="8.63649" fill="url(#paint5_linear_675_1972)"/>
<path d="M107.245 66.1496C107.349 65.8312 107.799 65.8312 107.903 66.1496L108.505 68.0032C108.551 68.1456 108.684 68.242 108.833 68.242L110.783 68.242C111.117 68.242 111.256 68.6703 110.986 68.8671L109.409 70.0127C109.288 70.1007 109.237 70.2566 109.283 70.399L109.886 72.2527C109.989 72.571 109.625 72.8357 109.354 72.639L107.777 71.4934C107.656 71.4054 107.492 71.4054 107.371 71.4934L105.794 72.639C105.523 72.8357 105.159 72.571 105.262 72.2527L105.865 70.399C105.911 70.2566 105.86 70.1007 105.739 70.0127L104.162 68.8671C103.891 68.6703 104.031 68.242 104.365 68.242L106.314 68.242C106.464 68.242 106.597 68.1456 106.643 68.0032L107.245 66.1496Z" fill="white"/>
<path d="M84.2151 78.0751H94.187C94.1197 77.3339 94.0523 76.7275 94.0523 76.2559H79.7681C79.7007 76.7275 79.7007 77.3339 79.6333 78.0751H82.6654H84.2151ZM93.9175 84.8129C93.8501 84.7455 93.7828 84.7455 93.7154 84.6781C93.5806 84.6108 93.4459 84.5434 93.3111 84.4086C93.2437 84.3412 93.1764 84.3412 93.1764 84.2739C93.0416 84.1391 92.8395 84.0717 92.7047 83.937H92.6373C92.5026 83.8022 92.3004 83.6675 92.1657 83.5327L92.0309 83.398L91.7614 83.1284L91.6267 82.9937C91.5593 82.9263 91.4919 82.7915 91.4245 82.7242L91.2898 82.5894C91.2224 82.522 91.155 82.3873 91.0876 82.3199C91.0876 82.2525 91.0203 82.2525 91.0203 82.1851C90.9529 82.1178 90.8855 81.983 90.8181 81.8483L90.7508 81.7809L90.5486 81.3766L90.3465 80.9723C90.3465 80.905 90.3465 80.905 90.2791 80.8376C90.2791 80.7028 90.2117 80.6354 90.2117 80.5007C90.2117 80.4333 90.2117 80.4333 90.1443 80.3659C90.1443 80.2986 90.077 80.1638 90.077 80.0964C90.077 80.029 90.077 80.029 90.0096 79.9617C90.0096 79.8943 89.9422 79.8269 89.9422 79.6921C89.9422 79.6248 89.9422 79.6248 89.8748 79.5574V79.49H83.8782V79.5574C83.8782 79.6248 83.8782 79.6248 83.8108 79.6921C83.8108 79.7595 83.7434 79.8269 83.7434 79.8943C83.7434 79.9617 83.7434 80.029 83.676 80.029C83.676 80.0964 83.6087 80.1638 83.6087 80.2986C83.6087 80.3659 83.5413 80.3659 83.5413 80.4333C83.6087 80.6354 83.5413 80.7028 83.5413 80.7702C83.5413 80.8376 83.4739 80.8376 83.4739 80.905L83.2718 81.3092L83.0696 81.7135C83.0696 81.7809 83.0023 81.7809 83.0023 81.8483C82.9349 81.983 82.8675 82.1178 82.8001 82.1851C82.8001 82.2525 82.7327 82.2525 82.7327 82.3199C82.6654 82.3873 82.598 82.522 82.5306 82.5894L82.3959 82.7242C82.3285 82.7915 82.2611 82.9263 82.1937 82.9937L82.059 83.1284L81.7894 83.398L81.6547 83.5327C81.5199 83.6675 81.3852 83.8022 81.183 83.937C81.0483 84.0717 80.8462 84.2065 80.7114 84.2739C80.644 84.3412 80.5766 84.3412 80.5766 84.4086C80.4419 84.476 80.3071 84.5434 80.1724 84.6781C80.105 84.7455 80.0376 84.7455 79.9702 84.8129L79.566 85.015C79.4986 85.0824 79.4312 85.0824 79.3638 85.1498C79.2965 85.1498 79.2291 85.2172 79.2291 85.2172C79.1617 87.1038 79.0943 88.5187 79.1617 89.3946C79.2291 92.5614 80.7114 104.892 81.0483 107.856H86.3038V86.2278H87.7861V107.924H93.0416C93.3785 104.892 94.8608 92.6288 94.9282 89.462C94.9282 88.5187 94.9282 87.1038 94.8608 85.2845C94.7934 85.2845 94.7261 85.2172 94.7261 85.2172C94.6587 85.1498 94.5913 85.1498 94.5239 85.0824C94.187 85.015 94.0523 84.8803 93.9175 84.8129ZM79.2965 83.4653C79.4986 83.3306 79.6333 83.2632 79.8355 83.1284C79.9029 83.0611 79.9702 83.0611 79.9702 82.9937C80.105 82.8589 80.2397 82.7915 80.3745 82.6568L80.4419 82.5894L80.8462 82.1851C80.9135 82.1178 80.9135 82.1178 80.9135 82.0504C81.0483 81.9156 81.1157 81.7809 81.183 81.7135C81.183 81.6461 81.2504 81.6461 81.2504 81.5787C81.3852 81.444 81.4526 81.2418 81.5199 81.1071C81.5199 81.1071 81.5199 81.0397 81.5873 81.0397L81.7894 80.6354C81.7894 80.5681 81.8568 80.5681 81.8568 80.5007C81.9242 80.3659 81.9916 80.1638 82.059 80.029C82.1263 79.8943 82.1937 79.7595 82.1937 79.6248V79.5574H79.4986C79.3638 80.9723 79.2965 82.3199 79.2965 83.4653ZM91.4919 79.5574C91.6267 79.8943 91.694 80.2312 91.8288 80.5681C91.8288 80.6354 91.8962 80.6354 91.8962 80.7028L92.0983 81.1071C92.0983 81.1071 92.0983 81.1745 92.1657 81.1745C92.2331 81.3092 92.3678 81.5114 92.5026 81.6461L92.57 81.7135C92.6373 81.8483 92.7721 81.983 92.9069 82.1178C92.9069 82.1851 92.9742 82.1851 92.9742 82.2525L93.3785 82.6568C93.3785 82.6568 93.4459 82.6568 93.4459 82.7242C93.5806 82.8589 93.7154 82.9937 93.9175 83.0611C93.9849 83.0611 93.9849 83.1284 94.0523 83.1284C94.2544 83.2632 94.3892 83.3979 94.5913 83.4653C94.5239 82.0504 94.3892 80.6354 94.3218 79.5574H91.4919Z" fill="url(#paint6_linear_675_1972)"/>
<g filter="url(#filter0_di_675_1972)">
<rect x="155.026" y="84.5093" width="84.5662" height="23.6785" rx="11.8393" fill="url(#paint7_linear_675_1972)" shape-rendering="crispEdges"/>
<path d="M167.457 90.6697C167.626 90.1503 168.361 90.1503 168.529 90.6697L169.512 93.6942C169.588 93.9265 169.804 94.0838 170.048 94.0838H173.228C173.775 94.0838 174.002 94.7827 173.56 95.1037L170.987 96.9729C170.789 97.1165 170.707 97.3709 170.782 97.6032L171.765 100.628C171.934 101.147 171.339 101.579 170.897 101.258L168.325 99.3888C168.127 99.2453 167.859 99.2453 167.662 99.3888L165.089 101.258C164.647 101.579 164.053 101.147 164.221 100.628L165.204 97.6032C165.28 97.3709 165.197 97.1165 164.999 96.9729L162.427 95.1037C161.985 94.7827 162.212 94.0838 162.758 94.0838H165.938C166.182 94.0838 166.399 93.9265 166.474 93.6942L167.457 90.6697Z" fill="white"/>
<path d="M182.115 90.6697C182.284 90.1503 183.019 90.1503 183.188 90.6697L184.17 93.6942C184.246 93.9265 184.462 94.0838 184.706 94.0838H187.887C188.433 94.0838 188.66 94.7827 188.218 95.1037L185.645 96.9729C185.448 97.1165 185.365 97.3709 185.44 97.6032L186.423 100.628C186.592 101.147 185.997 101.579 185.556 101.258L182.983 99.3888C182.785 99.2453 182.518 99.2453 182.32 99.3888L179.747 101.258C179.305 101.579 178.711 101.147 178.88 100.628L179.862 97.6032C179.938 97.3709 179.855 97.1165 179.658 96.9729L177.085 95.1037C176.643 94.7827 176.87 94.0838 177.416 94.0838H180.596C180.84 94.0838 181.057 93.9265 181.132 93.6942L182.115 90.6697Z" fill="white"/>
<path d="M196.773 90.6697C196.942 90.1503 197.677 90.1503 197.846 90.6697L198.828 93.6942C198.904 93.9265 199.12 94.0838 199.365 94.0838H202.545C203.091 94.0838 203.318 94.7827 202.876 95.1037L200.303 96.9729C200.106 97.1165 200.023 97.3709 200.099 97.6032L201.081 100.628C201.25 101.147 200.656 101.579 200.214 101.258L197.641 99.3888C197.443 99.2453 197.176 99.2453 196.978 99.3888L194.405 101.258C193.964 101.579 193.369 101.147 193.538 100.628L194.521 97.6032C194.596 97.3709 194.513 97.1165 194.316 96.9729L191.743 95.1037C191.301 94.7827 191.528 94.0838 192.074 94.0838H195.254C195.499 94.0838 195.715 93.9265 195.791 93.6942L196.773 90.6697Z" fill="white"/>
<path d="M211.432 90.6697C211.6 90.1503 212.335 90.1503 212.504 90.6697L213.487 93.6942C213.562 93.9265 213.779 94.0838 214.023 94.0838H217.203C217.749 94.0838 217.976 94.7827 217.534 95.1037L214.962 96.9729C214.764 97.1165 214.681 97.3709 214.757 97.6032L215.739 100.628C215.908 101.147 215.314 101.579 214.872 101.258L212.299 99.3888C212.102 99.2453 211.834 99.2453 211.636 99.3888L209.064 101.258C208.622 101.579 208.027 101.147 208.196 100.628L209.179 97.6032C209.254 97.3709 209.172 97.1165 208.974 96.9729L206.401 95.1037C205.959 94.7827 206.186 94.0838 206.733 94.0838H209.913C210.157 94.0838 210.373 93.9265 210.449 93.6942L211.432 90.6697Z" fill="white"/>
<path d="M226.09 90.6697C226.259 90.1503 226.993 90.1503 227.162 90.6697L228.145 93.6942C228.22 93.9265 228.437 94.0838 228.681 94.0838H231.861C232.407 94.0838 232.634 94.7827 232.193 95.1037L229.62 96.9729C229.422 97.1165 229.339 97.3709 229.415 97.6032L230.398 100.628C230.566 101.147 229.972 101.579 229.53 101.258L226.957 99.3888C226.76 99.2453 226.492 99.2453 226.295 99.3888L223.722 101.258C223.28 101.579 222.685 101.147 222.854 100.628L223.837 97.6032C223.912 97.3709 223.83 97.1165 223.632 96.9729L221.059 95.1037C220.617 94.7827 220.845 94.0838 221.391 94.0838H224.571C224.815 94.0838 225.032 93.9265 225.107 93.6942L226.09 90.6697Z" fill="white"/>
</g>
</g>
<defs>
<filter id="filter0_di_675_1972" x="149.107" y="78.5896" width="104.299" height="43.4108" filterUnits="userSpaceOnUse" color-interpolation-filters="sRGB">
<feFlood flood-opacity="0" result="BackgroundImageFix"/>
<feColorMatrix in="SourceAlpha" type="matrix" values="0 0 0 0 0 0 0 0 0 0 0 0 0 0 0 0 0 0 127 0" result="hardAlpha"/>
<feOffset dx="3.94642" dy="3.94642"/>
<feGaussianBlur stdDeviation="4.93303"/>
<feComposite in2="hardAlpha" operator="out"/>
<feColorMatrix type="matrix" values="0 0 0 0 0.28066 0 0 0 0 0.454764 0 0 0 0 0.570833 0 0 0 0.8 0"/>
<feBlend mode="normal" in2="BackgroundImageFix" result="effect1_dropShadow_675_1972"/>
<feBlend mode="normal" in="SourceGraphic" in2="effect1_dropShadow_675_1972" result="shape"/>
<feColorMatrix in="SourceAlpha" type="matrix" values="0 0 0 0 0 0 0 0 0 0 0 0 0 0 0 0 0 0 127 0" result="hardAlpha"/>
<feOffset dy="3.94642"/>
<feGaussianBlur stdDeviation="1.97321"/>
<feComposite in2="hardAlpha" operator="arithmetic" k2="-1" k3="1"/>
<feColorMatrix type="matrix" values="0 0 0 0 1 0 0 0 0 1 0 0 0 0 1 0 0 0 0.25 0"/>
<feBlend mode="overlay" in2="shape" result="effect2_innerShadow_675_1972"/>
</filter>
<linearGradient id="paint0_linear_675_1972" x1="111.661" y1="-48" x2="235.079" y2="174.959" gradientUnits="userSpaceOnUse">
<stop offset="0.0064921" stop-color="#F0F5F8"/>
<stop offset="1" stop-color="#19527A"/>
</linearGradient>
<linearGradient id="paint1_linear_675_1972" x1="97.6905" y1="20.6979" x2="135.698" y2="72.7034" gradientUnits="userSpaceOnUse">
<stop stop-color="white" stop-opacity="0.52"/>
<stop offset="1" stop-color="white" stop-opacity="0"/>
</linearGradient>
<linearGradient id="paint2_linear_675_1972" x1="116.677" y1="23.2515" x2="116.677" y2="54.9192" gradientUnits="userSpaceOnUse">
<stop stop-color="#DCE8F0"/>
<stop offset="1" stop-color="#87A4B8"/>
</linearGradient>
<linearGradient id="paint3_linear_675_1972" x1="135.422" y1="51.2428" x2="173.429" y2="103.248" gradientUnits="userSpaceOnUse">
<stop stop-color="white" stop-opacity="0.52"/>
<stop offset="1" stop-color="white" stop-opacity="0"/>
</linearGradient>
<linearGradient id="paint4_linear_675_1972" x1="155.308" y1="53.7964" x2="155.308" y2="85.4641" gradientUnits="userSpaceOnUse">
<stop stop-color="#DCE8F0"/>
<stop offset="1" stop-color="#87A4B8"/>
</linearGradient>
<linearGradient id="paint5_linear_675_1972" x1="67.1456" y1="73.7018" x2="105.153" y2="125.707" gradientUnits="userSpaceOnUse">
<stop stop-color="white" stop-opacity="0.52"/>
<stop offset="1" stop-color="white" stop-opacity="0"/>
</linearGradient>
<linearGradient id="paint6_linear_675_1972" x1="87.031" y1="76.2559" x2="87.031" y2="107.924" gradientUnits="userSpaceOnUse">
<stop stop-color="#DCE8F0"/>
<stop offset="1" stop-color="#87A4B8"/>
</linearGradient>
<linearGradient id="paint7_linear_675_1972" x1="170.105" y1="89.2709" x2="176.242" y2="119.263" gradientUnits="userSpaceOnUse">
<stop stop-color="white" stop-opacity="0.52"/>
<stop offset="1" stop-color="white" stop-opacity="0"/>
</linearGradient>
<clipPath id="clip0_675_1972">
<rect width="32.3415" height="32.3415" fill="white" transform="translate(139.017 53.4595)"/>
</clipPath>
</defs>
</svg>
