<svg width="94" height="94" viewBox="0 0 94 94" fill="none" xmlns="http://www.w3.org/2000/svg">
<mask id="mask0_1533_49486" style="mask-type:alpha" maskUnits="userSpaceOnUse" x="0" y="0" width="94" height="94">
<circle cx="46.9977" cy="46.9996" r="46.943" fill="#D9D9D9"/>
</mask>
<g mask="url(#mask0_1533_49486)">
<g filter="url(#filter0_f_1533_49486)">
<ellipse cx="50" cy="45.9994" rx="23" ry="19.7143" fill="#00845C"/>
</g>
<g clip-path="url(#clip0_1533_49486)">
<path d="M68.1961 41.4132L47.5006 54.8044L26.805 41.4132V20.7176C26.7907 20.0595 27.3126 19.5146 27.9707 19.5003C27.9879 19.4999 28.0052 19.4999 28.0224 19.5003H66.9787C67.6368 19.486 68.1819 20.0079 68.1961 20.666C68.1965 20.6832 68.1965 20.7005 68.1961 20.7177V41.4132Z" fill="#FFF2F2"/>
<path d="M26.8043 41.4141L19.5 36.5445L26.8043 29.2402V41.4141ZM75.4998 36.5445L68.1955 41.4141V29.2402L75.4998 36.5445Z" fill="#F6B445"/>
<path d="M68.1982 41.303L75.5025 36.543V70.6298C75.5002 71.921 74.9884 73.1592 74.0782 74.075L65.7635 65.7603L52.3722 52.369L52.0312 51.8455L68.1982 41.303Z" fill="#FED049"/>
<path d="M65.7583 65.7604L74.073 74.0751C73.1571 74.9853 71.9189 75.4972 70.6277 75.4995H24.3671C23.0759 75.4972 21.8378 74.9853 20.9219 74.0751L29.2366 65.7604L42.6278 52.3692L42.9687 51.8457L47.4974 54.804L52.026 51.8457L52.3669 52.3692L65.7583 65.7604Z" fill="#F6B445"/>
<path d="M42.9711 51.8455L42.6302 52.369L29.239 65.7602L20.9243 74.0749C20.0142 73.159 19.5023 71.9209 19.5 70.6297V36.543L42.9711 51.8455Z" fill="#FED049"/>
<path d="M61.0149 48.7172C69.083 48.7172 75.6235 42.1767 75.6235 34.1086C75.6235 26.0405 69.083 19.5 61.0149 19.5C52.9468 19.5 46.4062 26.0405 46.4062 34.1086C46.4062 42.1767 52.9468 48.7172 61.0149 48.7172Z" fill="#00845C"/>
<path fill-rule="evenodd" clip-rule="evenodd" d="M69.3599 28.1843C69.5642 28.3888 69.6789 28.6661 69.6789 28.9552C69.6789 29.2443 69.5642 29.5215 69.3599 29.7261L59.9054 39.1806C59.7008 39.3849 59.4235 39.4997 59.1345 39.4997C58.8454 39.4997 58.5681 39.3849 58.3635 39.1806L53.6363 34.4534C53.5291 34.3535 53.4431 34.2331 53.3835 34.0992C53.3239 33.9654 53.2918 33.821 53.2892 33.6745C53.2866 33.528 53.3136 33.3825 53.3685 33.2467C53.4233 33.1108 53.505 32.9874 53.6086 32.8839C53.7122 32.7803 53.8356 32.6986 53.9714 32.6437C54.1072 32.5889 54.2527 32.5619 54.3992 32.5645C54.5457 32.5671 54.6901 32.5991 54.824 32.6588C54.9578 32.7184 55.0782 32.8044 55.1781 32.9115L59.1345 36.8679L67.8181 28.1843C68.0226 27.98 68.2999 27.8652 68.589 27.8652C68.8781 27.8652 69.1554 27.98 69.3599 28.1843Z" fill="white"/>
</g>
</g>
<defs>
<filter id="filter0_f_1533_49486" x="-2.96299" y="-3.67783" width="105.926" height="99.3537" filterUnits="userSpaceOnUse" color-interpolation-filters="sRGB">
<feFlood flood-opacity="0" result="BackgroundImageFix"/>
<feBlend mode="normal" in="SourceGraphic" in2="BackgroundImageFix" result="shape"/>
<feGaussianBlur stdDeviation="14.9815" result="effect1_foregroundBlur_1533_49486"/>
</filter>
<clipPath id="clip0_1533_49486">
<rect width="56" height="56" fill="white" transform="translate(19.5 19.5)"/>
</clipPath>
</defs>
</svg>
