<svg width="275" height="130" viewBox="0 0 275 130" fill="none" xmlns="http://www.w3.org/2000/svg">
<path d="M0 16C0 7.16344 6.61056 0 14.7651 0H260.235C268.389 0 275 7.16344 275 16V114C275 122.837 268.389 130 260.235 130H14.7651C6.61056 130 0 122.837 0 114V16Z" fill="url(#paint0_linear_1284_15126)"/>
<mask id="mask0_1284_15126" style="mask-type:alpha" maskUnits="userSpaceOnUse" x="0" y="0" width="275" height="130">
<path d="M0 13.6521C0 6.11226 6.11226 0 13.6521 0H261.348C268.888 0 275 6.11226 275 13.6521V116.348C275 123.888 268.888 130 261.348 130H13.6521C6.11225 130 0 123.888 0 116.348V13.6521Z" fill="white"/>
</mask>
<g mask="url(#mask0_1284_15126)">
<rect x="183.859" y="5" width="81" height="83" rx="10" fill="url(#paint1_linear_1284_15126)"/>
<circle cx="200.859" cy="21" r="10" fill="#E6ECF1"/>
<mask id="mask1_1284_15126" style="mask-type:alpha" maskUnits="userSpaceOnUse" x="190" y="11" width="21" height="20">
<circle cx="200.859" cy="21" r="10" fill="#D9D9D9"/>
</mask>
<g mask="url(#mask1_1284_15126)">
<path d="M206.516 26.3431C205.645 25.4718 204.608 24.8268 203.476 24.4363C204.688 23.6016 205.484 22.2046 205.484 20.625C205.484 18.0748 203.41 16 200.859 16C198.309 16 196.234 18.0748 196.234 20.625C196.234 22.2046 197.031 23.6016 198.243 24.4363C197.111 24.8268 196.074 25.4718 195.203 26.3431C193.692 27.8542 192.859 29.8631 192.859 32H194.109C194.109 28.278 197.137 25.25 200.859 25.25C204.581 25.25 207.609 28.278 207.609 32H208.859C208.859 29.8631 208.027 27.8542 206.516 26.3431ZM200.859 24C198.998 24 197.484 22.486 197.484 20.625C197.484 18.764 198.998 17.25 200.859 17.25C202.72 17.25 204.234 18.764 204.234 20.625C204.234 22.486 202.72 24 200.859 24Z" fill="#688EA8"/>
</g>
<rect x="190.359" y="60" width="63" height="4" rx="2" fill="#E4EBF0"/>
<rect x="190.359" y="68" width="48" height="4" rx="2" fill="#E4EBF0"/>
<g filter="url(#filter0_di_1284_15126)">
<rect x="169" y="34.8398" width="64.2857" height="18" rx="9" fill="url(#paint2_linear_1284_15126)" shape-rendering="crispEdges"/>
<path d="M178.453 39.524C178.581 39.1291 179.14 39.1291 179.268 39.524L180.015 41.8232C180.073 41.9997 180.237 42.1193 180.423 42.1193H182.84C183.255 42.1193 183.428 42.6506 183.092 42.8946L181.136 44.3156C180.986 44.4247 180.923 44.6181 180.981 44.7947L181.728 47.0939C181.856 47.4887 181.404 47.8171 181.068 47.573L179.112 46.1521C178.962 46.0429 178.759 46.0429 178.609 46.1521L176.653 47.573C176.317 47.8171 175.865 47.4887 175.993 47.0939L176.74 44.7947C176.798 44.6181 176.735 44.4247 176.585 44.3156L174.629 42.8946C174.293 42.6506 174.466 42.1193 174.881 42.1193H177.298C177.484 42.1193 177.648 41.9997 177.706 41.8232L178.453 39.524Z" fill="white"/>
<path d="M189.594 39.524C189.722 39.1291 190.28 39.1291 190.409 39.524L191.156 41.8232C191.213 41.9997 191.378 42.1193 191.563 42.1193H193.981C194.396 42.1193 194.569 42.6506 194.233 42.8946L192.277 44.3156C192.127 44.4247 192.064 44.6181 192.121 44.7947L192.868 47.0939C192.997 47.4887 192.545 47.8171 192.209 47.573L190.253 46.1521C190.103 46.0429 189.899 46.0429 189.749 46.1521L187.793 47.573C187.458 47.8171 187.006 47.4887 187.134 47.0939L187.881 44.7947C187.938 44.6181 187.875 44.4247 187.725 44.3156L185.769 42.8946C185.434 42.6506 185.606 42.1193 186.021 42.1193H188.439C188.625 42.1193 188.789 41.9997 188.846 41.8232L189.594 39.524Z" fill="white"/>
<path d="M200.734 39.524C200.862 39.1291 201.421 39.1291 201.549 39.524L202.296 41.8232C202.354 41.9997 202.518 42.1193 202.704 42.1193H205.121C205.537 42.1193 205.709 42.6506 205.373 42.8946L203.418 44.3156C203.267 44.4247 203.205 44.6181 203.262 44.7947L204.009 47.0939C204.137 47.4887 203.685 47.8171 203.349 47.573L201.394 46.1521C201.243 46.0429 201.04 46.0429 200.89 46.1521L198.934 47.573C198.598 47.8171 198.146 47.4887 198.275 47.0939L199.022 44.7947C199.079 44.6181 199.016 44.4247 198.866 44.3156L196.91 42.8946C196.574 42.6506 196.747 42.1193 197.162 42.1193H199.58C199.765 42.1193 199.93 41.9997 199.987 41.8232L200.734 39.524Z" fill="white"/>
<path d="M211.875 39.524C212.003 39.1291 212.562 39.1291 212.69 39.524L213.437 41.8232C213.494 41.9997 213.659 42.1193 213.845 42.1193H216.262C216.677 42.1193 216.85 42.6506 216.514 42.8946L214.558 44.3156C214.408 44.4247 214.345 44.6181 214.403 44.7947L215.15 47.0939C215.278 47.4887 214.826 47.8171 214.49 47.573L212.534 46.1521C212.384 46.0429 212.181 46.0429 212.03 46.1521L210.075 47.573C209.739 47.8171 209.287 47.4887 209.415 47.0939L210.162 44.7947C210.22 44.6181 210.157 44.4247 210.007 44.3156L208.051 42.8946C207.715 42.6506 207.887 42.1193 208.303 42.1193H210.72C210.906 42.1193 211.07 41.9997 211.128 41.8232L211.875 39.524Z" fill="white"/>
<path d="M223.023 39.524C223.152 39.1291 223.71 39.1291 223.838 39.524L224.585 41.8232C224.643 41.9997 224.807 42.1193 224.993 42.1193H227.411C227.826 42.1193 227.998 42.6506 227.662 42.8946L225.707 44.3156C225.556 44.4247 225.494 44.6181 225.551 44.7947L226.298 47.0939C226.426 47.4887 225.974 47.8171 225.639 47.573L223.683 46.1521C223.533 46.0429 223.329 46.0429 223.179 46.1521L221.223 47.573C220.887 47.8171 220.435 47.4887 220.564 47.0939L221.311 44.7947C221.368 44.6181 221.305 44.4247 221.155 44.3156L219.199 42.8946C218.863 42.6506 219.036 42.1193 219.451 42.1193H221.869C222.054 42.1193 222.219 41.9997 222.276 41.8232L223.023 39.524Z" fill="white"/>
</g>
<rect x="20.8594" y="-14" width="81" height="83" rx="10" fill="url(#paint3_linear_1284_15126)"/>
<circle cx="37.8594" cy="2" r="10" fill="#E6ECF1"/>
<mask id="mask2_1284_15126" style="mask-type:alpha" maskUnits="userSpaceOnUse" x="27" y="-8" width="21" height="20">
<circle cx="37.8594" cy="2" r="10" fill="#D9D9D9"/>
</mask>
<g mask="url(#mask2_1284_15126)">
<path d="M43.5162 7.34313C42.6449 6.47181 41.6078 5.82678 40.4762 5.43631C41.6882 4.60159 42.4844 3.20463 42.4844 1.625C42.4844 -0.925219 40.4096 -3 37.8594 -3C35.3092 -3 33.2344 -0.925219 33.2344 1.625C33.2344 3.20463 34.0306 4.60159 35.2426 5.43631C34.111 5.82678 33.0739 6.47181 32.2025 7.34313C30.6915 8.85416 29.8594 10.8631 29.8594 13H31.1094C31.1094 9.27803 34.1374 6.25 37.8594 6.25C41.5813 6.25 44.6094 9.27803 44.6094 13H45.8594C45.8594 10.8631 45.0272 8.85416 43.5162 7.34313ZM37.8594 5C35.9984 5 34.4844 3.486 34.4844 1.625C34.4844 -0.236 35.9984 -1.75 37.8594 -1.75C39.7203 -1.75 41.2344 -0.236 41.2344 1.625C41.2344 3.486 39.7203 5 37.8594 5Z" fill="#688EA8"/>
</g>
<rect x="27.3594" y="41" width="63" height="4" rx="2" fill="#E4EBF0"/>
<rect x="27.3594" y="49" width="48" height="4" rx="2" fill="#E4EBF0"/>
<g filter="url(#filter1_di_1284_15126)">
<rect x="6" y="15.8398" width="64.2857" height="18" rx="9" fill="url(#paint4_linear_1284_15126)" shape-rendering="crispEdges"/>
<path d="M15.4529 20.524C15.5812 20.1291 16.1398 20.1291 16.2681 20.524L17.0151 22.8232C17.0725 22.9997 17.2371 23.1193 17.4227 23.1193H19.8402C20.2554 23.1193 20.428 23.6506 20.0921 23.8946L18.1363 25.3156C17.9861 25.4247 17.9233 25.6181 17.9807 25.7947L18.7277 28.0939C18.856 28.4887 18.4041 28.8171 18.0682 28.573L16.1124 27.1521C15.9622 27.0429 15.7588 27.0429 15.6086 27.1521L13.6528 28.573C13.3169 28.8171 12.865 28.4887 12.9933 28.0939L13.7403 25.7947C13.7977 25.6181 13.7349 25.4247 13.5846 25.3156L11.6288 23.8946C11.293 23.6506 11.4656 23.1193 11.8808 23.1193H14.2983C14.4839 23.1193 14.6485 22.9997 14.7058 22.8232L15.4529 20.524Z" fill="white"/>
<path d="M26.5935 20.524C26.7218 20.1291 27.2804 20.1291 27.4087 20.524L28.1558 22.8232C28.2131 22.9997 28.3777 23.1193 28.5634 23.1193H30.9809C31.396 23.1193 31.5686 23.6506 31.2328 23.8946L29.277 25.3156C29.1268 25.4247 29.0639 25.6181 29.1213 25.7947L29.8683 28.0939C29.9966 28.4887 29.5447 28.8171 29.2088 28.573L27.253 27.1521C27.1028 27.0429 26.8994 27.0429 26.7492 27.1521L24.7934 28.573C24.4575 28.8171 24.0056 28.4887 24.1339 28.0939L24.881 25.7947C24.9383 25.6181 24.8755 25.4247 24.7253 25.3156L22.7695 23.8946C22.4336 23.6506 22.6062 23.1193 23.0214 23.1193H25.4389C25.6245 23.1193 25.7891 22.9997 25.8465 22.8232L26.5935 20.524Z" fill="white"/>
<path d="M37.7341 20.524C37.8624 20.1291 38.421 20.1291 38.5493 20.524L39.2964 22.8232C39.3538 22.9997 39.5183 23.1193 39.704 23.1193H42.1215C42.5366 23.1193 42.7093 23.6506 42.3734 23.8946L40.4176 25.3156C40.2674 25.4247 40.2045 25.6181 40.2619 25.7947L41.0089 28.0939C41.1372 28.4887 40.6853 28.8171 40.3494 28.573L38.3936 27.1521C38.2434 27.0429 38.04 27.0429 37.8898 27.1521L35.934 28.573C35.5982 28.8171 35.1462 28.4887 35.2745 28.0939L36.0216 25.7947C36.079 25.6181 36.0161 25.4247 35.8659 25.3156L33.9101 23.8946C33.5742 23.6506 33.7468 23.1193 34.162 23.1193H36.5795C36.7652 23.1193 36.9297 22.9997 36.9871 22.8232L37.7341 20.524Z" fill="white"/>
<path d="M48.8748 20.524C49.0031 20.1291 49.5617 20.1291 49.69 20.524L50.437 22.8232C50.4944 22.9997 50.6589 23.1193 50.8446 23.1193H53.2621C53.6773 23.1193 53.8499 23.6506 53.514 23.8946L51.5582 25.3156C51.408 25.4247 51.3452 25.6181 51.4025 25.7947L52.1496 28.0939C52.2779 28.4887 51.8259 28.8171 51.4901 28.573L49.5343 27.1521C49.3841 27.0429 49.1807 27.0429 49.0305 27.1521L47.0747 28.573C46.7388 28.8171 46.2869 28.4887 46.4152 28.0939L47.1622 25.7947C47.2196 25.6181 47.1567 25.4247 47.0065 25.3156L45.0507 23.8946C44.7148 23.6506 44.8875 23.1193 45.3026 23.1193H47.7201C47.9058 23.1193 48.0703 22.9997 48.1277 22.8232L48.8748 20.524Z" fill="white"/>
<path d="M60.0232 20.524C60.1515 20.1291 60.7101 20.1291 60.8384 20.524L61.5854 22.8232C61.6428 22.9997 61.8074 23.1193 61.993 23.1193H64.4105C64.8257 23.1193 64.9983 23.6506 64.6624 23.8946L62.7067 25.3156C62.5564 25.4247 62.4936 25.6181 62.551 25.7947L63.298 28.0939C63.4263 28.4887 62.9744 28.8171 62.6385 28.573L60.6827 27.1521C60.5325 27.0429 60.3291 27.0429 60.1789 27.1521L58.2231 28.573C57.8872 28.8171 57.4353 28.4887 57.5636 28.0939L58.3106 25.7947C58.368 25.6181 58.3052 25.4247 58.155 25.3156L56.1992 23.8946C55.8633 23.6506 56.0359 23.1193 56.4511 23.1193H58.8686C59.0542 23.1193 59.2188 22.9997 59.2762 22.8232L60.0232 20.524Z" fill="white"/>
</g>
<rect x="20.8594" y="74" width="81" height="83" rx="10" fill="url(#paint5_linear_1284_15126)"/>
<circle cx="37.8594" cy="90" r="10" fill="#E6ECF1"/>
<mask id="mask3_1284_15126" style="mask-type:alpha" maskUnits="userSpaceOnUse" x="27" y="80" width="21" height="20">
<circle cx="37.8594" cy="90" r="10" fill="#D9D9D9"/>
</mask>
<g mask="url(#mask3_1284_15126)">
<path d="M43.5162 95.3431C42.6449 94.4718 41.6078 93.8268 40.4762 93.4363C41.6882 92.6016 42.4844 91.2046 42.4844 89.625C42.4844 87.0748 40.4096 85 37.8594 85C35.3092 85 33.2344 87.0748 33.2344 89.625C33.2344 91.2046 34.0306 92.6016 35.2426 93.4363C34.111 93.8268 33.0739 94.4718 32.2025 95.3431C30.6915 96.8542 29.8594 98.8631 29.8594 101H31.1094C31.1094 97.278 34.1374 94.25 37.8594 94.25C41.5813 94.25 44.6094 97.278 44.6094 101H45.8594C45.8594 98.8631 45.0272 96.8542 43.5162 95.3431ZM37.8594 93C35.9984 93 34.4844 91.486 34.4844 89.625C34.4844 87.764 35.9984 86.25 37.8594 86.25C39.7203 86.25 41.2344 87.764 41.2344 89.625C41.2344 91.486 39.7203 93 37.8594 93Z" fill="#688EA8"/>
</g>
<rect x="27.3594" y="129" width="63" height="4" rx="2" fill="#E4EBF0"/>
<g filter="url(#filter2_di_1284_15126)">
<rect x="6" y="103.84" width="64.2857" height="18" rx="9" fill="url(#paint6_linear_1284_15126)" shape-rendering="crispEdges"/>
<path d="M15.4529 108.524C15.5812 108.129 16.1398 108.129 16.2681 108.524L17.0151 110.823C17.0725 111 17.2371 111.119 17.4227 111.119H19.8402C20.2554 111.119 20.428 111.651 20.0921 111.895L18.1363 113.316C17.9861 113.425 17.9233 113.618 17.9807 113.795L18.7277 116.094C18.856 116.489 18.4041 116.817 18.0682 116.573L16.1124 115.152C15.9622 115.043 15.7588 115.043 15.6086 115.152L13.6528 116.573C13.3169 116.817 12.865 116.489 12.9933 116.094L13.7403 113.795C13.7977 113.618 13.7349 113.425 13.5846 113.316L11.6288 111.895C11.293 111.651 11.4656 111.119 11.8808 111.119H14.2983C14.4839 111.119 14.6485 111 14.7058 110.823L15.4529 108.524Z" fill="white"/>
<path d="M26.5935 108.524C26.7218 108.129 27.2804 108.129 27.4087 108.524L28.1558 110.823C28.2131 111 28.3777 111.119 28.5634 111.119H30.9809C31.396 111.119 31.5686 111.651 31.2328 111.895L29.277 113.316C29.1268 113.425 29.0639 113.618 29.1213 113.795L29.8683 116.094C29.9966 116.489 29.5447 116.817 29.2088 116.573L27.253 115.152C27.1028 115.043 26.8994 115.043 26.7492 115.152L24.7934 116.573C24.4575 116.817 24.0056 116.489 24.1339 116.094L24.881 113.795C24.9383 113.618 24.8755 113.425 24.7253 113.316L22.7695 111.895C22.4336 111.651 22.6062 111.119 23.0214 111.119H25.4389C25.6245 111.119 25.7891 111 25.8465 110.823L26.5935 108.524Z" fill="white"/>
<path d="M37.7341 108.524C37.8624 108.129 38.421 108.129 38.5493 108.524L39.2964 110.823C39.3538 111 39.5183 111.119 39.704 111.119H42.1215C42.5366 111.119 42.7093 111.651 42.3734 111.895L40.4176 113.316C40.2674 113.425 40.2045 113.618 40.2619 113.795L41.0089 116.094C41.1372 116.489 40.6853 116.817 40.3494 116.573L38.3936 115.152C38.2434 115.043 38.04 115.043 37.8898 115.152L35.934 116.573C35.5982 116.817 35.1462 116.489 35.2745 116.094L36.0216 113.795C36.079 113.618 36.0161 113.425 35.8659 113.316L33.9101 111.895C33.5742 111.651 33.7468 111.119 34.162 111.119H36.5795C36.7652 111.119 36.9297 111 36.9871 110.823L37.7341 108.524Z" fill="white"/>
<path d="M48.8748 108.524C49.0031 108.129 49.5617 108.129 49.69 108.524L50.437 110.823C50.4944 111 50.6589 111.119 50.8446 111.119H53.2621C53.6773 111.119 53.8499 111.651 53.514 111.895L51.5582 113.316C51.408 113.425 51.3452 113.618 51.4025 113.795L52.1496 116.094C52.2779 116.489 51.8259 116.817 51.4901 116.573L49.5343 115.152C49.3841 115.043 49.1807 115.043 49.0305 115.152L47.0747 116.573C46.7388 116.817 46.2869 116.489 46.4152 116.094L47.1622 113.795C47.2196 113.618 47.1567 113.425 47.0065 113.316L45.0507 111.895C44.7148 111.651 44.8875 111.119 45.3026 111.119H47.7201C47.9058 111.119 48.0703 111 48.1277 110.823L48.8748 108.524Z" fill="white"/>
<path d="M60.0232 108.524C60.1515 108.129 60.7101 108.129 60.8384 108.524L61.5854 110.823C61.6428 111 61.8074 111.119 61.993 111.119H64.4105C64.8257 111.119 64.9983 111.651 64.6624 111.895L62.7067 113.316C62.5564 113.425 62.4936 113.618 62.551 113.795L63.298 116.094C63.4263 116.489 62.9744 116.817 62.6385 116.573L60.6827 115.152C60.5325 115.043 60.3291 115.043 60.1789 115.152L58.2231 116.573C57.8872 116.817 57.4353 116.489 57.5636 116.094L58.3106 113.795C58.368 113.618 58.3052 113.425 58.155 113.316L56.1992 111.895C55.8633 111.651 56.0359 111.119 56.4511 111.119H58.8686C59.0542 111.119 59.2188 111 59.2762 110.823L60.0232 108.524Z" fill="white"/>
</g>
<rect x="125.859" y="75" width="81" height="83" rx="10" fill="url(#paint7_linear_1284_15126)"/>
<circle cx="142.859" cy="91" r="10" fill="#E6ECF1"/>
<mask id="mask4_1284_15126" style="mask-type:alpha" maskUnits="userSpaceOnUse" x="132" y="81" width="21" height="20">
<circle cx="142.859" cy="91" r="10" fill="#D9D9D9"/>
</mask>
<g mask="url(#mask4_1284_15126)">
<path d="M148.516 96.3431C147.645 95.4718 146.608 94.8268 145.476 94.4363C146.688 93.6016 147.484 92.2046 147.484 90.625C147.484 88.0748 145.41 86 142.859 86C140.309 86 138.234 88.0748 138.234 90.625C138.234 92.2046 139.031 93.6016 140.243 94.4363C139.111 94.8268 138.074 95.4718 137.203 96.3431C135.692 97.8542 134.859 99.8631 134.859 102H136.109C136.109 98.278 139.137 95.25 142.859 95.25C146.581 95.25 149.609 98.278 149.609 102H150.859C150.859 99.8631 150.027 97.8542 148.516 96.3431ZM142.859 94C140.998 94 139.484 92.486 139.484 90.625C139.484 88.764 140.998 87.25 142.859 87.25C144.72 87.25 146.234 88.764 146.234 90.625C146.234 92.486 144.72 94 142.859 94Z" fill="#688EA8"/>
</g>
<g filter="url(#filter3_di_1284_15126)">
<rect x="111" y="104.84" width="64.2857" height="18" rx="9" fill="url(#paint8_linear_1284_15126)" shape-rendering="crispEdges"/>
<path d="M120.453 109.524C120.581 109.129 121.14 109.129 121.268 109.524L122.015 111.823C122.073 112 122.237 112.119 122.423 112.119H124.84C125.255 112.119 125.428 112.651 125.092 112.895L123.136 114.316C122.986 114.425 122.923 114.618 122.981 114.795L123.728 117.094C123.856 117.489 123.404 117.817 123.068 117.573L121.112 116.152C120.962 116.043 120.759 116.043 120.609 116.152L118.653 117.573C118.317 117.817 117.865 117.489 117.993 117.094L118.74 114.795C118.798 114.618 118.735 114.425 118.585 114.316L116.629 112.895C116.293 112.651 116.466 112.119 116.881 112.119H119.298C119.484 112.119 119.648 112 119.706 111.823L120.453 109.524Z" fill="white"/>
<path d="M131.594 109.524C131.722 109.129 132.28 109.129 132.409 109.524L133.156 111.823C133.213 112 133.378 112.119 133.563 112.119H135.981C136.396 112.119 136.569 112.651 136.233 112.895L134.277 114.316C134.127 114.425 134.064 114.618 134.121 114.795L134.868 117.094C134.997 117.489 134.545 117.817 134.209 117.573L132.253 116.152C132.103 116.043 131.899 116.043 131.749 116.152L129.793 117.573C129.458 117.817 129.006 117.489 129.134 117.094L129.881 114.795C129.938 114.618 129.875 114.425 129.725 114.316L127.769 112.895C127.434 112.651 127.606 112.119 128.021 112.119H130.439C130.625 112.119 130.789 112 130.846 111.823L131.594 109.524Z" fill="white"/>
<path d="M142.734 109.524C142.862 109.129 143.421 109.129 143.549 109.524L144.296 111.823C144.354 112 144.518 112.119 144.704 112.119H147.121C147.537 112.119 147.709 112.651 147.373 112.895L145.418 114.316C145.267 114.425 145.205 114.618 145.262 114.795L146.009 117.094C146.137 117.489 145.685 117.817 145.349 117.573L143.394 116.152C143.243 116.043 143.04 116.043 142.89 116.152L140.934 117.573C140.598 117.817 140.146 117.489 140.275 117.094L141.022 114.795C141.079 114.618 141.016 114.425 140.866 114.316L138.91 112.895C138.574 112.651 138.747 112.119 139.162 112.119H141.58C141.765 112.119 141.93 112 141.987 111.823L142.734 109.524Z" fill="white"/>
<path d="M153.875 109.524C154.003 109.129 154.562 109.129 154.69 109.524L155.437 111.823C155.494 112 155.659 112.119 155.845 112.119H158.262C158.677 112.119 158.85 112.651 158.514 112.895L156.558 114.316C156.408 114.425 156.345 114.618 156.403 114.795L157.15 117.094C157.278 117.489 156.826 117.817 156.49 117.573L154.534 116.152C154.384 116.043 154.181 116.043 154.03 116.152L152.075 117.573C151.739 117.817 151.287 117.489 151.415 117.094L152.162 114.795C152.22 114.618 152.157 114.425 152.007 114.316L150.051 112.895C149.715 112.651 149.887 112.119 150.303 112.119H152.72C152.906 112.119 153.07 112 153.128 111.823L153.875 109.524Z" fill="white"/>
<path d="M165.023 109.524C165.152 109.129 165.71 109.129 165.838 109.524L166.585 111.823C166.643 112 166.807 112.119 166.993 112.119H169.411C169.826 112.119 169.998 112.651 169.662 112.895L167.707 114.316C167.556 114.425 167.494 114.618 167.551 114.795L168.298 117.094C168.426 117.489 167.974 117.817 167.639 117.573L165.683 116.152C165.533 116.043 165.329 116.043 165.179 116.152L163.223 117.573C162.887 117.817 162.435 117.489 162.564 117.094L163.311 114.795C163.368 114.618 163.305 114.425 163.155 114.316L161.199 112.895C160.863 112.651 161.036 112.119 161.451 112.119H163.869C164.054 112.119 164.219 112 164.276 111.823L165.023 109.524Z" fill="white"/>
</g>
</g>
<defs>
<filter id="filter0_di_1284_15126" x="164.5" y="30.3398" width="79.2891" height="33" filterUnits="userSpaceOnUse" color-interpolation-filters="sRGB">
<feFlood flood-opacity="0" result="BackgroundImageFix"/>
<feColorMatrix in="SourceAlpha" type="matrix" values="0 0 0 0 0 0 0 0 0 0 0 0 0 0 0 0 0 0 127 0" result="hardAlpha"/>
<feOffset dx="3" dy="3"/>
<feGaussianBlur stdDeviation="3.75"/>
<feComposite in2="hardAlpha" operator="out"/>
<feColorMatrix type="matrix" values="0 0 0 0 0.28066 0 0 0 0 0.454764 0 0 0 0 0.570833 0 0 0 0.8 0"/>
<feBlend mode="normal" in2="BackgroundImageFix" result="effect1_dropShadow_1284_15126"/>
<feBlend mode="normal" in="SourceGraphic" in2="effect1_dropShadow_1284_15126" result="shape"/>
<feColorMatrix in="SourceAlpha" type="matrix" values="0 0 0 0 0 0 0 0 0 0 0 0 0 0 0 0 0 0 127 0" result="hardAlpha"/>
<feOffset dy="3"/>
<feGaussianBlur stdDeviation="1.5"/>
<feComposite in2="hardAlpha" operator="arithmetic" k2="-1" k3="1"/>
<feColorMatrix type="matrix" values="0 0 0 0 1 0 0 0 0 1 0 0 0 0 1 0 0 0 0.25 0"/>
<feBlend mode="overlay" in2="shape" result="effect2_innerShadow_1284_15126"/>
</filter>
<filter id="filter1_di_1284_15126" x="1.5" y="11.3398" width="79.2891" height="33" filterUnits="userSpaceOnUse" color-interpolation-filters="sRGB">
<feFlood flood-opacity="0" result="BackgroundImageFix"/>
<feColorMatrix in="SourceAlpha" type="matrix" values="0 0 0 0 0 0 0 0 0 0 0 0 0 0 0 0 0 0 127 0" result="hardAlpha"/>
<feOffset dx="3" dy="3"/>
<feGaussianBlur stdDeviation="3.75"/>
<feComposite in2="hardAlpha" operator="out"/>
<feColorMatrix type="matrix" values="0 0 0 0 0.28066 0 0 0 0 0.454764 0 0 0 0 0.570833 0 0 0 0.4 0"/>
<feBlend mode="normal" in2="BackgroundImageFix" result="effect1_dropShadow_1284_15126"/>
<feBlend mode="normal" in="SourceGraphic" in2="effect1_dropShadow_1284_15126" result="shape"/>
<feColorMatrix in="SourceAlpha" type="matrix" values="0 0 0 0 0 0 0 0 0 0 0 0 0 0 0 0 0 0 127 0" result="hardAlpha"/>
<feOffset dy="3"/>
<feGaussianBlur stdDeviation="1.5"/>
<feComposite in2="hardAlpha" operator="arithmetic" k2="-1" k3="1"/>
<feColorMatrix type="matrix" values="0 0 0 0 1 0 0 0 0 1 0 0 0 0 1 0 0 0 0.25 0"/>
<feBlend mode="overlay" in2="shape" result="effect2_innerShadow_1284_15126"/>
</filter>
<filter id="filter2_di_1284_15126" x="2.5" y="99.3398" width="79.2891" height="33" filterUnits="userSpaceOnUse" color-interpolation-filters="sRGB">
<feFlood flood-opacity="0" result="BackgroundImageFix"/>
<feColorMatrix in="SourceAlpha" type="matrix" values="0 0 0 0 0 0 0 0 0 0 0 0 0 0 0 0 0 0 127 0" result="hardAlpha"/>
<feOffset dx="4" dy="3"/>
<feGaussianBlur stdDeviation="3.75"/>
<feComposite in2="hardAlpha" operator="out"/>
<feColorMatrix type="matrix" values="0 0 0 0 0.28066 0 0 0 0 0.454764 0 0 0 0 0.570833 0 0 0 0.4 0"/>
<feBlend mode="normal" in2="BackgroundImageFix" result="effect1_dropShadow_1284_15126"/>
<feBlend mode="normal" in="SourceGraphic" in2="effect1_dropShadow_1284_15126" result="shape"/>
<feColorMatrix in="SourceAlpha" type="matrix" values="0 0 0 0 0 0 0 0 0 0 0 0 0 0 0 0 0 0 127 0" result="hardAlpha"/>
<feOffset dy="3"/>
<feGaussianBlur stdDeviation="1.5"/>
<feComposite in2="hardAlpha" operator="arithmetic" k2="-1" k3="1"/>
<feColorMatrix type="matrix" values="0 0 0 0 1 0 0 0 0 1 0 0 0 0 1 0 0 0 0.25 0"/>
<feBlend mode="overlay" in2="shape" result="effect2_innerShadow_1284_15126"/>
</filter>
<filter id="filter3_di_1284_15126" x="106.5" y="100.34" width="79.2891" height="33" filterUnits="userSpaceOnUse" color-interpolation-filters="sRGB">
<feFlood flood-opacity="0" result="BackgroundImageFix"/>
<feColorMatrix in="SourceAlpha" type="matrix" values="0 0 0 0 0 0 0 0 0 0 0 0 0 0 0 0 0 0 127 0" result="hardAlpha"/>
<feOffset dx="3" dy="3"/>
<feGaussianBlur stdDeviation="3.75"/>
<feComposite in2="hardAlpha" operator="out"/>
<feColorMatrix type="matrix" values="0 0 0 0 0.28066 0 0 0 0 0.454764 0 0 0 0 0.570833 0 0 0 0.8 0"/>
<feBlend mode="normal" in2="BackgroundImageFix" result="effect1_dropShadow_1284_15126"/>
<feBlend mode="normal" in="SourceGraphic" in2="effect1_dropShadow_1284_15126" result="shape"/>
<feColorMatrix in="SourceAlpha" type="matrix" values="0 0 0 0 0 0 0 0 0 0 0 0 0 0 0 0 0 0 127 0" result="hardAlpha"/>
<feOffset dy="3"/>
<feGaussianBlur stdDeviation="1.5"/>
<feComposite in2="hardAlpha" operator="arithmetic" k2="-1" k3="1"/>
<feColorMatrix type="matrix" values="0 0 0 0 1 0 0 0 0 1 0 0 0 0 1 0 0 0 0.25 0"/>
<feBlend mode="overlay" in2="shape" result="effect2_innerShadow_1284_15126"/>
</filter>
<linearGradient id="paint0_linear_1284_15126" x1="111.661" y1="-48" x2="235.079" y2="174.959" gradientUnits="userSpaceOnUse">
<stop offset="0.0064921" stop-color="#F0F5F8"/>
<stop offset="1" stop-color="#19527A"/>
</linearGradient>
<linearGradient id="paint1_linear_1284_15126" x1="198.302" y1="21.691" x2="250.856" y2="91.8685" gradientUnits="userSpaceOnUse">
<stop stop-color="white" stop-opacity="0.52"/>
<stop offset="1" stop-color="white" stop-opacity="0"/>
</linearGradient>
<linearGradient id="paint2_linear_1284_15126" x1="180.462" y1="38.4596" x2="185.128" y2="61.2592" gradientUnits="userSpaceOnUse">
<stop stop-color="white" stop-opacity="0.52"/>
<stop offset="1" stop-color="white" stop-opacity="0"/>
</linearGradient>
<linearGradient id="paint3_linear_1284_15126" x1="35.3019" y1="2.69096" x2="87.856" y2="72.8685" gradientUnits="userSpaceOnUse">
<stop stop-color="white" stop-opacity="0.52"/>
<stop offset="1" stop-color="white" stop-opacity="0"/>
</linearGradient>
<linearGradient id="paint4_linear_1284_15126" x1="17.4624" y1="19.4596" x2="22.1279" y2="42.2592" gradientUnits="userSpaceOnUse">
<stop stop-color="white" stop-opacity="0.52"/>
<stop offset="1" stop-color="white" stop-opacity="0"/>
</linearGradient>
<linearGradient id="paint5_linear_1284_15126" x1="35.3019" y1="90.691" x2="87.856" y2="160.869" gradientUnits="userSpaceOnUse">
<stop stop-color="white" stop-opacity="0.52"/>
<stop offset="1" stop-color="white" stop-opacity="0"/>
</linearGradient>
<linearGradient id="paint6_linear_1284_15126" x1="17.4624" y1="107.46" x2="22.1279" y2="130.259" gradientUnits="userSpaceOnUse">
<stop stop-color="white" stop-opacity="0.52"/>
<stop offset="1" stop-color="white" stop-opacity="0"/>
</linearGradient>
<linearGradient id="paint7_linear_1284_15126" x1="140.302" y1="91.691" x2="192.856" y2="161.869" gradientUnits="userSpaceOnUse">
<stop stop-color="white" stop-opacity="0.52"/>
<stop offset="1" stop-color="white" stop-opacity="0"/>
</linearGradient>
<linearGradient id="paint8_linear_1284_15126" x1="122.462" y1="108.46" x2="127.128" y2="131.259" gradientUnits="userSpaceOnUse">
<stop stop-color="white" stop-opacity="0.52"/>
<stop offset="1" stop-color="white" stop-opacity="0"/>
</linearGradient>
</defs>
</svg>
