<svg width="275" height="130" viewBox="0 0 275 130" fill="none" xmlns="http://www.w3.org/2000/svg">
<path d="M0 16C0 7.16344 6.61056 0 14.7651 0H260.235C268.389 0 275 7.16344 275 16V114C275 122.837 268.389 130 260.235 130H14.7651C6.61056 130 0 122.837 0 114V16Z" fill="url(#paint0_linear_1284_15166)"/>
<mask id="mask0_1284_15166" style="mask-type:alpha" maskUnits="userSpaceOnUse" x="0" y="0" width="275" height="130">
<path d="M0 13.6646C0 6.11785 6.11785 0 13.6646 0H261.335C268.882 0 275 6.11785 275 13.6646V116.335C275 123.882 268.882 130 261.335 130H13.6646C6.11786 130 0 123.882 0 116.335V13.6646Z" fill="white"/>
</mask>
<g mask="url(#mask0_1284_15166)">
<rect x="57" y="15" width="161" height="100" rx="7" fill="url(#paint1_linear_1284_15166)"/>
<path d="M69.946 24.8636C69.9276 24.6847 69.8494 24.5455 69.7116 24.446C69.5739 24.3466 69.3906 24.2969 69.1619 24.2969C69.0043 24.2969 68.87 24.3196 68.7592 24.3651C68.6484 24.4105 68.5639 24.473 68.5057 24.5526C68.4474 24.6321 68.4176 24.723 68.4162 24.8253C68.4148 24.9091 68.4332 24.9822 68.4716 25.0447C68.5114 25.1072 68.5653 25.1605 68.6335 25.2045C68.7017 25.2486 68.7784 25.2862 68.8636 25.3175C68.9503 25.3487 69.0398 25.375 69.1321 25.3963L69.5327 25.4943C69.7102 25.5341 69.8771 25.5881 70.0334 25.6562C70.1896 25.7244 70.3267 25.8097 70.4446 25.9119C70.5639 26.0128 70.6577 26.1335 70.7259 26.2741C70.794 26.4148 70.8281 26.5781 70.8281 26.7642C70.8281 27.0256 70.7614 27.2536 70.6278 27.4482C70.4957 27.6428 70.3047 27.794 70.0547 27.902C69.8061 28.0099 69.5057 28.0639 69.1534 28.0639C68.8082 28.0639 68.5078 28.0107 68.2521 27.9041C67.9979 27.7976 67.799 27.6406 67.6555 27.4332C67.5135 27.2259 67.4375 26.9716 67.4276 26.6705H68.2628C68.2741 26.8196 68.3189 26.9439 68.397 27.0433C68.4751 27.1413 68.5788 27.2152 68.7081 27.2649C68.8374 27.3146 68.983 27.3395 69.1449 27.3395C69.3097 27.3395 69.4531 27.3153 69.5753 27.267C69.6989 27.2173 69.7947 27.1491 69.8629 27.0625C69.9325 26.9759 69.9673 26.875 69.9673 26.7599C69.9673 26.6534 69.9361 26.5653 69.8736 26.4957C69.8125 26.4247 69.7251 26.3651 69.6115 26.3168C69.4979 26.267 69.3622 26.223 69.2045 26.1847L68.7188 26.0611C68.3551 25.9702 68.0682 25.8303 67.858 25.6413C67.6477 25.451 67.5426 25.1974 67.5426 24.8807C67.5426 24.6193 67.6129 24.3913 67.7536 24.1967C67.8956 24.0007 68.0895 23.8487 68.3352 23.7408C68.581 23.6314 68.8594 23.5767 69.1705 23.5767C69.4872 23.5767 69.7642 23.6314 70.0014 23.7408C70.2401 23.8487 70.4261 24 70.5597 24.1946C70.6946 24.3878 70.7642 24.6108 70.7685 24.8636H69.946ZM72.9354 28.0639C72.603 28.0639 72.3168 27.9957 72.0767 27.8594C71.8366 27.7216 71.652 27.527 71.5227 27.2756C71.3935 27.0227 71.3288 26.7244 71.3288 26.3807C71.3288 26.044 71.3935 25.7486 71.5227 25.4943C71.6534 25.2386 71.8359 25.0398 72.0703 24.8977C72.3047 24.7557 72.5803 24.6847 72.897 24.6847C73.1058 24.6847 73.3018 24.718 73.4851 24.7848C73.6683 24.8516 73.8295 24.9531 73.9688 25.0895C74.108 25.2259 74.2166 25.3984 74.2947 25.6072C74.3743 25.8146 74.4141 26.0597 74.4141 26.3423V26.5852H71.6911V26.044H73.6172C73.6172 25.9048 73.5874 25.7812 73.5277 25.6733C73.468 25.5639 73.3849 25.4787 73.2784 25.4176C73.1733 25.3551 73.0504 25.3239 72.9098 25.3239C72.7621 25.3239 72.6321 25.3587 72.5199 25.4283C72.4077 25.4979 72.3196 25.5902 72.2557 25.7053C72.1932 25.8189 72.1612 25.9446 72.1598 26.0824V26.5767C72.1598 26.7528 72.1925 26.9041 72.2578 27.0305C72.3232 27.157 72.4148 27.2543 72.5327 27.3224C72.6506 27.3906 72.7891 27.4247 72.9482 27.4247C73.0547 27.4247 73.1513 27.4098 73.2379 27.38C73.326 27.3487 73.4013 27.3033 73.4638 27.2436C73.5277 27.1839 73.576 27.1108 73.6087 27.0241L74.3885 27.0923C74.3445 27.2884 74.2578 27.4595 74.1286 27.6058C73.9993 27.7507 73.8338 27.8636 73.6321 27.9446C73.4304 28.0241 73.1982 28.0639 72.9354 28.0639ZM76.7211 24.7273V25.3665H74.7949V24.7273H76.7211ZM75.2509 23.9432H76.0904V27.005C76.0904 27.0987 76.1046 27.1712 76.133 27.2223C76.1628 27.272 76.2019 27.3068 76.2502 27.3267C76.2999 27.3452 76.356 27.3544 76.4185 27.3544C76.464 27.3544 76.5073 27.3509 76.5485 27.3438C76.5911 27.3352 76.623 27.3288 76.6444 27.3246L76.7807 27.9638C76.7381 27.978 76.677 27.9936 76.5975 28.0107C76.5179 28.0291 76.4213 28.0405 76.3077 28.0447C76.1017 28.0518 75.9192 28.0227 75.7601 27.9574C75.601 27.8906 75.476 27.7884 75.3851 27.6506C75.2942 27.5114 75.2495 27.3374 75.2509 27.1286V23.9432ZM82.5959 25.1364H81.7308C81.7109 25.0099 81.6726 24.8977 81.6158 24.7997C81.5589 24.7017 81.4872 24.6186 81.4006 24.5504C81.3139 24.4808 81.2145 24.4283 81.1023 24.3928C80.9915 24.3572 80.8714 24.3395 80.7422 24.3395C80.5107 24.3395 80.3068 24.397 80.1307 24.5121C79.956 24.6271 79.8196 24.7947 79.7216 25.0149C79.6236 25.2351 79.5746 25.5028 79.5746 25.8182C79.5746 26.1406 79.6236 26.4119 79.7216 26.6321C79.821 26.8509 79.9581 27.0163 80.1328 27.1286C80.3089 27.2408 80.5107 27.2969 80.7379 27.2969C80.8658 27.2969 80.9844 27.2798 81.0938 27.2457C81.2045 27.2116 81.3033 27.1619 81.3899 27.0966C81.4766 27.0312 81.549 26.951 81.6072 26.8558C81.6669 26.7607 81.7081 26.652 81.7308 26.5298L82.5959 26.5341C82.5689 26.7372 82.5064 26.9311 82.4084 27.1158C82.3118 27.299 82.1832 27.4616 82.0227 27.6037C81.8636 27.7457 81.6747 27.8572 81.456 27.9382C81.2386 28.0192 80.995 28.0597 80.7251 28.0597C80.3388 28.0597 79.9936 27.9716 79.6896 27.7955C79.3871 27.6179 79.1477 27.3622 78.9716 27.0284C78.7969 26.6932 78.7095 26.2898 78.7095 25.8182C78.7095 25.3452 78.7976 24.9418 78.9737 24.608C79.1513 24.2727 79.392 24.017 79.696 23.8409C80 23.6648 80.343 23.5767 80.7251 23.5767C80.9737 23.5767 81.2038 23.6115 81.4155 23.6811C81.6286 23.7507 81.8175 23.8523 81.9822 23.9858C82.1484 24.1193 82.2841 24.2827 82.3892 24.4759C82.4957 24.6676 82.5646 24.8878 82.5959 25.1364ZM85.3583 26.6151V24.7273H86.1978V28H85.3881V27.4119H85.354C85.2802 27.5994 85.158 27.7514 84.9876 27.8679C84.8185 27.9844 84.6112 28.0426 84.3654 28.0426C84.1495 28.0426 83.9585 27.9936 83.7923 27.8956C83.6275 27.7976 83.4989 27.657 83.4066 27.4737C83.3143 27.2905 83.2674 27.0696 83.266 26.8111V24.7273H84.1055V26.6705C84.1069 26.8707 84.1616 27.0298 84.2695 27.1477C84.3775 27.2642 84.5202 27.3224 84.6978 27.3224C84.81 27.3224 84.9165 27.2962 85.0174 27.2436C85.1183 27.1896 85.2006 27.1108 85.2646 27.0071C85.3285 26.902 85.3597 26.7713 85.3583 26.6151ZM89.6122 25.6264L88.8452 25.6903C88.8281 25.6193 88.7955 25.554 88.7472 25.4943C88.7003 25.4332 88.6371 25.3849 88.5575 25.3494C88.478 25.3125 88.3821 25.294 88.2699 25.294C88.1193 25.294 87.9929 25.326 87.8906 25.3899C87.7884 25.4538 87.7372 25.5384 87.7372 25.6435C87.7372 25.7301 87.7706 25.8018 87.8374 25.8587C87.9041 25.9155 88.017 25.9616 88.1761 25.9972L88.7514 26.1165C89.0653 26.1818 89.299 26.2869 89.4524 26.4318C89.6072 26.5767 89.6847 26.767 89.6847 27.0028C89.6847 27.2131 89.6236 27.3977 89.5014 27.5568C89.3793 27.7159 89.2109 27.8402 88.9964 27.9297C88.782 28.0192 88.5355 28.0639 88.2571 28.0639C87.8409 28.0639 87.5071 27.9766 87.2557 27.8018C87.0057 27.6271 86.858 27.3864 86.8125 27.0795L87.6349 27.0199C87.6662 27.1591 87.7351 27.2649 87.8416 27.3374C87.9496 27.4098 88.0881 27.446 88.2571 27.446C88.429 27.446 88.5668 27.4119 88.6705 27.3438C88.7756 27.2741 88.8281 27.1875 88.8281 27.0838C88.8281 26.9957 88.7926 26.9233 88.7216 26.8665C88.652 26.8082 88.544 26.7642 88.3977 26.7344L87.8352 26.6193C87.5185 26.554 87.2834 26.4432 87.13 26.2869C86.978 26.1307 86.902 25.9318 86.902 25.6903C86.902 25.4844 86.9581 25.3061 87.0703 25.1555C87.1839 25.005 87.3423 24.8892 87.5455 24.8082C87.75 24.7259 87.9872 24.6847 88.2571 24.6847C88.6563 24.6847 88.9702 24.7692 89.1989 24.9382C89.429 25.1072 89.5668 25.3366 89.6122 25.6264ZM91.9789 24.7273V25.3665H90.0527V24.7273H91.9789ZM90.5087 23.9432H91.3482V27.005C91.3482 27.0987 91.3624 27.1712 91.3908 27.2223C91.4206 27.272 91.4597 27.3068 91.508 27.3267C91.5577 27.3452 91.6138 27.3544 91.6763 27.3544C91.7218 27.3544 91.7651 27.3509 91.8063 27.3438C91.8489 27.3352 91.8809 27.3288 91.9022 27.3246L92.0385 27.9638C91.9959 27.978 91.9348 27.9936 91.8553 28.0107C91.7757 28.0291 91.6792 28.0405 91.5655 28.0447C91.3596 28.0518 91.177 28.0227 91.0179 27.9574C90.8588 27.8906 90.7338 27.7884 90.6429 27.6506C90.552 27.5114 90.5073 27.3374 90.5087 27.1286V23.9432ZM94.0121 28.0639C93.6868 28.0639 93.4055 27.9936 93.1683 27.853C92.9311 27.7109 92.7472 27.5135 92.6165 27.2607C92.4872 27.0078 92.4226 26.7131 92.4226 26.3764C92.4226 26.0384 92.4872 25.7422 92.6165 25.4879C92.7472 25.2337 92.9311 25.0362 93.1683 24.8956C93.4055 24.755 93.6868 24.6847 94.0121 24.6847C94.3374 24.6847 94.6186 24.755 94.8558 24.8956C95.0945 25.0362 95.2784 25.2337 95.4077 25.4879C95.5369 25.7422 95.6016 26.0384 95.6016 26.3764C95.6016 26.7131 95.5369 27.0078 95.4077 27.2607C95.2784 27.5135 95.0945 27.7109 94.8558 27.853C94.6186 27.9936 94.3374 28.0639 94.0121 28.0639ZM94.0163 27.4034C94.1783 27.4034 94.3132 27.358 94.4212 27.267C94.5305 27.1761 94.6122 27.0533 94.6662 26.8984C94.7216 26.7422 94.7493 26.5668 94.7493 26.3722C94.7493 26.1761 94.7216 26.0007 94.6662 25.8459C94.6122 25.6896 94.5305 25.5661 94.4212 25.4751C94.3132 25.3828 94.1783 25.3366 94.0163 25.3366C93.8516 25.3366 93.7138 25.3828 93.603 25.4751C93.4936 25.5661 93.4112 25.6896 93.3558 25.8459C93.3018 26.0007 93.2749 26.1761 93.2749 26.3722C93.2749 26.5668 93.3018 26.7422 93.3558 26.8984C93.4112 27.0533 93.4936 27.1761 93.603 27.267C93.7138 27.358 93.8516 27.4034 94.0163 27.4034ZM96.2211 28V24.7273H97.0222V25.294H97.0605C97.1287 25.1037 97.2417 24.9545 97.3993 24.8466C97.5584 24.7386 97.748 24.6847 97.9682 24.6847C98.1912 24.6847 98.3801 24.7393 98.535 24.8487C98.6912 24.9581 98.7978 25.1065 98.8546 25.294H98.8887C98.9583 25.1094 99.0797 24.9616 99.253 24.8509C99.4277 24.7401 99.6344 24.6847 99.873 24.6847C100.177 24.6847 100.424 24.7805 100.615 24.9723C100.805 25.1641 100.9 25.4403 100.9 25.8011V28H100.061V25.9503C100.061 25.7571 100.009 25.6143 99.9071 25.522C99.8049 25.4297 99.6784 25.3835 99.5279 25.3835C99.3532 25.3835 99.2161 25.4389 99.1167 25.5497C99.0186 25.6591 98.9696 25.8026 98.9696 25.9801V28H98.1515V25.9247C98.1515 25.7599 98.1032 25.6286 98.0066 25.5305C97.91 25.4325 97.7836 25.3835 97.6273 25.3835C97.5222 25.3835 97.4263 25.4105 97.3397 25.4645C97.2544 25.517 97.1863 25.5916 97.1351 25.6882C97.0854 25.7834 97.0605 25.8949 97.0605 26.0227V28H96.2211ZM106.912 25.1364H106.047C106.027 25.0099 105.989 24.8977 105.932 24.7997C105.875 24.7017 105.804 24.6186 105.717 24.5504C105.63 24.4808 105.531 24.4283 105.419 24.3928C105.308 24.3572 105.188 24.3395 105.059 24.3395C104.827 24.3395 104.623 24.397 104.447 24.5121C104.272 24.6271 104.136 24.7947 104.038 25.0149C103.94 25.2351 103.891 25.5028 103.891 25.8182C103.891 26.1406 103.94 26.4119 104.038 26.6321C104.137 26.8509 104.275 27.0163 104.449 27.1286C104.625 27.2408 104.827 27.2969 105.054 27.2969C105.182 27.2969 105.301 27.2798 105.41 27.2457C105.521 27.2116 105.62 27.1619 105.706 27.0966C105.793 27.0312 105.865 26.951 105.924 26.8558C105.983 26.7607 106.025 26.652 106.047 26.5298L106.912 26.5341C106.885 26.7372 106.823 26.9311 106.725 27.1158C106.628 27.299 106.5 27.4616 106.339 27.6037C106.18 27.7457 105.991 27.8572 105.772 27.9382C105.555 28.0192 105.311 28.0597 105.042 28.0597C104.655 28.0597 104.31 27.9716 104.006 27.7955C103.703 27.6179 103.464 27.3622 103.288 27.0284C103.113 26.6932 103.026 26.2898 103.026 25.8182C103.026 25.3452 103.114 24.9418 103.29 24.608C103.468 24.2727 103.708 24.017 104.012 23.8409C104.316 23.6648 104.659 23.5767 105.042 23.5767C105.29 23.5767 105.52 23.6115 105.732 23.6811C105.945 23.7507 106.134 23.8523 106.299 23.9858C106.465 24.1193 106.6 24.2827 106.706 24.4759C106.812 24.6676 106.881 24.8878 106.912 25.1364ZM109.977 24.8636C109.959 24.6847 109.881 24.5455 109.743 24.446C109.605 24.3466 109.422 24.2969 109.193 24.2969C109.036 24.2969 108.901 24.3196 108.79 24.3651C108.68 24.4105 108.595 24.473 108.537 24.5526C108.479 24.6321 108.449 24.723 108.447 24.8253C108.446 24.9091 108.464 24.9822 108.503 25.0447C108.543 25.1072 108.597 25.1605 108.665 25.2045C108.733 25.2486 108.81 25.2862 108.895 25.3175C108.982 25.3487 109.071 25.375 109.163 25.3963L109.564 25.4943C109.741 25.5341 109.908 25.5881 110.065 25.6562C110.221 25.7244 110.358 25.8097 110.476 25.9119C110.595 26.0128 110.689 26.1335 110.757 26.2741C110.825 26.4148 110.859 26.5781 110.859 26.7642C110.859 27.0256 110.793 27.2536 110.659 27.4482C110.527 27.6428 110.336 27.794 110.086 27.902C109.837 28.0099 109.537 28.0639 109.185 28.0639C108.839 28.0639 108.539 28.0107 108.283 27.9041C108.029 27.7976 107.83 27.6406 107.687 27.4332C107.545 27.2259 107.469 26.9716 107.459 26.6705H108.294C108.305 26.8196 108.35 26.9439 108.428 27.0433C108.506 27.1413 108.61 27.2152 108.739 27.2649C108.869 27.3146 109.014 27.3395 109.176 27.3395C109.341 27.3395 109.484 27.3153 109.607 27.267C109.73 27.2173 109.826 27.1491 109.894 27.0625C109.964 26.9759 109.999 26.875 109.999 26.7599C109.999 26.6534 109.967 26.5653 109.905 26.4957C109.844 26.4247 109.756 26.3651 109.643 26.3168C109.529 26.267 109.393 26.223 109.236 26.1847L108.75 26.0611C108.386 25.9702 108.099 25.8303 107.889 25.6413C107.679 25.451 107.574 25.1974 107.574 24.8807C107.574 24.6193 107.644 24.3913 107.785 24.1967C107.927 24.0007 108.121 23.8487 108.366 23.7408C108.612 23.6314 108.891 23.5767 109.202 23.5767C109.518 23.5767 109.795 23.6314 110.033 23.7408C110.271 23.8487 110.457 24 110.591 24.1946C110.726 24.3878 110.795 24.6108 110.8 24.8636H109.977ZM113.891 24.8636C113.873 24.6847 113.795 24.5455 113.657 24.446C113.519 24.3466 113.336 24.2969 113.107 24.2969C112.95 24.2969 112.815 24.3196 112.705 24.3651C112.594 24.4105 112.509 24.473 112.451 24.5526C112.393 24.6321 112.363 24.723 112.362 24.8253C112.36 24.9091 112.379 24.9822 112.417 25.0447C112.457 25.1072 112.511 25.1605 112.579 25.2045C112.647 25.2486 112.724 25.2862 112.809 25.3175C112.896 25.3487 112.985 25.375 113.077 25.3963L113.478 25.4943C113.656 25.5341 113.822 25.5881 113.979 25.6562C114.135 25.7244 114.272 25.8097 114.39 25.9119C114.509 26.0128 114.603 26.1335 114.671 26.2741C114.739 26.4148 114.773 26.5781 114.773 26.7642C114.773 27.0256 114.707 27.2536 114.573 27.4482C114.441 27.6428 114.25 27.794 114 27.902C113.751 28.0099 113.451 28.0639 113.099 28.0639C112.754 28.0639 112.453 28.0107 112.197 27.9041C111.943 27.7976 111.744 27.6406 111.601 27.4332C111.459 27.2259 111.383 26.9716 111.373 26.6705H112.208C112.219 26.8196 112.264 26.9439 112.342 27.0433C112.42 27.1413 112.524 27.2152 112.653 27.2649C112.783 27.3146 112.928 27.3395 113.09 27.3395C113.255 27.3395 113.398 27.3153 113.521 27.267C113.644 27.2173 113.74 27.1491 113.808 27.0625C113.878 26.9759 113.913 26.875 113.913 26.7599C113.913 26.6534 113.881 26.5653 113.819 26.4957C113.758 26.4247 113.67 26.3651 113.557 26.3168C113.443 26.267 113.308 26.223 113.15 26.1847L112.664 26.0611C112.3 25.9702 112.013 25.8303 111.803 25.6413C111.593 25.451 111.488 25.1974 111.488 24.8807C111.488 24.6193 111.558 24.3913 111.699 24.1967C111.841 24.0007 112.035 23.8487 112.281 23.7408C112.526 23.6314 112.805 23.5767 113.116 23.5767C113.433 23.5767 113.71 23.6314 113.947 23.7408C114.185 23.8487 114.371 24 114.505 24.1946C114.64 24.3878 114.71 24.6108 114.714 24.8636H113.891Z" fill="#497696"/>
<rect x="65.7" y="32.7" width="142.6" height="73.6" rx="4.88824" stroke="white" stroke-opacity="0.29" stroke-width="0.6"/>
<rect x="71.3516" y="40.2344" width="78.7647" height="3.05882" rx="1.52941" fill="url(#paint2_linear_1284_15166)"/>
<rect x="79" y="49.4102" width="120.059" height="3.05882" rx="1.52941" fill="url(#paint3_linear_1284_15166)"/>
<path d="M153.438 41.294V40.8867C153.744 40.8867 153.958 40.8242 154.079 40.6993C154.2 40.5726 154.261 40.3635 154.261 40.072V39.2926C154.261 39.0156 154.292 38.783 154.353 38.5947C154.417 38.4046 154.512 38.2525 154.641 38.1385C154.77 38.0244 154.932 37.9421 155.13 37.8914C155.327 37.8407 155.56 37.8153 155.828 37.8153V38.4589C155.618 38.4589 155.454 38.4897 155.336 38.5513C155.219 38.6128 155.136 38.7088 155.089 38.8391C155.044 38.9676 155.021 39.1324 155.021 39.3333V40.3218C155.021 40.4612 155 40.5907 154.959 40.7101C154.917 40.8278 154.84 40.9301 154.728 41.017C154.616 41.1039 154.455 41.1718 154.247 41.2207C154.039 41.2696 153.769 41.294 153.438 41.294ZM155.828 44.7428C155.56 44.7428 155.327 44.7174 155.13 44.6667C154.932 44.616 154.77 44.5337 154.641 44.4196C154.512 44.3056 154.417 44.1535 154.353 43.9634C154.292 43.7751 154.261 43.5425 154.261 43.2655V42.4834C154.261 42.1938 154.2 41.9856 154.079 41.8588C153.958 41.7321 153.744 41.6687 153.438 41.6687V41.2641C153.769 41.2641 154.039 41.2886 154.247 41.3374C154.455 41.3845 154.616 41.4524 154.728 41.5411C154.84 41.628 154.917 41.7312 154.959 41.8507C155 41.9684 155.021 42.0969 155.021 42.2363V43.2248C155.021 43.4239 155.044 43.5877 155.089 43.7163C155.136 43.8466 155.219 43.9426 155.336 44.0041C155.454 44.0675 155.618 44.0992 155.828 44.0992V44.7428ZM153.438 41.6687V40.8867H154.19V41.6687H153.438Z" fill="#2A5878"/>
<path d="M73.9748 58.854V59.2586C73.6689 59.2586 73.4552 59.3219 73.3339 59.4487C73.2126 59.5754 73.152 59.7836 73.152 60.0733V60.8553C73.152 61.1323 73.1203 61.365 73.0569 61.5532C72.9954 61.7433 72.9003 61.8954 72.7718 62.0095C72.6433 62.1235 72.4803 62.2059 72.283 62.2566C72.0857 62.3073 71.853 62.3326 71.5851 62.3326V61.689C71.7951 61.689 71.9589 61.6573 72.0766 61.594C72.1943 61.5324 72.2758 61.4365 72.321 61.3061C72.3681 61.1776 72.3916 61.0138 72.3916 60.8146V59.8261C72.3916 59.6867 72.4124 59.5582 72.4541 59.4405C72.4957 59.321 72.5727 59.2179 72.6849 59.131C72.7972 59.0422 72.9574 58.9744 73.1656 58.9273C73.3738 58.8784 73.6435 58.854 73.9748 58.854ZM71.5851 55.4052C71.853 55.4052 72.0857 55.4305 72.283 55.4812C72.4803 55.5319 72.6433 55.6143 72.7718 55.7283C72.9003 55.8424 72.9954 55.9945 73.0569 56.1846C73.1203 56.3728 73.152 56.6055 73.152 56.8825V57.6618C73.152 57.9533 73.2126 58.1624 73.3339 58.2891C73.4552 58.414 73.6689 58.4765 73.9748 58.4765V58.8838C73.6435 58.8838 73.3738 58.8594 73.1656 58.8105C72.9574 58.7616 72.7972 58.6937 72.6849 58.6068C72.5727 58.5199 72.4957 58.4177 72.4541 58.3C72.4124 58.1805 72.3916 58.0511 72.3916 57.9117V56.9232C72.3916 56.7222 72.3681 56.5575 72.321 56.429C72.2758 56.2986 72.1943 56.2027 72.0766 56.1411C71.9589 56.0796 71.7951 56.0488 71.5851 56.0488V55.4052ZM73.9748 58.4765V59.2586H73.2226V58.4765H73.9748Z" fill="#2A5878"/>
<rect x="71.3516" y="76.9414" width="78.7647" height="3.05882" rx="1.52941" fill="url(#paint4_linear_1284_15166)"/>
<rect x="79" y="86.1172" width="120.059" height="3.05882" rx="1.52941" fill="url(#paint5_linear_1284_15166)"/>
<path d="M153.438 78.001V77.5937C153.744 77.5937 153.958 77.5312 154.079 77.4063C154.2 77.2796 154.261 77.0705 154.261 76.779V75.9996C154.261 75.7227 154.292 75.49 154.353 75.3017C154.417 75.1117 154.512 74.9596 154.641 74.8455C154.77 74.7315 154.932 74.6491 155.13 74.5984C155.327 74.5477 155.56 74.5224 155.828 74.5224V75.166C155.618 75.166 155.454 75.1967 155.336 75.2583C155.219 75.3198 155.136 75.4158 155.089 75.5461C155.044 75.6747 155.021 75.8394 155.021 76.0404V77.0288C155.021 77.1682 155 77.2977 154.959 77.4172C154.917 77.5348 154.84 77.6371 154.728 77.724C154.616 77.8109 154.455 77.8788 154.247 77.9277C154.039 77.9766 153.769 78.001 153.438 78.001ZM155.828 81.4498C155.56 81.4498 155.327 81.4245 155.13 81.3738C154.932 81.3231 154.77 81.2407 154.641 81.1267C154.512 81.0126 154.417 80.8605 154.353 80.6704C154.292 80.4822 154.261 80.2495 154.261 79.9725V79.1904C154.261 78.9008 154.2 78.6926 154.079 78.5659C153.958 78.4391 153.744 78.3758 153.438 78.3758V77.9712C153.769 77.9712 154.039 77.9956 154.247 78.0445C154.455 78.0915 154.616 78.1594 154.728 78.2481C154.84 78.335 154.917 78.4382 154.959 78.5577C155 78.6754 155.021 78.8039 155.021 78.9433V79.9318C155.021 80.1309 155.044 80.2948 155.089 80.4233C155.136 80.5537 155.219 80.6496 155.336 80.7112C155.454 80.7745 155.618 80.8062 155.828 80.8062V81.4498ZM153.438 78.3758V77.5937H154.19V78.3758H153.438Z" fill="#2A5878"/>
<path d="M73.9748 95.561V95.9656C73.6689 95.9656 73.4552 96.029 73.3339 96.1557C73.2126 96.2824 73.152 96.4906 73.152 96.7803V97.5624C73.152 97.8394 73.1203 98.072 73.0569 98.2603C72.9954 98.4504 72.9003 98.6024 72.7718 98.7165C72.6433 98.8305 72.4803 98.9129 72.283 98.9636C72.0857 99.0143 71.853 99.0396 71.5851 99.0396V98.3961C71.7951 98.3961 71.9589 98.3644 72.0766 98.301C72.1943 98.2395 72.2758 98.1435 72.321 98.0132C72.3681 97.8846 72.3916 97.7208 72.3916 97.5216V96.5332C72.3916 96.3938 72.4124 96.2652 72.4541 96.1476C72.4957 96.0281 72.5727 95.9249 72.6849 95.838C72.7972 95.7493 72.9574 95.6814 73.1656 95.6343C73.3738 95.5854 73.6435 95.561 73.9748 95.561ZM71.5851 92.1122C71.853 92.1122 72.0857 92.1376 72.283 92.1883C72.4803 92.2389 72.6433 92.3213 72.7718 92.4354C72.9003 92.5494 72.9954 92.7015 73.0569 92.8916C73.1203 93.0799 73.152 93.3125 73.152 93.5895V94.3689C73.152 94.6603 73.2126 94.8694 73.3339 94.9962C73.4552 95.1211 73.6689 95.1835 73.9748 95.1835V95.5909C73.6435 95.5909 73.3738 95.5664 73.1656 95.5175C72.9574 95.4687 72.7972 95.4008 72.6849 95.3139C72.5727 95.227 72.4957 95.1247 72.4541 95.007C72.4124 94.8875 72.3916 94.7581 72.3916 94.6187V93.6302C72.3916 93.4293 72.3681 93.2645 72.321 93.136C72.2758 93.0056 72.1943 92.9097 72.0766 92.8481C71.9589 92.7866 71.7951 92.7558 71.5851 92.7558V92.1122ZM73.9748 95.1835V95.9656H73.2226V95.1835H73.9748Z" fill="#2A5878"/>
</g>
<defs>
<linearGradient id="paint0_linear_1284_15166" x1="111.661" y1="-48" x2="235.079" y2="174.959" gradientUnits="userSpaceOnUse">
<stop offset="0.0064921" stop-color="#F0F5F8"/>
<stop offset="1" stop-color="#19527A"/>
</linearGradient>
<linearGradient id="paint1_linear_1284_15166" x1="85.7068" y1="35.1096" x2="135.377" y2="144.531" gradientUnits="userSpaceOnUse">
<stop stop-color="white" stop-opacity="0.52"/>
<stop offset="1" stop-color="white" stop-opacity="0"/>
</linearGradient>
<linearGradient id="paint2_linear_1284_15166" x1="71.3516" y1="41.7638" x2="150.116" y2="41.7638" gradientUnits="userSpaceOnUse">
<stop stop-color="white"/>
<stop offset="1" stop-color="white" stop-opacity="0.4"/>
</linearGradient>
<linearGradient id="paint3_linear_1284_15166" x1="79" y1="50.9396" x2="199.059" y2="50.9396" gradientUnits="userSpaceOnUse">
<stop stop-color="white"/>
<stop offset="1" stop-color="white" stop-opacity="0.4"/>
</linearGradient>
<linearGradient id="paint4_linear_1284_15166" x1="71.3516" y1="78.4708" x2="150.116" y2="78.4708" gradientUnits="userSpaceOnUse">
<stop stop-color="white"/>
<stop offset="1" stop-color="white" stop-opacity="0.4"/>
</linearGradient>
<linearGradient id="paint5_linear_1284_15166" x1="79" y1="87.6466" x2="199.059" y2="87.6466" gradientUnits="userSpaceOnUse">
<stop stop-color="white"/>
<stop offset="1" stop-color="white" stop-opacity="0.4"/>
</linearGradient>
</defs>
</svg>
