<svg width="275" height="130" viewBox="0 0 275 130" fill="none" xmlns="http://www.w3.org/2000/svg">
<path d="M0 16C0 7.16344 6.61056 0 14.7651 0H260.235C268.389 0 275 7.16344 275 16V114C275 122.837 268.389 130 260.235 130H14.7651C6.61056 130 0 122.837 0 114V16Z" fill="url(#paint0_linear_1284_14918)"/>
<mask id="mask0_1284_14918" style="mask-type:alpha" maskUnits="userSpaceOnUse" x="0" y="0" width="275" height="130">
<path d="M0 16C0 7.16344 7.16344 0 16 0H259C267.837 0 275 7.16344 275 16V114C275 122.837 267.837 130 259 130H16C7.16345 130 0 122.837 0 114V16Z" fill="white"/>
</mask>
<g mask="url(#mask0_1284_14918)">
<path d="M170.798 67.9167C173.948 67.9167 176.637 70.5396 179.57 71.689C180.219 71.9435 180.926 72.0833 181.667 72.0833C184.883 72.0833 187.5 69.4667 187.5 66.25C187.5 63.0333 184.883 60.4167 181.667 60.4167C180.926 60.4167 180.219 60.5565 179.57 60.811C176.637 61.9604 173.948 64.5833 170.798 64.5833H166.831C165.286 64.5833 164.02 63.3449 163.77 61.8199C163.447 59.8484 164.876 57.9167 166.873 57.9167H170.833C171.283 57.9167 171.7 57.7333 172.017 57.4333L175.445 53.9932C176.387 53.0483 177.833 52.9167 179.167 52.9167C181.917 52.9167 184.167 50.6667 184.167 47.9167C184.167 45.1667 181.917 42.9167 179.167 42.9167C176.417 42.9167 174.167 45.1667 174.167 47.9167C174.167 49.2512 174.036 50.6969 173.093 51.6406L171.821 52.9125C170.751 53.9823 169.3 54.5833 167.787 54.5833H166.676C163.477 54.5833 160.645 52.6894 158.706 50.1447C157.243 48.2241 155.526 46.5074 153.605 45.0441C151.061 43.1053 149.167 40.2726 149.167 37.0735V35.9629C149.167 34.45 149.768 32.999 150.837 31.9292L152.109 30.6573C153.053 29.7136 154.499 29.5833 155.833 29.5833C158.583 29.5833 160.833 27.3333 160.833 24.5833C160.833 21.8333 158.583 19.5833 155.833 19.5833C153.083 19.5833 150.833 21.8333 150.833 24.5833C150.833 25.9175 150.702 27.3628 149.757 28.3046L146.317 31.7333C146.017 32.05 145.833 32.4667 145.833 32.9167V36.8766C145.833 38.8744 143.902 40.3033 141.93 39.9799C140.405 39.7298 139.167 38.4644 139.167 36.9191V32.9518C139.167 29.8017 141.79 27.113 142.939 24.1801C143.193 23.5308 143.333 22.8242 143.333 22.0833C143.333 18.8667 140.717 16.25 137.5 16.25C134.283 16.25 131.667 18.8667 131.667 22.0833C131.667 22.8242 131.807 23.5308 132.061 24.1801C133.21 27.113 135.833 29.8017 135.833 32.9518V36.9191C135.833 38.4644 134.595 39.7298 133.07 39.9799C131.098 40.3033 129.167 38.8744 129.167 36.8766V32.9167C129.167 32.4667 128.983 32.05 128.683 31.7333L125.243 28.3046C124.298 27.3628 124.167 25.9175 124.167 24.5833C124.167 21.8333 121.917 19.5833 119.167 19.5833C116.417 19.5833 114.167 21.8333 114.167 24.5833C114.167 27.3333 116.417 29.5833 119.167 29.5833C120.501 29.5833 121.947 29.7136 122.891 30.6573L124.163 31.9292C125.232 32.999 125.833 34.45 125.833 35.9629V37.0735C125.833 40.2726 123.939 43.1053 121.395 45.0441C119.474 46.5074 117.757 48.2241 116.294 50.1447C114.355 52.6894 111.523 54.5833 108.324 54.5833H107.213C105.7 54.5833 104.249 53.9823 103.179 52.9125L101.907 51.6406C100.964 50.6969 100.833 49.2512 100.833 47.9167C100.833 45.1667 98.5833 42.9167 95.8333 42.9167C93.0833 42.9167 90.8333 45.1667 90.8333 47.9167C90.8333 50.6667 93.0833 52.9167 95.8333 52.9167C97.1675 52.9167 98.6128 53.0483 99.5546 53.9932L102.983 57.4333C103.3 57.7333 103.717 57.9167 104.167 57.9167H108.127C110.124 57.9167 111.553 59.8484 111.23 61.8199C110.98 63.3449 109.714 64.5833 108.169 64.5833H104.202C101.052 64.5833 98.363 61.9604 95.4301 60.811C94.7808 60.5565 94.0742 60.4167 93.3333 60.4167C90.1167 60.4167 87.5 63.0333 87.5 66.25C87.5 69.4667 90.1167 72.0833 93.3333 72.0833C94.0742 72.0833 94.7808 71.9435 95.4301 71.689C98.363 70.5396 101.052 67.9167 104.202 67.9167H108.169C109.714 67.9167 110.98 69.1551 111.23 70.6801C111.553 72.6516 110.124 74.5833 108.127 74.5833H104.167C103.717 74.5833 103.3 74.7667 102.983 75.0667L99.5546 78.5068C98.6128 79.4517 97.1675 79.5833 95.8333 79.5833C93.0833 79.5833 90.8333 81.8333 90.8333 84.5833C90.8333 87.3333 93.0833 89.5833 95.8333 89.5833C98.5833 89.5833 100.833 87.3333 100.833 84.5833C100.833 83.2488 100.964 81.8031 101.907 80.8594L103.179 79.5875C104.249 78.5177 105.7 77.9167 107.213 77.9167H108.324C111.523 77.9167 114.355 79.8106 116.294 82.3553C117.757 84.2759 119.474 85.9926 121.395 87.4559C123.939 89.3947 125.833 92.2274 125.833 95.4265V96.5371C125.833 98.05 125.232 99.501 124.163 100.571L122.891 101.843C121.947 102.786 120.501 102.917 119.167 102.917C116.417 102.917 114.167 105.167 114.167 107.917C114.167 110.667 116.417 112.917 119.167 112.917C121.917 112.917 124.167 110.667 124.167 107.917C124.167 106.583 124.298 105.137 125.243 104.195L128.683 100.767C128.983 100.45 129.167 100.033 129.167 99.5833V95.6234C129.167 93.6256 131.098 92.1967 133.07 92.5201C134.595 92.7702 135.833 94.0356 135.833 95.5809V99.5482C135.833 102.698 133.21 105.387 132.061 108.32C131.807 108.969 131.667 109.676 131.667 110.417C131.667 113.633 134.283 116.25 137.5 116.25C140.717 116.25 143.333 113.633 143.333 110.417C143.333 109.676 143.193 108.969 142.939 108.32C141.79 105.387 139.167 102.698 139.167 99.5482V95.5809C139.167 94.0356 140.405 92.7702 141.93 92.5201C143.902 92.1967 145.833 93.6256 145.833 95.6234V99.5833C145.833 100.033 146.017 100.45 146.317 100.767L149.757 104.195C150.702 105.137 150.833 106.583 150.833 107.917C150.833 110.667 153.083 112.917 155.833 112.917C158.583 112.917 160.833 110.667 160.833 107.917C160.833 105.167 158.583 102.917 155.833 102.917C154.499 102.917 153.053 102.786 152.109 101.843L150.837 100.571C149.768 99.501 149.167 98.05 149.167 96.5371V95.4265C149.167 92.2274 151.061 89.3947 153.605 87.4559C155.526 85.9926 157.243 84.2759 158.706 82.3553C160.645 79.8106 163.477 77.9167 166.676 77.9167H167.787C169.3 77.9167 170.751 78.5177 171.821 79.5875L173.093 80.8594C174.036 81.8031 174.167 83.2488 174.167 84.5833C174.167 87.3333 176.417 89.5833 179.167 89.5833C181.917 89.5833 184.167 87.3333 184.167 84.5833C184.167 81.8333 181.917 79.5833 179.167 79.5833C177.833 79.5833 176.387 79.4517 175.445 78.5068L172.017 75.0667C171.7 74.7667 171.283 74.5833 170.833 74.5833H166.873C164.876 74.5833 163.447 72.6516 163.77 70.6801C164.02 69.1551 165.286 67.9167 166.831 67.9167H170.798ZM179.167 46.25C180.083 46.25 180.833 47 180.833 47.9167C180.833 48.8333 180.083 49.5833 179.167 49.5833C178.732 49.5833 178.315 49.4116 178.006 49.1059C178.002 49.1021 177.997 49.1 177.992 49.1C177.986 49.1 177.981 49.0979 177.977 49.0941C177.748 48.8609 177.592 48.5656 177.529 48.2445C177.465 47.9208 177.499 47.5854 177.625 47.2806C177.752 46.9759 177.966 46.7154 178.24 46.532C178.514 46.3486 178.837 46.2505 179.167 46.25ZM155.833 22.9167C156.75 22.9167 157.5 23.6667 157.5 24.5833C157.5 25.5 156.75 26.25 155.833 26.25C155.399 26.25 154.981 26.0783 154.673 25.7725C154.669 25.7688 154.664 25.7667 154.658 25.7667C154.653 25.7667 154.648 25.7645 154.644 25.7607C154.415 25.5276 154.259 25.2322 154.196 24.9112C154.132 24.5874 154.165 24.2521 154.292 23.9473C154.418 23.6426 154.632 23.3821 154.907 23.1987C155.181 23.0153 155.503 22.9171 155.833 22.9167ZM120.356 25.7442C120.352 25.7479 120.347 25.75 120.342 25.75C120.336 25.75 120.331 25.7522 120.327 25.7562C120.179 25.9118 120 26.0358 119.802 26.1206C119.601 26.2066 119.385 26.2506 119.167 26.25C118.25 26.25 117.5 25.5 117.5 24.5833C117.5 23.6667 118.25 22.9167 119.167 22.9167C120.083 22.9167 120.833 23.6667 120.833 24.5833C120.833 25.0304 120.652 25.4446 120.356 25.7442ZM97.0224 49.0775C97.0188 49.0813 97.0137 49.0833 97.0085 49.0833C97.0031 49.0833 96.9979 49.0856 96.9941 49.0895C96.8452 49.2451 96.6664 49.3691 96.4684 49.454C96.2677 49.54 96.0516 49.584 95.8333 49.5833C94.9167 49.5833 94.1667 48.8333 94.1667 47.9167C94.1667 47 94.9167 46.25 95.8333 46.25C96.75 46.25 97.5 47 97.5 47.9167C97.5 48.3638 97.319 48.778 97.0224 49.0775ZM95.8333 86.25C94.9167 86.25 94.1667 85.5 94.1667 84.5833C94.1667 83.6667 94.9167 82.9167 95.8333 82.9167C96.2804 82.9167 96.6946 83.0976 96.9941 83.3941C96.9979 83.3979 97.003 83.4 97.0083 83.4C97.0137 83.4 97.0188 83.4021 97.0225 83.4059C97.2519 83.6391 97.4079 83.9344 97.4711 84.2555C97.5348 84.5792 97.5013 84.9146 97.3748 85.2194C97.2483 85.5241 97.0344 85.7846 96.7601 85.968C96.4858 86.1514 96.1633 86.2495 95.8333 86.25ZM119.167 109.583C118.25 109.583 117.5 108.833 117.5 107.917C117.5 107 118.25 106.25 119.167 106.25C119.614 106.25 120.028 106.431 120.327 106.727C120.331 106.731 120.336 106.733 120.342 106.733C120.347 106.733 120.352 106.735 120.356 106.739C120.585 106.972 120.741 107.268 120.804 107.589C120.868 107.913 120.835 108.248 120.708 108.553C120.582 108.857 120.368 109.118 120.093 109.301C119.819 109.485 119.497 109.583 119.167 109.583ZM154.644 106.756C154.648 106.752 154.653 106.75 154.658 106.75C154.664 106.75 154.669 106.748 154.673 106.744C154.972 106.431 155.386 106.25 155.833 106.25C156.75 106.25 157.5 107 157.5 107.917C157.5 108.833 156.75 109.583 155.833 109.583C154.917 109.583 154.167 108.833 154.167 107.917C154.167 107.47 154.348 107.055 154.644 106.756ZM149.167 66.25C149.167 66.7333 149.133 67.2333 149.033 67.8667C148.95 68.5333 149.267 69.2 149.867 69.5333C151.129 70.2707 151.559 71.8899 150.827 73.1559L150.136 74.3514C149.407 75.612 147.795 76.0441 146.533 75.3167C146.246 75.1463 145.915 75.0663 145.582 75.0871C145.249 75.1079 144.93 75.2286 144.667 75.4333C143.8 76.1167 142.867 76.6667 141.867 77.0667C141.25 77.3167 140.833 77.9333 140.833 78.6C140.833 80.0636 139.647 81.25 138.183 81.25H136.817C135.353 81.25 134.167 80.0636 134.167 78.6C134.167 77.9333 133.75 77.3167 133.133 77.0667C132.133 76.6667 131.2 76.1167 130.333 75.4333C130.033 75.2 129.667 75.0833 129.3 75.0833C129.017 75.0833 128.733 75.1667 128.467 75.3167C127.205 76.0441 125.593 75.612 124.864 74.3514L124.173 73.1559C123.441 71.8899 123.871 70.2707 125.133 69.5333C125.733 69.2 126.05 68.5333 125.967 67.8667C125.791 66.796 125.791 65.704 125.967 64.6333C126.05 63.9667 125.733 63.3 125.133 62.9667C123.871 62.2293 123.441 60.6101 124.173 59.3441L124.864 58.1486C125.593 56.8879 127.205 56.4559 128.467 57.1833C129.067 57.5333 129.8 57.4833 130.333 57.0667C131.2 56.3833 132.133 55.8333 133.133 55.4333C133.75 55.1833 134.167 54.5667 134.167 53.9C134.167 52.4364 135.353 51.25 136.817 51.25H138.183C139.647 51.25 140.833 52.4364 140.833 53.9C140.833 54.5667 141.25 55.1833 141.867 55.4333C142.867 55.8333 143.8 56.3833 144.667 57.0667C145.2 57.4833 145.933 57.5333 146.533 57.1833C147.795 56.4559 149.407 56.888 150.136 58.1486L150.827 59.3441C151.559 60.6101 151.129 62.2293 149.867 62.9667C149.267 63.3 148.95 63.9667 149.033 64.6333C149.133 65.2667 149.167 65.7667 149.167 66.25ZM177.978 83.4225C177.981 83.4187 177.986 83.4167 177.992 83.4167C177.997 83.4167 178.002 83.4144 178.006 83.4105C178.305 83.0976 178.72 82.9167 179.167 82.9167C180.083 82.9167 180.833 83.6667 180.833 84.5833C180.833 85.5 180.083 86.25 179.167 86.25C178.25 86.25 177.5 85.5 177.5 84.5833C177.5 84.1362 177.681 83.722 177.978 83.4225Z" fill="url(#paint1_linear_1284_14918)"/>
<path opacity="0.8" d="M142.152 60.9008L135.836 67.2174L132.852 64.2341C132.541 63.9225 132.118 63.7474 131.677 63.7474C131.237 63.7474 130.814 63.9225 130.502 64.2341C130.191 64.5457 130.016 64.9684 130.016 65.4091C130.016 65.8498 130.191 66.2725 130.502 66.5841L134.669 70.7508C135.002 71.0841 135.419 71.2341 135.852 71.2341C136.286 71.2341 136.702 71.0674 137.036 70.7508L144.536 63.2508C144.847 62.9391 145.022 62.5165 145.022 62.0758C145.022 61.6351 144.847 61.2124 144.536 60.9008C144.224 60.5891 143.801 60.4141 143.361 60.4141C142.92 60.4141 142.497 60.5891 142.186 60.9008H142.152Z" fill="#EEF2F5"/>
</g>
<defs>
<linearGradient id="paint0_linear_1284_14918" x1="111.661" y1="-48" x2="235.079" y2="174.959" gradientUnits="userSpaceOnUse">
<stop offset="0.0064921" stop-color="#F0F5F8"/>
<stop offset="1" stop-color="#19527A"/>
</linearGradient>
<linearGradient id="paint1_linear_1284_14918" x1="105.33" y1="36.3596" x2="168.198" y2="122.382" gradientUnits="userSpaceOnUse">
<stop stop-color="white" stop-opacity="0.52"/>
<stop offset="1" stop-color="white" stop-opacity="0"/>
</linearGradient>
</defs>
</svg>
