<svg width="268" height="121" viewBox="0 0 268 121" fill="none" xmlns="http://www.w3.org/2000/svg">
<path opacity="0.3" d="M36.5 7.46114C36.5 3.61661 39.6166 0.5 43.4611 0.5H224.539C228.383 0.5 231.5 3.61661 231.5 7.46114V112.539C231.5 116.383 228.383 119.5 224.539 119.5H43.4611C39.6166 119.5 36.5 116.383 36.5 112.539V7.46114Z" fill="white" stroke="url(#paint0_linear_693_32850)"/>
<line opacity="0.3" x1="37" y1="11.5" x2="231" y2="11.5" stroke="#337593"/>
<g opacity="0.5">
<circle cx="42.5" cy="6.5" r="1.5" fill="#015278"/>
<circle cx="46.5" cy="6.5" r="1.5" fill="#015278"/>
<circle cx="50.5" cy="6.5" r="1.5" fill="#015278"/>
</g>
<mask id="mask0_693_32850" style="mask-type:alpha" maskUnits="userSpaceOnUse" x="0" y="15" width="268" height="106">
<rect y="15" width="268" height="106" fill="url(#paint1_linear_693_32850)"/>
</mask>
<g mask="url(#mask0_693_32850)">
<g filter="url(#filter0_d_693_32850)">
<path d="M0 24C0 20.6863 2.68629 18 6 18H232C235.314 18 238 20.6863 238 24V31C238 34.3137 235.314 37 232 37H6C2.68629 37 0 34.3137 0 31V24Z" fill="white"/>
<path d="M0.186529 24C0.186529 20.7893 2.78931 18.1865 6 18.1865H232C235.211 18.1865 237.813 20.7893 237.813 24V31C237.813 34.2107 235.211 36.8135 232 36.8135H6C2.78931 36.8135 0.186529 34.2107 0.186529 31V24Z" stroke="#D9D9D9" stroke-width="0.373057"/>
</g>
<path d="M9.85323 24.0613C9.62673 23.5863 8.95173 23.5863 8.72523 24.0613L8.03023 25.5173L6.43073 25.7278C5.90973 25.7968 5.70073 26.4388 6.08223 26.8008L7.25223 27.9118L6.95873 29.4978C6.86273 30.0148 7.40923 30.4118 7.87123 30.1613L9.28923 29.3913L10.7072 30.1613C11.1692 30.4118 11.7157 30.0148 11.6197 29.4978L11.3262 27.9118L12.4962 26.8008C12.8772 26.4388 12.6687 25.7968 12.1477 25.7278L10.5477 25.5173L9.85323 24.0613Z" fill="#FFB934"/>
<path d="M19.8532 24.0613C19.6267 23.5863 18.9517 23.5863 18.7252 24.0613L18.0302 25.5173L16.4307 25.7278C15.9097 25.7968 15.7007 26.4388 16.0822 26.8008L17.2522 27.9118L16.9587 29.4978C16.8627 30.0148 17.4092 30.4118 17.8712 30.1613L19.2892 29.3913L20.7072 30.1613C21.1692 30.4118 21.7157 30.0148 21.6197 29.4978L21.3262 27.9118L22.4962 26.8008C22.8772 26.4388 22.6687 25.7968 22.1477 25.7278L20.5477 25.5173L19.8532 24.0613Z" fill="#FFB934"/>
<path d="M29.8532 24.0613C29.6267 23.5863 28.9517 23.5863 28.7252 24.0613L28.0302 25.5173L26.4307 25.7278C25.9097 25.7968 25.7007 26.4388 26.0822 26.8008L27.2522 27.9118L26.9587 29.4978C26.8627 30.0148 27.4092 30.4118 27.8712 30.1613L29.2892 29.3913L30.7072 30.1613C31.1692 30.4118 31.7157 30.0148 31.6197 29.4978L31.3262 27.9118L32.4962 26.8008C32.8772 26.4388 32.6687 25.7968 32.1477 25.7278L30.5477 25.5173L29.8532 24.0613Z" fill="#FFB934"/>
<path d="M39.8532 24.0613C39.6267 23.5863 38.9517 23.5863 38.7252 24.0613L38.0302 25.5173L36.4307 25.7278C35.9097 25.7968 35.7007 26.4388 36.0822 26.8008L37.2522 27.9118L36.9587 29.4978C36.8627 30.0148 37.4092 30.4118 37.8712 30.1613L39.2892 29.3913L40.7072 30.1613C41.1692 30.4118 41.7157 30.0148 41.6197 29.4978L41.3262 27.9118L42.4962 26.8008C42.8772 26.4388 42.6687 25.7968 42.1477 25.7278L40.5477 25.5173L39.8532 24.0613Z" fill="#FFB934"/>
<path d="M49.8532 24.0613C49.6267 23.5863 48.9517 23.5863 48.7252 24.0613L48.0302 25.5173L46.4307 25.7278C45.9097 25.7968 45.7007 26.4388 46.0822 26.8008L47.2522 27.9118L46.9587 29.4978C46.8627 30.0148 47.4092 30.4118 47.8712 30.1613L49.2892 29.3913L50.7072 30.1613C51.1692 30.4118 51.7157 30.0148 51.6197 29.4978L51.3262 27.9118L52.4962 26.8008C52.8772 26.4388 52.6687 25.7968 52.1477 25.7278L50.5477 25.5173L49.8532 24.0613Z" fill="#FFB934"/>
<line x1="63.5" y1="26.5" x2="123.5" y2="26.5" stroke="url(#paint2_linear_693_32850)" stroke-width="3" stroke-linecap="round"/>
<line x1="129.5" y1="26.5" x2="152.5" y2="26.5" stroke="url(#paint3_linear_693_32850)" stroke-width="3" stroke-linecap="round"/>
<line x1="158.5" y1="26.5" x2="229.5" y2="26.5" stroke="url(#paint4_linear_693_32850)" stroke-width="3" stroke-linecap="round"/>
<g filter="url(#filter1_d_693_32850)">
<path d="M10 48C10 44.6863 12.6863 42 16 42H242C245.314 42 248 44.6863 248 48V55C248 58.3137 245.314 61 242 61H16C12.6863 61 10 58.3137 10 55V48Z" fill="white"/>
<path d="M10.1865 48C10.1865 44.7893 12.7893 42.1865 16 42.1865H242C245.211 42.1865 247.813 44.7893 247.813 48V55C247.813 58.2107 245.211 60.8135 242 60.8135H16C12.7893 60.8135 10.1865 58.2107 10.1865 55V48Z" stroke="#D9D9D9" stroke-width="0.373057"/>
</g>
<path d="M19.8532 48.0613C19.6267 47.5863 18.9517 47.5863 18.7252 48.0613L18.0302 49.5173L16.4307 49.7278C15.9097 49.7968 15.7007 50.4388 16.0822 50.8008L17.2522 51.9118L16.9587 53.4978C16.8627 54.0148 17.4092 54.4118 17.8712 54.1613L19.2892 53.3913L20.7072 54.1613C21.1692 54.4118 21.7157 54.0148 21.6197 53.4978L21.3262 51.9118L22.4962 50.8008C22.8772 50.4388 22.6687 49.7968 22.1477 49.7278L20.5477 49.5173L19.8532 48.0613Z" fill="#FFB934"/>
<path d="M29.8532 48.0613C29.6267 47.5863 28.9517 47.5863 28.7252 48.0613L28.0302 49.5173L26.4307 49.7278C25.9097 49.7968 25.7007 50.4388 26.0822 50.8008L27.2522 51.9118L26.9587 53.4978C26.8627 54.0148 27.4092 54.4118 27.8712 54.1613L29.2892 53.3913L30.7072 54.1613C31.1692 54.4118 31.7157 54.0148 31.6197 53.4978L31.3262 51.9118L32.4962 50.8008C32.8772 50.4388 32.6687 49.7968 32.1477 49.7278L30.5477 49.5173L29.8532 48.0613Z" fill="#FFB934"/>
<path d="M39.8532 48.0613C39.6267 47.5863 38.9517 47.5863 38.7252 48.0613L38.0302 49.5173L36.4307 49.7278C35.9097 49.7968 35.7007 50.4388 36.0822 50.8008L37.2522 51.9118L36.9587 53.4978C36.8627 54.0148 37.4092 54.4118 37.8712 54.1613L39.2892 53.3913L40.7072 54.1613C41.1692 54.4118 41.7157 54.0148 41.6197 53.4978L41.3262 51.9118L42.4962 50.8008C42.8772 50.4388 42.6687 49.7968 42.1477 49.7278L40.5477 49.5173L39.8532 48.0613Z" fill="#FFB934"/>
<path d="M49.8532 48.0613C49.6267 47.5863 48.9517 47.5863 48.7252 48.0613L48.0302 49.5173L46.4307 49.7278C45.9097 49.7968 45.7007 50.4388 46.0822 50.8008L47.2522 51.9118L46.9587 53.4978C46.8627 54.0148 47.4092 54.4118 47.8712 54.1613L49.2892 53.3913L50.7072 54.1613C51.1692 54.4118 51.7157 54.0148 51.6197 53.4978L51.3262 51.9118L52.4962 50.8008C52.8772 50.4388 52.6687 49.7968 52.1477 49.7278L50.5477 49.5173L49.8532 48.0613Z" fill="#FFB934"/>
<path d="M59.8532 48.0613C59.6267 47.5863 58.9517 47.5863 58.7252 48.0613L58.0302 49.5173L56.4307 49.7278C55.9097 49.7968 55.7007 50.4388 56.0822 50.8008L57.2522 51.9118L56.9587 53.4978C56.8627 54.0148 57.4092 54.4118 57.8712 54.1613L59.2892 53.3913L60.7072 54.1613C61.1692 54.4118 61.7157 54.0148 61.6197 53.4978L61.3262 51.9118L62.4962 50.8008C62.8772 50.4388 62.6687 49.7968 62.1477 49.7278L60.5477 49.5173L59.8532 48.0613Z" fill="#FFB934"/>
<line x1="73.5" y1="50.5" x2="133.5" y2="50.5" stroke="url(#paint5_linear_693_32850)" stroke-width="3" stroke-linecap="round"/>
<line x1="139.5" y1="50.5" x2="162.5" y2="50.5" stroke="url(#paint6_linear_693_32850)" stroke-width="3" stroke-linecap="round"/>
<line x1="168.5" y1="50.5" x2="239.5" y2="50.5" stroke="url(#paint7_linear_693_32850)" stroke-width="3" stroke-linecap="round"/>
<g filter="url(#filter2_d_693_32850)">
<path d="M20 72C20 68.6863 22.6863 66 26 66H252C255.314 66 258 68.6863 258 72V79C258 82.3137 255.314 85 252 85H26C22.6863 85 20 82.3137 20 79V72Z" fill="white"/>
<path d="M20.1865 72C20.1865 68.7893 22.7893 66.1865 26 66.1865H252C255.211 66.1865 257.813 68.7893 257.813 72V79C257.813 82.2107 255.211 84.8135 252 84.8135H26C22.7893 84.8135 20.1865 82.2107 20.1865 79V72Z" stroke="#D9D9D9" stroke-width="0.373057"/>
</g>
<path d="M29.8532 72.0613C29.6267 71.5863 28.9517 71.5863 28.7252 72.0613L28.0302 73.5173L26.4307 73.7278C25.9097 73.7968 25.7007 74.4388 26.0822 74.8008L27.2522 75.9118L26.9587 77.4978C26.8627 78.0148 27.4092 78.4118 27.8712 78.1613L29.2892 77.3913L30.7072 78.1613C31.1692 78.4118 31.7157 78.0148 31.6197 77.4978L31.3262 75.9118L32.4962 74.8008C32.8772 74.4388 32.6687 73.7968 32.1477 73.7278L30.5477 73.5173L29.8532 72.0613Z" fill="#FFB934"/>
<path d="M39.8532 72.0613C39.6267 71.5863 38.9517 71.5863 38.7252 72.0613L38.0302 73.5173L36.4307 73.7278C35.9097 73.7968 35.7007 74.4388 36.0822 74.8008L37.2522 75.9118L36.9587 77.4978C36.8627 78.0148 37.4092 78.4118 37.8712 78.1613L39.2892 77.3913L40.7072 78.1613C41.1692 78.4118 41.7157 78.0148 41.6197 77.4978L41.3262 75.9118L42.4962 74.8008C42.8772 74.4388 42.6687 73.7968 42.1477 73.7278L40.5477 73.5173L39.8532 72.0613Z" fill="#FFB934"/>
<path d="M49.8532 72.0613C49.6267 71.5863 48.9517 71.5863 48.7252 72.0613L48.0302 73.5173L46.4307 73.7278C45.9097 73.7968 45.7007 74.4388 46.0822 74.8008L47.2522 75.9118L46.9587 77.4978C46.8627 78.0148 47.4092 78.4118 47.8712 78.1613L49.2892 77.3913L50.7072 78.1613C51.1692 78.4118 51.7157 78.0148 51.6197 77.4978L51.3262 75.9118L52.4962 74.8008C52.8772 74.4388 52.6687 73.7968 52.1477 73.7278L50.5477 73.5173L49.8532 72.0613Z" fill="#FFB934"/>
<path d="M59.8532 72.0613C59.6267 71.5863 58.9517 71.5863 58.7252 72.0613L58.0302 73.5173L56.4307 73.7278C55.9097 73.7968 55.7007 74.4388 56.0822 74.8008L57.2522 75.9118L56.9587 77.4978C56.8627 78.0148 57.4092 78.4118 57.8712 78.1613L59.2892 77.3913L60.7072 78.1613C61.1692 78.4118 61.7157 78.0148 61.6197 77.4978L61.3262 75.9118L62.4962 74.8008C62.8772 74.4388 62.6687 73.7968 62.1477 73.7278L60.5477 73.5173L59.8532 72.0613Z" fill="#FFB934"/>
<path d="M69.8532 72.0613C69.6267 71.5863 68.9517 71.5863 68.7252 72.0613L68.0302 73.5173L66.4307 73.7278C65.9097 73.7968 65.7007 74.4388 66.0822 74.8008L67.2522 75.9118L66.9587 77.4978C66.8627 78.0148 67.4092 78.4118 67.8712 78.1613L69.2892 77.3913L70.7072 78.1613C71.1692 78.4118 71.7157 78.0148 71.6197 77.4978L71.3262 75.9118L72.4962 74.8008C72.8772 74.4388 72.6687 73.7968 72.1477 73.7278L70.5477 73.5173L69.8532 72.0613Z" fill="#FFB934"/>
<line x1="83.5" y1="74.5" x2="143.5" y2="74.5" stroke="url(#paint8_linear_693_32850)" stroke-width="3" stroke-linecap="round"/>
<line x1="149.5" y1="74.5" x2="172.5" y2="74.5" stroke="url(#paint9_linear_693_32850)" stroke-width="3" stroke-linecap="round"/>
<line x1="178.5" y1="74.5" x2="249.5" y2="74.5" stroke="url(#paint10_linear_693_32850)" stroke-width="3" stroke-linecap="round"/>
<g filter="url(#filter3_d_693_32850)">
<path d="M30 96C30 92.6863 32.6863 90 36 90H262C265.314 90 268 92.6863 268 96V103C268 106.314 265.314 109 262 109H36C32.6863 109 30 106.314 30 103V96Z" fill="white"/>
<path d="M30.1865 96C30.1865 92.7893 32.7893 90.1865 36 90.1865H262C265.211 90.1865 267.813 92.7893 267.813 96V103C267.813 106.211 265.211 108.813 262 108.813H36C32.7893 108.813 30.1865 106.211 30.1865 103V96Z" stroke="#D9D9D9" stroke-width="0.373057"/>
</g>
<path d="M39.8532 96.0613C39.6267 95.5863 38.9517 95.5863 38.7252 96.0613L38.0302 97.5173L36.4307 97.7278C35.9097 97.7968 35.7007 98.4388 36.0822 98.8008L37.2522 99.9118L36.9587 101.498C36.8627 102.015 37.4092 102.412 37.8712 102.161L39.2892 101.391L40.7072 102.161C41.1692 102.412 41.7157 102.015 41.6197 101.498L41.3262 99.9118L42.4962 98.8008C42.8772 98.4388 42.6687 97.7968 42.1477 97.7278L40.5477 97.5173L39.8532 96.0613Z" fill="#FFB934"/>
<path d="M49.8532 96.0613C49.6267 95.5863 48.9517 95.5863 48.7252 96.0613L48.0302 97.5173L46.4307 97.7278C45.9097 97.7968 45.7007 98.4388 46.0822 98.8008L47.2522 99.9118L46.9587 101.498C46.8627 102.015 47.4092 102.412 47.8712 102.161L49.2892 101.391L50.7072 102.161C51.1692 102.412 51.7157 102.015 51.6197 101.498L51.3262 99.9118L52.4962 98.8008C52.8772 98.4388 52.6687 97.7968 52.1477 97.7278L50.5477 97.5173L49.8532 96.0613Z" fill="#FFB934"/>
<path d="M59.8532 96.0613C59.6267 95.5863 58.9517 95.5863 58.7252 96.0613L58.0302 97.5173L56.4307 97.7278C55.9097 97.7968 55.7007 98.4388 56.0822 98.8008L57.2522 99.9118L56.9587 101.498C56.8627 102.015 57.4092 102.412 57.8712 102.161L59.2892 101.391L60.7072 102.161C61.1692 102.412 61.7157 102.015 61.6197 101.498L61.3262 99.9118L62.4962 98.8008C62.8772 98.4388 62.6687 97.7968 62.1477 97.7278L60.5477 97.5173L59.8532 96.0613Z" fill="#FFB934"/>
<path d="M69.8532 96.0613C69.6267 95.5863 68.9517 95.5863 68.7252 96.0613L68.0302 97.5173L66.4307 97.7278C65.9097 97.7968 65.7007 98.4388 66.0822 98.8008L67.2522 99.9118L66.9587 101.498C66.8627 102.015 67.4092 102.412 67.8712 102.161L69.2892 101.391L70.7072 102.161C71.1692 102.412 71.7157 102.015 71.6197 101.498L71.3262 99.9118L72.4962 98.8008C72.8772 98.4388 72.6687 97.7968 72.1477 97.7278L70.5477 97.5173L69.8532 96.0613Z" fill="#FFB934"/>
<path d="M79.8532 96.0613C79.6267 95.5863 78.9517 95.5863 78.7252 96.0613L78.0302 97.5173L76.4307 97.7278C75.9097 97.7968 75.7007 98.4388 76.0822 98.8008L77.2522 99.9118L76.9587 101.498C76.8627 102.015 77.4092 102.412 77.8712 102.161L79.2892 101.391L80.7072 102.161C81.1692 102.412 81.7157 102.015 81.6197 101.498L81.3262 99.9118L82.4962 98.8008C82.8772 98.4388 82.6687 97.7968 82.1477 97.7278L80.5477 97.5173L79.8532 96.0613Z" fill="#FFB934"/>
<line x1="93.5" y1="98.5" x2="153.5" y2="98.5" stroke="url(#paint11_linear_693_32850)" stroke-width="3" stroke-linecap="round"/>
<line x1="159.5" y1="98.5" x2="182.5" y2="98.5" stroke="url(#paint12_linear_693_32850)" stroke-width="3" stroke-linecap="round"/>
<line x1="188.5" y1="98.5" x2="259.5" y2="98.5" stroke="url(#paint13_linear_693_32850)" stroke-width="3" stroke-linecap="round"/>
</g>
<defs>
<filter id="filter0_d_693_32850" x="-3.73057" y="16.7565" width="245.461" height="26.4611" filterUnits="userSpaceOnUse" color-interpolation-filters="sRGB">
<feFlood flood-opacity="0" result="BackgroundImageFix"/>
<feColorMatrix in="SourceAlpha" type="matrix" values="0 0 0 0 0 0 0 0 0 0 0 0 0 0 0 0 0 0 127 0" result="hardAlpha"/>
<feOffset dy="2.48705"/>
<feGaussianBlur stdDeviation="1.86529"/>
<feComposite in2="hardAlpha" operator="out"/>
<feColorMatrix type="matrix" values="0 0 0 0 0.258824 0 0 0 0 0.223529 0 0 0 0 0.192157 0 0 0 0.2 0"/>
<feBlend mode="normal" in2="BackgroundImageFix" result="effect1_dropShadow_693_32850"/>
<feBlend mode="normal" in="SourceGraphic" in2="effect1_dropShadow_693_32850" result="shape"/>
</filter>
<filter id="filter1_d_693_32850" x="6.26943" y="40.7565" width="245.461" height="26.4611" filterUnits="userSpaceOnUse" color-interpolation-filters="sRGB">
<feFlood flood-opacity="0" result="BackgroundImageFix"/>
<feColorMatrix in="SourceAlpha" type="matrix" values="0 0 0 0 0 0 0 0 0 0 0 0 0 0 0 0 0 0 127 0" result="hardAlpha"/>
<feOffset dy="2.48705"/>
<feGaussianBlur stdDeviation="1.86529"/>
<feComposite in2="hardAlpha" operator="out"/>
<feColorMatrix type="matrix" values="0 0 0 0 0.258824 0 0 0 0 0.223529 0 0 0 0 0.192157 0 0 0 0.2 0"/>
<feBlend mode="normal" in2="BackgroundImageFix" result="effect1_dropShadow_693_32850"/>
<feBlend mode="normal" in="SourceGraphic" in2="effect1_dropShadow_693_32850" result="shape"/>
</filter>
<filter id="filter2_d_693_32850" x="16.2694" y="64.7565" width="245.461" height="26.4611" filterUnits="userSpaceOnUse" color-interpolation-filters="sRGB">
<feFlood flood-opacity="0" result="BackgroundImageFix"/>
<feColorMatrix in="SourceAlpha" type="matrix" values="0 0 0 0 0 0 0 0 0 0 0 0 0 0 0 0 0 0 127 0" result="hardAlpha"/>
<feOffset dy="2.48705"/>
<feGaussianBlur stdDeviation="1.86529"/>
<feComposite in2="hardAlpha" operator="out"/>
<feColorMatrix type="matrix" values="0 0 0 0 0.258824 0 0 0 0 0.223529 0 0 0 0 0.192157 0 0 0 0.2 0"/>
<feBlend mode="normal" in2="BackgroundImageFix" result="effect1_dropShadow_693_32850"/>
<feBlend mode="normal" in="SourceGraphic" in2="effect1_dropShadow_693_32850" result="shape"/>
</filter>
<filter id="filter3_d_693_32850" x="26.2694" y="88.7565" width="245.461" height="26.4611" filterUnits="userSpaceOnUse" color-interpolation-filters="sRGB">
<feFlood flood-opacity="0" result="BackgroundImageFix"/>
<feColorMatrix in="SourceAlpha" type="matrix" values="0 0 0 0 0 0 0 0 0 0 0 0 0 0 0 0 0 0 127 0" result="hardAlpha"/>
<feOffset dy="2.48705"/>
<feGaussianBlur stdDeviation="1.86529"/>
<feComposite in2="hardAlpha" operator="out"/>
<feColorMatrix type="matrix" values="0 0 0 0 0.258824 0 0 0 0 0.223529 0 0 0 0 0.192157 0 0 0 0.2 0"/>
<feBlend mode="normal" in2="BackgroundImageFix" result="effect1_dropShadow_693_32850"/>
<feBlend mode="normal" in="SourceGraphic" in2="effect1_dropShadow_693_32850" result="shape"/>
</filter>
<linearGradient id="paint0_linear_693_32850" x1="134" y1="0" x2="134" y2="120" gradientUnits="userSpaceOnUse">
<stop stop-color="#005278"/>
<stop offset="1" stop-color="white" stop-opacity="0"/>
</linearGradient>
<linearGradient id="paint1_linear_693_32850" x1="134" y1="15" x2="134" y2="110.742" gradientUnits="userSpaceOnUse">
<stop stop-color="#D9D9D9"/>
<stop offset="1" stop-color="#737373" stop-opacity="0"/>
</linearGradient>
<linearGradient id="paint2_linear_693_32850" x1="62" y1="28.5" x2="125" y2="28.5" gradientUnits="userSpaceOnUse">
<stop stop-color="#DADADA"/>
<stop offset="1" stop-color="white"/>
</linearGradient>
<linearGradient id="paint3_linear_693_32850" x1="128" y1="28.5" x2="154" y2="28.5" gradientUnits="userSpaceOnUse">
<stop stop-color="#DADADA"/>
<stop offset="1" stop-color="white"/>
</linearGradient>
<linearGradient id="paint4_linear_693_32850" x1="157" y1="28.5" x2="231" y2="28.5" gradientUnits="userSpaceOnUse">
<stop stop-color="#DADADA"/>
<stop offset="1" stop-color="white"/>
</linearGradient>
<linearGradient id="paint5_linear_693_32850" x1="72" y1="52.5" x2="135" y2="52.5" gradientUnits="userSpaceOnUse">
<stop stop-color="#DADADA"/>
<stop offset="1" stop-color="white"/>
</linearGradient>
<linearGradient id="paint6_linear_693_32850" x1="138" y1="52.5" x2="164" y2="52.5" gradientUnits="userSpaceOnUse">
<stop stop-color="#DADADA"/>
<stop offset="1" stop-color="white"/>
</linearGradient>
<linearGradient id="paint7_linear_693_32850" x1="167" y1="52.5" x2="241" y2="52.5" gradientUnits="userSpaceOnUse">
<stop stop-color="#DADADA"/>
<stop offset="1" stop-color="white"/>
</linearGradient>
<linearGradient id="paint8_linear_693_32850" x1="82" y1="76.5" x2="145" y2="76.5" gradientUnits="userSpaceOnUse">
<stop stop-color="#DADADA"/>
<stop offset="1" stop-color="white"/>
</linearGradient>
<linearGradient id="paint9_linear_693_32850" x1="148" y1="76.5" x2="174" y2="76.5" gradientUnits="userSpaceOnUse">
<stop stop-color="#DADADA"/>
<stop offset="1" stop-color="white"/>
</linearGradient>
<linearGradient id="paint10_linear_693_32850" x1="177" y1="76.5" x2="251" y2="76.5" gradientUnits="userSpaceOnUse">
<stop stop-color="#DADADA"/>
<stop offset="1" stop-color="white"/>
</linearGradient>
<linearGradient id="paint11_linear_693_32850" x1="92" y1="100.5" x2="155" y2="100.5" gradientUnits="userSpaceOnUse">
<stop stop-color="#DADADA"/>
<stop offset="1" stop-color="white"/>
</linearGradient>
<linearGradient id="paint12_linear_693_32850" x1="158" y1="100.5" x2="184" y2="100.5" gradientUnits="userSpaceOnUse">
<stop stop-color="#DADADA"/>
<stop offset="1" stop-color="white"/>
</linearGradient>
<linearGradient id="paint13_linear_693_32850" x1="187" y1="100.5" x2="261" y2="100.5" gradientUnits="userSpaceOnUse">
<stop stop-color="#DADADA"/>
<stop offset="1" stop-color="white"/>
</linearGradient>
</defs>
</svg>
