<svg width="94" height="94" viewBox="0 0 94 94" fill="none" xmlns="http://www.w3.org/2000/svg">
<mask id="mask0_675_14934" style="mask-type:alpha" maskUnits="userSpaceOnUse" x="0" y="0" width="94" height="94">
<circle cx="46.9996" cy="47.0001" r="46.943" fill="#D9D9D9"/>
</mask>
<g mask="url(#mask0_675_14934)">
<g filter="url(#filter0_f_675_14934)">
<ellipse cx="56.6359" cy="50.4198" rx="42.9016" ry="18.0311" fill="#7F7F7F"/>
</g>
<g filter="url(#filter1_d_675_14934)">
<path d="M21.8184 31.7668C21.8184 27.6461 25.1588 24.3057 29.2795 24.3057H147.414C151.535 24.3057 154.875 27.6461 154.875 31.7668V69.0725C154.875 73.1932 151.535 76.5336 147.414 76.5336H29.2795C25.1588 76.5336 21.8184 73.1932 21.8184 69.0725V31.7668Z" fill="white" shape-rendering="crispEdges"/>
<path d="M22.0049 31.7668C22.0049 27.7491 25.2618 24.4922 29.2795 24.4922H147.414C151.432 24.4922 154.689 27.7491 154.689 31.7668V69.0725C154.689 73.0902 151.432 76.3471 147.414 76.3471H29.2795C25.2618 76.3471 22.0049 73.0902 22.0049 69.0725V31.7668Z" stroke="#D9D9D9" stroke-width="0.373057" shape-rendering="crispEdges"/>
<path d="M35.5056 34.074C35.2521 33.5424 34.4967 33.5424 34.2432 34.074L33.4654 35.7035L31.6753 35.9391C31.0922 36.0163 30.8583 36.7348 31.2852 37.14L32.5947 38.3834L32.2662 40.1584C32.1587 40.737 32.7704 41.1813 33.2874 40.9009L34.8744 40.0392L36.4614 40.9009C36.9784 41.1813 37.5901 40.737 37.4826 40.1584L37.1542 38.3834L38.4636 37.14C38.89 36.7348 38.6566 36.0163 38.0736 35.9391L36.2829 35.7035L35.5056 34.074Z" fill="#FFB934"/>
<path d="M46.697 34.074C46.4435 33.5424 45.6881 33.5424 45.4346 34.074L44.6568 35.7035L42.8667 35.9391C42.2836 36.0163 42.0497 36.7348 42.4766 37.14L43.7861 38.3834L43.4576 40.1584C43.3501 40.737 43.9618 41.1813 44.4788 40.9009L46.0658 40.0392L47.6528 40.9009C48.1699 41.1813 48.7815 40.737 48.674 40.1584L48.3456 38.3834L49.655 37.14C50.0814 36.7348 49.848 36.0163 49.265 35.9391L47.4743 35.7035L46.697 34.074Z" fill="#FFB934"/>
<path d="M57.8884 34.074C57.6349 33.5424 56.8795 33.5424 56.626 34.074L55.8482 35.7035L54.0581 35.9391C53.475 36.0163 53.2411 36.7348 53.668 37.14L54.9775 38.3834L54.649 40.1584C54.5415 40.737 55.1532 41.1813 55.6702 40.9009L57.2572 40.0392L58.8442 40.9009C59.3613 41.1813 59.9729 40.737 59.8654 40.1584L59.537 38.3834L60.8464 37.14C61.2728 36.7348 61.0395 36.0163 60.4564 35.9391L58.6657 35.7035L57.8884 34.074Z" fill="#FFB934"/>
<path d="M69.0798 34.074C68.8263 33.5424 68.0709 33.5424 67.8174 34.074L67.0396 35.7035L65.2495 35.9391C64.6664 36.0163 64.4325 36.7348 64.8594 37.14L66.1689 38.3834L65.8404 40.1584C65.733 40.737 66.3446 41.1813 66.8616 40.9009L68.4486 40.0392L70.0356 40.9009C70.5527 41.1813 71.1643 40.737 71.0568 40.1584L70.7284 38.3834L72.0378 37.14C72.4642 36.7348 72.2309 36.0163 71.6478 35.9391L69.8571 35.7035L69.0798 34.074Z" fill="#FFB934"/>
<path d="M80.2732 34.074C80.0197 33.5424 79.2643 33.5424 79.0108 34.074L78.2329 35.7035L76.4428 35.9391C75.8597 36.0163 75.6258 36.7348 76.0528 37.14L77.3622 38.3834L77.0338 40.1584C76.9263 40.737 77.5379 41.1813 78.055 40.9009L79.642 40.0392L81.229 40.9009C81.746 41.1813 82.3576 40.737 82.2502 40.1584L81.9217 38.3834L83.2312 37.14C83.6576 36.7348 83.4242 36.0163 82.8411 35.9391L81.0505 35.7035L80.2732 34.074Z" fill="#FFB934"/>
<rect x="29.2793" y="48.5542" width="61.5544" height="4.35233" rx="2.17617" fill="url(#paint0_linear_675_14934)"/>
<rect x="29.2793" y="56.6372" width="69.6373" height="4.35233" rx="2.17617" fill="url(#paint1_linear_675_14934)"/>
<rect x="29.2793" y="64.7202" width="29.8446" height="4.35233" rx="2.17617" fill="url(#paint2_linear_675_14934)"/>
</g>
</g>
<path d="M44.9375 31.0708C44.9375 32.4308 43.2667 33.5517 42.932 34.8055C42.5867 36.1017 43.4606 37.908 42.8045 39.0422C42.1378 40.195 40.1323 40.3331 39.1973 41.2681C38.2623 42.2031 38.1242 44.2086 36.9714 44.8753C35.8372 45.5314 34.0309 44.6575 32.7347 45.0028C31.4809 45.3375 30.36 47.0083 29 47.0083C27.64 47.0083 26.5191 45.3375 25.2653 45.0028C23.9691 44.6575 22.1628 45.5314 21.0286 44.8753C19.8758 44.2086 19.7377 42.2031 18.8027 41.2681C17.8677 40.3331 15.8622 40.195 15.1955 39.0422C14.5394 37.908 15.4133 36.1017 15.068 34.8055C14.7333 33.5517 13.0625 32.4308 13.0625 31.0708C13.0625 29.7108 14.7333 28.5899 15.068 27.3361C15.4133 26.0399 14.5394 24.2336 15.1955 23.0994C15.8622 21.9466 17.8677 21.8085 18.8027 20.8735C19.7377 19.9385 19.8758 17.933 21.0286 17.2663C22.1628 16.6102 23.9691 17.4841 25.2653 17.1388C26.5191 16.8041 27.64 15.1333 29 15.1333C30.36 15.1333 31.4809 16.8041 32.7347 17.1388C34.0309 17.4841 35.8372 16.6102 36.9714 17.2663C38.1242 17.933 38.2623 19.9385 39.1973 20.8735C40.1323 21.8085 42.1378 21.9466 42.8045 23.0994C43.4606 24.2336 42.5867 26.0399 42.932 27.3361C43.2667 28.5899 44.9375 29.7108 44.9375 31.0708Z" fill="#616161"/>
<path d="M33.4886 35.4881C32.197 36.4726 30.6243 37.018 29.0006 37.0445C23.7117 37.0445 20.6895 31.0001 20.6895 31.0001C21.6293 29.2486 22.9328 27.7184 24.5126 26.5121M27.4139 25.137C27.934 25.0152 28.4664 24.9544 29.0006 24.9556C34.2895 24.9556 37.3117 31.0001 37.3117 31.0001C36.853 31.8581 36.3061 32.6659 35.6797 33.4103M30.6023 32.6019C30.3948 32.8246 30.1446 33.0032 29.8665 33.1271C29.5885 33.2509 29.2884 33.3176 28.984 33.3229C28.6797 33.3283 28.3774 33.2723 28.0951 33.1583C27.8129 33.0443 27.5565 32.8746 27.3412 32.6594C27.126 32.4442 26.9563 32.1878 26.8423 31.9055C26.7283 31.6233 26.6723 31.321 26.6777 31.0166C26.6831 30.7123 26.7497 30.4121 26.8736 30.1341C26.9975 29.8561 27.1761 29.6058 27.3988 29.3983M20.6895 22.689L37.3117 39.3112" stroke="white" stroke-width="1.6" stroke-linecap="round" stroke-linejoin="round"/>
<defs>
<filter id="filter0_f_675_14934" x="-13.6231" y="5.03116" width="140.518" height="90.777" filterUnits="userSpaceOnUse" color-interpolation-filters="sRGB">
<feFlood flood-opacity="0" result="BackgroundImageFix"/>
<feBlend mode="normal" in="SourceGraphic" in2="BackgroundImageFix" result="shape"/>
<feGaussianBlur stdDeviation="13.6788" result="effect1_foregroundBlur_675_14934"/>
</filter>
<filter id="filter1_d_675_14934" x="18.0878" y="23.0621" width="140.518" height="59.6892" filterUnits="userSpaceOnUse" color-interpolation-filters="sRGB">
<feFlood flood-opacity="0" result="BackgroundImageFix"/>
<feColorMatrix in="SourceAlpha" type="matrix" values="0 0 0 0 0 0 0 0 0 0 0 0 0 0 0 0 0 0 127 0" result="hardAlpha"/>
<feOffset dy="2.48705"/>
<feGaussianBlur stdDeviation="1.86529"/>
<feComposite in2="hardAlpha" operator="out"/>
<feColorMatrix type="matrix" values="0 0 0 0 0.258824 0 0 0 0 0.223529 0 0 0 0 0.192157 0 0 0 0.2 0"/>
<feBlend mode="normal" in2="BackgroundImageFix" result="effect1_dropShadow_675_14934"/>
<feBlend mode="normal" in="SourceGraphic" in2="effect1_dropShadow_675_14934" result="shape"/>
</filter>
<linearGradient id="paint0_linear_675_14934" x1="29.2793" y1="50.7304" x2="90.8337" y2="50.7304" gradientUnits="userSpaceOnUse">
<stop stop-color="#D9D9D9"/>
<stop offset="1" stop-color="white"/>
</linearGradient>
<linearGradient id="paint1_linear_675_14934" x1="29.2793" y1="58.8134" x2="98.9166" y2="58.8134" gradientUnits="userSpaceOnUse">
<stop stop-color="#D9D9D9"/>
<stop offset="1" stop-color="white"/>
</linearGradient>
<linearGradient id="paint2_linear_675_14934" x1="29.2793" y1="66.8964" x2="59.1239" y2="66.8964" gradientUnits="userSpaceOnUse">
<stop stop-color="#D9D9D9"/>
<stop offset="1" stop-color="white"/>
</linearGradient>
</defs>
</svg>
