<svg width="275" height="130" viewBox="0 0 275 130" fill="none" xmlns="http://www.w3.org/2000/svg">
<path d="M0 16C0 7.16344 6.61056 0 14.7651 0H260.235C268.389 0 275 7.16344 275 16V114C275 122.837 268.389 130 260.235 130H14.7651C6.61056 130 0 122.837 0 114V16Z" fill="url(#paint0_linear_1332_15563)"/>
<mask id="mask0_1332_15563" style="mask-type:alpha" maskUnits="userSpaceOnUse" x="0" y="0" width="275" height="130">
<path d="M0 13.6521C0 6.11226 6.11226 0 13.6521 0H261.348C268.888 0 275 6.11226 275 13.6521V116.348C275 123.888 268.888 130 261.348 130H13.6521C6.11225 130 0 123.888 0 116.348V13.6521Z" fill="white"/>
</mask>
<g mask="url(#mask0_1332_15563)">
<path d="M39.8984 27.4906C39.8984 21.2071 44.9922 16.1133 51.2758 16.1133H225.349C231.632 16.1133 236.726 21.2071 236.726 27.4906V129.887H39.8984V27.4906Z" fill="white" fill-opacity="0.37"/>
<line x1="39.8984" y1="31.7016" x2="236.726" y2="31.7016" stroke="#A8BECD" stroke-width="0.68264"/>
<circle cx="49.5738" cy="24.648" r="1.7066" fill="#7C9DB4"/>
<circle cx="54.1285" cy="24.648" r="1.7066" fill="#7C9DB4"/>
<circle cx="58.6754" cy="24.648" r="1.7066" fill="#7C9DB4"/>
<g filter="url(#filter0_bd_1332_15563)">
<rect x="19.5547" y="9.44922" width="82.6119" height="153.503" rx="8" fill="url(#paint1_linear_1332_15563)" shape-rendering="crispEdges"/>
<g filter="url(#filter1_bi_1332_15563)">
<circle cx="31.8588" cy="21.7533" r="7.61658" fill="url(#paint2_linear_1332_15563)"/>
</g>
<rect x="43.5703" y="17.0645" width="27.5369" height="2.92946" rx="1.46473" fill="#E4EBF0"/>
<path d="M45.9762 22.8382C46.023 22.6942 46.2266 22.6942 46.2734 22.8382L46.6159 23.8923C46.6368 23.9566 46.6968 24.0002 46.7645 24.0002H47.8728C48.0242 24.0002 48.0871 24.1939 47.9647 24.2829L47.068 24.9343C47.0132 24.9741 46.9903 25.0446 47.0112 25.109L47.3537 26.1631C47.4005 26.307 47.2358 26.4267 47.1133 26.3378L46.2166 25.6863C46.1619 25.6465 46.0877 25.6465 46.033 25.6863L45.1363 26.3378C45.0139 26.4267 44.8491 26.307 44.8959 26.1631L45.2384 25.109C45.2593 25.0446 45.2364 24.9741 45.1816 24.9343L44.285 24.2829C44.1625 24.1939 44.2255 24.0002 44.3768 24.0002H45.4851C45.5528 24.0002 45.6128 23.9566 45.6337 23.8923L45.9762 22.8382Z" fill="white"/>
<path d="M50.6637 22.8382C50.7105 22.6942 50.9141 22.6942 50.9609 22.8382L51.3034 23.8923C51.3243 23.9566 51.3843 24.0002 51.452 24.0002H52.5603C52.7117 24.0002 52.7746 24.1939 52.6522 24.2829L51.7555 24.9343C51.7007 24.9741 51.6778 25.0446 51.6987 25.109L52.0412 26.1631C52.088 26.307 51.9233 26.4267 51.8008 26.3378L50.9041 25.6863C50.8494 25.6465 50.7752 25.6465 50.7205 25.6863L49.8238 26.3378C49.7014 26.4267 49.5366 26.307 49.5834 26.1631L49.9259 25.109C49.9468 25.0446 49.9239 24.9741 49.8691 24.9343L48.9725 24.2829C48.85 24.1939 48.913 24.0002 49.0643 24.0002H50.1726C50.2403 24.0002 50.3003 23.9566 50.3212 23.8923L50.6637 22.8382Z" fill="white"/>
<path d="M55.3512 22.8382C55.398 22.6942 55.6016 22.6942 55.6484 22.8382L55.9909 23.8923C56.0118 23.9566 56.0718 24.0002 56.1395 24.0002H57.2478C57.3992 24.0002 57.4621 24.1939 57.3397 24.2829L56.443 24.9343C56.3882 24.9741 56.3653 25.0446 56.3862 25.109L56.7287 26.1631C56.7755 26.307 56.6108 26.4267 56.4883 26.3378L55.5916 25.6863C55.5369 25.6465 55.4627 25.6465 55.408 25.6863L54.5113 26.3378C54.3889 26.4267 54.2241 26.307 54.2709 26.1631L54.6134 25.109C54.6343 25.0446 54.6114 24.9741 54.5566 24.9343L53.66 24.2829C53.5375 24.1939 53.6005 24.0002 53.7518 24.0002H54.8601C54.9278 24.0002 54.9878 23.9566 55.0087 23.8923L55.3512 22.8382Z" fill="white"/>
<path d="M60.0387 22.8382C60.0855 22.6942 60.2891 22.6942 60.3359 22.8382L60.6784 23.8923C60.6993 23.9566 60.7593 24.0002 60.827 24.0002H61.9353C62.0867 24.0002 62.1496 24.1939 62.0272 24.2829L61.1305 24.9343C61.0757 24.9741 61.0528 25.0446 61.0737 25.109L61.4162 26.1631C61.463 26.307 61.2983 26.4267 61.1758 26.3378L60.2791 25.6863C60.2244 25.6465 60.1502 25.6465 60.0955 25.6863L59.1988 26.3378C59.0764 26.4267 58.9116 26.307 58.9584 26.1631L59.3009 25.109C59.3218 25.0446 59.2989 24.9741 59.2441 24.9343L58.3475 24.2829C58.225 24.1939 58.288 24.0002 58.4393 24.0002H59.5476C59.6153 24.0002 59.6753 23.9566 59.6962 23.8923L60.0387 22.8382Z" fill="white"/>
<path d="M64.7262 22.8382C64.773 22.6942 64.9766 22.6942 65.0234 22.8382L65.3659 23.8923C65.3868 23.9566 65.4468 24.0002 65.5145 24.0002H66.6228C66.7742 24.0002 66.8371 24.1939 66.7147 24.2829L65.818 24.9343C65.7632 24.9741 65.7403 25.0446 65.7612 25.109L66.1037 26.1631C66.1505 26.307 65.9858 26.4267 65.8633 26.3378L64.9666 25.6863C64.9119 25.6465 64.8377 25.6465 64.783 25.6863L63.8863 26.3378C63.7639 26.4267 63.5991 26.307 63.6459 26.1631L63.9884 25.109C64.0093 25.0446 63.9864 24.9741 63.9316 24.9343L63.035 24.2829C62.9125 24.1939 62.9755 24.0002 63.1268 24.0002H64.2351C64.3028 24.0002 64.3628 23.9566 64.3837 23.8923L64.7262 22.8382Z" fill="white"/>
<circle cx="79.3124" cy="24.6835" r="1.75767" fill="#E4EBF0"/>
<rect x="81.6562" y="22.9258" width="15.8191" height="3.51535" rx="1.75767" fill="#E4EBF0"/>
<rect x="24.2422" y="33.4707" width="31.0522" height="2.34356" rx="1.17178" fill="#E4EBF0"/>
<rect x="24.2422" y="50.4609" width="31.0522" height="2.34356" rx="1.17178" fill="#E4EBF0"/>
<rect x="83.4141" y="50.4609" width="14.0614" height="2.34356" rx="1.17178" fill="#E4EBF0"/>
<rect x="24.2422" y="38.1582" width="69.1351" height="2.34356" rx="1.17178" fill="#E4EBF0"/>
<rect x="24.2422" y="42.8457" width="46.8713" height="2.34356" rx="1.17178" fill="#E4EBF0"/>
<line opacity="0.2" x1="24.2422" y1="59.6621" x2="97.4786" y2="59.6621" stroke="white" stroke-width="0.351535"/>
<g filter="url(#filter2_bi_1332_15563)">
<circle cx="31.8588" cy="73.3119" r="7.61658" fill="url(#paint3_linear_1332_15563)"/>
</g>
<rect x="43.5703" y="68.623" width="27.5369" height="2.92946" rx="1.46473" fill="#E4EBF0"/>
<path d="M45.9762 74.3968C46.023 74.2528 46.2266 74.2528 46.2734 74.3968L46.6159 75.4509C46.6368 75.5152 46.6968 75.5588 46.7645 75.5588H47.8728C48.0242 75.5588 48.0871 75.7525 47.9647 75.8415L47.068 76.4929C47.0132 76.5327 46.9903 76.6032 47.0112 76.6676L47.3537 77.7217C47.4005 77.8656 47.2358 77.9853 47.1133 77.8964L46.2166 77.2449C46.1619 77.2051 46.0877 77.2051 46.033 77.2449L45.1363 77.8964C45.0139 77.9853 44.8491 77.8656 44.8959 77.7217L45.2384 76.6676C45.2593 76.6032 45.2364 76.5327 45.1816 76.4929L44.285 75.8415C44.1625 75.7525 44.2255 75.5588 44.3768 75.5588H45.4851C45.5528 75.5588 45.6128 75.5152 45.6337 75.4509L45.9762 74.3968Z" fill="white"/>
<path d="M50.6637 74.3968C50.7105 74.2528 50.9141 74.2528 50.9609 74.3968L51.3034 75.4509C51.3243 75.5152 51.3843 75.5588 51.452 75.5588H52.5603C52.7117 75.5588 52.7746 75.7525 52.6522 75.8415L51.7555 76.4929C51.7007 76.5327 51.6778 76.6032 51.6987 76.6676L52.0412 77.7217C52.088 77.8656 51.9233 77.9853 51.8008 77.8964L50.9041 77.2449C50.8494 77.2051 50.7752 77.2051 50.7205 77.2449L49.8238 77.8964C49.7014 77.9853 49.5366 77.8656 49.5834 77.7217L49.9259 76.6676C49.9468 76.6032 49.9239 76.5327 49.8691 76.4929L48.9725 75.8415C48.85 75.7525 48.913 75.5588 49.0643 75.5588H50.1726C50.2403 75.5588 50.3003 75.5152 50.3212 75.4509L50.6637 74.3968Z" fill="white"/>
<path d="M55.3512 74.3968C55.398 74.2528 55.6016 74.2528 55.6484 74.3968L55.9909 75.4509C56.0118 75.5152 56.0718 75.5588 56.1395 75.5588H57.2478C57.3992 75.5588 57.4621 75.7525 57.3397 75.8415L56.443 76.4929C56.3882 76.5327 56.3653 76.6032 56.3862 76.6676L56.7287 77.7217C56.7755 77.8656 56.6108 77.9853 56.4883 77.8964L55.5916 77.2449C55.5369 77.2051 55.4627 77.2051 55.408 77.2449L54.5113 77.8964C54.3889 77.9853 54.2241 77.8656 54.2709 77.7217L54.6134 76.6676C54.6343 76.6032 54.6114 76.5327 54.5566 76.4929L53.66 75.8415C53.5375 75.7525 53.6005 75.5588 53.7518 75.5588H54.8601C54.9278 75.5588 54.9878 75.5152 55.0087 75.4509L55.3512 74.3968Z" fill="white"/>
<path d="M60.0387 74.3968C60.0855 74.2528 60.2891 74.2528 60.3359 74.3968L60.6784 75.4509C60.6993 75.5152 60.7593 75.5588 60.827 75.5588H61.9353C62.0867 75.5588 62.1496 75.7525 62.0272 75.8415L61.1305 76.4929C61.0757 76.5327 61.0528 76.6032 61.0737 76.6676L61.4162 77.7217C61.463 77.8656 61.2983 77.9853 61.1758 77.8964L60.2791 77.2449C60.2244 77.2051 60.1502 77.2051 60.0955 77.2449L59.1988 77.8964C59.0764 77.9853 58.9116 77.8656 58.9584 77.7217L59.3009 76.6676C59.3218 76.6032 59.2989 76.5327 59.2441 76.4929L58.3475 75.8415C58.225 75.7525 58.288 75.5588 58.4393 75.5588H59.5476C59.6153 75.5588 59.6753 75.5152 59.6962 75.4509L60.0387 74.3968Z" fill="white"/>
<path d="M64.7262 74.3968C64.773 74.2528 64.9766 74.2528 65.0234 74.3968L65.3659 75.4509C65.3868 75.5152 65.4468 75.5588 65.5145 75.5588H66.6228C66.7742 75.5588 66.8371 75.7525 66.7147 75.8415L65.818 76.4929C65.7632 76.5327 65.7403 76.6032 65.7612 76.6676L66.1037 77.7217C66.1505 77.8656 65.9858 77.9853 65.8633 77.8964L64.9666 77.2449C64.9119 77.2051 64.8377 77.2051 64.783 77.2449L63.8863 77.8964C63.7639 77.9853 63.5991 77.8656 63.6459 77.7217L63.9884 76.6676C64.0093 76.6032 63.9864 76.5327 63.9316 76.4929L63.035 75.8415C62.9125 75.7525 62.9755 75.5588 63.1268 75.5588H64.2351C64.3028 75.5588 64.3628 75.5152 64.3837 75.4509L64.7262 74.3968Z" fill="white"/>
<circle cx="79.3124" cy="76.2421" r="1.75767" fill="#E4EBF0"/>
<rect x="81.6562" y="74.4844" width="15.8191" height="3.51535" rx="1.75767" fill="#E4EBF0"/>
<rect x="24.2422" y="85.0293" width="31.0522" height="2.34356" rx="1.17178" fill="#E4EBF0"/>
<rect x="24.2422" y="102.02" width="31.0522" height="2.34356" rx="1.17178" fill="#E4EBF0"/>
<rect x="83.4141" y="102.02" width="14.0614" height="2.34356" rx="1.17178" fill="#E4EBF0"/>
<rect x="24.2422" y="89.7168" width="69.1351" height="2.34356" rx="1.17178" fill="#E4EBF0"/>
<rect x="24.2422" y="94.4043" width="46.8713" height="2.34356" rx="1.17178" fill="#E4EBF0"/>
<line opacity="0.2" x1="24.2422" y1="111.221" x2="97.4786" y2="111.221" stroke="white" stroke-width="0.351535"/>
<g filter="url(#filter3_bi_1332_15563)">
<circle cx="31.8588" cy="124.869" r="7.61658" fill="url(#paint4_linear_1332_15563)"/>
</g>
<rect x="43.5703" y="120.18" width="27.5369" height="2.92946" rx="1.46473" fill="#E4EBF0"/>
<path d="M45.9762 125.953C46.023 125.809 46.2266 125.809 46.2734 125.953L46.6159 127.007C46.6368 127.072 46.6968 127.115 46.7645 127.115H47.8728C48.0242 127.115 48.0871 127.309 47.9647 127.398L47.068 128.05C47.0132 128.089 46.9903 128.16 47.0112 128.224L47.3537 129.278C47.4005 129.422 47.2358 129.542 47.1133 129.453L46.2166 128.802C46.1619 128.762 46.0877 128.762 46.033 128.802L45.1363 129.453C45.0139 129.542 44.8491 129.422 44.8959 129.278L45.2384 128.224C45.2593 128.16 45.2364 128.089 45.1816 128.05L44.285 127.398C44.1625 127.309 44.2255 127.115 44.3768 127.115H45.4851C45.5528 127.115 45.6128 127.072 45.6337 127.007L45.9762 125.953Z" fill="white"/>
<path d="M50.6637 125.953C50.7105 125.809 50.9141 125.809 50.9609 125.953L51.3034 127.007C51.3243 127.072 51.3843 127.115 51.452 127.115H52.5603C52.7117 127.115 52.7746 127.309 52.6522 127.398L51.7555 128.05C51.7007 128.089 51.6778 128.16 51.6987 128.224L52.0412 129.278C52.088 129.422 51.9233 129.542 51.8008 129.453L50.9041 128.802C50.8494 128.762 50.7752 128.762 50.7205 128.802L49.8238 129.453C49.7014 129.542 49.5366 129.422 49.5834 129.278L49.9259 128.224C49.9468 128.16 49.9239 128.089 49.8691 128.05L48.9725 127.398C48.85 127.309 48.913 127.115 49.0643 127.115H50.1726C50.2403 127.115 50.3003 127.072 50.3212 127.007L50.6637 125.953Z" fill="white"/>
<path d="M55.3512 125.953C55.398 125.809 55.6016 125.809 55.6484 125.953L55.9909 127.007C56.0118 127.072 56.0718 127.115 56.1395 127.115H57.2478C57.3992 127.115 57.4621 127.309 57.3397 127.398L56.443 128.05C56.3882 128.089 56.3653 128.16 56.3862 128.224L56.7287 129.278C56.7755 129.422 56.6108 129.542 56.4883 129.453L55.5916 128.802C55.5369 128.762 55.4627 128.762 55.408 128.802L54.5113 129.453C54.3889 129.542 54.2241 129.422 54.2709 129.278L54.6134 128.224C54.6343 128.16 54.6114 128.089 54.5566 128.05L53.66 127.398C53.5375 127.309 53.6005 127.115 53.7518 127.115H54.8601C54.9278 127.115 54.9878 127.072 55.0087 127.007L55.3512 125.953Z" fill="white"/>
<path d="M60.0387 125.953C60.0855 125.809 60.2891 125.809 60.3359 125.953L60.6784 127.007C60.6993 127.072 60.7593 127.115 60.827 127.115H61.9353C62.0867 127.115 62.1496 127.309 62.0272 127.398L61.1305 128.05C61.0757 128.089 61.0528 128.16 61.0737 128.224L61.4162 129.278C61.463 129.422 61.2983 129.542 61.1758 129.453L60.2791 128.802C60.2244 128.762 60.1502 128.762 60.0955 128.802L59.1988 129.453C59.0764 129.542 58.9116 129.422 58.9584 129.278L59.3009 128.224C59.3218 128.16 59.2989 128.089 59.2441 128.05L58.3475 127.398C58.225 127.309 58.288 127.115 58.4393 127.115H59.5476C59.6153 127.115 59.6753 127.072 59.6962 127.007L60.0387 125.953Z" fill="white"/>
<path d="M64.7262 125.953C64.773 125.809 64.9766 125.809 65.0234 125.953L65.3659 127.007C65.3868 127.072 65.4468 127.115 65.5145 127.115H66.6228C66.7742 127.115 66.8371 127.309 66.7147 127.398L65.818 128.05C65.7632 128.089 65.7403 128.16 65.7612 128.224L66.1037 129.278C66.1505 129.422 65.9858 129.542 65.8633 129.453L64.9666 128.802C64.9119 128.762 64.8377 128.762 64.783 128.802L63.8863 129.453C63.7639 129.542 63.5991 129.422 63.6459 129.278L63.9884 128.224C64.0093 128.16 63.9864 128.089 63.9316 128.05L63.035 127.398C62.9125 127.309 62.9755 127.115 63.1268 127.115H64.2351C64.3028 127.115 64.3628 127.072 64.3837 127.007L64.7262 125.953Z" fill="white"/>
<circle cx="79.3124" cy="127.799" r="1.75767" fill="#E4EBF0"/>
<rect x="81.6562" y="126.041" width="15.8191" height="3.51535" rx="1.75767" fill="#E4EBF0"/>
</g>
<rect x="102.164" y="61.5938" width="15.8191" height="41.0124" fill="#1C5277"/>
<path d="M107.883 77.9281L112.144 77.9281L112.144 79.3679C112.144 79.7007 112.087 79.974 111.973 80.1876C111.861 80.4012 111.706 80.5593 111.509 80.662C111.312 80.7646 111.088 80.8159 110.837 80.8159C110.586 80.8159 110.364 80.7646 110.169 80.662C109.975 80.5593 109.823 80.4019 109.712 80.1897C109.602 79.9775 109.547 79.7063 109.547 79.3762L109.547 78.2111L110.013 78.2111L110.013 79.3595C110.013 79.587 110.047 79.7701 110.113 79.9088C110.18 80.0489 110.274 80.1502 110.396 80.2126C110.52 80.2764 110.667 80.3083 110.837 80.3083C111.008 80.3083 111.157 80.2764 111.285 80.2126C111.412 80.1488 111.511 80.0468 111.58 79.9067C111.651 79.7666 111.686 79.5815 111.686 79.3512L111.686 78.4441L107.883 78.4441L107.883 77.9281ZM109.797 79.9338L107.883 80.9824L107.883 80.3832L109.797 79.3512L109.797 79.9338ZM107.816 82.9147C107.816 82.6068 107.884 82.3412 108.02 82.1179C108.157 81.8959 108.349 81.7246 108.594 81.604C108.841 81.4847 109.128 81.425 109.456 81.425C109.783 81.425 110.072 81.4847 110.321 81.604C110.572 81.7246 110.768 81.8925 110.908 82.1075C111.049 82.3238 111.12 82.5763 111.12 82.8648C111.12 83.0312 111.092 83.1956 111.037 83.3579C110.981 83.5202 110.891 83.6679 110.766 83.801C110.643 83.9342 110.479 84.0403 110.275 84.1194C110.072 84.1984 109.821 84.238 109.522 84.238L109.314 84.238L109.314 81.7746L109.739 81.7746L109.739 83.7386C109.919 83.7386 110.08 83.7026 110.221 83.6304C110.363 83.5597 110.475 83.4584 110.556 83.3267C110.638 83.1963 110.679 83.0423 110.679 82.8648C110.679 82.6692 110.631 82.5 110.533 82.3571C110.438 82.2156 110.313 82.1068 110.159 82.0305C110.005 81.9542 109.84 81.916 109.664 81.916L109.381 81.916C109.139 81.916 108.935 81.9577 108.767 82.0409C108.601 82.1255 108.474 82.2427 108.386 82.3925C108.3 82.5423 108.257 82.7164 108.257 82.9147C108.257 83.0437 108.275 83.1602 108.311 83.2643C108.349 83.3697 108.404 83.4605 108.478 83.5368C108.553 83.6131 108.646 83.6721 108.757 83.7137L108.623 84.188C108.463 84.1381 108.321 84.0542 108.199 83.9363C108.078 83.8184 107.984 83.6727 107.916 83.4994C107.85 83.326 107.816 83.1311 107.816 82.9147ZM111.079 87.5008L107.883 86.3191L107.883 85.8197L111.079 84.638L111.079 85.1706L108.532 86.0528L108.532 86.086L111.079 86.9682L111.079 87.5008ZM107.883 88.1489L111.079 88.1489L111.079 88.64L107.883 88.64L107.883 88.1489ZM111.611 88.3986C111.611 88.3029 111.644 88.2204 111.709 88.151C111.774 88.0831 111.853 88.0491 111.944 88.0491C112.036 88.0491 112.114 88.0831 112.179 88.151C112.244 88.2204 112.277 88.3029 112.277 88.3986C112.277 88.4943 112.244 88.5761 112.179 88.6441C112.114 88.7135 112.036 88.7481 111.944 88.7481C111.853 88.7481 111.774 88.7135 111.709 88.6441C111.644 88.5761 111.611 88.4943 111.611 88.3986ZM107.816 90.8792C107.816 90.5713 107.884 90.3056 108.02 90.0823C108.157 89.8604 108.349 89.6891 108.594 89.5684C108.841 89.4491 109.128 89.3895 109.456 89.3895C109.783 89.3895 110.072 89.4491 110.321 89.5684C110.572 89.6891 110.768 89.8569 110.908 90.0719C111.049 90.2883 111.12 90.5407 111.12 90.8292C111.12 90.9957 111.092 91.1601 111.037 91.3223C110.981 91.4846 110.891 91.6323 110.766 91.7655C110.643 91.8987 110.479 92.0048 110.275 92.0838C110.072 92.1629 109.821 92.2024 109.522 92.2024L109.314 92.2024L109.314 89.739L109.739 89.739L109.739 91.7031C109.919 91.7031 110.08 91.667 110.221 91.5949C110.363 91.5242 110.475 91.4229 110.556 91.2911C110.638 91.1607 110.679 91.0068 110.679 90.8292C110.679 90.6337 110.631 90.4644 110.533 90.3216C110.438 90.1801 110.313 90.0712 110.159 89.9949C110.005 89.9186 109.84 89.8805 109.664 89.8805L109.381 89.8805C109.139 89.8805 108.935 89.9221 108.767 90.0053C108.601 90.0899 108.474 90.2071 108.386 90.357C108.3 90.5068 108.257 90.6808 108.257 90.8792C108.257 91.0082 108.275 91.1247 108.311 91.2287C108.349 91.3341 108.404 91.425 108.478 91.5013C108.553 91.5776 108.646 91.6365 108.757 91.6781L108.623 92.1525C108.463 92.1026 108.321 92.0186 108.199 91.9007C108.078 91.7828 107.984 91.6372 107.916 91.4638C107.85 91.2904 107.816 91.0956 107.816 90.8792ZM107.883 93.6734L111.079 92.6997L111.079 93.2157L108.632 93.9064L108.632 93.9397L111.079 94.6221L111.079 95.1464L108.64 95.8206L108.64 95.8538L111.079 96.5446L111.079 97.0606L107.883 96.0869L107.883 95.6042L110.338 94.9051L110.338 94.8552L107.883 94.1561L107.883 93.6734Z" fill="white"/>
<circle cx="110.367" cy="70.9665" r="4.10124" fill="white"/>
<path d="M110.359 68.5078L110.912 70.2081H112.699L111.253 71.259L111.806 72.9593L110.359 71.9085L108.913 72.9593L109.465 71.259L108.019 70.2081H109.807L110.359 68.5078Z" fill="#1C5277"/>
<g filter="url(#filter4_bd_1332_15563)">
<rect x="169.555" y="44.4492" width="82.6119" height="153.503" rx="8" fill="url(#paint5_linear_1332_15563)" shape-rendering="crispEdges"/>
<g filter="url(#filter5_bi_1332_15563)">
<circle cx="181.859" cy="56.7533" r="7.61658" fill="url(#paint6_linear_1332_15563)"/>
</g>
<rect x="193.57" y="52.0645" width="27.5369" height="2.92946" rx="1.46473" fill="#E4EBF0"/>
<path d="M195.976 57.8382C196.023 57.6942 196.227 57.6942 196.273 57.8382L196.616 58.8923C196.637 58.9566 196.697 59.0002 196.764 59.0002H197.873C198.024 59.0002 198.087 59.1939 197.965 59.2829L197.068 59.9343C197.013 59.9741 196.99 60.0446 197.011 60.109L197.354 61.1631C197.401 61.307 197.236 61.4267 197.113 61.3378L196.217 60.6863C196.162 60.6465 196.088 60.6465 196.033 60.6863L195.136 61.3378C195.014 61.4267 194.849 61.307 194.896 61.1631L195.238 60.109C195.259 60.0446 195.236 59.9741 195.182 59.9343L194.285 59.2829C194.163 59.1939 194.225 59.0002 194.377 59.0002H195.485C195.553 59.0002 195.613 58.9566 195.634 58.8923L195.976 57.8382Z" fill="white"/>
<path d="M200.664 57.8382C200.71 57.6942 200.914 57.6942 200.961 57.8382L201.303 58.8923C201.324 58.9566 201.384 59.0002 201.452 59.0002H202.56C202.712 59.0002 202.775 59.1939 202.652 59.2829L201.755 59.9343C201.701 59.9741 201.678 60.0446 201.699 60.109L202.041 61.1631C202.088 61.307 201.923 61.4267 201.801 61.3378L200.904 60.6863C200.849 60.6465 200.775 60.6465 200.72 60.6863L199.824 61.3378C199.701 61.4267 199.537 61.307 199.583 61.1631L199.926 60.109C199.947 60.0446 199.924 59.9741 199.869 59.9343L198.972 59.2829C198.85 59.1939 198.913 59.0002 199.064 59.0002H200.173C200.24 59.0002 200.3 58.9566 200.321 58.8923L200.664 57.8382Z" fill="white"/>
<path d="M205.351 57.8382C205.398 57.6942 205.602 57.6942 205.648 57.8382L205.991 58.8923C206.012 58.9566 206.072 59.0002 206.139 59.0002H207.248C207.399 59.0002 207.462 59.1939 207.34 59.2829L206.443 59.9343C206.388 59.9741 206.365 60.0446 206.386 60.109L206.729 61.1631C206.776 61.307 206.611 61.4267 206.488 61.3378L205.592 60.6863C205.537 60.6465 205.463 60.6465 205.408 60.6863L204.511 61.3378C204.389 61.4267 204.224 61.307 204.271 61.1631L204.613 60.109C204.634 60.0446 204.611 59.9741 204.557 59.9343L203.66 59.2829C203.538 59.1939 203.6 59.0002 203.752 59.0002H204.86C204.928 59.0002 204.988 58.9566 205.009 58.8923L205.351 57.8382Z" fill="white"/>
<path d="M210.039 57.8382C210.085 57.6942 210.289 57.6942 210.336 57.8382L210.678 58.8923C210.699 58.9566 210.759 59.0002 210.827 59.0002H211.935C212.087 59.0002 212.15 59.1939 212.027 59.2829L211.13 59.9343C211.076 59.9741 211.053 60.0446 211.074 60.109L211.416 61.1631C211.463 61.307 211.298 61.4267 211.176 61.3378L210.279 60.6863C210.224 60.6465 210.15 60.6465 210.095 60.6863L209.199 61.3378C209.076 61.4267 208.912 61.307 208.958 61.1631L209.301 60.109C209.322 60.0446 209.299 59.9741 209.244 59.9343L208.347 59.2829C208.225 59.1939 208.288 59.0002 208.439 59.0002H209.548C209.615 59.0002 209.675 58.9566 209.696 58.8923L210.039 57.8382Z" fill="white"/>
<path d="M214.726 57.8382C214.773 57.6942 214.977 57.6942 215.023 57.8382L215.366 58.8923C215.387 58.9566 215.447 59.0002 215.514 59.0002H216.623C216.774 59.0002 216.837 59.1939 216.715 59.2829L215.818 59.9343C215.763 59.9741 215.74 60.0446 215.761 60.109L216.104 61.1631C216.151 61.307 215.986 61.4267 215.863 61.3378L214.967 60.6863C214.912 60.6465 214.838 60.6465 214.783 60.6863L213.886 61.3378C213.764 61.4267 213.599 61.307 213.646 61.1631L213.988 60.109C214.009 60.0446 213.986 59.9741 213.932 59.9343L213.035 59.2829C212.913 59.1939 212.975 59.0002 213.127 59.0002H214.235C214.303 59.0002 214.363 58.9566 214.384 58.8923L214.726 57.8382Z" fill="white"/>
<circle cx="229.312" cy="59.6835" r="1.75767" fill="#E4EBF0"/>
<rect x="231.656" y="57.9258" width="15.8191" height="3.51535" rx="1.75767" fill="#E4EBF0"/>
<rect x="174.242" y="68.4707" width="31.0522" height="2.34356" rx="1.17178" fill="#E4EBF0"/>
<rect x="174.242" y="85.4609" width="31.0522" height="2.34356" rx="1.17178" fill="#E4EBF0"/>
<rect x="233.414" y="85.4609" width="14.0614" height="2.34356" rx="1.17178" fill="#E4EBF0"/>
<rect x="174.242" y="73.1582" width="69.1351" height="2.34356" rx="1.17178" fill="#E4EBF0"/>
<rect x="174.242" y="77.8457" width="46.8713" height="2.34356" rx="1.17178" fill="#E4EBF0"/>
<line opacity="0.2" x1="174.242" y1="94.6621" x2="247.479" y2="94.6621" stroke="white" stroke-width="0.351535"/>
<g filter="url(#filter6_bi_1332_15563)">
<circle cx="181.859" cy="108.312" r="7.61658" fill="url(#paint7_linear_1332_15563)"/>
</g>
<rect x="193.57" y="103.623" width="27.5369" height="2.92946" rx="1.46473" fill="#E4EBF0"/>
<path d="M195.976 109.397C196.023 109.253 196.227 109.253 196.273 109.397L196.616 110.451C196.637 110.515 196.697 110.559 196.764 110.559H197.873C198.024 110.559 198.087 110.752 197.965 110.841L197.068 111.493C197.013 111.533 196.99 111.603 197.011 111.668L197.354 112.722C197.401 112.866 197.236 112.985 197.113 112.896L196.217 112.245C196.162 112.205 196.088 112.205 196.033 112.245L195.136 112.896C195.014 112.985 194.849 112.866 194.896 112.722L195.238 111.668C195.259 111.603 195.236 111.533 195.182 111.493L194.285 110.841C194.163 110.752 194.225 110.559 194.377 110.559H195.485C195.553 110.559 195.613 110.515 195.634 110.451L195.976 109.397Z" fill="white"/>
<path d="M200.664 109.397C200.71 109.253 200.914 109.253 200.961 109.397L201.303 110.451C201.324 110.515 201.384 110.559 201.452 110.559H202.56C202.712 110.559 202.775 110.752 202.652 110.841L201.755 111.493C201.701 111.533 201.678 111.603 201.699 111.668L202.041 112.722C202.088 112.866 201.923 112.985 201.801 112.896L200.904 112.245C200.849 112.205 200.775 112.205 200.72 112.245L199.824 112.896C199.701 112.985 199.537 112.866 199.583 112.722L199.926 111.668C199.947 111.603 199.924 111.533 199.869 111.493L198.972 110.841C198.85 110.752 198.913 110.559 199.064 110.559H200.173C200.24 110.559 200.3 110.515 200.321 110.451L200.664 109.397Z" fill="white"/>
<path d="M205.351 109.397C205.398 109.253 205.602 109.253 205.648 109.397L205.991 110.451C206.012 110.515 206.072 110.559 206.139 110.559H207.248C207.399 110.559 207.462 110.752 207.34 110.841L206.443 111.493C206.388 111.533 206.365 111.603 206.386 111.668L206.729 112.722C206.776 112.866 206.611 112.985 206.488 112.896L205.592 112.245C205.537 112.205 205.463 112.205 205.408 112.245L204.511 112.896C204.389 112.985 204.224 112.866 204.271 112.722L204.613 111.668C204.634 111.603 204.611 111.533 204.557 111.493L203.66 110.841C203.538 110.752 203.6 110.559 203.752 110.559H204.86C204.928 110.559 204.988 110.515 205.009 110.451L205.351 109.397Z" fill="white"/>
<path d="M210.039 109.397C210.085 109.253 210.289 109.253 210.336 109.397L210.678 110.451C210.699 110.515 210.759 110.559 210.827 110.559H211.935C212.087 110.559 212.15 110.752 212.027 110.841L211.13 111.493C211.076 111.533 211.053 111.603 211.074 111.668L211.416 112.722C211.463 112.866 211.298 112.985 211.176 112.896L210.279 112.245C210.224 112.205 210.15 112.205 210.095 112.245L209.199 112.896C209.076 112.985 208.912 112.866 208.958 112.722L209.301 111.668C209.322 111.603 209.299 111.533 209.244 111.493L208.347 110.841C208.225 110.752 208.288 110.559 208.439 110.559H209.548C209.615 110.559 209.675 110.515 209.696 110.451L210.039 109.397Z" fill="white"/>
<path d="M214.726 109.397C214.773 109.253 214.977 109.253 215.023 109.397L215.366 110.451C215.387 110.515 215.447 110.559 215.514 110.559H216.623C216.774 110.559 216.837 110.752 216.715 110.841L215.818 111.493C215.763 111.533 215.74 111.603 215.761 111.668L216.104 112.722C216.151 112.866 215.986 112.985 215.863 112.896L214.967 112.245C214.912 112.205 214.838 112.205 214.783 112.245L213.886 112.896C213.764 112.985 213.599 112.866 213.646 112.722L213.988 111.668C214.009 111.603 213.986 111.533 213.932 111.493L213.035 110.841C212.913 110.752 212.975 110.559 213.127 110.559H214.235C214.303 110.559 214.363 110.515 214.384 110.451L214.726 109.397Z" fill="white"/>
<circle cx="229.312" cy="111.242" r="1.75767" fill="#E4EBF0"/>
<rect x="231.656" y="109.484" width="15.8191" height="3.51535" rx="1.75767" fill="#E4EBF0"/>
<rect x="174.242" y="120.029" width="31.0522" height="2.34356" rx="1.17178" fill="#E4EBF0"/>
<rect x="174.242" y="124.717" width="69.1351" height="2.34356" rx="1.17178" fill="#E4EBF0"/>
<rect x="174.242" y="129.404" width="46.8713" height="2.34356" rx="1.17178" fill="#E4EBF0"/>
</g>
<rect x="154.164" y="98.5938" width="15.8191" height="15.82" fill="#1C5277"/>
<circle cx="162.367" cy="105.966" r="4.10124" fill="white"/>
<path d="M162.359 103.508L162.912 105.208H164.699L163.253 106.259L163.806 107.959L162.359 106.908L160.913 107.959L161.465 106.259L160.019 105.208H161.807L162.359 103.508Z" fill="#1C5277"/>
</g>
<defs>
<filter id="filter0_bd_1332_15563" x="-0.445312" y="-10.5508" width="122.609" height="193.504" filterUnits="userSpaceOnUse" color-interpolation-filters="sRGB">
<feFlood flood-opacity="0" result="BackgroundImageFix"/>
<feGaussianBlur in="BackgroundImageFix" stdDeviation="10"/>
<feComposite in2="SourceAlpha" operator="in" result="effect1_backgroundBlur_1332_15563"/>
<feColorMatrix in="SourceAlpha" type="matrix" values="0 0 0 0 0 0 0 0 0 0 0 0 0 0 0 0 0 0 127 0" result="hardAlpha"/>
<feOffset dx="4" dy="3"/>
<feGaussianBlur stdDeviation="5"/>
<feComposite in2="hardAlpha" operator="out"/>
<feColorMatrix type="matrix" values="0 0 0 0 0.579271 0 0 0 0 0.646006 0 0 0 0 0.691667 0 0 0 0.6 0"/>
<feBlend mode="normal" in2="effect1_backgroundBlur_1332_15563" result="effect2_dropShadow_1332_15563"/>
<feBlend mode="normal" in="SourceGraphic" in2="effect2_dropShadow_1332_15563" result="shape"/>
</filter>
<filter id="filter1_bi_1332_15563" x="21.4536" y="11.3482" width="20.8115" height="20.8096" filterUnits="userSpaceOnUse" color-interpolation-filters="sRGB">
<feFlood flood-opacity="0" result="BackgroundImageFix"/>
<feGaussianBlur in="BackgroundImageFix" stdDeviation="1.39428"/>
<feComposite in2="SourceAlpha" operator="in" result="effect1_backgroundBlur_1332_15563"/>
<feBlend mode="normal" in="SourceGraphic" in2="effect1_backgroundBlur_1332_15563" result="shape"/>
<feColorMatrix in="SourceAlpha" type="matrix" values="0 0 0 0 0 0 0 0 0 0 0 0 0 0 0 0 0 0 127 0" result="hardAlpha"/>
<feOffset dy="0.83657"/>
<feGaussianBlur stdDeviation="0.418285"/>
<feComposite in2="hardAlpha" operator="arithmetic" k2="-1" k3="1"/>
<feColorMatrix type="matrix" values="0 0 0 0 1 0 0 0 0 1 0 0 0 0 1 0 0 0 0.25 0"/>
<feBlend mode="overlay" in2="shape" result="effect2_innerShadow_1332_15563"/>
</filter>
<filter id="filter2_bi_1332_15563" x="21.4536" y="62.9067" width="20.8115" height="20.8096" filterUnits="userSpaceOnUse" color-interpolation-filters="sRGB">
<feFlood flood-opacity="0" result="BackgroundImageFix"/>
<feGaussianBlur in="BackgroundImageFix" stdDeviation="1.39428"/>
<feComposite in2="SourceAlpha" operator="in" result="effect1_backgroundBlur_1332_15563"/>
<feBlend mode="normal" in="SourceGraphic" in2="effect1_backgroundBlur_1332_15563" result="shape"/>
<feColorMatrix in="SourceAlpha" type="matrix" values="0 0 0 0 0 0 0 0 0 0 0 0 0 0 0 0 0 0 127 0" result="hardAlpha"/>
<feOffset dy="0.83657"/>
<feGaussianBlur stdDeviation="0.418285"/>
<feComposite in2="hardAlpha" operator="arithmetic" k2="-1" k3="1"/>
<feColorMatrix type="matrix" values="0 0 0 0 1 0 0 0 0 1 0 0 0 0 1 0 0 0 0.25 0"/>
<feBlend mode="overlay" in2="shape" result="effect2_innerShadow_1332_15563"/>
</filter>
<filter id="filter3_bi_1332_15563" x="21.4536" y="114.463" width="20.8115" height="20.8096" filterUnits="userSpaceOnUse" color-interpolation-filters="sRGB">
<feFlood flood-opacity="0" result="BackgroundImageFix"/>
<feGaussianBlur in="BackgroundImageFix" stdDeviation="1.39428"/>
<feComposite in2="SourceAlpha" operator="in" result="effect1_backgroundBlur_1332_15563"/>
<feBlend mode="normal" in="SourceGraphic" in2="effect1_backgroundBlur_1332_15563" result="shape"/>
<feColorMatrix in="SourceAlpha" type="matrix" values="0 0 0 0 0 0 0 0 0 0 0 0 0 0 0 0 0 0 127 0" result="hardAlpha"/>
<feOffset dy="0.83657"/>
<feGaussianBlur stdDeviation="0.418285"/>
<feComposite in2="hardAlpha" operator="arithmetic" k2="-1" k3="1"/>
<feColorMatrix type="matrix" values="0 0 0 0 1 0 0 0 0 1 0 0 0 0 1 0 0 0 0.25 0"/>
<feBlend mode="overlay" in2="shape" result="effect2_innerShadow_1332_15563"/>
</filter>
<filter id="filter4_bd_1332_15563" x="149.555" y="24.4492" width="122.609" height="193.504" filterUnits="userSpaceOnUse" color-interpolation-filters="sRGB">
<feFlood flood-opacity="0" result="BackgroundImageFix"/>
<feGaussianBlur in="BackgroundImageFix" stdDeviation="10"/>
<feComposite in2="SourceAlpha" operator="in" result="effect1_backgroundBlur_1332_15563"/>
<feColorMatrix in="SourceAlpha" type="matrix" values="0 0 0 0 0 0 0 0 0 0 0 0 0 0 0 0 0 0 127 0" result="hardAlpha"/>
<feOffset dx="-3" dy="3"/>
<feGaussianBlur stdDeviation="5"/>
<feComposite in2="hardAlpha" operator="out"/>
<feColorMatrix type="matrix" values="0 0 0 0 0.579271 0 0 0 0 0.646006 0 0 0 0 0.691667 0 0 0 0.4 0"/>
<feBlend mode="multiply" in2="effect1_backgroundBlur_1332_15563" result="effect2_dropShadow_1332_15563"/>
<feBlend mode="normal" in="SourceGraphic" in2="effect2_dropShadow_1332_15563" result="shape"/>
</filter>
<filter id="filter5_bi_1332_15563" x="171.454" y="46.3482" width="20.8115" height="20.8096" filterUnits="userSpaceOnUse" color-interpolation-filters="sRGB">
<feFlood flood-opacity="0" result="BackgroundImageFix"/>
<feGaussianBlur in="BackgroundImageFix" stdDeviation="1.39428"/>
<feComposite in2="SourceAlpha" operator="in" result="effect1_backgroundBlur_1332_15563"/>
<feBlend mode="normal" in="SourceGraphic" in2="effect1_backgroundBlur_1332_15563" result="shape"/>
<feColorMatrix in="SourceAlpha" type="matrix" values="0 0 0 0 0 0 0 0 0 0 0 0 0 0 0 0 0 0 127 0" result="hardAlpha"/>
<feOffset dy="0.83657"/>
<feGaussianBlur stdDeviation="0.418285"/>
<feComposite in2="hardAlpha" operator="arithmetic" k2="-1" k3="1"/>
<feColorMatrix type="matrix" values="0 0 0 0 1 0 0 0 0 1 0 0 0 0 1 0 0 0 0.25 0"/>
<feBlend mode="overlay" in2="shape" result="effect2_innerShadow_1332_15563"/>
</filter>
<filter id="filter6_bi_1332_15563" x="171.454" y="97.9067" width="20.8115" height="20.8096" filterUnits="userSpaceOnUse" color-interpolation-filters="sRGB">
<feFlood flood-opacity="0" result="BackgroundImageFix"/>
<feGaussianBlur in="BackgroundImageFix" stdDeviation="1.39428"/>
<feComposite in2="SourceAlpha" operator="in" result="effect1_backgroundBlur_1332_15563"/>
<feBlend mode="normal" in="SourceGraphic" in2="effect1_backgroundBlur_1332_15563" result="shape"/>
<feColorMatrix in="SourceAlpha" type="matrix" values="0 0 0 0 0 0 0 0 0 0 0 0 0 0 0 0 0 0 127 0" result="hardAlpha"/>
<feOffset dy="0.83657"/>
<feGaussianBlur stdDeviation="0.418285"/>
<feComposite in2="hardAlpha" operator="arithmetic" k2="-1" k3="1"/>
<feColorMatrix type="matrix" values="0 0 0 0 1 0 0 0 0 1 0 0 0 0 1 0 0 0 0.25 0"/>
<feBlend mode="overlay" in2="shape" result="effect2_innerShadow_1332_15563"/>
</filter>
<linearGradient id="paint0_linear_1332_15563" x1="111.661" y1="-48" x2="235.079" y2="174.959" gradientUnits="userSpaceOnUse">
<stop offset="0.0064921" stop-color="#F0F5F8"/>
<stop offset="1" stop-color="#19527A"/>
</linearGradient>
<linearGradient id="paint1_linear_1332_15563" x1="23.3577" y1="9.44922" x2="150.854" y2="87.1529" gradientUnits="userSpaceOnUse">
<stop stop-color="#4C7898" stop-opacity="0.71"/>
<stop offset="1" stop-color="white" stop-opacity="0"/>
</linearGradient>
<linearGradient id="paint2_linear_1332_15563" x1="26.9583" y1="17.2" x2="36.5351" y2="30.3041" gradientUnits="userSpaceOnUse">
<stop stop-color="white" stop-opacity="0.52"/>
<stop offset="1" stop-color="white" stop-opacity="0"/>
</linearGradient>
<linearGradient id="paint3_linear_1332_15563" x1="26.9583" y1="68.7586" x2="36.5351" y2="81.8627" gradientUnits="userSpaceOnUse">
<stop stop-color="white" stop-opacity="0.52"/>
<stop offset="1" stop-color="white" stop-opacity="0"/>
</linearGradient>
<linearGradient id="paint4_linear_1332_15563" x1="26.9583" y1="120.315" x2="36.5351" y2="133.419" gradientUnits="userSpaceOnUse">
<stop stop-color="white" stop-opacity="0.52"/>
<stop offset="1" stop-color="white" stop-opacity="0"/>
</linearGradient>
<linearGradient id="paint5_linear_1332_15563" x1="173.358" y1="44.4492" x2="300.854" y2="122.153" gradientUnits="userSpaceOnUse">
<stop stop-color="#4C7898" stop-opacity="0.71"/>
<stop offset="1" stop-color="white" stop-opacity="0"/>
</linearGradient>
<linearGradient id="paint6_linear_1332_15563" x1="176.958" y1="52.2" x2="186.535" y2="65.3041" gradientUnits="userSpaceOnUse">
<stop stop-color="white" stop-opacity="0.52"/>
<stop offset="1" stop-color="white" stop-opacity="0"/>
</linearGradient>
<linearGradient id="paint7_linear_1332_15563" x1="176.958" y1="103.759" x2="186.535" y2="116.863" gradientUnits="userSpaceOnUse">
<stop stop-color="white" stop-opacity="0.52"/>
<stop offset="1" stop-color="white" stop-opacity="0"/>
</linearGradient>
</defs>
</svg>
