<svg width="275" height="130" viewBox="0 0 275 130" fill="none" xmlns="http://www.w3.org/2000/svg">
<path d="M0 16C0 7.16344 6.61056 0 14.7651 0H260.235C268.389 0 275 7.16344 275 16V114C275 122.837 268.389 130 260.235 130H14.7651C6.61056 130 0 122.837 0 114V16Z" fill="url(#paint0_linear_1332_15410)"/>
<mask id="mask0_1332_15410" style="mask-type:alpha" maskUnits="userSpaceOnUse" x="0" y="0" width="275" height="130">
<path d="M0 13.6646C0 6.11785 6.11785 0 13.6646 0H261.335C268.882 0 275 6.11785 275 13.6646V116.335C275 123.882 268.882 130 261.335 130H13.6646C6.11786 130 0 123.882 0 116.335V13.6646Z" fill="white"/>
</mask>
<g mask="url(#mask0_1332_15410)">
<rect x="27.3906" y="11" width="220.297" height="104.72" rx="3.1577" fill="url(#paint1_linear_1332_15410)"/>
<g filter="url(#filter0_bdi_1332_15410)">
<rect x="137.727" y="101.453" width="23.8432" height="23.843" rx="11.9215" fill="url(#paint2_linear_1332_15410)" shape-rendering="crispEdges"/>
</g>
<path d="M148.156 108.906L152.627 113.377L148.156 117.847" stroke="white" stroke-width="0.95798"/>
<g filter="url(#filter1_bdi_1332_15410)">
<rect width="23.8432" height="23.843" rx="11.9215" transform="matrix(-1 0 0 1 134.75 101.453)" fill="url(#paint3_linear_1332_15410)" shape-rendering="crispEdges"/>
</g>
<path d="M124.32 108.906L119.85 113.377L124.32 117.847" stroke="white" stroke-width="0.95798"/>
<rect x="37.1094" y="51.5723" width="52.4825" height="1.9438" rx="0.971898" fill="#E4EBF0"/>
<rect x="37.1094" y="57.4023" width="52.4825" height="1.9438" rx="0.971898" fill="#E4EBF0"/>
<rect x="37.1094" y="63.2363" width="45.3552" height="1.9438" rx="0.971898" fill="#E4EBF0"/>
<rect x="37.1016" y="25.6543" width="52.4825" height="3.23966" rx="1.61983" fill="#E4EBF0"/>
<rect x="37.1016" y="43.1484" width="38.8759" height="3.23966" rx="1.61983" fill="#E4EBF0"/>
<path d="M40.0942 32.8914C40.1718 32.6526 40.5096 32.6526 40.5872 32.8914L41.1553 34.64C41.19 34.7468 41.2896 34.8191 41.4018 34.8191L43.2404 34.8191C43.4915 34.8191 43.5958 35.1403 43.3927 35.2879L41.9053 36.3686C41.8145 36.4346 41.7765 36.5516 41.8112 36.6584L42.3793 38.4069C42.4569 38.6457 42.1836 38.8443 41.9805 38.6967L40.4931 37.616C40.4022 37.55 40.2792 37.55 40.1884 37.616L38.701 38.6967C38.4978 38.8443 38.2246 38.6457 38.3021 38.4069L38.8703 36.6584C38.905 36.5516 38.867 36.4346 38.7761 36.3686L37.2887 35.2879C37.0856 35.1403 37.19 34.8191 37.441 34.8191L39.2796 34.8191C39.3919 34.8191 39.4914 34.7468 39.5261 34.64L40.0942 32.8914Z" fill="white"/>
<path d="M47.8677 32.8914C47.9453 32.6526 48.2831 32.6526 48.3606 32.8914L48.9288 34.64C48.9635 34.7468 49.063 34.8191 49.1753 34.8191L51.0138 34.8191C51.2649 34.8191 51.3693 35.1403 51.1662 35.2879L49.6787 36.3686C49.5879 36.4346 49.5499 36.5516 49.5846 36.6584L50.1527 38.4069C50.2303 38.6457 49.957 38.8443 49.7539 38.6967L48.2665 37.616C48.1757 37.55 48.0527 37.55 47.9618 37.616L46.4744 38.6967C46.2713 38.8443 45.998 38.6457 46.0756 38.4069L46.6437 36.6584C46.6784 36.5516 46.6404 36.4346 46.5496 36.3686L45.0621 35.2879C44.859 35.1403 44.9634 34.8191 45.2145 34.8191L47.053 34.8191C47.1653 34.8191 47.2648 34.7468 47.2995 34.64L47.8677 32.8914Z" fill="white"/>
<path d="M55.6411 32.8914C55.7187 32.6526 56.0565 32.6526 56.1341 32.8914L56.7022 34.64C56.7369 34.7468 56.8364 34.8191 56.9487 34.8191L58.7873 34.8191C59.0383 34.8191 59.1427 35.1403 58.9396 35.2879L57.4522 36.3686C57.3613 36.4346 57.3233 36.5516 57.358 36.6584L57.9262 38.4069C58.0038 38.6457 57.7305 38.8443 57.5273 38.6967L56.0399 37.616C55.9491 37.55 55.8261 37.55 55.7353 37.616L54.2478 38.6967C54.0447 38.8443 53.7714 38.6457 53.849 38.4069L54.4172 36.6584C54.4519 36.5516 54.4138 36.4346 54.323 36.3686L52.8356 35.2879C52.6325 35.1403 52.7369 34.8191 52.9879 34.8191L54.8265 34.8191C54.9388 34.8191 55.0383 34.7468 55.073 34.64L55.6411 32.8914Z" fill="white"/>
<path d="M63.4224 32.8914C63.4999 32.6526 63.8377 32.6526 63.9153 32.8914L64.4835 34.64C64.5182 34.7468 64.6177 34.8191 64.73 34.8191L66.5685 34.8191C66.8196 34.8191 66.924 35.1403 66.7208 35.2879L65.2334 36.3686C65.1426 36.4346 65.1046 36.5516 65.1393 36.6584L65.7074 38.4069C65.785 38.6457 65.5117 38.8443 65.3086 38.6967L63.8212 37.616C63.7303 37.55 63.6073 37.55 63.5165 37.616L62.0291 38.6967C61.826 38.8443 61.5527 38.6457 61.6303 38.4069L62.1984 36.6584C62.2331 36.5516 62.1951 36.4346 62.1043 36.3686L60.6168 35.2879C60.4137 35.1403 60.5181 34.8191 60.7692 34.8191L62.6077 34.8191C62.72 34.8191 62.8195 34.7468 62.8542 34.64L63.4224 32.8914Z" fill="white"/>
<path d="M71.1958 32.8914C71.2734 32.6526 71.6112 32.6526 71.6888 32.8914L72.2569 34.64C72.2916 34.7468 72.3911 34.8191 72.5034 34.8191L74.3419 34.8191C74.593 34.8191 74.6974 35.1403 74.4943 35.2879L73.0069 36.3686C72.916 36.4346 72.878 36.5516 72.9127 36.6584L73.4809 38.4069C73.5584 38.6457 73.2852 38.8443 73.082 38.6967L71.5946 37.616C71.5038 37.55 71.3808 37.55 71.2899 37.616L69.8025 38.6967C69.5994 38.8443 69.3261 38.6457 69.4037 38.4069L69.9718 36.6584C70.0065 36.5516 69.9685 36.4346 69.8777 36.3686L68.3903 35.2879C68.1872 35.1403 68.2915 34.8191 68.5426 34.8191L70.3812 34.8191C70.4934 34.8191 70.593 34.7468 70.6276 34.64L71.1958 32.8914Z" fill="white"/>
<rect x="57.1875" y="81.375" width="38.8759" height="3.23966" rx="1.61983" fill="#E4EBF0"/>
<rect x="57.1875" y="88.502" width="31.1007" height="3.23966" rx="1.61983" fill="#E4EBF0"/>
<g filter="url(#filter2_bi_1332_15410)">
<ellipse cx="45.5242" cy="86.5593" rx="9.07107" ry="9.07105" fill="url(#paint4_linear_1332_15410)"/>
</g>
<rect x="106.438" y="51.5723" width="58.9618" height="1.9438" rx="0.971898" fill="#E4EBF0"/>
<rect x="106.422" y="25.6543" width="52.4825" height="3.23966" rx="1.61983" fill="#E4EBF0"/>
<rect x="106.422" y="43.1484" width="38.8759" height="3.23966" rx="1.61983" fill="#E4EBF0"/>
<path d="M109.415 32.8914C109.492 32.6526 109.83 32.6526 109.908 32.8914L110.476 34.64C110.51 34.7468 110.61 34.8191 110.722 34.8191L112.561 34.8191C112.812 34.8191 112.916 35.1403 112.713 35.2879L111.226 36.3686C111.135 36.4346 111.097 36.5516 111.131 36.6584L111.7 38.4069C111.777 38.6457 111.504 38.8443 111.301 38.6967L109.813 37.616C109.723 37.55 109.6 37.55 109.509 37.616L108.021 38.6967C107.818 38.8443 107.545 38.6457 107.622 38.4069L108.191 36.6584C108.225 36.5516 108.187 36.4346 108.096 36.3686L106.609 35.2879C106.406 35.1403 106.51 34.8191 106.761 34.8191L108.6 34.8191C108.712 34.8191 108.812 34.7468 108.846 34.64L109.415 32.8914Z" fill="white"/>
<path d="M117.188 32.8914C117.266 32.6526 117.603 32.6526 117.681 32.8914L118.249 34.64C118.284 34.7468 118.383 34.8191 118.496 34.8191L120.334 34.8191C120.585 34.8191 120.69 35.1403 120.486 35.2879L118.999 36.3686C118.908 36.4346 118.87 36.5516 118.905 36.6584L119.473 38.4069C119.551 38.6457 119.277 38.8443 119.074 38.6967L117.587 37.616C117.496 37.55 117.373 37.55 117.282 37.616L115.795 38.6967C115.592 38.8443 115.318 38.6457 115.396 38.4069L115.964 36.6584C115.999 36.5516 115.961 36.4346 115.87 36.3686L114.382 35.2879C114.179 35.1403 114.284 34.8191 114.535 34.8191L116.373 34.8191C116.486 34.8191 116.585 34.7468 116.62 34.64L117.188 32.8914Z" fill="white"/>
<path d="M124.961 32.8914C125.039 32.6526 125.377 32.6526 125.454 32.8914L126.023 34.64C126.057 34.7468 126.157 34.8191 126.269 34.8191L128.108 34.8191C128.359 34.8191 128.463 35.1403 128.26 35.2879L126.772 36.3686C126.682 36.4346 126.644 36.5516 126.678 36.6584L127.246 38.4069C127.324 38.6457 127.051 38.8443 126.848 38.6967L125.36 37.616C125.269 37.55 125.146 37.55 125.056 37.616L123.568 38.6967C123.365 38.8443 123.092 38.6457 123.169 38.4069L123.737 36.6584C123.772 36.5516 123.734 36.4346 123.643 36.3686L122.156 35.2879C121.953 35.1403 122.057 34.8191 122.308 34.8191L124.147 34.8191C124.259 34.8191 124.359 34.7468 124.393 34.64L124.961 32.8914Z" fill="white"/>
<path d="M132.743 32.8914C132.82 32.6526 133.158 32.6526 133.236 32.8914L133.804 34.64C133.838 34.7468 133.938 34.8191 134.05 34.8191L135.889 34.8191C136.14 34.8191 136.244 35.1403 136.041 35.2879L134.554 36.3686C134.463 36.4346 134.425 36.5516 134.46 36.6584L135.028 38.4069C135.105 38.6457 134.832 38.8443 134.629 38.6967L133.141 37.616C133.051 37.55 132.928 37.55 132.837 37.616L131.349 38.6967C131.146 38.8443 130.873 38.6457 130.951 38.4069L131.519 36.6584C131.553 36.5516 131.515 36.4346 131.425 36.3686L129.937 35.2879C129.734 35.1403 129.838 34.8191 130.089 34.8191L131.928 34.8191C132.04 34.8191 132.14 34.7468 132.175 34.64L132.743 32.8914Z" fill="white"/>
<path d="M140.516 32.8914C140.594 32.6526 140.931 32.6526 141.009 32.8914L141.577 34.64C141.612 34.7468 141.711 34.8191 141.824 34.8191L143.662 34.8191C143.913 34.8191 144.018 35.1403 143.815 35.2879L142.327 36.3686C142.236 36.4346 142.198 36.5516 142.233 36.6584L142.801 38.4069C142.879 38.6457 142.605 38.8443 142.402 38.6967L140.915 37.616C140.824 37.55 140.701 37.55 140.61 37.616L139.123 38.6967C138.92 38.8443 138.646 38.6457 138.724 38.4069L139.292 36.6584C139.327 36.5516 139.289 36.4346 139.198 36.3686L137.711 35.2879C137.507 35.1403 137.612 34.8191 137.863 34.8191L139.701 34.8191C139.814 34.8191 139.913 34.7468 139.948 34.64L140.516 32.8914Z" fill="white"/>
<rect x="126.523" y="81.375" width="38.8759" height="3.23966" rx="1.61983" fill="#E4EBF0"/>
<rect x="126.523" y="88.502" width="31.1007" height="3.23966" rx="1.61983" fill="#E4EBF0"/>
<g filter="url(#filter3_bi_1332_15410)">
<ellipse cx="115.509" cy="86.5593" rx="9.07107" ry="9.07105" fill="url(#paint5_linear_1332_15410)"/>
</g>
<rect x="175.766" y="51.5723" width="58.9618" height="1.9438" rx="0.971898" fill="#E4EBF0"/>
<rect x="175.766" y="57.4023" width="58.9618" height="1.9438" rx="0.971898" fill="#E4EBF0"/>
<rect x="175.766" y="63.2363" width="45.3552" height="1.9438" rx="0.971898" fill="#E4EBF0"/>
<rect x="175.766" y="25.6543" width="52.4825" height="3.23966" rx="1.61983" fill="#E4EBF0"/>
<rect x="175.766" y="43.1484" width="38.8759" height="3.23966" rx="1.61983" fill="#E4EBF0"/>
<path d="M178.758 32.8914C178.836 32.6526 179.174 32.6526 179.251 32.8914L179.819 34.64C179.854 34.7468 179.954 34.8191 180.066 34.8191L181.904 34.8191C182.156 34.8191 182.26 35.1403 182.057 35.2879L180.569 36.3686C180.479 36.4346 180.441 36.5516 180.475 36.6584L181.043 38.4069C181.121 38.6457 180.848 38.8443 180.645 38.6967L179.157 37.616C179.066 37.55 178.943 37.55 178.852 37.616L177.365 38.6967C177.162 38.8443 176.889 38.6457 176.966 38.4069L177.534 36.6584C177.569 36.5516 177.531 36.4346 177.44 36.3686L175.953 35.2879C175.75 35.1403 175.854 34.8191 176.105 34.8191L177.944 34.8191C178.056 34.8191 178.155 34.7468 178.19 34.64L178.758 32.8914Z" fill="white"/>
<path d="M186.532 32.8914C186.609 32.6526 186.947 32.6526 187.025 32.8914L187.593 34.64C187.628 34.7468 187.727 34.8191 187.839 34.8191L189.678 34.8191C189.929 34.8191 190.033 35.1403 189.83 35.2879L188.343 36.3686C188.252 36.4346 188.214 36.5516 188.249 36.6584L188.817 38.4069C188.894 38.6457 188.621 38.8443 188.418 38.6967L186.931 37.616C186.84 37.55 186.717 37.55 186.626 37.616L185.138 38.6967C184.935 38.8443 184.662 38.6457 184.74 38.4069L185.308 36.6584C185.342 36.5516 185.304 36.4346 185.214 36.3686L183.726 35.2879C183.523 35.1403 183.627 34.8191 183.879 34.8191L185.717 34.8191C185.829 34.8191 185.929 34.7468 185.964 34.64L186.532 32.8914Z" fill="white"/>
<path d="M194.305 32.8914C194.383 32.6526 194.721 32.6526 194.798 32.8914L195.366 34.64C195.401 34.7468 195.5 34.8191 195.613 34.8191L197.451 34.8191C197.702 34.8191 197.807 35.1403 197.604 35.2879L196.116 36.3686C196.025 36.4346 195.987 36.5516 196.022 36.6584L196.59 38.4069C196.668 38.6457 196.395 38.8443 196.191 38.6967L194.704 37.616C194.613 37.55 194.49 37.55 194.399 37.616L192.912 38.6967C192.709 38.8443 192.435 38.6457 192.513 38.4069L193.081 36.6584C193.116 36.5516 193.078 36.4346 192.987 36.3686L191.5 35.2879C191.297 35.1403 191.401 34.8191 191.652 34.8191L193.491 34.8191C193.603 34.8191 193.702 34.7468 193.737 34.64L194.305 32.8914Z" fill="white"/>
<path d="M202.086 32.8914C202.164 32.6526 202.502 32.6526 202.579 32.8914L203.148 34.64C203.182 34.7468 203.282 34.8191 203.394 34.8191L205.233 34.8191C205.484 34.8191 205.588 35.1403 205.385 35.2879L203.897 36.3686C203.807 36.4346 203.769 36.5516 203.803 36.6584L204.371 38.4069C204.449 38.6457 204.176 38.8443 203.973 38.6967L202.485 37.616C202.394 37.55 202.271 37.55 202.181 37.616L200.693 38.6967C200.49 38.8443 200.217 38.6457 200.294 38.4069L200.862 36.6584C200.897 36.5516 200.859 36.4346 200.768 36.3686L199.281 35.2879C199.078 35.1403 199.182 34.8191 199.433 34.8191L201.272 34.8191C201.384 34.8191 201.484 34.7468 201.518 34.64L202.086 32.8914Z" fill="white"/>
<path d="M209.86 32.8914C209.937 32.6526 210.275 32.6526 210.353 32.8914L210.921 34.64C210.956 34.7468 211.055 34.8191 211.167 34.8191L213.006 34.8191C213.257 34.8191 213.361 35.1403 213.158 35.2879L211.671 36.3686C211.58 36.4346 211.542 36.5516 211.577 36.6584L212.145 38.4069C212.223 38.6457 211.949 38.8443 211.746 38.6967L210.259 37.616C210.168 37.55 210.045 37.55 209.954 37.616L208.467 38.6967C208.263 38.8443 207.99 38.6457 208.068 38.4069L208.636 36.6584C208.671 36.5516 208.633 36.4346 208.542 36.3686L207.054 35.2879C206.851 35.1403 206.956 34.8191 207.207 34.8191L209.045 34.8191C209.158 34.8191 209.257 34.7468 209.292 34.64L209.86 32.8914Z" fill="white"/>
<rect x="195.844" y="81.375" width="38.8759" height="3.23966" rx="1.61983" fill="#E4EBF0"/>
<rect x="195.844" y="88.502" width="31.1007" height="3.23966" rx="1.61983" fill="#E4EBF0"/>
<g filter="url(#filter4_bi_1332_15410)">
<ellipse cx="184.829" cy="86.5593" rx="9.07107" ry="9.07105" fill="url(#paint6_linear_1332_15410)"/>
</g>
</g>
<defs>
<filter id="filter0_bdi_1332_15410" x="132.589" y="96.316" width="34.3749" height="34.3749" filterUnits="userSpaceOnUse" color-interpolation-filters="sRGB">
<feFlood flood-opacity="0" result="BackgroundImageFix"/>
<feGaussianBlur in="BackgroundImageFix" stdDeviation="2.56858"/>
<feComposite in2="SourceAlpha" operator="in" result="effect1_backgroundBlur_1332_15410"/>
<feColorMatrix in="SourceAlpha" type="matrix" values="0 0 0 0 0 0 0 0 0 0 0 0 0 0 0 0 0 0 127 0" result="hardAlpha"/>
<feOffset dx="1.54115" dy="1.54115"/>
<feGaussianBlur stdDeviation="1.92644"/>
<feComposite in2="hardAlpha" operator="out"/>
<feColorMatrix type="matrix" values="0 0 0 0 0.28066 0 0 0 0 0.454764 0 0 0 0 0.570833 0 0 0 0.4 0"/>
<feBlend mode="normal" in2="effect1_backgroundBlur_1332_15410" result="effect2_dropShadow_1332_15410"/>
<feBlend mode="normal" in="SourceGraphic" in2="effect2_dropShadow_1332_15410" result="shape"/>
<feColorMatrix in="SourceAlpha" type="matrix" values="0 0 0 0 0 0 0 0 0 0 0 0 0 0 0 0 0 0 127 0" result="hardAlpha"/>
<feOffset dy="1.54115"/>
<feGaussianBlur stdDeviation="0.770575"/>
<feComposite in2="hardAlpha" operator="arithmetic" k2="-1" k3="1"/>
<feColorMatrix type="matrix" values="0 0 0 0 1 0 0 0 0 1 0 0 0 0 1 0 0 0 0.25 0"/>
<feBlend mode="overlay" in2="shape" result="effect3_innerShadow_1332_15410"/>
</filter>
<filter id="filter1_bdi_1332_15410" x="105.769" y="96.316" width="34.3749" height="34.3749" filterUnits="userSpaceOnUse" color-interpolation-filters="sRGB">
<feFlood flood-opacity="0" result="BackgroundImageFix"/>
<feGaussianBlur in="BackgroundImageFix" stdDeviation="2.56858"/>
<feComposite in2="SourceAlpha" operator="in" result="effect1_backgroundBlur_1332_15410"/>
<feColorMatrix in="SourceAlpha" type="matrix" values="0 0 0 0 0 0 0 0 0 0 0 0 0 0 0 0 0 0 127 0" result="hardAlpha"/>
<feOffset dx="1.54115" dy="1.54115"/>
<feGaussianBlur stdDeviation="1.92644"/>
<feComposite in2="hardAlpha" operator="out"/>
<feColorMatrix type="matrix" values="0 0 0 0 0.28066 0 0 0 0 0.454764 0 0 0 0 0.570833 0 0 0 0.4 0"/>
<feBlend mode="normal" in2="effect1_backgroundBlur_1332_15410" result="effect2_dropShadow_1332_15410"/>
<feBlend mode="normal" in="SourceGraphic" in2="effect2_dropShadow_1332_15410" result="shape"/>
<feColorMatrix in="SourceAlpha" type="matrix" values="0 0 0 0 0 0 0 0 0 0 0 0 0 0 0 0 0 0 127 0" result="hardAlpha"/>
<feOffset dy="1.54115"/>
<feGaussianBlur stdDeviation="0.770575"/>
<feComposite in2="hardAlpha" operator="arithmetic" k2="-1" k3="1"/>
<feColorMatrix type="matrix" values="0 0 0 0 1 0 0 0 0 1 0 0 0 0 1 0 0 0 0.25 0"/>
<feBlend mode="overlay" in2="shape" result="effect3_innerShadow_1332_15410"/>
</filter>
<filter id="filter2_bi_1332_15410" x="31.316" y="72.3511" width="28.415" height="28.4169" filterUnits="userSpaceOnUse" color-interpolation-filters="sRGB">
<feFlood flood-opacity="0" result="BackgroundImageFix"/>
<feGaussianBlur in="BackgroundImageFix" stdDeviation="2.56858"/>
<feComposite in2="SourceAlpha" operator="in" result="effect1_backgroundBlur_1332_15410"/>
<feBlend mode="normal" in="SourceGraphic" in2="effect1_backgroundBlur_1332_15410" result="shape"/>
<feColorMatrix in="SourceAlpha" type="matrix" values="0 0 0 0 0 0 0 0 0 0 0 0 0 0 0 0 0 0 127 0" result="hardAlpha"/>
<feOffset dy="1.54115"/>
<feGaussianBlur stdDeviation="0.770575"/>
<feComposite in2="hardAlpha" operator="arithmetic" k2="-1" k3="1"/>
<feColorMatrix type="matrix" values="0 0 0 0 1 0 0 0 0 1 0 0 0 0 1 0 0 0 0.25 0"/>
<feBlend mode="overlay" in2="shape" result="effect2_innerShadow_1332_15410"/>
</filter>
<filter id="filter3_bi_1332_15410" x="101.3" y="72.3511" width="28.415" height="28.4169" filterUnits="userSpaceOnUse" color-interpolation-filters="sRGB">
<feFlood flood-opacity="0" result="BackgroundImageFix"/>
<feGaussianBlur in="BackgroundImageFix" stdDeviation="2.56858"/>
<feComposite in2="SourceAlpha" operator="in" result="effect1_backgroundBlur_1332_15410"/>
<feBlend mode="normal" in="SourceGraphic" in2="effect1_backgroundBlur_1332_15410" result="shape"/>
<feColorMatrix in="SourceAlpha" type="matrix" values="0 0 0 0 0 0 0 0 0 0 0 0 0 0 0 0 0 0 127 0" result="hardAlpha"/>
<feOffset dy="1.54115"/>
<feGaussianBlur stdDeviation="0.770575"/>
<feComposite in2="hardAlpha" operator="arithmetic" k2="-1" k3="1"/>
<feColorMatrix type="matrix" values="0 0 0 0 1 0 0 0 0 1 0 0 0 0 1 0 0 0 0.25 0"/>
<feBlend mode="overlay" in2="shape" result="effect2_innerShadow_1332_15410"/>
</filter>
<filter id="filter4_bi_1332_15410" x="170.621" y="72.3511" width="28.415" height="28.4169" filterUnits="userSpaceOnUse" color-interpolation-filters="sRGB">
<feFlood flood-opacity="0" result="BackgroundImageFix"/>
<feGaussianBlur in="BackgroundImageFix" stdDeviation="2.56858"/>
<feComposite in2="SourceAlpha" operator="in" result="effect1_backgroundBlur_1332_15410"/>
<feBlend mode="normal" in="SourceGraphic" in2="effect1_backgroundBlur_1332_15410" result="shape"/>
<feColorMatrix in="SourceAlpha" type="matrix" values="0 0 0 0 0 0 0 0 0 0 0 0 0 0 0 0 0 0 127 0" result="hardAlpha"/>
<feOffset dy="1.54115"/>
<feGaussianBlur stdDeviation="0.770575"/>
<feComposite in2="hardAlpha" operator="arithmetic" k2="-1" k3="1"/>
<feColorMatrix type="matrix" values="0 0 0 0 1 0 0 0 0 1 0 0 0 0 1 0 0 0 0.25 0"/>
<feBlend mode="overlay" in2="shape" result="effect2_innerShadow_1332_15410"/>
</filter>
<linearGradient id="paint0_linear_1332_15410" x1="111.661" y1="-48" x2="235.079" y2="174.959" gradientUnits="userSpaceOnUse">
<stop offset="0.0064921" stop-color="#F0F5F8"/>
<stop offset="1" stop-color="#19527A"/>
</linearGradient>
<linearGradient id="paint1_linear_1332_15410" x1="37.5319" y1="11" x2="91.2869" y2="170.042" gradientUnits="userSpaceOnUse">
<stop stop-color="#4C7898" stop-opacity="0.71"/>
<stop offset="1" stop-color="white" stop-opacity="0"/>
</linearGradient>
<linearGradient id="paint2_linear_1332_15410" x1="141.978" y1="106.248" x2="156.967" y2="126.758" gradientUnits="userSpaceOnUse">
<stop stop-color="white" stop-opacity="0.52"/>
<stop offset="1" stop-color="white" stop-opacity="0"/>
</linearGradient>
<linearGradient id="paint3_linear_1332_15410" x1="4.25131" y1="4.79474" x2="19.2409" y2="25.3053" gradientUnits="userSpaceOnUse">
<stop stop-color="white" stop-opacity="0.52"/>
<stop offset="1" stop-color="white" stop-opacity="0"/>
</linearGradient>
<linearGradient id="paint4_linear_1332_15410" x1="39.6879" y1="81.1366" x2="51.0935" y2="96.743" gradientUnits="userSpaceOnUse">
<stop stop-color="white" stop-opacity="0.52"/>
<stop offset="1" stop-color="white" stop-opacity="0"/>
</linearGradient>
<linearGradient id="paint5_linear_1332_15410" x1="109.672" y1="81.1366" x2="121.078" y2="96.743" gradientUnits="userSpaceOnUse">
<stop stop-color="white" stop-opacity="0.52"/>
<stop offset="1" stop-color="white" stop-opacity="0"/>
</linearGradient>
<linearGradient id="paint6_linear_1332_15410" x1="178.993" y1="81.1366" x2="190.398" y2="96.743" gradientUnits="userSpaceOnUse">
<stop stop-color="white" stop-opacity="0.52"/>
<stop offset="1" stop-color="white" stop-opacity="0"/>
</linearGradient>
</defs>
</svg>
