<svg width="275" height="130" viewBox="0 0 275 130" fill="none" xmlns="http://www.w3.org/2000/svg">
<path d="M0 16C0 7.16344 6.61056 0 14.7651 0H260.235C268.389 0 275 7.16344 275 16V114C275 122.837 268.389 130 260.235 130H14.7651C6.61056 130 0 122.837 0 114V16Z" fill="url(#paint0_linear_1332_15686)"/>
<mask id="mask0_1332_15686" style="mask-type:alpha" maskUnits="userSpaceOnUse" x="0" y="0" width="275" height="130">
<path d="M0 13.6646C0 6.11785 6.11785 0 13.6646 0H261.335C268.882 0 275 6.11785 275 13.6646V116.335C275 123.882 268.882 130 261.335 130H13.6646C6.11786 130 0 123.882 0 116.335V13.6646Z" fill="white"/>
</mask>
<g mask="url(#mask0_1332_15686)">
<path d="M41.8828 27.4886C41.8828 21.2051 46.9766 16.1113 53.2601 16.1113H227.333C233.617 16.1113 238.711 21.2051 238.711 27.4887V129.885H41.8828V27.4886Z" fill="white" fill-opacity="0.37"/>
<g filter="url(#filter0_b_1332_15686)">
<rect x="18.3203" y="60.5723" width="118.355" height="49.0928" rx="9.66102" fill="url(#paint1_linear_1332_15686)"/>
</g>
<path fill-rule="evenodd" clip-rule="evenodd" d="M40.9047 75.9618C40.9047 77.8475 39.3618 79.3903 37.4761 79.3903C35.5904 79.3903 34.0475 77.8475 34.0475 75.9618C34.0475 74.0761 35.5904 72.5332 37.4761 72.5332C39.3618 72.5332 40.9047 74.0761 40.9047 75.9618ZM41.9332 88.0475L47.9161 78.4646C48.619 77.3503 50.2475 77.4018 50.8818 78.5503L59.2475 93.996C59.8647 95.1446 59.0418 96.5332 57.7389 96.5332H27.5504C27.2508 96.5349 26.9562 96.4572 26.6964 96.3081C26.4365 96.1591 26.2208 95.9439 26.071 95.6844C25.9213 95.425 25.8429 95.1305 25.8438 94.831C25.8447 94.5314 25.9248 94.2374 26.0761 93.9789L31.3561 84.5846C31.478 84.3671 31.6458 84.1787 31.8479 84.0327C32.05 83.8866 32.2816 83.7865 32.5264 83.7391C32.7712 83.6918 33.0235 83.6984 33.2654 83.7586C33.5074 83.8188 33.7334 83.931 33.9275 84.0875L39.4132 88.476C40.2018 89.1103 41.3847 88.9218 41.9332 88.0475Z" fill="url(#paint2_linear_1332_15686)"/>
<ellipse cx="135.048" cy="61.1188" rx="5.45413" ry="5.45475" fill="#005278"/>
<path d="M133.422 59.4844L136.967 63.03" stroke="white" stroke-width="0.545444"/>
<path d="M137 59.4844L133.455 63.03" stroke="white" stroke-width="0.545444"/>
<rect x="69.0547" y="83.4883" width="58.9046" height="2.1819" rx="1.09095" fill="#E4EBF0"/>
<rect x="69.0547" y="89.4863" width="51.8142" height="2.1819" rx="1.09095" fill="#E4EBF0"/>
<rect x="69.0547" y="100.391" width="20.1803" height="2.1819" rx="1.09095" fill="#E4EBF0"/>
<rect x="111.594" y="100.391" width="20.1803" height="2.1819" rx="1.09095" fill="#E4EBF0"/>
<path d="M70.9869 73.5352C71.0522 73.3342 71.3365 73.3342 71.4019 73.5352L71.8801 75.0072C71.9093 75.0971 71.9931 75.158 72.0876 75.158H73.6352C73.8466 75.158 73.9345 75.4284 73.7635 75.5526L72.5114 76.4625C72.4349 76.518 72.4029 76.6165 72.4321 76.7064L72.9104 78.1785C72.9757 78.3795 72.7456 78.5466 72.5746 78.4224L71.3226 77.5126C71.2461 77.4571 71.1426 77.4571 71.0661 77.5126L69.8141 78.4224C69.6431 78.5466 69.413 78.3795 69.4783 78.1785L69.9566 76.7064C69.9858 76.6165 69.9538 76.518 69.8773 76.4625L68.6252 75.5526C68.4542 75.4284 68.5421 75.158 68.7535 75.158H70.3011C70.3956 75.158 70.4794 75.0971 70.5086 75.0072L70.9869 73.5352Z" fill="white"/>
<path d="M77.5337 73.5352C77.599 73.3342 77.8834 73.3342 77.9487 73.5352L78.427 75.0072C78.4562 75.0971 78.5399 75.158 78.6345 75.158H80.1821C80.3935 75.158 80.4813 75.4284 80.3104 75.5526L79.0582 76.4625C78.9818 76.518 78.9498 76.6165 78.979 76.7064L79.4573 78.1785C79.5226 78.3795 79.2925 78.5466 79.1215 78.4224L77.8695 77.5126C77.793 77.4571 77.6894 77.4571 77.613 77.5126L76.361 78.4224C76.19 78.5466 75.9599 78.3795 76.0252 78.1785L76.5035 76.7064C76.5327 76.6165 76.5007 76.518 76.4242 76.4625L75.1721 75.5526C75.0011 75.4284 75.089 75.158 75.3003 75.158H76.848C76.9425 75.158 77.0263 75.0971 77.0555 75.0072L77.5337 73.5352Z" fill="white"/>
<path d="M84.0806 73.5352C84.1459 73.3342 84.4303 73.3342 84.4956 73.5352L84.9738 75.0072C85.003 75.0971 85.0868 75.158 85.1813 75.158H86.729C86.9403 75.158 87.0282 75.4284 86.8572 75.5526L85.6051 76.4625C85.5287 76.518 85.4967 76.6165 85.5259 76.7064L86.0041 78.1785C86.0694 78.3795 85.8394 78.5466 85.6684 78.4224L84.4164 77.5126C84.3399 77.4571 84.2363 77.4571 84.1599 77.5126L82.9078 78.4224C82.7368 78.5466 82.5068 78.3795 82.5721 78.1785L83.0503 76.7064C83.0795 76.6165 83.0475 76.518 82.9711 76.4625L81.719 75.5526C81.548 75.4284 81.6359 75.158 81.8472 75.158H83.3949C83.4894 75.158 83.5732 75.0971 83.6024 75.0072L84.0806 73.5352Z" fill="white"/>
<path d="M90.6197 73.5352C90.685 73.3342 90.9694 73.3342 91.0347 73.5352L91.5129 75.0072C91.5421 75.0971 91.6259 75.158 91.7204 75.158H93.2681C93.4794 75.158 93.5673 75.4284 93.3963 75.5526L92.1442 76.4625C92.0677 76.518 92.0357 76.6165 92.0649 76.7064L92.5432 78.1785C92.6085 78.3795 92.3784 78.5466 92.2074 78.4224L90.9554 77.5126C90.8789 77.4571 90.7754 77.4571 90.6989 77.5126L89.4469 78.4224C89.2759 78.5466 89.0458 78.3795 89.1111 78.1785L89.5894 76.7064C89.6186 76.6165 89.5866 76.518 89.5101 76.4625L88.258 75.5526C88.087 75.4284 88.1749 75.158 88.3863 75.158H89.9339C90.0284 75.158 90.1122 75.0971 90.1414 75.0072L90.6197 73.5352Z" fill="white"/>
<path d="M97.1665 73.5352C97.2318 73.3342 97.5162 73.3342 97.5815 73.5352L98.0598 75.0072C98.089 75.0971 98.1728 75.158 98.2673 75.158H99.8149C100.026 75.158 100.114 75.4284 99.9432 75.5526L98.6911 76.4625C98.6146 76.518 98.5826 76.6165 98.6118 76.7064L99.0901 78.1785C99.1554 78.3795 98.9253 78.5466 98.7543 78.4224L97.5023 77.5126C97.4258 77.4571 97.3223 77.4571 97.2458 77.5126L95.9938 78.4224C95.8228 78.5466 95.5927 78.3795 95.658 78.1785L96.1363 76.7064C96.1655 76.6165 96.1335 76.518 96.057 76.4625L94.8049 75.5526C94.6339 75.4284 94.7218 75.158 94.9331 75.158H96.4808C96.5753 75.158 96.6591 75.0971 96.6883 75.0072L97.1665 73.5352Z" fill="white"/>
<rect x="69.0547" y="65.4824" width="62.7225" height="3.81833" rx="1.90916" fill="#E4EBF0"/>
<line x1="39.0859" y1="29.6997" x2="235.914" y2="29.6997" stroke="#A8BECD" stroke-width="0.68264"/>
<circle cx="48.7613" cy="22.6461" r="1.7066" fill="#7C9DB4"/>
<circle cx="53.316" cy="22.6461" r="1.7066" fill="#7C9DB4"/>
<circle cx="57.8629" cy="22.6461" r="1.7066" fill="#7C9DB4"/>
<g filter="url(#filter1_b_1332_15686)">
<rect x="183.781" y="48.9355" width="69.7861" height="117.623" rx="9.66102" fill="url(#paint3_linear_1332_15686)"/>
</g>
<path fill-rule="evenodd" clip-rule="evenodd" d="M216.928 66.9618C216.928 68.8475 215.385 70.3903 213.5 70.3903C211.614 70.3903 210.071 68.8475 210.071 66.9618C210.071 65.0761 211.614 63.5332 213.5 63.5332C215.385 63.5332 216.928 65.0761 216.928 66.9618ZM217.957 79.0475L223.94 69.4646C224.642 68.3503 226.271 68.4018 226.905 69.5503L235.271 84.996C235.888 86.1446 235.065 87.5332 233.762 87.5332H203.574C203.274 87.5349 202.98 87.4572 202.72 87.3081C202.46 87.1591 202.244 86.9439 202.094 86.6844C201.945 86.425 201.866 86.1305 201.867 85.831C201.868 85.5314 201.948 85.2374 202.1 84.9789L207.38 75.5846C207.501 75.3671 207.669 75.1787 207.871 75.0327C208.073 74.8866 208.305 74.7865 208.55 74.7391C208.795 74.6918 209.047 74.6984 209.289 74.7586C209.531 74.8188 209.757 74.931 209.951 75.0875L215.437 79.476C216.225 80.1103 217.408 79.9218 217.957 79.0475Z" fill="url(#paint4_linear_1332_15686)"/>
<path d="M192.006 118.38C192.074 118.172 192.367 118.172 192.435 118.38L192.928 119.898C192.958 119.991 193.045 120.054 193.142 120.054H194.739C194.957 120.054 195.048 120.333 194.871 120.461L193.579 121.4C193.501 121.457 193.468 121.559 193.498 121.652L193.991 123.17C194.059 123.378 193.821 123.55 193.645 123.422L192.353 122.483C192.274 122.426 192.167 122.426 192.088 122.483L190.796 123.422C190.62 123.55 190.382 123.378 190.45 123.17L190.943 121.652C190.973 121.559 190.94 121.457 190.862 121.4L189.57 120.461C189.393 120.333 189.484 120.054 189.702 120.054H191.299C191.396 120.054 191.483 119.991 191.513 119.898L192.006 118.38Z" fill="white"/>
<path d="M198.756 118.38C198.824 118.172 199.117 118.172 199.185 118.38L199.678 119.898C199.708 119.991 199.795 120.054 199.892 120.054H201.489C201.707 120.054 201.798 120.333 201.621 120.461L200.329 121.4C200.251 121.457 200.218 121.559 200.248 121.652L200.741 123.17C200.809 123.378 200.571 123.55 200.395 123.422L199.103 122.483C199.024 122.426 198.917 122.426 198.838 122.483L197.546 123.422C197.37 123.55 197.132 123.378 197.2 123.17L197.693 121.652C197.723 121.559 197.69 121.457 197.612 121.4L196.32 120.461C196.143 120.333 196.234 120.054 196.452 120.054H198.049C198.146 120.054 198.233 119.991 198.263 119.898L198.756 118.38Z" fill="white"/>
<path d="M205.514 118.38C205.582 118.172 205.875 118.172 205.942 118.38L206.436 119.898C206.466 119.991 206.552 120.054 206.65 120.054H208.247C208.465 120.054 208.556 120.333 208.379 120.461L207.087 121.4C207.008 121.457 206.975 121.559 207.006 121.652L207.499 123.17C207.566 123.378 207.329 123.55 207.153 123.422L205.861 122.483C205.782 122.426 205.675 122.426 205.596 122.483L204.304 123.422C204.128 123.55 203.89 123.378 203.958 123.17L204.451 121.652C204.481 121.559 204.448 121.457 204.369 121.4L203.077 120.461C202.901 120.333 202.992 120.054 203.21 120.054H204.807C204.904 120.054 204.991 119.991 205.021 119.898L205.514 118.38Z" fill="white"/>
<path d="M212.264 118.38C212.332 118.172 212.625 118.172 212.692 118.38L213.186 119.898C213.216 119.991 213.302 120.054 213.4 120.054H214.997C215.215 120.054 215.306 120.333 215.129 120.461L213.837 121.4C213.758 121.457 213.725 121.559 213.756 121.652L214.249 123.17C214.316 123.378 214.079 123.55 213.903 123.422L212.611 122.483C212.532 122.426 212.425 122.426 212.346 122.483L211.054 123.422C210.878 123.55 210.64 123.378 210.708 123.17L211.201 121.652C211.231 121.559 211.198 121.457 211.119 121.4L209.827 120.461C209.651 120.333 209.742 120.054 209.96 120.054H211.557C211.654 120.054 211.741 119.991 211.771 119.898L212.264 118.38Z" fill="white"/>
<path d="M219.022 118.38C219.089 118.172 219.383 118.172 219.45 118.38L219.944 119.898C219.974 119.991 220.06 120.054 220.158 120.054H221.755C221.973 120.054 222.064 120.333 221.887 120.461L220.595 121.4C220.516 121.457 220.483 121.559 220.513 121.652L221.007 123.17C221.074 123.378 220.837 123.55 220.66 123.422L219.368 122.483C219.29 122.426 219.183 122.426 219.104 122.483L217.812 123.422C217.635 123.55 217.398 123.378 217.465 123.17L217.959 121.652C217.989 121.559 217.956 121.457 217.877 121.4L216.585 120.461C216.409 120.333 216.499 120.054 216.717 120.054H218.314C218.412 120.054 218.498 119.991 218.529 119.898L219.022 118.38Z" fill="white"/>
<rect x="188.844" y="102.963" width="55.1536" height="3.93954" rx="1.96977" fill="#E4EBF0"/>
<rect x="188.844" y="109.717" width="46.7117" height="3.93954" rx="1.96977" fill="#E4EBF0"/>
<circle cx="253.573" cy="49.4971" r="5.62791" fill="#005278"/>
<path d="M251.883 47.8086L255.541 51.4667" stroke="white" stroke-width="0.562792"/>
<path d="M255.539 47.8086L251.881 51.4667" stroke="white" stroke-width="0.562792"/>
</g>
<defs>
<filter id="filter0_b_1332_15686" x="4.32031" y="46.5723" width="146.352" height="77.0918" filterUnits="userSpaceOnUse" color-interpolation-filters="sRGB">
<feFlood flood-opacity="0" result="BackgroundImageFix"/>
<feGaussianBlur in="BackgroundImageFix" stdDeviation="7"/>
<feComposite in2="SourceAlpha" operator="in" result="effect1_backgroundBlur_1332_15686"/>
<feBlend mode="normal" in="SourceGraphic" in2="effect1_backgroundBlur_1332_15686" result="shape"/>
</filter>
<filter id="filter1_b_1332_15686" x="159.781" y="24.9355" width="117.789" height="165.623" filterUnits="userSpaceOnUse" color-interpolation-filters="sRGB">
<feFlood flood-opacity="0" result="BackgroundImageFix"/>
<feGaussianBlur in="BackgroundImageFix" stdDeviation="12"/>
<feComposite in2="SourceAlpha" operator="in" result="effect1_backgroundBlur_1332_15686"/>
<feBlend mode="normal" in="SourceGraphic" in2="effect1_backgroundBlur_1332_15686" result="shape"/>
</filter>
<linearGradient id="paint0_linear_1332_15686" x1="111.661" y1="-48" x2="235.079" y2="174.959" gradientUnits="userSpaceOnUse">
<stop offset="0.0064921" stop-color="#F0F5F8"/>
<stop offset="1" stop-color="#19527A"/>
</linearGradient>
<linearGradient id="paint1_linear_1332_15686" x1="18.3203" y1="65.353" x2="53.4557" y2="156.048" gradientUnits="userSpaceOnUse">
<stop stop-color="#ADC4D5"/>
<stop offset="1" stop-color="white" stop-opacity="0"/>
</linearGradient>
<linearGradient id="paint2_linear_1332_15686" x1="42.6501" y1="72.5332" x2="42.6501" y2="96.5332" gradientUnits="userSpaceOnUse">
<stop stop-color="white"/>
<stop offset="1" stop-color="white" stop-opacity="0"/>
</linearGradient>
<linearGradient id="paint3_linear_1332_15686" x1="196.224" y1="72.5891" x2="272.181" y2="134.252" gradientUnits="userSpaceOnUse">
<stop stop-color="white" stop-opacity="0.52"/>
<stop offset="1" stop-color="white" stop-opacity="0"/>
</linearGradient>
<linearGradient id="paint4_linear_1332_15686" x1="218.674" y1="63.5332" x2="218.674" y2="87.5332" gradientUnits="userSpaceOnUse">
<stop stop-color="white"/>
<stop offset="1" stop-color="white" stop-opacity="0"/>
</linearGradient>
</defs>
</svg>
