<svg width="275" height="130" viewBox="0 0 275 130" fill="none" xmlns="http://www.w3.org/2000/svg">
<path d="M0 16C0 7.16344 6.61056 0 14.7651 0H260.235C268.389 0 275 7.16344 275 16V114C275 122.837 268.389 130 260.235 130H14.7651C6.61056 130 0 122.837 0 114V16Z" fill="url(#paint0_linear_1332_15247)"/>
<mask id="mask0_1332_15247" style="mask-type:alpha" maskUnits="userSpaceOnUse" x="0" y="0" width="275" height="130">
<path d="M0 13.6521C0 6.11226 6.11226 0 13.6521 0H261.348C268.888 0 275 6.11226 275 13.6521V116.348C275 123.888 268.888 130 261.348 130H13.6521C6.11225 130 0 123.888 0 116.348V13.6521Z" fill="white"/>
</mask>
<g mask="url(#mask0_1332_15247)">
<rect x="48.8594" y="12.7715" width="187.273" height="176.257" rx="3.1577" fill="url(#paint1_linear_1332_15247)"/>
<rect x="53.4766" y="30.6055" width="55.0804" height="149.268" rx="5.24421" fill="url(#paint2_linear_1332_15247)"/>
<path fill-rule="evenodd" clip-rule="evenodd" d="M79.7739 49.5489C79.7739 50.8949 78.6726 51.9962 77.3266 51.9962C75.9806 51.9962 74.8793 50.8949 74.8793 49.5489C74.8793 48.2028 75.9806 47.1016 77.3266 47.1016C78.6726 47.1016 79.7739 48.2028 79.7739 49.5489ZM80.5081 58.1756L84.7786 51.3354C85.2803 50.54 86.4427 50.5767 86.8955 51.3966L92.8669 62.4216C93.3074 63.2415 92.7201 64.2326 91.7901 64.2326H70.2416C70.0278 64.2338 69.8175 64.1784 69.632 64.072C69.4466 63.9656 69.2925 63.812 69.1857 63.6268C69.0788 63.4416 69.0228 63.2314 69.0234 63.0176C69.0241 62.8038 69.0813 62.594 69.1893 62.4094L72.9581 55.7038C73.0451 55.5485 73.1649 55.4141 73.3092 55.3098C73.4535 55.2056 73.6187 55.1341 73.7935 55.1003C73.9683 55.0665 74.1483 55.0713 74.321 55.1142C74.4937 55.1572 74.655 55.2373 74.7936 55.349L78.7093 58.4815C79.2722 58.9342 80.1165 58.7996 80.5081 58.1756Z" fill="url(#paint3_linear_1332_15247)"/>
<rect x="56.2109" y="103.861" width="44.6151" height="1.65241" rx="0.826206" fill="#E4EBF0"/>
<rect x="56.2109" y="108.818" width="44.6151" height="1.65241" rx="0.826206" fill="#E4EBF0"/>
<rect x="56.2109" y="113.775" width="38.5563" height="1.65241" rx="0.826206" fill="#E4EBF0"/>
<rect x="56.2109" y="119.283" width="44.6151" height="1.65241" rx="0.826206" fill="#E4EBF0"/>
<rect x="56.2109" y="124.24" width="44.6151" height="1.65241" rx="0.826206" fill="#E4EBF0"/>
<rect x="56.2109" y="129.197" width="38.5563" height="1.65241" rx="0.826206" fill="#E4EBF0"/>
<rect x="56.2109" y="90.6406" width="33.0483" height="2.75402" rx="1.37701" fill="#E4EBF0"/>
<rect x="56.2109" y="96.6992" width="25.337" height="2.75402" rx="1.37701" fill="#E4EBF0"/>
<path d="M58.7903 82.3655C58.8453 82.1964 59.0846 82.1964 59.1396 82.3655L59.5421 83.6042C59.5666 83.6799 59.6371 83.7311 59.7167 83.7311H61.0191C61.197 83.7311 61.2709 83.9587 61.127 84.0632L60.0733 84.8288C60.009 84.8756 59.9821 84.9584 60.0066 85.0341L60.4091 86.2728C60.4641 86.4419 60.2705 86.5826 60.1266 86.4781L59.0729 85.7125C59.0085 85.6657 58.9214 85.6657 58.857 85.7125L57.8033 86.4781C57.6594 86.5826 57.4658 86.4419 57.5208 86.2728L57.9233 85.0341C57.9479 84.9584 57.9209 84.8756 57.8566 84.8288L56.8029 84.0632C56.659 83.9587 56.7329 83.7311 56.9108 83.7311H58.2132C58.2928 83.7311 58.3633 83.6799 58.3879 83.6042L58.7903 82.3655Z" fill="white"/>
<path d="M64.2982 82.3655C64.3531 82.1964 64.5924 82.1964 64.6474 82.3655L65.0499 83.6042C65.0744 83.6799 65.1449 83.7311 65.2245 83.7311H66.5269C66.7048 83.7311 66.7787 83.9587 66.6349 84.0632L65.5811 84.8288C65.5168 84.8756 65.4899 84.9584 65.5144 85.0341L65.9169 86.2728C65.9719 86.4419 65.7783 86.5826 65.6344 86.4781L64.5807 85.7125C64.5163 85.6657 64.4292 85.6657 64.3649 85.7125L63.3111 86.4781C63.1673 86.5826 62.9737 86.4419 63.0286 86.2728L63.4311 85.0341C63.4557 84.9584 63.4287 84.8756 63.3644 84.8288L62.3107 84.0632C62.1668 83.9587 62.2407 83.7311 62.4186 83.7311H63.7211C63.8006 83.7311 63.8711 83.6799 63.8957 83.6042L64.2982 82.3655Z" fill="white"/>
<path d="M69.806 82.3655C69.8609 82.1964 70.1002 82.1964 70.1552 82.3655L70.5577 83.6042C70.5823 83.6799 70.6528 83.7311 70.7323 83.7311H72.0347C72.2126 83.7311 72.2866 83.9587 72.1427 84.0632L71.089 84.8288C71.0246 84.8756 70.9977 84.9584 71.0223 85.0341L71.4247 86.2728C71.4797 86.4419 71.2861 86.5826 71.1422 86.4781L70.0885 85.7125C70.0242 85.6657 69.937 85.6657 69.8727 85.7125L68.819 86.4781C68.6751 86.5826 68.4815 86.4419 68.5364 86.2728L68.9389 85.0341C68.9635 84.9584 68.9366 84.8756 68.8722 84.8288L67.8185 84.0632C67.6746 83.9587 67.7486 83.7311 67.9264 83.7311H69.2289C69.3084 83.7311 69.3789 83.6799 69.4035 83.6042L69.806 82.3655Z" fill="white"/>
<path d="M75.3138 82.3655C75.3687 82.1964 75.608 82.1964 75.663 82.3655L76.0655 83.6042C76.0901 83.6799 76.1606 83.7311 76.2401 83.7311H77.5426C77.7204 83.7311 77.7944 83.9587 77.6505 84.0632L76.5968 84.8288C76.5324 84.8756 76.5055 84.9584 76.5301 85.0341L76.9326 86.2728C76.9875 86.4419 76.7939 86.5826 76.65 86.4781L75.5963 85.7125C75.532 85.6657 75.4448 85.6657 75.3805 85.7125L74.3268 86.4781C74.1829 86.5826 73.9893 86.4419 74.0442 86.2728L74.4467 85.0341C74.4713 84.9584 74.4444 84.8756 74.38 84.8288L73.3263 84.0632C73.1824 83.9587 73.2564 83.7311 73.4342 83.7311H74.7367C74.8162 83.7311 74.8867 83.6799 74.9113 83.6042L75.3138 82.3655Z" fill="white"/>
<path d="M80.8216 82.3655C80.8766 82.1964 81.1159 82.1964 81.1708 82.3655L81.5733 83.6042C81.5979 83.6799 81.6684 83.7311 81.7479 83.7311H83.0504C83.2282 83.7311 83.3022 83.9587 83.1583 84.0632L82.1046 84.8288C82.0402 84.8756 82.0133 84.9584 82.0379 85.0341L82.4404 86.2728C82.4953 86.4419 82.3017 86.5826 82.1578 86.4781L81.1041 85.7125C81.0398 85.6657 80.9526 85.6657 80.8883 85.7125L79.8346 86.4781C79.6907 86.5826 79.4971 86.4419 79.5521 86.2728L79.9545 85.0341C79.9791 84.9584 79.9522 84.8756 79.8878 84.8288L78.8341 84.0632C78.6902 83.9587 78.7642 83.7311 78.942 83.7311H80.2445C80.324 83.7311 80.3945 83.6799 80.4191 83.6042L80.8216 82.3655Z" fill="white"/>
<rect x="114.055" y="30.6055" width="55.0804" height="73.257" rx="5.24421" fill="url(#paint4_linear_1332_15247)"/>
<rect x="116.805" y="56.4902" width="48.9678" height="1.65241" rx="0.826206" fill="#E4EBF0"/>
<rect x="116.805" y="61.4473" width="48.9678" height="1.65241" rx="0.826206" fill="#E4EBF0"/>
<rect x="116.805" y="66.4043" width="42.3179" height="1.65241" rx="0.826206" fill="#E4EBF0"/>
<rect x="116.805" y="43.2715" width="36.2725" height="2.75402" rx="1.37701" fill="#E4EBF0"/>
<rect x="116.805" y="49.3301" width="27.8089" height="2.75402" rx="1.37701" fill="#E4EBF0"/>
<path d="M119.384 35.5472C119.439 35.378 119.678 35.378 119.733 35.5472L120.136 36.7859C120.16 36.8615 120.231 36.9127 120.31 36.9127H121.613C121.791 36.9127 121.865 37.1403 121.721 37.2449L120.667 38.0104C120.603 38.0572 120.576 38.1401 120.6 38.2157L121.003 39.4544C121.058 39.6236 120.864 39.7642 120.72 39.6597L119.667 38.8941C119.602 38.8474 119.515 38.8474 119.451 38.8941L118.397 39.6597C118.253 39.7642 118.06 39.6236 118.115 39.4544L118.517 38.2157C118.542 38.1401 118.515 38.0572 118.45 38.0104L117.397 37.2449C117.253 37.1403 117.327 36.9127 117.505 36.9127H118.807C118.887 36.9127 118.957 36.8615 118.982 36.7859L119.384 35.5472Z" fill="white"/>
<path d="M124.892 35.5472C124.947 35.378 125.186 35.378 125.241 35.5472L125.644 36.7859C125.668 36.8615 125.739 36.9127 125.818 36.9127H127.121C127.299 36.9127 127.372 37.1403 127.229 37.2449L126.175 38.0104C126.111 38.0572 126.084 38.1401 126.108 38.2157L126.511 39.4544C126.566 39.6236 126.372 39.7642 126.228 39.6597L125.174 38.8941C125.11 38.8474 125.023 38.8474 124.959 38.8941L123.905 39.6597C123.761 39.7642 123.567 39.6236 123.622 39.4544L124.025 38.2157C124.049 38.1401 124.022 38.0572 123.958 38.0104L122.904 37.2449C122.761 37.1403 122.834 36.9127 123.012 36.9127H124.315C124.394 36.9127 124.465 36.8615 124.489 36.7859L124.892 35.5472Z" fill="white"/>
<path d="M130.4 35.5472C130.455 35.378 130.694 35.378 130.749 35.5472L131.151 36.7859C131.176 36.8615 131.247 36.9127 131.326 36.9127H132.628C132.806 36.9127 132.88 37.1403 132.736 37.2449L131.683 38.0104C131.618 38.0572 131.591 38.1401 131.616 38.2157L132.018 39.4544C132.073 39.6236 131.88 39.7642 131.736 39.6597L130.682 38.8941C130.618 38.8474 130.531 38.8474 130.466 38.8941L129.413 39.6597C129.269 39.7642 129.075 39.6236 129.13 39.4544L129.533 38.2157C129.557 38.1401 129.53 38.0572 129.466 38.0104L128.412 37.2449C128.268 37.1403 128.342 36.9127 128.52 36.9127H129.823C129.902 36.9127 129.973 36.8615 129.997 36.7859L130.4 35.5472Z" fill="white"/>
<path d="M135.908 35.5472C135.962 35.378 136.202 35.378 136.257 35.5472L136.659 36.7859C136.684 36.8615 136.754 36.9127 136.834 36.9127H138.136C138.314 36.9127 138.388 37.1403 138.244 37.2449L137.191 38.0104C137.126 38.0572 137.099 38.1401 137.124 38.2157L137.526 39.4544C137.581 39.6236 137.388 39.7642 137.244 39.6597L136.19 38.8941C136.126 38.8474 136.039 38.8474 135.974 38.8941L134.921 39.6597C134.777 39.7642 134.583 39.6236 134.638 39.4544L135.04 38.2157C135.065 38.1401 135.038 38.0572 134.974 38.0104L133.92 37.2449C133.776 37.1403 133.85 36.9127 134.028 36.9127H135.33C135.41 36.9127 135.48 36.8615 135.505 36.7859L135.908 35.5472Z" fill="white"/>
<path d="M141.415 35.5472C141.47 35.378 141.71 35.378 141.765 35.5472L142.167 36.7859C142.192 36.8615 142.262 36.9127 142.342 36.9127H143.644C143.822 36.9127 143.896 37.1403 143.752 37.2449L142.698 38.0104C142.634 38.0572 142.607 38.1401 142.632 38.2157L143.034 39.4544C143.089 39.6236 142.895 39.7642 142.752 39.6597L141.698 38.8941C141.634 38.8474 141.546 38.8474 141.482 38.8941L140.428 39.6597C140.284 39.7642 140.091 39.6236 140.146 39.4544L140.548 38.2157C140.573 38.1401 140.546 38.0572 140.482 38.0104L139.428 37.2449C139.284 37.1403 139.358 36.9127 139.536 36.9127H140.838C140.918 36.9127 140.988 36.8615 141.013 36.7859L141.415 35.5472Z" fill="white"/>
<path fill-rule="evenodd" clip-rule="evenodd" d="M148.488 78.3795C148.024 78.3906 147.564 78.2959 147.142 78.1026L147.041 78.056C146.92 78.0004 146.79 77.9647 146.658 77.9503V76.2245C146.675 76.2146 146.692 76.2036 146.707 76.1918C147.132 75.8729 147.424 75.4078 147.525 74.8863C147.59 74.8875 147.654 74.902 147.712 74.929C147.771 74.9561 147.823 74.995 147.866 75.0434C147.909 75.0918 147.941 75.1486 147.961 75.2101C147.981 75.2717 147.988 75.3366 147.981 75.4009L147.937 75.8173C147.928 75.8979 147.937 75.9794 147.962 76.0565C147.987 76.1335 148.028 76.2045 148.082 76.2647C148.136 76.325 148.203 76.3731 148.277 76.4061C148.351 76.4391 148.431 76.4561 148.512 76.4561H149.039C149.289 76.4561 149.483 76.6776 149.448 76.9254L149.337 77.7348C149.313 77.9097 149.227 78.0704 149.095 78.188C148.964 78.3056 148.794 78.3724 148.618 78.3766L148.488 78.3799V78.3795ZM146.162 76.2909H145.832V77.9433H146.162V76.2909ZM146.935 78.5531C147.426 78.7779 147.961 78.8881 148.5 78.8753L148.63 78.872C148.924 78.865 149.206 78.7536 149.425 78.5576C149.645 78.3617 149.788 78.094 149.828 77.8025L149.939 76.9935C149.957 76.8649 149.947 76.7339 149.91 76.6095C149.873 76.4851 149.809 76.3701 149.724 76.2722C149.639 76.1743 149.534 76.0958 149.415 76.042C149.297 75.9883 149.169 75.9604 149.039 75.9604H148.512C148.501 75.9604 148.489 75.958 148.479 75.9533C148.468 75.9486 148.459 75.9417 148.451 75.9331C148.443 75.9245 148.437 75.9144 148.434 75.9034C148.43 75.8924 148.429 75.8807 148.43 75.8692L148.474 75.4528C148.488 75.3188 148.474 75.1833 148.432 75.0551C148.39 74.9269 148.322 74.809 148.232 74.7088C148.142 74.6087 148.032 74.5286 147.909 74.4738C147.785 74.419 147.652 74.3906 147.517 74.3906H147.397C147.232 74.3906 147.09 74.5086 147.061 74.6712L147.043 74.7713C146.968 75.1802 146.742 75.5458 146.41 75.7952H145.749C145.521 75.7952 145.336 75.9802 145.336 76.2083V78.0259C145.336 78.254 145.521 78.439 145.749 78.439H146.524C146.631 78.439 146.737 78.4622 146.834 78.5068L146.935 78.5531Z" fill="#E4EBF0"/>
<path d="M152.878 77.9128C152.661 77.9128 152.475 77.8546 152.321 77.7382C152.168 77.6217 152.051 77.4528 151.969 77.2312C151.888 77.0096 151.847 76.7416 151.848 76.427C151.848 76.1153 151.889 75.8492 151.971 75.6285C152.052 75.407 152.17 75.238 152.323 75.1215C152.477 75.0042 152.662 74.9455 152.878 74.9455C153.093 74.9455 153.277 75.0042 153.431 75.1215C153.585 75.238 153.703 75.407 153.785 75.6285C153.866 75.8492 153.907 76.1153 153.907 76.427C153.907 76.7416 153.866 77.0096 153.785 77.2312C153.704 77.4528 153.586 77.6217 153.432 77.7382C153.279 77.8546 153.095 77.9128 152.878 77.9128ZM152.878 77.5706C153.08 77.5706 153.239 77.4725 153.352 77.2762C153.466 77.0791 153.522 76.796 153.521 76.427C153.521 76.1829 153.495 75.9759 153.444 75.806C153.392 75.6351 153.318 75.5051 153.223 75.4159C153.127 75.3267 153.012 75.2821 152.878 75.2821C152.677 75.2821 152.519 75.3816 152.404 75.5806C152.29 75.7787 152.233 76.0609 152.233 76.427C152.233 76.6721 152.258 76.88 152.309 77.0509C152.36 77.2209 152.434 77.3499 152.53 77.4382C152.626 77.5265 152.742 77.5706 152.878 77.5706Z" fill="#E4EBF0"/>
<path fill-rule="evenodd" clip-rule="evenodd" d="M159.247 75.1862C158.756 74.9615 158.221 74.8514 157.682 74.8643L157.553 74.8676C157.258 74.8746 156.976 74.986 156.757 75.1819C156.537 75.3779 156.395 75.6455 156.354 75.937L156.243 76.7461C156.225 76.8747 156.235 77.0056 156.272 77.13C156.309 77.2545 156.373 77.3695 156.458 77.4674C156.543 77.5653 156.649 77.6438 156.767 77.6975C156.885 77.7513 157.013 77.7791 157.143 77.7792H157.67C157.682 77.7791 157.693 77.7816 157.704 77.7863C157.714 77.791 157.724 77.7978 157.731 77.8064C157.739 77.815 157.745 77.8252 157.749 77.8362C157.752 77.8472 157.753 77.8588 157.752 77.8704L157.708 78.2868C157.694 78.4208 157.708 78.5563 157.75 78.6845C157.792 78.8126 157.86 78.9306 157.95 79.0308C158.04 79.1309 158.15 79.211 158.274 79.2658C158.397 79.3206 158.53 79.3489 158.665 79.3489H158.785C158.95 79.3489 159.092 79.2306 159.121 79.068L159.139 78.9682C159.214 78.5594 159.44 78.1937 159.772 77.9444H160.433C160.661 77.9444 160.846 77.7593 160.846 77.5313V75.7136C160.846 75.4856 160.661 75.3005 160.433 75.3005H159.658C159.551 75.3005 159.445 75.2774 159.348 75.2328L159.247 75.1865V75.1862ZM157.694 75.3597C158.158 75.3487 158.618 75.4435 159.04 75.637L159.142 75.6832C159.263 75.7388 159.392 75.7745 159.524 75.789V77.5151C159.507 77.525 159.491 77.5356 159.475 77.5475C159.05 77.8663 158.758 78.3315 158.657 78.8529C158.592 78.8518 158.528 78.8372 158.47 78.8102C158.411 78.7832 158.359 78.7442 158.316 78.6958C158.273 78.6474 158.241 78.5906 158.221 78.5291C158.201 78.4676 158.195 78.4026 158.201 78.3383L158.245 77.9219C158.254 77.8414 158.245 77.7599 158.22 77.6829C158.195 77.6058 158.154 77.5349 158.1 77.4747C158.046 77.4145 157.979 77.3664 157.905 77.3334C157.831 77.3005 157.751 77.2835 157.67 77.2834H157.143C157.084 77.2834 157.026 77.2708 156.972 77.2463C156.918 77.2219 156.871 77.1862 156.832 77.1417C156.793 77.0972 156.764 77.0449 156.747 76.9883C156.73 76.9318 156.726 76.8723 156.734 76.8138L156.845 76.0048C156.87 75.8298 156.955 75.6692 157.087 75.5516C157.219 75.434 157.388 75.3671 157.565 75.363L157.694 75.3597ZM160.02 77.4483H160.35V75.7959H160.02V77.4483Z" fill="#E4EBF0"/>
<path d="M163.76 77.9128C163.544 77.9128 163.358 77.8546 163.204 77.7382C163.051 77.6217 162.934 77.4528 162.852 77.2312C162.77 77.0096 162.73 76.7416 162.731 76.427C162.731 76.1153 162.772 75.8492 162.853 75.6285C162.935 75.407 163.053 75.238 163.206 75.1215C163.36 75.0042 163.544 74.9455 163.76 74.9455C163.975 74.9455 164.16 75.0042 164.314 75.1215C164.468 75.238 164.586 75.407 164.667 75.6285C164.749 75.8492 164.79 76.1153 164.79 76.427C164.79 76.7416 164.749 77.0096 164.667 77.2312C164.587 77.4528 164.469 77.6217 164.315 77.7382C164.162 77.8546 163.977 77.9128 163.76 77.9128ZM163.76 77.5706C163.963 77.5706 164.121 77.4725 164.235 77.2762C164.349 77.0791 164.405 76.796 164.404 76.427C164.404 76.1829 164.378 75.9759 164.327 75.806C164.275 75.6351 164.201 75.5051 164.105 75.4159C164.01 75.3267 163.895 75.2821 163.76 75.2821C163.56 75.2821 163.402 75.3816 163.287 75.5806C163.173 75.7787 163.115 76.0609 163.115 76.427C163.115 76.6721 163.141 76.88 163.191 77.0509C163.243 77.2209 163.317 77.3499 163.413 77.4382C163.509 77.5265 163.625 77.5706 163.76 77.5706Z" fill="#E4EBF0"/>
<line x1="116.813" y1="85.4082" x2="166.385" y2="85.4082" stroke="#E4EBF0" stroke-width="0.550804"/>
<g filter="url(#filter0_bi_1332_15247)">
<rect x="116.594" y="90.0898" width="11.9421" height="11.9421" rx="5.97104" fill="url(#paint5_linear_1332_15247)"/>
</g>
<rect x="132.523" y="91.7441" width="31.4361" height="2.20322" fill="#E4EBF0"/>
<rect opacity="0.5" x="132.523" y="96.1504" width="19.3453" height="2.20322" fill="#E4EBF0"/>
<rect x="174.633" y="30.6055" width="55.0804" height="73.257" rx="5.24421" fill="url(#paint6_linear_1332_15247)"/>
<rect x="177.383" y="56.4902" width="48.9678" height="1.65241" rx="0.826206" fill="#E4EBF0"/>
<rect x="177.383" y="61.4473" width="48.9678" height="1.65241" rx="0.826206" fill="#E4EBF0"/>
<rect x="177.383" y="66.4043" width="42.3179" height="1.65241" rx="0.826206" fill="#E4EBF0"/>
<rect x="177.383" y="43.2715" width="36.2725" height="2.75402" rx="1.37701" fill="#E4EBF0"/>
<rect x="177.383" y="49.3301" width="27.8089" height="2.75402" rx="1.37701" fill="#E4EBF0"/>
<path d="M179.962 35.5472C180.017 35.378 180.256 35.378 180.311 35.5472L180.714 36.7859C180.739 36.8615 180.809 36.9127 180.889 36.9127H182.191C182.369 36.9127 182.443 37.1403 182.299 37.2449L181.245 38.0104C181.181 38.0572 181.154 38.1401 181.179 38.2157L181.581 39.4544C181.636 39.6236 181.442 39.7642 181.298 39.6597L180.245 38.8941C180.18 38.8474 180.093 38.8474 180.029 38.8941L178.975 39.6597C178.831 39.7642 178.638 39.6236 178.693 39.4544L179.095 38.2157C179.12 38.1401 179.093 38.0572 179.028 38.0104L177.975 37.2449C177.831 37.1403 177.905 36.9127 178.083 36.9127H179.385C179.465 36.9127 179.535 36.8615 179.56 36.7859L179.962 35.5472Z" fill="white"/>
<path d="M185.47 35.5472C185.525 35.378 185.764 35.378 185.819 35.5472L186.222 36.7859C186.246 36.8615 186.317 36.9127 186.396 36.9127H187.699C187.877 36.9127 187.951 37.1403 187.807 37.2449L186.753 38.0104C186.689 38.0572 186.662 38.1401 186.686 38.2157L187.089 39.4544C187.144 39.6236 186.95 39.7642 186.806 39.6597L185.753 38.8941C185.688 38.8474 185.601 38.8474 185.537 38.8941L184.483 39.6597C184.339 39.7642 184.146 39.6236 184.2 39.4544L184.603 38.2157C184.628 38.1401 184.601 38.0572 184.536 38.0104L183.483 37.2449C183.339 37.1403 183.413 36.9127 183.59 36.9127H184.893C184.972 36.9127 185.043 36.8615 185.068 36.7859L185.47 35.5472Z" fill="white"/>
<path d="M190.978 35.5472C191.033 35.378 191.272 35.378 191.327 35.5472L191.73 36.7859C191.754 36.8615 191.825 36.9127 191.904 36.9127H193.207C193.384 36.9127 193.458 37.1403 193.315 37.2449L192.261 38.0104C192.196 38.0572 192.17 38.1401 192.194 38.2157L192.597 39.4544C192.652 39.6236 192.458 39.7642 192.314 39.6597L191.26 38.8941C191.196 38.8474 191.109 38.8474 191.045 38.8941L189.991 39.6597C189.847 39.7642 189.653 39.6236 189.708 39.4544L190.111 38.2157C190.135 38.1401 190.108 38.0572 190.044 38.0104L188.99 37.2449C188.846 37.1403 188.92 36.9127 189.098 36.9127H190.401C190.48 36.9127 190.551 36.8615 190.575 36.7859L190.978 35.5472Z" fill="white"/>
<path d="M196.486 35.5472C196.541 35.378 196.78 35.378 196.835 35.5472L197.237 36.7859C197.262 36.8615 197.332 36.9127 197.412 36.9127H198.714C198.892 36.9127 198.966 37.1403 198.822 37.2449L197.769 38.0104C197.704 38.0572 197.677 38.1401 197.702 38.2157L198.104 39.4544C198.159 39.6236 197.966 39.7642 197.822 39.6597L196.768 38.8941C196.704 38.8474 196.617 38.8474 196.552 38.8941L195.499 39.6597C195.355 39.7642 195.161 39.6236 195.216 39.4544L195.619 38.2157C195.643 38.1401 195.616 38.0572 195.552 38.0104L194.498 37.2449C194.354 37.1403 194.428 36.9127 194.606 36.9127H195.909C195.988 36.9127 196.059 36.8615 196.083 36.7859L196.486 35.5472Z" fill="white"/>
<path d="M201.993 35.5472C202.048 35.378 202.288 35.378 202.343 35.5472L202.745 36.7859C202.77 36.8615 202.84 36.9127 202.92 36.9127H204.222C204.4 36.9127 204.474 37.1403 204.33 37.2449L203.276 38.0104C203.212 38.0572 203.185 38.1401 203.21 38.2157L203.612 39.4544C203.667 39.6236 203.474 39.7642 203.33 39.6597L202.276 38.8941C202.212 38.8474 202.125 38.8474 202.06 38.8941L201.006 39.6597C200.863 39.7642 200.669 39.6236 200.724 39.4544L201.126 38.2157C201.151 38.1401 201.124 38.0572 201.06 38.0104L200.006 37.2449C199.862 37.1403 199.936 36.9127 200.114 36.9127H201.416C201.496 36.9127 201.566 36.8615 201.591 36.7859L201.993 35.5472Z" fill="white"/>
<path fill-rule="evenodd" clip-rule="evenodd" d="M209.067 78.3795C208.603 78.3906 208.142 78.2959 207.72 78.1026L207.619 78.056C207.498 78.0004 207.368 77.9647 207.236 77.9503V76.2245C207.253 76.2146 207.27 76.2036 207.286 76.1918C207.71 75.8729 208.002 75.4078 208.104 74.8863C208.168 74.8875 208.232 74.902 208.29 74.929C208.349 74.9561 208.402 74.995 208.444 75.0434C208.487 75.0918 208.52 75.1486 208.539 75.2101C208.559 75.2717 208.566 75.3366 208.559 75.4009L208.515 75.8173C208.506 75.8979 208.515 75.9794 208.54 76.0565C208.565 76.1335 208.606 76.2045 208.66 76.2647C208.715 76.325 208.781 76.3731 208.855 76.4061C208.929 76.4391 209.009 76.4561 209.09 76.4561H209.617C209.868 76.4561 210.061 76.6776 210.027 76.9254L209.915 77.7348C209.891 77.9097 209.805 78.0704 209.673 78.188C209.542 78.3056 209.372 78.3724 209.196 78.3766L209.067 78.3799V78.3795ZM206.74 76.2909H206.41V77.9433H206.74V76.2909ZM207.514 78.5531C208.004 78.7779 208.539 78.8881 209.078 78.8753L209.208 78.872C209.502 78.865 209.784 78.7536 210.004 78.5576C210.223 78.3617 210.366 78.094 210.406 77.8025L210.517 76.9935C210.535 76.8649 210.525 76.7339 210.488 76.6095C210.451 76.4851 210.388 76.3701 210.302 76.2722C210.217 76.1743 210.112 76.0958 209.993 76.042C209.875 75.9883 209.747 75.9604 209.617 75.9604H209.09C209.079 75.9604 209.067 75.958 209.057 75.9533C209.046 75.9486 209.037 75.9417 209.029 75.9331C209.021 75.9245 209.015 75.9144 209.012 75.9034C209.008 75.8924 209.007 75.8807 209.008 75.8692L209.052 75.4528C209.066 75.3188 209.052 75.1833 209.01 75.0551C208.969 74.9269 208.9 74.809 208.81 74.7088C208.72 74.6087 208.61 74.5286 208.487 74.4738C208.364 74.419 208.23 74.3906 208.096 74.3906H207.975C207.81 74.3906 207.669 74.5086 207.639 74.6712L207.621 74.7713C207.547 75.1802 207.321 75.5458 206.988 75.7952H206.327C206.099 75.7952 205.914 75.9802 205.914 76.2083V78.0259C205.914 78.254 206.099 78.439 206.327 78.439H207.102C207.209 78.439 207.315 78.4622 207.412 78.5068L207.514 78.5531Z" fill="#E4EBF0"/>
<path d="M213.456 77.9128C213.239 77.9128 213.053 77.8546 212.899 77.7382C212.746 77.6217 212.629 77.4528 212.547 77.2312C212.466 77.0096 212.425 76.7416 212.426 76.427C212.426 76.1153 212.467 75.8492 212.549 75.6285C212.63 75.407 212.748 75.238 212.901 75.1215C213.055 75.0042 213.24 74.9455 213.456 74.9455C213.671 74.9455 213.855 75.0042 214.009 75.1215C214.163 75.238 214.281 75.407 214.363 75.6285C214.444 75.8492 214.485 76.1153 214.485 76.427C214.485 76.7416 214.444 77.0096 214.363 77.2312C214.282 77.4528 214.165 77.6217 214.011 77.7382C213.858 77.8546 213.673 77.9128 213.456 77.9128ZM213.456 77.5706C213.659 77.5706 213.817 77.4725 213.93 77.2762C214.044 77.0791 214.1 76.796 214.099 76.427C214.099 76.1829 214.074 75.9759 214.022 75.806C213.97 75.6351 213.897 75.5051 213.801 75.4159C213.705 75.3267 213.59 75.2821 213.456 75.2821C213.255 75.2821 213.097 75.3816 212.983 75.5806C212.868 75.7787 212.811 76.0609 212.811 76.427C212.811 76.6721 212.836 76.88 212.887 77.0509C212.938 77.2209 213.012 77.3499 213.108 77.4382C213.205 77.5265 213.321 77.5706 213.456 77.5706Z" fill="#E4EBF0"/>
<path fill-rule="evenodd" clip-rule="evenodd" d="M219.825 75.1862C219.334 74.9615 218.799 74.8514 218.26 74.8643L218.131 74.8676C217.837 74.8746 217.554 74.986 217.335 75.1819C217.115 75.3779 216.973 75.6455 216.932 75.937L216.821 76.7461C216.803 76.8747 216.813 77.0056 216.85 77.13C216.888 77.2545 216.951 77.3695 217.036 77.4674C217.121 77.5653 217.227 77.6438 217.345 77.6975C217.463 77.7513 217.591 77.7791 217.721 77.7792H218.248C218.26 77.7791 218.271 77.7816 218.282 77.7863C218.292 77.791 218.302 77.7978 218.31 77.8064C218.317 77.815 218.323 77.8252 218.327 77.8362C218.33 77.8472 218.332 77.8588 218.33 77.8704L218.286 78.2868C218.272 78.4208 218.287 78.5563 218.328 78.6845C218.37 78.8126 218.438 78.9306 218.528 79.0308C218.618 79.1309 218.729 79.211 218.852 79.2658C218.975 79.3206 219.108 79.3489 219.243 79.3489H219.363C219.528 79.3489 219.67 79.2306 219.699 79.068L219.717 78.9682C219.792 78.5594 220.018 78.1937 220.35 77.9444H221.011C221.239 77.9444 221.424 77.7593 221.424 77.5313V75.7136C221.424 75.4856 221.239 75.3005 221.011 75.3005H220.236C220.129 75.3005 220.024 75.2774 219.926 75.2328L219.825 75.1865V75.1862ZM218.272 75.3597C218.736 75.3487 219.196 75.4435 219.618 75.637L219.72 75.6832C219.841 75.7388 219.97 75.7745 220.102 75.789V77.5151C220.085 77.525 220.069 77.5356 220.053 77.5475C219.628 77.8663 219.336 78.3315 219.235 78.8529C219.17 78.8518 219.107 78.8372 219.048 78.8102C218.989 78.7832 218.937 78.7442 218.894 78.6958C218.851 78.6474 218.819 78.5906 218.799 78.5291C218.779 78.4676 218.773 78.4026 218.779 78.3383L218.823 77.9219C218.832 77.8414 218.823 77.7599 218.798 77.6829C218.773 77.6058 218.732 77.5349 218.678 77.4747C218.624 77.4145 218.558 77.3664 218.483 77.3334C218.409 77.3005 218.329 77.2835 218.248 77.2834H217.721C217.662 77.2834 217.604 77.2708 217.55 77.2463C217.496 77.2219 217.449 77.1862 217.41 77.1417C217.371 77.0972 217.342 77.0449 217.325 76.9883C217.309 76.9318 217.304 76.8723 217.312 76.8138L217.424 76.0048C217.448 75.8298 217.533 75.6692 217.665 75.5516C217.797 75.434 217.966 75.3671 218.143 75.363L218.272 75.3597ZM220.598 77.4483H220.929V75.7959H220.598V77.4483Z" fill="#E4EBF0"/>
<path d="M224.339 77.9128C224.122 77.9128 223.936 77.8546 223.782 77.7382C223.629 77.6217 223.512 77.4528 223.43 77.2312C223.349 77.0096 223.308 76.7416 223.309 76.427C223.309 76.1153 223.35 75.8492 223.432 75.6285C223.513 75.407 223.631 75.238 223.784 75.1215C223.938 75.0042 224.123 74.9455 224.339 74.9455C224.554 74.9455 224.738 75.0042 224.892 75.1215C225.046 75.238 225.164 75.407 225.246 75.6285C225.327 75.8492 225.368 76.1153 225.368 76.427C225.368 76.7416 225.327 77.0096 225.246 77.2312C225.165 77.4528 225.047 77.6217 224.893 77.7382C224.74 77.8546 224.555 77.9128 224.339 77.9128ZM224.339 77.5706C224.541 77.5706 224.7 77.4725 224.813 77.2762C224.927 77.0791 224.983 76.796 224.982 76.427C224.982 76.1829 224.956 75.9759 224.905 75.806C224.853 75.6351 224.779 75.5051 224.684 75.4159C224.588 75.3267 224.473 75.2821 224.339 75.2821C224.138 75.2821 223.98 75.3816 223.865 75.5806C223.751 75.7787 223.694 76.0609 223.694 76.427C223.694 76.6721 223.719 76.88 223.77 77.0509C223.821 77.2209 223.895 77.3499 223.991 77.4382C224.087 77.5265 224.203 77.5706 224.339 77.5706Z" fill="#E4EBF0"/>
<line x1="177.383" y1="85.4082" x2="226.955" y2="85.4082" stroke="#E4EBF0" stroke-width="0.550804"/>
<g filter="url(#filter1_bi_1332_15247)">
<rect x="177.383" y="90.0898" width="11.9421" height="11.9421" rx="5.97104" fill="url(#paint7_linear_1332_15247)"/>
</g>
<rect x="193.094" y="91.7441" width="31.4361" height="2.20322" fill="#E4EBF0"/>
<rect opacity="0.5" x="193.094" y="96.1504" width="19.3453" height="2.20322" fill="#E4EBF0"/>
<rect x="114.055" y="106.613" width="55.0804" height="73.257" rx="5.24421" fill="url(#paint8_linear_1332_15247)"/>
<rect x="116.805" y="119.283" width="36.2725" height="2.75402" rx="1.37701" fill="#E4EBF0"/>
<rect x="116.805" y="125.342" width="27.8089" height="2.75402" rx="1.37701" fill="#E4EBF0"/>
<path d="M119.384 111.559C119.439 111.39 119.678 111.39 119.733 111.559L120.136 112.798C120.16 112.873 120.231 112.924 120.31 112.924H121.613C121.791 112.924 121.865 113.152 121.721 113.257L120.667 114.022C120.603 114.069 120.576 114.152 120.6 114.227L121.003 115.466C121.058 115.635 120.864 115.776 120.72 115.671L119.667 114.906C119.602 114.859 119.515 114.859 119.451 114.906L118.397 115.671C118.253 115.776 118.06 115.635 118.115 115.466L118.517 114.227C118.542 114.152 118.515 114.069 118.45 114.022L117.397 113.257C117.253 113.152 117.327 112.924 117.505 112.924H118.807C118.887 112.924 118.957 112.873 118.982 112.798L119.384 111.559Z" fill="white"/>
<path d="M124.892 111.559C124.947 111.39 125.186 111.39 125.241 111.559L125.644 112.798C125.668 112.873 125.739 112.924 125.818 112.924H127.121C127.299 112.924 127.372 113.152 127.229 113.257L126.175 114.022C126.111 114.069 126.084 114.152 126.108 114.227L126.511 115.466C126.566 115.635 126.372 115.776 126.228 115.671L125.174 114.906C125.11 114.859 125.023 114.859 124.959 114.906L123.905 115.671C123.761 115.776 123.567 115.635 123.622 115.466L124.025 114.227C124.049 114.152 124.022 114.069 123.958 114.022L122.904 113.257C122.761 113.152 122.834 112.924 123.012 112.924H124.315C124.394 112.924 124.465 112.873 124.489 112.798L124.892 111.559Z" fill="white"/>
<path d="M130.4 111.559C130.455 111.39 130.694 111.39 130.749 111.559L131.151 112.798C131.176 112.873 131.247 112.924 131.326 112.924H132.628C132.806 112.924 132.88 113.152 132.736 113.257L131.683 114.022C131.618 114.069 131.591 114.152 131.616 114.227L132.018 115.466C132.073 115.635 131.88 115.776 131.736 115.671L130.682 114.906C130.618 114.859 130.531 114.859 130.466 114.906L129.413 115.671C129.269 115.776 129.075 115.635 129.13 115.466L129.533 114.227C129.557 114.152 129.53 114.069 129.466 114.022L128.412 113.257C128.268 113.152 128.342 112.924 128.52 112.924H129.823C129.902 112.924 129.973 112.873 129.997 112.798L130.4 111.559Z" fill="white"/>
<path d="M135.908 111.559C135.962 111.39 136.202 111.39 136.257 111.559L136.659 112.798C136.684 112.873 136.754 112.924 136.834 112.924H138.136C138.314 112.924 138.388 113.152 138.244 113.257L137.191 114.022C137.126 114.069 137.099 114.152 137.124 114.227L137.526 115.466C137.581 115.635 137.388 115.776 137.244 115.671L136.19 114.906C136.126 114.859 136.039 114.859 135.974 114.906L134.921 115.671C134.777 115.776 134.583 115.635 134.638 115.466L135.04 114.227C135.065 114.152 135.038 114.069 134.974 114.022L133.92 113.257C133.776 113.152 133.85 112.924 134.028 112.924H135.33C135.41 112.924 135.48 112.873 135.505 112.798L135.908 111.559Z" fill="white"/>
<path d="M141.415 111.559C141.47 111.39 141.71 111.39 141.765 111.559L142.167 112.798C142.192 112.873 142.262 112.924 142.342 112.924H143.644C143.822 112.924 143.896 113.152 143.752 113.257L142.698 114.022C142.634 114.069 142.607 114.152 142.632 114.227L143.034 115.466C143.089 115.635 142.895 115.776 142.752 115.671L141.698 114.906C141.634 114.859 141.546 114.859 141.482 114.906L140.428 115.671C140.284 115.776 140.091 115.635 140.146 115.466L140.548 114.227C140.573 114.152 140.546 114.069 140.482 114.022L139.428 113.257C139.284 113.152 139.358 112.924 139.536 112.924H140.838C140.918 112.924 140.988 112.873 141.013 112.798L141.415 111.559Z" fill="white"/>
<rect x="174.633" y="106.613" width="55.0804" height="73.257" rx="5.24421" fill="url(#paint9_linear_1332_15247)"/>
<rect x="177.383" y="119.283" width="36.2725" height="2.75402" rx="1.37701" fill="#E4EBF0"/>
<rect x="177.383" y="125.342" width="27.8089" height="2.75402" rx="1.37701" fill="#E4EBF0"/>
<path d="M179.962 111.559C180.017 111.39 180.256 111.39 180.311 111.559L180.714 112.798C180.739 112.873 180.809 112.924 180.889 112.924H182.191C182.369 112.924 182.443 113.152 182.299 113.257L181.245 114.022C181.181 114.069 181.154 114.152 181.179 114.227L181.581 115.466C181.636 115.635 181.442 115.776 181.298 115.671L180.245 114.906C180.18 114.859 180.093 114.859 180.029 114.906L178.975 115.671C178.831 115.776 178.638 115.635 178.693 115.466L179.095 114.227C179.12 114.152 179.093 114.069 179.028 114.022L177.975 113.257C177.831 113.152 177.905 112.924 178.083 112.924H179.385C179.465 112.924 179.535 112.873 179.56 112.798L179.962 111.559Z" fill="white"/>
<path d="M185.47 111.559C185.525 111.39 185.764 111.39 185.819 111.559L186.222 112.798C186.246 112.873 186.317 112.924 186.396 112.924H187.699C187.877 112.924 187.951 113.152 187.807 113.257L186.753 114.022C186.689 114.069 186.662 114.152 186.686 114.227L187.089 115.466C187.144 115.635 186.95 115.776 186.806 115.671L185.753 114.906C185.688 114.859 185.601 114.859 185.537 114.906L184.483 115.671C184.339 115.776 184.146 115.635 184.2 115.466L184.603 114.227C184.628 114.152 184.601 114.069 184.536 114.022L183.483 113.257C183.339 113.152 183.413 112.924 183.59 112.924H184.893C184.972 112.924 185.043 112.873 185.068 112.798L185.47 111.559Z" fill="white"/>
<path d="M190.978 111.559C191.033 111.39 191.272 111.39 191.327 111.559L191.73 112.798C191.754 112.873 191.825 112.924 191.904 112.924H193.207C193.384 112.924 193.458 113.152 193.315 113.257L192.261 114.022C192.196 114.069 192.17 114.152 192.194 114.227L192.597 115.466C192.652 115.635 192.458 115.776 192.314 115.671L191.26 114.906C191.196 114.859 191.109 114.859 191.045 114.906L189.991 115.671C189.847 115.776 189.653 115.635 189.708 115.466L190.111 114.227C190.135 114.152 190.108 114.069 190.044 114.022L188.99 113.257C188.846 113.152 188.92 112.924 189.098 112.924H190.401C190.48 112.924 190.551 112.873 190.575 112.798L190.978 111.559Z" fill="white"/>
<path d="M196.486 111.559C196.541 111.39 196.78 111.39 196.835 111.559L197.237 112.798C197.262 112.873 197.332 112.924 197.412 112.924H198.714C198.892 112.924 198.966 113.152 198.822 113.257L197.769 114.022C197.704 114.069 197.677 114.152 197.702 114.227L198.104 115.466C198.159 115.635 197.966 115.776 197.822 115.671L196.768 114.906C196.704 114.859 196.617 114.859 196.552 114.906L195.499 115.671C195.355 115.776 195.161 115.635 195.216 115.466L195.619 114.227C195.643 114.152 195.616 114.069 195.552 114.022L194.498 113.257C194.354 113.152 194.428 112.924 194.606 112.924H195.909C195.988 112.924 196.059 112.873 196.083 112.798L196.486 111.559Z" fill="white"/>
<path d="M201.993 111.559C202.048 111.39 202.288 111.39 202.343 111.559L202.745 112.798C202.77 112.873 202.84 112.924 202.92 112.924H204.222C204.4 112.924 204.474 113.152 204.33 113.257L203.276 114.022C203.212 114.069 203.185 114.152 203.21 114.227L203.612 115.466C203.667 115.635 203.474 115.776 203.33 115.671L202.276 114.906C202.212 114.859 202.125 114.859 202.06 114.906L201.006 115.671C200.863 115.776 200.669 115.635 200.724 115.466L201.126 114.227C201.151 114.152 201.124 114.069 201.06 114.022L200.006 113.257C199.862 113.152 199.936 112.924 200.114 112.924H201.416C201.496 112.924 201.566 112.873 201.591 112.798L201.993 111.559Z" fill="white"/>
<g opacity="0.88">
<path d="M58.0015 19.1293C58.0675 18.9263 58.3547 18.9263 58.4206 19.1293L58.9036 20.6157C58.9331 20.7065 59.0177 20.768 59.1131 20.768L60.6761 20.768C60.8895 20.768 60.9782 21.0411 60.8056 21.1665L59.5411 22.0852C59.4639 22.1413 59.4316 22.2407 59.4611 22.3315L59.9441 23.818C60.01 24.021 59.7777 24.1897 59.605 24.0643L58.3406 23.1456C58.2634 23.0895 58.1588 23.0895 58.0816 23.1456L56.8171 24.0643C56.6445 24.1897 56.4121 24.021 56.4781 23.818L56.9611 22.3315C56.9906 22.2407 56.9582 22.1413 56.881 22.0852L55.6166 21.1665C55.4439 21.0411 55.5326 20.768 55.7461 20.768L57.309 20.768C57.4045 20.768 57.4891 20.7065 57.5186 20.6157L58.0015 19.1293Z" fill="white"/>
<path d="M64.6109 19.1293C64.6769 18.9263 64.964 18.9263 65.03 19.1293L65.513 20.6157C65.5425 20.7065 65.6271 20.768 65.7225 20.768L67.2854 20.768C67.4989 20.768 67.5876 21.0411 67.4149 21.1665L66.1505 22.0852C66.0733 22.1413 66.041 22.2407 66.0705 22.3315L66.5534 23.818C66.6194 24.021 66.3871 24.1897 66.2144 24.0643L64.95 23.1456C64.8727 23.0895 64.7682 23.0895 64.6909 23.1456L63.4265 24.0643C63.2538 24.1897 63.0215 24.021 63.0875 23.818L63.5704 22.3315C63.5999 22.2407 63.5676 22.1413 63.4904 22.0852L62.226 21.1665C62.0533 21.0411 62.142 20.768 62.3555 20.768L63.9184 20.768C64.0138 20.768 64.0984 20.7065 64.1279 20.6157L64.6109 19.1293Z" fill="white"/>
<path d="M71.2203 19.1293C71.2862 18.9263 71.5734 18.9263 71.6394 19.1293L72.1223 20.6157C72.1518 20.7065 72.2364 20.768 72.3319 20.768L73.8948 20.768C74.1083 20.768 74.197 21.0411 74.0243 21.1665L72.7599 22.0852C72.6827 22.1413 72.6503 22.2407 72.6798 22.3315L73.1628 23.818C73.2288 24.021 72.9964 24.1897 72.8238 24.0643L71.5593 23.1456C71.4821 23.0895 71.3775 23.0895 71.3003 23.1456L70.0359 24.0643C69.8632 24.1897 69.6309 24.021 69.6968 23.818L70.1798 22.3315C70.2093 22.2407 70.177 22.1413 70.0998 22.0852L68.8353 21.1665C68.6627 21.0411 68.7514 20.768 68.9648 20.768L70.5278 20.768C70.6232 20.768 70.7078 20.7065 70.7373 20.6157L71.2203 19.1293Z" fill="white"/>
<path d="M77.8297 19.1293C77.8956 18.9263 78.1828 18.9263 78.2487 19.1293L78.7317 20.6157C78.7612 20.7065 78.8458 20.768 78.9413 20.768L80.5042 20.768C80.7176 20.768 80.8064 21.0411 80.6337 21.1665L79.3693 22.0852C79.292 22.1413 79.2597 22.2407 79.2892 22.3315L79.7722 23.818C79.8381 24.021 79.6058 24.1897 79.4331 24.0643L78.1687 23.1456C78.0915 23.0895 77.9869 23.0895 77.9097 23.1456L76.6453 24.0643C76.4726 24.1897 76.2403 24.021 76.3062 23.818L76.7892 22.3315C76.8187 22.2407 76.7864 22.1413 76.7092 22.0852L75.4447 21.1665C75.272 21.0411 75.3608 20.768 75.5742 20.768L77.1371 20.768C77.2326 20.768 77.3172 20.7065 77.3467 20.6157L77.8297 19.1293Z" fill="white"/>
<path d="M84.439 19.1293C84.505 18.9263 84.7922 18.9263 84.8581 19.1293L85.3411 20.6157C85.3706 20.7065 85.4552 20.768 85.5506 20.768L87.1136 20.768C87.327 20.768 87.4157 21.0411 87.2431 21.1665L85.9786 22.0852C85.9014 22.1413 85.8691 22.2407 85.8986 22.3315L86.3816 23.818C86.4475 24.021 86.2152 24.1897 86.0425 24.0643L84.7781 23.1456C84.7009 23.0895 84.5963 23.0895 84.5191 23.1456L83.2546 24.0643C83.082 24.1897 82.8496 24.021 82.9156 23.818L83.3986 22.3315C83.4281 22.2407 83.3957 22.1413 83.3185 22.0852L82.0541 21.1665C81.8814 21.0411 81.9701 20.768 82.1836 20.768L83.7465 20.768C83.842 20.768 83.9266 20.7065 83.9561 20.6157L84.439 19.1293Z" fill="white"/>
<rect x="90.8047" y="20.2715" width="36.2725" height="2.75402" rx="1.37701" fill="white"/>
</g>
</g>
<defs>
<filter id="filter0_bi_1332_15247" x="113.805" y="87.3013" width="17.5224" height="17.5185" filterUnits="userSpaceOnUse" color-interpolation-filters="sRGB">
<feFlood flood-opacity="0" result="BackgroundImageFix"/>
<feGaussianBlur in="BackgroundImageFix" stdDeviation="1.39428"/>
<feComposite in2="SourceAlpha" operator="in" result="effect1_backgroundBlur_1332_15247"/>
<feBlend mode="normal" in="SourceGraphic" in2="effect1_backgroundBlur_1332_15247" result="shape"/>
<feColorMatrix in="SourceAlpha" type="matrix" values="0 0 0 0 0 0 0 0 0 0 0 0 0 0 0 0 0 0 127 0" result="hardAlpha"/>
<feOffset dy="0.83657"/>
<feGaussianBlur stdDeviation="0.418285"/>
<feComposite in2="hardAlpha" operator="arithmetic" k2="-1" k3="1"/>
<feColorMatrix type="matrix" values="0 0 0 0 1 0 0 0 0 1 0 0 0 0 1 0 0 0 0.25 0"/>
<feBlend mode="overlay" in2="shape" result="effect2_innerShadow_1332_15247"/>
</filter>
<filter id="filter1_bi_1332_15247" x="174.594" y="87.3013" width="17.5224" height="17.5185" filterUnits="userSpaceOnUse" color-interpolation-filters="sRGB">
<feFlood flood-opacity="0" result="BackgroundImageFix"/>
<feGaussianBlur in="BackgroundImageFix" stdDeviation="1.39428"/>
<feComposite in2="SourceAlpha" operator="in" result="effect1_backgroundBlur_1332_15247"/>
<feBlend mode="normal" in="SourceGraphic" in2="effect1_backgroundBlur_1332_15247" result="shape"/>
<feColorMatrix in="SourceAlpha" type="matrix" values="0 0 0 0 0 0 0 0 0 0 0 0 0 0 0 0 0 0 127 0" result="hardAlpha"/>
<feOffset dy="0.83657"/>
<feGaussianBlur stdDeviation="0.418285"/>
<feComposite in2="hardAlpha" operator="arithmetic" k2="-1" k3="1"/>
<feColorMatrix type="matrix" values="0 0 0 0 1 0 0 0 0 1 0 0 0 0 1 0 0 0 0.25 0"/>
<feBlend mode="overlay" in2="shape" result="effect2_innerShadow_1332_15247"/>
</filter>
<linearGradient id="paint0_linear_1332_15247" x1="111.661" y1="-48" x2="235.079" y2="174.959" gradientUnits="userSpaceOnUse">
<stop offset="0.0064921" stop-color="#F0F5F8"/>
<stop offset="1" stop-color="#19527A"/>
</linearGradient>
<linearGradient id="paint1_linear_1332_15247" x1="57.4805" y1="12.7715" x2="195.343" y2="218.782" gradientUnits="userSpaceOnUse">
<stop stop-color="#4C7898" stop-opacity="0.71"/>
<stop offset="1" stop-color="white" stop-opacity="0"/>
</linearGradient>
<linearGradient id="paint2_linear_1332_15247" x1="63.2976" y1="60.6226" x2="142.553" y2="100.64" gradientUnits="userSpaceOnUse">
<stop stop-color="white" stop-opacity="0.52"/>
<stop offset="1" stop-color="white" stop-opacity="0"/>
</linearGradient>
<linearGradient id="paint3_linear_1332_15247" x1="81.0198" y1="47.1016" x2="81.0198" y2="64.2327" gradientUnits="userSpaceOnUse">
<stop stop-color="white"/>
<stop offset="1" stop-color="white"/>
</linearGradient>
<linearGradient id="paint4_linear_1332_15247" x1="123.876" y1="45.3371" x2="172.194" y2="95.0476" gradientUnits="userSpaceOnUse">
<stop stop-color="white" stop-opacity="0.52"/>
<stop offset="1" stop-color="white" stop-opacity="0"/>
</linearGradient>
<linearGradient id="paint5_linear_1332_15247" x1="118.723" y1="92.4913" x2="126.231" y2="102.764" gradientUnits="userSpaceOnUse">
<stop stop-color="white" stop-opacity="0.52"/>
<stop offset="1" stop-color="white" stop-opacity="0"/>
</linearGradient>
<linearGradient id="paint6_linear_1332_15247" x1="184.454" y1="45.3371" x2="232.772" y2="95.0476" gradientUnits="userSpaceOnUse">
<stop stop-color="white" stop-opacity="0.52"/>
<stop offset="1" stop-color="white" stop-opacity="0"/>
</linearGradient>
<linearGradient id="paint7_linear_1332_15247" x1="179.512" y1="92.4913" x2="187.02" y2="102.764" gradientUnits="userSpaceOnUse">
<stop stop-color="white" stop-opacity="0.52"/>
<stop offset="1" stop-color="white" stop-opacity="0"/>
</linearGradient>
<linearGradient id="paint8_linear_1332_15247" x1="123.876" y1="121.345" x2="172.194" y2="171.055" gradientUnits="userSpaceOnUse">
<stop stop-color="white" stop-opacity="0.52"/>
<stop offset="1" stop-color="white" stop-opacity="0"/>
</linearGradient>
<linearGradient id="paint9_linear_1332_15247" x1="184.454" y1="121.345" x2="232.772" y2="171.055" gradientUnits="userSpaceOnUse">
<stop stop-color="white" stop-opacity="0.52"/>
<stop offset="1" stop-color="white" stop-opacity="0"/>
</linearGradient>
</defs>
</svg>
