<svg width="275" height="130" viewBox="0 0 275 130" fill="none" xmlns="http://www.w3.org/2000/svg">
<path d="M0 16C0 7.16344 6.61056 0 14.7651 0H260.235C268.389 0 275 7.16344 275 16V114C275 122.837 268.389 130 260.235 130H14.7651C6.61056 130 0 122.837 0 114V16Z" fill="url(#paint0_linear_1332_15360)"/>
<mask id="mask0_1332_15360" style="mask-type:alpha" maskUnits="userSpaceOnUse" x="0" y="0" width="275" height="130">
<path d="M0 13.6646C0 6.11785 6.11785 0 13.6646 0H261.335C268.882 0 275 6.11785 275 13.6646V116.335C275 123.882 268.882 130 261.335 130H13.6646C6.11786 130 0 123.882 0 116.335V13.6646Z" fill="white"/>
</mask>
<g mask="url(#mask0_1332_15360)">
<path d="M42 27.3773C42 21.0938 47.0938 16 53.3773 16H227.451C233.734 16 238.828 21.0938 238.828 27.3773V129.773H42V27.3773Z" fill="white" fill-opacity="0.37"/>
<g filter="url(#filter0_b_1332_15360)">
<rect x="36.6016" y="81.6816" width="100" height="34" rx="4.43828" fill="#396A8D" fill-opacity="0.54"/>
</g>
<path fill-rule="evenodd" clip-rule="evenodd" d="M50.7989 93.0528C50.7989 94.2915 49.7943 95.3049 48.5665 95.3049C47.3386 95.3049 46.334 94.2915 46.334 93.0528C46.334 91.8142 47.3386 90.8008 48.5665 90.8008C49.7943 90.8008 50.7989 91.8142 50.7989 93.0528ZM51.4687 100.991L55.3644 94.6968C55.822 93.9649 56.8824 93.9987 57.2954 94.7531L62.7427 104.899C63.1445 105.653 62.6087 106.565 61.7604 106.565H42.1035C41.9084 106.566 41.7165 106.515 41.5473 106.417C41.3782 106.319 41.2377 106.178 41.1402 106.008C41.0427 105.837 40.9916 105.644 40.9922 105.447C40.9928 105.25 41.045 105.057 41.1435 104.887L44.5815 98.7168C44.6608 98.5739 44.7701 98.4501 44.9017 98.3542C45.0334 98.2583 45.1841 98.1925 45.3435 98.1614C45.503 98.1303 45.6672 98.1347 45.8247 98.1742C45.9823 98.2137 46.1294 98.2874 46.2559 98.3902L49.8278 101.273C50.3413 101.689 51.1115 101.566 51.4687 100.991Z" fill="url(#paint1_linear_1332_15360)"/>
<path d="M73.8704 87.8861C73.9341 87.6902 74.2113 87.6902 74.2749 87.8861L74.7411 89.3209C74.7696 89.4085 74.8512 89.4678 74.9434 89.4678H76.4519C76.6579 89.4678 76.7436 89.7314 76.5769 89.8525L75.3565 90.7392C75.2819 90.7934 75.2507 90.8894 75.2792 90.977L75.7454 92.4117C75.809 92.6077 75.5848 92.7706 75.4181 92.6495L74.1977 91.7628C74.1231 91.7086 74.0222 91.7086 73.9477 91.7628L72.7272 92.6495C72.5606 92.7706 72.3363 92.6077 72.4 92.4117L72.8661 90.977C72.8946 90.8894 72.8634 90.7934 72.7889 90.7392L71.5684 89.8525C71.4018 89.7314 71.4874 89.4678 71.6934 89.4678H73.202C73.2941 89.4678 73.3758 89.4085 73.4043 89.3209L73.8704 87.8861Z" fill="white"/>
<path d="M80.2532 87.8861C80.3169 87.6902 80.5941 87.6902 80.6577 87.8861L81.1239 89.3209C81.1524 89.4085 81.234 89.4678 81.3262 89.4678H82.8347C83.0408 89.4678 83.1264 89.7314 82.9597 89.8525L81.7393 90.7392C81.6647 90.7934 81.6336 90.8894 81.662 90.977L82.1282 92.4117C82.1919 92.6077 81.9676 92.7706 81.801 92.6495L80.5805 91.7628C80.506 91.7086 80.405 91.7086 80.3305 91.7628L79.11 92.6495C78.9434 92.7706 78.7191 92.6077 78.7828 92.4117L79.249 90.977C79.2774 90.8894 79.2462 90.7934 79.1717 90.7392L77.9512 89.8525C77.7846 89.7314 77.8702 89.4678 78.0762 89.4678H79.5848C79.6769 89.4678 79.7586 89.4085 79.7871 89.3209L80.2532 87.8861Z" fill="white"/>
<path d="M86.6282 87.8861C86.6919 87.6902 86.9691 87.6902 87.0327 87.8861L87.4989 89.3209C87.5274 89.4085 87.609 89.4678 87.7012 89.4678H89.2097C89.4158 89.4678 89.5014 89.7314 89.3347 89.8525L88.1143 90.7392C88.0397 90.7934 88.0086 90.8894 88.037 90.977L88.5032 92.4117C88.5669 92.6077 88.3426 92.7706 88.176 92.6495L86.9555 91.7628C86.881 91.7086 86.78 91.7086 86.7055 91.7628L85.485 92.6495C85.3184 92.7706 85.0941 92.6077 85.1578 92.4117L85.624 90.977C85.6524 90.8894 85.6212 90.7934 85.5467 90.7392L84.3262 89.8525C84.1596 89.7314 84.2452 89.4678 84.4512 89.4678H85.9598C86.0519 89.4678 86.1336 89.4085 86.1621 89.3209L86.6282 87.8861Z" fill="white"/>
<path d="M93.0111 87.8861C93.0747 87.6902 93.3519 87.6902 93.4156 87.8861L93.8817 89.3209C93.9102 89.4085 93.9919 89.4678 94.084 89.4678H95.5926C95.7986 89.4678 95.8842 89.7314 95.7176 89.8525L94.4971 90.7392C94.4226 90.7934 94.3914 90.8894 94.4198 90.977L94.886 92.4117C94.9497 92.6077 94.7254 92.7706 94.5588 92.6495L93.3383 91.7628C93.2638 91.7086 93.1628 91.7086 93.0883 91.7628L91.8678 92.6495C91.7012 92.7706 91.4769 92.6077 91.5406 92.4117L92.0068 90.977C92.0352 90.8894 92.0041 90.7934 91.9295 90.7392L90.7091 89.8525C90.5424 89.7314 90.628 89.4678 90.8341 89.4678H92.3426C92.4348 89.4678 92.5164 89.4085 92.5449 89.3209L93.0111 87.8861Z" fill="white"/>
<path d="M99.3861 87.8861C99.4497 87.6902 99.7269 87.6902 99.7906 87.8861L100.257 89.3209C100.285 89.4085 100.367 89.4678 100.459 89.4678H101.968C102.174 89.4678 102.259 89.7314 102.093 89.8525L100.872 90.7392C100.798 90.7934 100.766 90.8894 100.795 90.977L101.261 92.4117C101.325 92.6077 101.1 92.7706 100.934 92.6495L99.7133 91.7628C99.6388 91.7086 99.5378 91.7086 99.4633 91.7628L98.2428 92.6495C98.0762 92.7706 97.8519 92.6077 97.9156 92.4117L98.3818 90.977C98.4102 90.8894 98.3791 90.7934 98.3045 90.7392L97.0841 89.8525C96.9174 89.7314 97.003 89.4678 97.2091 89.4678H98.7176C98.8098 89.4678 98.8914 89.4085 98.9199 89.3209L99.3861 87.8861Z" fill="white"/>
<rect x="70.8828" y="96.834" width="38.2784" height="2.3924" rx="1.1962" fill="#D2DDE5"/>
<rect x="70.8828" y="106.391" width="38.2784" height="1.59493" rx="0.797467" fill="#85A3B9"/>
<rect x="70.8828" y="101.416" width="29.5063" height="2.78" rx="1.39" fill="#B6C8D5"/>
<g filter="url(#filter1_b_1332_15360)">
<rect x="142.602" y="41.6816" width="100" height="34" rx="4.43828" fill="#396A8D" fill-opacity="0.54"/>
</g>
<path fill-rule="evenodd" clip-rule="evenodd" d="M159.158 53.0509C159.158 54.2895 158.154 55.3029 156.926 55.3029C155.698 55.3029 154.693 54.2895 154.693 53.0509C154.693 51.8123 155.698 50.7988 156.926 50.7988C158.154 50.7988 159.158 51.8123 159.158 53.0509ZM159.828 60.9894L163.724 54.6949C164.181 53.963 165.242 53.9967 165.655 54.7512L171.102 64.8967C171.504 65.6511 170.968 66.5632 170.12 66.5632H150.463C150.268 66.5643 150.076 66.5133 149.907 66.4154C149.738 66.3175 149.597 66.1762 149.5 66.0057C149.402 65.8353 149.351 65.6419 149.352 65.4451C149.352 65.2484 149.404 65.0553 149.503 64.8854L152.941 58.7148C153.02 58.5719 153.129 58.4482 153.261 58.3523C153.393 58.2563 153.543 58.1905 153.703 58.1594C153.862 58.1284 154.027 58.1327 154.184 58.1722C154.342 58.2118 154.489 58.2855 154.615 58.3883L158.187 61.2709C158.701 61.6875 159.471 61.5637 159.828 60.9894Z" fill="url(#paint2_linear_1332_15360)"/>
<path d="M179.886 47.8861C179.95 47.6902 180.227 47.6902 180.291 47.8861L180.757 49.3209C180.785 49.4085 180.867 49.4678 180.959 49.4678H182.468C182.674 49.4678 182.759 49.7314 182.593 49.8525L181.372 50.7392C181.298 50.7934 181.266 50.8894 181.295 50.977L181.761 52.4117C181.825 52.6077 181.6 52.7706 181.434 52.6495L180.213 51.7628C180.139 51.7086 180.038 51.7086 179.963 51.7628L178.743 52.6495C178.576 52.7706 178.352 52.6077 178.416 52.4117L178.882 50.977C178.91 50.8894 178.879 50.7934 178.805 50.7392L177.584 49.8525C177.417 49.7314 177.503 49.4678 177.709 49.4678H179.218C179.31 49.4678 179.391 49.4085 179.42 49.3209L179.886 47.8861Z" fill="white"/>
<path d="M186.269 47.8861C186.333 47.6902 186.61 47.6902 186.673 47.8861L187.14 49.3209C187.168 49.4085 187.25 49.4678 187.342 49.4678H188.85C189.056 49.4678 189.142 49.7314 188.975 49.8525L187.755 50.7392C187.68 50.7934 187.649 50.8894 187.678 50.977L188.144 52.4117C188.207 52.6077 187.983 52.7706 187.817 52.6495L186.596 51.7628C186.522 51.7086 186.421 51.7086 186.346 51.7628L185.126 52.6495C184.959 52.7706 184.735 52.6077 184.798 52.4117L185.265 50.977C185.293 50.8894 185.262 50.7934 185.187 50.7392L183.967 49.8525C183.8 49.7314 183.886 49.4678 184.092 49.4678H185.6C185.693 49.4678 185.774 49.4085 185.803 49.3209L186.269 47.8861Z" fill="white"/>
<path d="M192.644 47.8861C192.708 47.6902 192.985 47.6902 193.048 47.8861L193.515 49.3209C193.543 49.4085 193.625 49.4678 193.717 49.4678H195.225C195.431 49.4678 195.517 49.7314 195.35 49.8525L194.13 50.7392C194.055 50.7934 194.024 50.8894 194.053 50.977L194.519 52.4117C194.582 52.6077 194.358 52.7706 194.192 52.6495L192.971 51.7628C192.897 51.7086 192.796 51.7086 192.721 51.7628L191.501 52.6495C191.334 52.7706 191.11 52.6077 191.173 52.4117L191.64 50.977C191.668 50.8894 191.637 50.7934 191.562 50.7392L190.342 49.8525C190.175 49.7314 190.261 49.4678 190.467 49.4678H191.975C192.068 49.4678 192.149 49.4085 192.178 49.3209L192.644 47.8861Z" fill="white"/>
<path d="M199.027 47.8861C199.09 47.6902 199.368 47.6902 199.431 47.8861L199.897 49.3209C199.926 49.4085 200.007 49.4678 200.1 49.4678H201.608C201.814 49.4678 201.9 49.7314 201.733 49.8525L200.513 50.7392C200.438 50.7934 200.407 50.8894 200.435 50.977L200.902 52.4117C200.965 52.6077 200.741 52.7706 200.574 52.6495L199.354 51.7628C199.279 51.7086 199.178 51.7086 199.104 51.7628L197.883 52.6495C197.717 52.7706 197.493 52.6077 197.556 52.4117L198.022 50.977C198.051 50.8894 198.02 50.7934 197.945 50.7392L196.725 49.8525C196.558 49.7314 196.644 49.4678 196.85 49.4678H198.358C198.45 49.4678 198.532 49.4085 198.561 49.3209L199.027 47.8861Z" fill="white"/>
<path d="M205.402 47.8861C205.465 47.6902 205.743 47.6902 205.806 47.8861L206.272 49.3209C206.301 49.4085 206.382 49.4678 206.475 49.4678H207.983C208.189 49.4678 208.275 49.7314 208.108 49.8525L206.888 50.7392C206.813 50.7934 206.782 50.8894 206.81 50.977L207.277 52.4117C207.34 52.6077 207.116 52.7706 206.949 52.6495L205.729 51.7628C205.654 51.7086 205.553 51.7086 205.479 51.7628L204.258 52.6495C204.092 52.7706 203.868 52.6077 203.931 52.4117L204.397 50.977C204.426 50.8894 204.395 50.7934 204.32 50.7392L203.1 49.8525C202.933 49.7314 203.019 49.4678 203.225 49.4678H204.733C204.825 49.4678 204.907 49.4085 204.936 49.3209L205.402 47.8861Z" fill="white"/>
<rect x="176.898" y="56.834" width="38.2784" height="2.3924" rx="1.1962" fill="#D2DDE5"/>
<rect x="176.898" y="66.3906" width="38.2784" height="1.59493" rx="0.797467" fill="#85A3B9"/>
<rect x="176.898" y="61.416" width="29.5063" height="2.78" rx="1.39" fill="#B6C8D5"/>
<g filter="url(#filter2_b_1332_15360)">
<rect x="142.602" y="81.6816" width="100" height="34" rx="4.43828" fill="#396A8D" fill-opacity="0.54"/>
</g>
<path fill-rule="evenodd" clip-rule="evenodd" d="M159.158 93.0528C159.158 94.2915 158.154 95.3049 156.926 95.3049C155.698 95.3049 154.693 94.2915 154.693 93.0528C154.693 91.8142 155.698 90.8008 156.926 90.8008C158.154 90.8008 159.158 91.8142 159.158 93.0528ZM159.828 100.991L163.724 94.6968C164.181 93.9649 165.242 93.9987 165.655 94.7531L171.102 104.899C171.504 105.653 170.968 106.565 170.12 106.565H150.463C150.268 106.566 150.076 106.515 149.907 106.417C149.738 106.319 149.597 106.178 149.5 106.008C149.402 105.837 149.351 105.644 149.352 105.447C149.352 105.25 149.404 105.057 149.503 104.887L152.941 98.7168C153.02 98.5739 153.129 98.4501 153.261 98.3542C153.393 98.2583 153.543 98.1925 153.703 98.1614C153.862 98.1303 154.027 98.1347 154.184 98.1742C154.342 98.2137 154.489 98.2874 154.615 98.3902L158.187 101.273C158.701 101.689 159.471 101.566 159.828 100.991Z" fill="url(#paint3_linear_1332_15360)"/>
<path d="M179.886 87.8861C179.95 87.6902 180.227 87.6902 180.291 87.8861L180.757 89.3209C180.785 89.4085 180.867 89.4678 180.959 89.4678H182.468C182.674 89.4678 182.759 89.7314 182.593 89.8525L181.372 90.7392C181.298 90.7934 181.266 90.8894 181.295 90.977L181.761 92.4117C181.825 92.6077 181.6 92.7706 181.434 92.6495L180.213 91.7628C180.139 91.7086 180.038 91.7086 179.963 91.7628L178.743 92.6495C178.576 92.7706 178.352 92.6077 178.416 92.4117L178.882 90.977C178.91 90.8894 178.879 90.7934 178.805 90.7392L177.584 89.8525C177.417 89.7314 177.503 89.4678 177.709 89.4678H179.218C179.31 89.4678 179.391 89.4085 179.42 89.3209L179.886 87.8861Z" fill="white"/>
<path d="M186.269 87.8861C186.333 87.6902 186.61 87.6902 186.673 87.8861L187.14 89.3209C187.168 89.4085 187.25 89.4678 187.342 89.4678H188.85C189.056 89.4678 189.142 89.7314 188.975 89.8525L187.755 90.7392C187.68 90.7934 187.649 90.8894 187.678 90.977L188.144 92.4117C188.207 92.6077 187.983 92.7706 187.817 92.6495L186.596 91.7628C186.522 91.7086 186.421 91.7086 186.346 91.7628L185.126 92.6495C184.959 92.7706 184.735 92.6077 184.798 92.4117L185.265 90.977C185.293 90.8894 185.262 90.7934 185.187 90.7392L183.967 89.8525C183.8 89.7314 183.886 89.4678 184.092 89.4678H185.6C185.693 89.4678 185.774 89.4085 185.803 89.3209L186.269 87.8861Z" fill="white"/>
<path d="M192.644 87.8861C192.708 87.6902 192.985 87.6902 193.048 87.8861L193.515 89.3209C193.543 89.4085 193.625 89.4678 193.717 89.4678H195.225C195.431 89.4678 195.517 89.7314 195.35 89.8525L194.13 90.7392C194.055 90.7934 194.024 90.8894 194.053 90.977L194.519 92.4117C194.582 92.6077 194.358 92.7706 194.192 92.6495L192.971 91.7628C192.897 91.7086 192.796 91.7086 192.721 91.7628L191.501 92.6495C191.334 92.7706 191.11 92.6077 191.173 92.4117L191.64 90.977C191.668 90.8894 191.637 90.7934 191.562 90.7392L190.342 89.8525C190.175 89.7314 190.261 89.4678 190.467 89.4678H191.975C192.068 89.4678 192.149 89.4085 192.178 89.3209L192.644 87.8861Z" fill="white"/>
<path d="M199.027 87.8861C199.09 87.6902 199.368 87.6902 199.431 87.8861L199.897 89.3209C199.926 89.4085 200.007 89.4678 200.1 89.4678H201.608C201.814 89.4678 201.9 89.7314 201.733 89.8525L200.513 90.7392C200.438 90.7934 200.407 90.8894 200.435 90.977L200.902 92.4117C200.965 92.6077 200.741 92.7706 200.574 92.6495L199.354 91.7628C199.279 91.7086 199.178 91.7086 199.104 91.7628L197.883 92.6495C197.717 92.7706 197.493 92.6077 197.556 92.4117L198.022 90.977C198.051 90.8894 198.02 90.7934 197.945 90.7392L196.725 89.8525C196.558 89.7314 196.644 89.4678 196.85 89.4678H198.358C198.45 89.4678 198.532 89.4085 198.561 89.3209L199.027 87.8861Z" fill="white"/>
<path d="M205.402 87.8861C205.465 87.6902 205.743 87.6902 205.806 87.8861L206.272 89.3209C206.301 89.4085 206.382 89.4678 206.475 89.4678H207.983C208.189 89.4678 208.275 89.7314 208.108 89.8525L206.888 90.7392C206.813 90.7934 206.782 90.8894 206.81 90.977L207.277 92.4117C207.34 92.6077 207.116 92.7706 206.949 92.6495L205.729 91.7628C205.654 91.7086 205.553 91.7086 205.479 91.7628L204.258 92.6495C204.092 92.7706 203.868 92.6077 203.931 92.4117L204.397 90.977C204.426 90.8894 204.395 90.7934 204.32 90.7392L203.1 89.8525C202.933 89.7314 203.019 89.4678 203.225 89.4678H204.733C204.825 89.4678 204.907 89.4085 204.936 89.3209L205.402 87.8861Z" fill="white"/>
<rect x="176.898" y="96.834" width="38.2784" height="2.3924" rx="1.1962" fill="#D2DDE5"/>
<rect x="176.898" y="106.391" width="38.2784" height="1.59493" rx="0.797467" fill="#85A3B9"/>
<rect x="176.898" y="101.416" width="29.5063" height="2.78" rx="1.39" fill="#B6C8D5"/>
<g filter="url(#filter3_b_1332_15360)">
<rect x="36.6016" y="41.6816" width="100" height="34" rx="4.43828" fill="#396A8D" fill-opacity="0.54"/>
</g>
<path fill-rule="evenodd" clip-rule="evenodd" d="M50.9083 53.0509C50.9083 54.2895 49.9037 55.3029 48.6758 55.3029C47.448 55.3029 46.4434 54.2895 46.4434 53.0509C46.4434 51.8123 47.448 50.7988 48.6758 50.7988C49.9037 50.7988 50.9083 51.8123 50.9083 53.0509ZM51.5781 60.9894L55.4737 54.6949C55.9314 53.963 56.9918 53.9967 57.4048 54.7512L62.8521 64.8967C63.2539 65.6511 62.7181 66.5632 61.8698 66.5632H42.2128C42.0178 66.5643 41.8259 66.5133 41.6567 66.4154C41.4875 66.3175 41.3471 66.1762 41.2495 66.0057C41.152 65.8353 41.101 65.6419 41.1016 65.4451C41.1022 65.2484 41.1544 65.0553 41.2529 64.8854L44.6909 58.7148C44.7702 58.5719 44.8795 58.4482 45.0111 58.3523C45.1427 58.2563 45.2935 58.1905 45.4529 58.1594C45.6123 58.1284 45.7765 58.1327 45.9341 58.1722C46.0917 58.2118 46.2388 58.2855 46.3652 58.3883L49.9372 61.2709C50.4507 61.6875 51.2209 61.5637 51.5781 60.9894Z" fill="url(#paint4_linear_1332_15360)"/>
<path d="M73.8782 47.8861C73.9419 47.6902 74.2191 47.6902 74.2827 47.8861L74.7489 49.3209C74.7774 49.4085 74.859 49.4678 74.9512 49.4678H76.4597C76.6658 49.4678 76.7514 49.7314 76.5847 49.8525L75.3643 50.7392C75.2897 50.7934 75.2586 50.8894 75.287 50.977L75.7532 52.4117C75.8169 52.6077 75.5926 52.7706 75.426 52.6495L74.2055 51.7628C74.131 51.7086 74.03 51.7086 73.9555 51.7628L72.735 52.6495C72.5684 52.7706 72.3441 52.6077 72.4078 52.4117L72.874 50.977C72.9024 50.8894 72.8712 50.7934 72.7967 50.7392L71.5762 49.8525C71.4096 49.7314 71.4952 49.4678 71.7012 49.4678H73.2098C73.3019 49.4678 73.3836 49.4085 73.4121 49.3209L73.8782 47.8861Z" fill="white"/>
<path d="M80.2611 47.8861C80.3247 47.6902 80.6019 47.6902 80.6656 47.8861L81.1317 49.3209C81.1602 49.4085 81.2419 49.4678 81.334 49.4678H82.8426C83.0486 49.4678 83.1342 49.7314 82.9676 49.8525L81.7471 50.7392C81.6726 50.7934 81.6414 50.8894 81.6698 50.977L82.136 52.4117C82.1997 52.6077 81.9754 52.7706 81.8088 52.6495L80.5883 51.7628C80.5138 51.7086 80.4128 51.7086 80.3383 51.7628L79.1178 52.6495C78.9512 52.7706 78.7269 52.6077 78.7906 52.4117L79.2568 50.977C79.2852 50.8894 79.2541 50.7934 79.1795 50.7392L77.9591 49.8525C77.7924 49.7314 77.878 49.4678 78.0841 49.4678H79.5926C79.6848 49.4678 79.7664 49.4085 79.7949 49.3209L80.2611 47.8861Z" fill="white"/>
<path d="M86.6361 47.8861C86.6997 47.6902 86.9769 47.6902 87.0406 47.8861L87.5067 49.3209C87.5352 49.4085 87.6169 49.4678 87.709 49.4678H89.2176C89.4236 49.4678 89.5092 49.7314 89.3426 49.8525L88.1221 50.7392C88.0476 50.7934 88.0164 50.8894 88.0448 50.977L88.511 52.4117C88.5747 52.6077 88.3504 52.7706 88.1838 52.6495L86.9633 51.7628C86.8888 51.7086 86.7878 51.7086 86.7133 51.7628L85.4928 52.6495C85.3262 52.7706 85.1019 52.6077 85.1656 52.4117L85.6318 50.977C85.6602 50.8894 85.6291 50.7934 85.5545 50.7392L84.3341 49.8525C84.1674 49.7314 84.253 49.4678 84.4591 49.4678H85.9676C86.0598 49.4678 86.1414 49.4085 86.1699 49.3209L86.6361 47.8861Z" fill="white"/>
<path d="M93.0189 47.8861C93.0825 47.6902 93.3597 47.6902 93.4234 47.8861L93.8895 49.3209C93.918 49.4085 93.9997 49.4678 94.0918 49.4678H95.6004C95.8064 49.4678 95.892 49.7314 95.7254 49.8525L94.5049 50.7392C94.4304 50.7934 94.3992 50.8894 94.4276 50.977L94.8938 52.4117C94.9575 52.6077 94.7332 52.7706 94.5666 52.6495L93.3461 51.7628C93.2716 51.7086 93.1707 51.7086 93.0961 51.7628L91.8757 52.6495C91.709 52.7706 91.4848 52.6077 91.5484 52.4117L92.0146 50.977C92.0431 50.8894 92.0119 50.7934 91.9373 50.7392L90.7169 49.8525C90.5502 49.7314 90.6359 49.4678 90.8419 49.4678H92.3504C92.4426 49.4678 92.5242 49.4085 92.5527 49.3209L93.0189 47.8861Z" fill="white"/>
<path d="M99.3939 47.8861C99.4575 47.6902 99.7347 47.6902 99.7984 47.8861L100.265 49.3209C100.293 49.4085 100.375 49.4678 100.467 49.4678H101.975C102.181 49.4678 102.267 49.7314 102.1 49.8525L100.88 50.7392C100.805 50.7934 100.774 50.8894 100.803 50.977L101.269 52.4117C101.332 52.6077 101.108 52.7706 100.942 52.6495L99.7211 51.7628C99.6466 51.7086 99.5457 51.7086 99.4711 51.7628L98.2507 52.6495C98.084 52.7706 97.8598 52.6077 97.9234 52.4117L98.3896 50.977C98.4181 50.8894 98.3869 50.7934 98.3123 50.7392L97.0919 49.8525C96.9252 49.7314 97.0109 49.4678 97.2169 49.4678H98.7254C98.8176 49.4678 98.8992 49.4085 98.9277 49.3209L99.3939 47.8861Z" fill="white"/>
<rect x="70.8906" y="56.834" width="38.2784" height="2.3924" rx="1.1962" fill="#D2DDE5"/>
<rect x="70.8906" y="66.3906" width="38.2784" height="1.59493" rx="0.797467" fill="#85A3B9"/>
<rect x="70.8906" y="61.416" width="29.5063" height="2.78" rx="1.39" fill="#B6C8D5"/>
<line x1="42" y1="31.5884" x2="238.828" y2="31.5884" stroke="#A8BECD" stroke-width="0.68264"/>
<circle cx="51.6754" cy="24.5347" r="1.7066" fill="#7C9DB4"/>
<circle cx="56.23" cy="24.5347" r="1.7066" fill="#7C9DB4"/>
<circle cx="60.7769" cy="24.5347" r="1.7066" fill="#7C9DB4"/>
</g>
<defs>
<filter id="filter0_b_1332_15360" x="20.9819" y="66.062" width="131.239" height="65.2393" filterUnits="userSpaceOnUse" color-interpolation-filters="sRGB">
<feFlood flood-opacity="0" result="BackgroundImageFix"/>
<feGaussianBlur in="BackgroundImageFix" stdDeviation="7.80982"/>
<feComposite in2="SourceAlpha" operator="in" result="effect1_backgroundBlur_1332_15360"/>
<feBlend mode="normal" in="SourceGraphic" in2="effect1_backgroundBlur_1332_15360" result="shape"/>
</filter>
<filter id="filter1_b_1332_15360" x="126.982" y="26.062" width="131.239" height="65.2393" filterUnits="userSpaceOnUse" color-interpolation-filters="sRGB">
<feFlood flood-opacity="0" result="BackgroundImageFix"/>
<feGaussianBlur in="BackgroundImageFix" stdDeviation="7.80982"/>
<feComposite in2="SourceAlpha" operator="in" result="effect1_backgroundBlur_1332_15360"/>
<feBlend mode="normal" in="SourceGraphic" in2="effect1_backgroundBlur_1332_15360" result="shape"/>
</filter>
<filter id="filter2_b_1332_15360" x="126.982" y="66.062" width="131.239" height="65.2393" filterUnits="userSpaceOnUse" color-interpolation-filters="sRGB">
<feFlood flood-opacity="0" result="BackgroundImageFix"/>
<feGaussianBlur in="BackgroundImageFix" stdDeviation="7.80982"/>
<feComposite in2="SourceAlpha" operator="in" result="effect1_backgroundBlur_1332_15360"/>
<feBlend mode="normal" in="SourceGraphic" in2="effect1_backgroundBlur_1332_15360" result="shape"/>
</filter>
<filter id="filter3_b_1332_15360" x="20.9819" y="26.062" width="131.239" height="65.2393" filterUnits="userSpaceOnUse" color-interpolation-filters="sRGB">
<feFlood flood-opacity="0" result="BackgroundImageFix"/>
<feGaussianBlur in="BackgroundImageFix" stdDeviation="7.80982"/>
<feComposite in2="SourceAlpha" operator="in" result="effect1_backgroundBlur_1332_15360"/>
<feBlend mode="normal" in="SourceGraphic" in2="effect1_backgroundBlur_1332_15360" result="shape"/>
</filter>
<linearGradient id="paint0_linear_1332_15360" x1="111.661" y1="-48" x2="235.079" y2="174.959" gradientUnits="userSpaceOnUse">
<stop offset="0.0064921" stop-color="#F0F5F8"/>
<stop offset="1" stop-color="#19527A"/>
</linearGradient>
<linearGradient id="paint1_linear_1332_15360" x1="51.9355" y1="90.8008" x2="51.9355" y2="106.565" gradientUnits="userSpaceOnUse">
<stop stop-color="white"/>
<stop offset="1" stop-color="white" stop-opacity="0"/>
</linearGradient>
<linearGradient id="paint2_linear_1332_15360" x1="160.295" y1="50.7988" x2="160.295" y2="66.5632" gradientUnits="userSpaceOnUse">
<stop stop-color="white"/>
<stop offset="1" stop-color="white" stop-opacity="0"/>
</linearGradient>
<linearGradient id="paint3_linear_1332_15360" x1="160.295" y1="90.8008" x2="160.295" y2="106.565" gradientUnits="userSpaceOnUse">
<stop stop-color="white"/>
<stop offset="1" stop-color="white" stop-opacity="0"/>
</linearGradient>
<linearGradient id="paint4_linear_1332_15360" x1="52.0449" y1="50.7988" x2="52.0449" y2="66.5632" gradientUnits="userSpaceOnUse">
<stop stop-color="white"/>
<stop offset="1" stop-color="white" stop-opacity="0"/>
</linearGradient>
</defs>
</svg>
